<?xml version="1.0" encoding="UTF-8" standalone="no"?>
<svg
   width="24"
   height="24"
   viewBox="0 0 24 24"
   fill="none"
   version="1.1"
   id="svg7"
   sodipodi:docname="add-row-line.svg"
   inkscape:version="1.1.1 (c3084ef, 2021-09-22)"
   xmlns:inkscape="http://www.inkscape.org/namespaces/inkscape"
   xmlns:sodipodi="http://sodipodi.sourceforge.net/DTD/sodipodi-0.dtd"
   xmlns="http://www.w3.org/2000/svg"
   xmlns:svg="http://www.w3.org/2000/svg"><defs
   id="defs11" />
<sodipodi:namedview
   id="namedview9"
   pagecolor="#ffffff"
   bordercolor="#666666"
   borderopacity="1.0"
   inkscape:pageshadow="2"
   inkscape:pageopacity="0.0"
   inkscape:pagecheckerboard="0"
   showgrid="false"
   inkscape:zoom="32.75"
   inkscape:cx="11.984733"
   inkscape:cy="12"
   inkscape:window-width="1296"
   inkscape:window-height="1067"
   inkscape:window-x="0"
   inkscape:window-y="25"
   inkscape:window-maximized="0"
   inkscape:current-layer="svg7" />
<path
   style="color:#000000;fill:#000000;stroke-linecap:round;stroke-linejoin:round;-inkscape-stroke:none"
   d="M 3,2 A 1,1 0 0 0 2,3 v 3 4 c 0,1.645023 1.3550102,3 3,3 h 4 6 4 c 1.645005,0 3,-1.354995 3,-3 V 6 3 A 1,1 0 0 0 21,2 1,1 0 0 0 20,3 V 5 H 16 V 3 A 1,1 0 0 0 15,2 1,1 0 0 0 14,3 V 5 H 10 V 3 A 1,1 0 0 0 9,2 1,1 0 0 0 8,3 V 5 H 4 V 3 A 1,1 0 0 0 3,2 Z m 1,5 h 4 v 4 H 5 C 4.435852,11 4,10.564175 4,10 Z m 6,0 h 4 v 4 h -4 z m 6,0 h 4 v 3 c 0,0.564193 -0.435807,1 -1,1 h -3 z"
   id="path2" />
<path
   style="color:#000000;fill:#000000;stroke-linecap:round;stroke-linejoin:round;-inkscape-stroke:none"
   d="m 12,14 a 1,1 0 0 0 -1,1 v 2 H 9 a 1,1 0 0 0 -1,1 1,1 0 0 0 1,1 h 2 v 2 a 1,1 0 0 0 1,1 1,1 0 0 0 1,-1 v -2 h 2 a 1,1 0 0 0 1,-1 1,1 0 0 0 -1,-1 h -2 v -2 a 1,1 0 0 0 -1,-1 z"
   id="path4" />
<path
   id="_StrokeToPathSelectorObject" />
d=&quot;M0 0 H 0&quot;/&gt;
    </svg>
