<?xml version="1.0" encoding="UTF-8" standalone="no"?>
<svg
   width="24"
   height="24"
   viewBox="0 0 24 24"
   fill="none"
   version="1.1"
   id="svg14"
   sodipodi:docname="airplane-flight-2-line.svg"
   inkscape:version="1.1.1 (c3084ef, 2021-09-22)"
   xmlns:inkscape="http://www.inkscape.org/namespaces/inkscape"
   xmlns:sodipodi="http://sodipodi.sourceforge.net/DTD/sodipodi-0.dtd"
   xmlns="http://www.w3.org/2000/svg"
   xmlns:svg="http://www.w3.org/2000/svg"><sodipodi:namedview
   id="namedview16"
   pagecolor="#ffffff"
   bordercolor="#666666"
   borderopacity="1.0"
   inkscape:pageshadow="2"
   inkscape:pageopacity="0.0"
   inkscape:pagecheckerboard="0"
   showgrid="false"
   inkscape:zoom="32.75"
   inkscape:cx="11.984733"
   inkscape:cy="12"
   inkscape:window-width="1296"
   inkscape:window-height="1067"
   inkscape:window-x="0"
   inkscape:window-y="25"
   inkscape:window-maximized="0"
   inkscape:current-layer="svg14" />
<g
   clip-path="url(#clip0_201_1239)"
   id="g6">
  <path
     style="color:#000000;fill:#000000;stroke-linecap:round;stroke-linejoin:round;-inkscape-stroke:none"
     d="m 20.027344,1.0488281 c -0.777173,0.1265146 -1.335753,0.5037134 -1.712891,0.8808594 l -1.447266,1.4472656 -4.195312,-0.28125 c -0.7038,-0.04692 -1.395803,0.2142296 -1.894531,0.7128907 -1.2571614,1.2572437 -0.729754,3.490489 0.957031,4.0527343 l 0.238281,0.080078 C 11.919972,7.9499435 11.882268,8 11.828125,8 H 10.414063 C 9.7741449,8 9.1594728,8.2546068 8.7070313,8.7070313 c -0.9344079,0.9344247 -0.9343975,2.4796307 0,3.4140627 l 1.8281247,1.828125 c 1.163214,1.163213 3.078974,1.163213 4.242188,0 l 0.394531,-0.394531 0.367188,0.808593 c 0.664441,1.461805 2.659485,1.822936 3.794921,0.6875 0.439729,-0.439728 0.6875,-1.036404 0.6875,-1.658203 V 9.1210938 c 0,-0.2656132 0.105163,-0.5192406 0.292969,-0.7070313 L 22.556641,6.171875 C 22.933746,5.7947615 23.310977,5.23616 23.4375,4.4589844 23.564023,3.6818087 23.318763,2.6917893 22.556641,1.9296875 21.794567,1.1675662 20.804516,0.92231357 20.027344,1.0488281 Z m 0.320312,1.9726563 c 0.236352,-0.038475 0.425697,-0.046982 0.794922,0.3222656 0.369277,0.369267 0.358789,0.5566254 0.320313,0.7929687 -0.03848,0.2363434 -0.226019,0.5267978 -0.320313,0.6210938 L 18.900391,7 c -0.562394,0.5623486 -0.878907,1.3258479 -0.878907,2.1210938 v 4.2714842 c 0,0.0922 -0.03649,0.17907 -0.101562,0.244141 -0.193763,0.193762 -0.447189,0.147831 -0.560547,-0.101563 l -0.962891,-2.121093 a 1.0001,1.0001 0 0 0 -1.61914,-0.292969 l -1.414063,1.414062 c -0.398985,0.398985 -1.015077,0.398985 -1.414062,0 l -1.828125,-1.828125 c -0.1701617,-0.170167 -0.1701513,-0.415783 0,-0.585937 C 10.199092,10.043099 10.303781,10 10.414063,10 h 1.414062 c 0.795293,0 1.558788,-0.3164801 2.121094,-0.8789062 L 14.777344,8.2929688 17.960937,5.1113281 19.728516,3.34375 c 0.09426,-0.094263 0.382789,-0.2837903 0.61914,-0.3222656 z M 12.539063,5.0917969 14.986328,5.2558594 13.800781,6.4414062 12.367188,5.9628906 C 12.011575,5.8443566 11.926369,5.487711 12.191406,5.2226562 c 0.09187,-0.091858 0.218057,-0.1394993 0.347657,-0.1308593 z"
     id="path2" />
  <path
     style="color:#000000;fill:#000000;stroke-linecap:round;stroke-linejoin:round;-inkscape-stroke:none"
     d="m 5.1386719,10.710938 a 1,1 0 0 0 -0.7402344,0.191406 c -1.2445584,0.937622 -2.4612756,2.094787 -3.2675781,3.505859 a 1,1 0 0 0 0.3730468,1.365235 1,1 0 0 0 1.3652344,-0.373047 C 3.4735367,14.342665 4.4967032,13.332376 5.6015625,12.5 A 1,1 0 0 0 5.7988281,11.099609 1,1 0 0 0 5.1386719,10.710938 Z m 1.1835937,3.480468 c -2.0431746,2.009736 -4.120669,4.676558 -5.2636719,7.876953 a 1,1 0 0 0 0.6054688,1.279297 1,1 0 0 0 1.2773438,-0.605469 c 1.001575,-2.804398 2.8901616,-5.26294 4.7832031,-7.124999 a 1,1 0 0 0 0.011719,-1.414063 1,1 0 0 0 -1.4140625,-0.01172 z m 4.1835934,1.8125 a 1,1 0 0 0 -0.6816402,0.34961 c -1.1549779,1.361299 -2.4279941,3.021959 -3.2187501,4.603515 a 1,1 0 0 0 0.4472657,1.341797 1,1 0 0 0 1.3417969,-0.447266 c 0.6514025,-1.302841 1.8560987,-2.90978 2.9550777,-4.205078 a 1,1 0 0 0 -0.115234,-1.408203 1,1 0 0 0 -0.728516,-0.234375 z"
     id="path4" />
</g>
<defs
   id="defs11">
  <clipPath
     id="clip0_201_1239">
    <rect
       width="24"
       height="24"
       fill="white"
       id="rect8" />
  </clipPath>
</defs>
<path
   id="_StrokeToPathSelectorObject" />
d=&quot;M0 0 H 0&quot;/&gt;
    </svg>
