<?xml version="1.0" encoding="UTF-8" standalone="no"?>
<svg
   width="24"
   height="24"
   viewBox="0 0 24 24"
   fill="none"
   version="1.1"
   id="svg5"
   sodipodi:docname="airplane-line.svg"
   inkscape:version="1.1.1 (c3084ef, 2021-09-22)"
   xmlns:inkscape="http://www.inkscape.org/namespaces/inkscape"
   xmlns:sodipodi="http://sodipodi.sourceforge.net/DTD/sodipodi-0.dtd"
   xmlns="http://www.w3.org/2000/svg"
   xmlns:svg="http://www.w3.org/2000/svg"><defs
   id="defs9" />
<sodipodi:namedview
   id="namedview7"
   pagecolor="#ffffff"
   bordercolor="#666666"
   borderopacity="1.0"
   inkscape:pageshadow="2"
   inkscape:pageopacity="0.0"
   inkscape:pagecheckerboard="0"
   showgrid="false"
   inkscape:zoom="32.75"
   inkscape:cx="11.984733"
   inkscape:cy="12"
   inkscape:window-width="1296"
   inkscape:window-height="1067"
   inkscape:window-x="0"
   inkscape:window-y="25"
   inkscape:window-maximized="0"
   inkscape:current-layer="svg5" />
<path
   style="color:#000000;fill:#000000;stroke-linecap:round;stroke-linejoin:round;-inkscape-stroke:none"
   d="M 9.6171875,4 C 8.1722297,4 7.1838748,5.6021246 7.8300781,6.8945312 L 8.3828125,8 H 6.6171875 L 6.1699219,7.1054687 C 5.8320889,6.4297828 5.1382395,6 4.3828125,6 H 2.515625 C 1.1160613,6 0.12642187,7.500707 0.67773437,8.7871094 L 2.8203125,13.787109 C 3.134389,14.519981 3.8628235,15 4.6601562,15 H 8.5234375 L 7.6191406,17.257812 C 7.1063513,18.539835 8.0958032,20 9.4765625,20 h 2.0429685 c 0.60685,0 1.183453,-0.276042 1.5625,-0.75 L 16.480469,15 H 20.5 C 22.421149,15 24,13.421149 24,11.5 24,9.5788514 22.421149,8 20.5,8 h -5 L 13.099609,4.8007812 C 12.7225,4.2980821 12.128628,4 11.5,4 Z m 0,2 H 11.5 L 13,8 H 10.617188 Z M 2.515625,8 H 4.3828125 L 4.8300781,8.8945313 C 5.1679111,9.5702172 5.8617605,10 6.6171875,10 H 10 h 5 5.5 c 0.840249,0 1.5,0.659751 1.5,1.5 0,0.840249 -0.659751,1.5 -1.5,1.5 h -4.019531 c -0.60685,0 -1.183453,0.276042 -1.5625,0.75 L 11.519531,18 H 9.4765625 L 10.380859,15.742188 C 10.893649,14.460165 9.9041968,13 8.5234375,13 H 4.6601562 Z"
   id="path2" />
<path
   id="_StrokeToPathSelectorObject" />
d=&quot;M0 0 H 0&quot;/&gt;
    </svg>
