<?xml version="1.0" encoding="UTF-8" standalone="no"?>
<svg
   width="24"
   height="24"
   viewBox="0 0 24 24"
   fill="none"
   version="1.1"
   id="svg9"
   sodipodi:docname="align-right-line.svg"
   inkscape:version="1.1.1 (c3084ef, 2021-09-22)"
   xmlns:inkscape="http://www.inkscape.org/namespaces/inkscape"
   xmlns:sodipodi="http://sodipodi.sourceforge.net/DTD/sodipodi-0.dtd"
   xmlns="http://www.w3.org/2000/svg"
   xmlns:svg="http://www.w3.org/2000/svg"><defs
   id="defs13" />
<sodipodi:namedview
   id="namedview11"
   pagecolor="#ffffff"
   bordercolor="#666666"
   borderopacity="1.0"
   inkscape:pageshadow="2"
   inkscape:pageopacity="0.0"
   inkscape:pagecheckerboard="0"
   showgrid="false"
   inkscape:zoom="32.75"
   inkscape:cx="11.984733"
   inkscape:cy="12"
   inkscape:window-width="1296"
   inkscape:window-height="1067"
   inkscape:window-x="0"
   inkscape:window-y="25"
   inkscape:window-maximized="0"
   inkscape:current-layer="svg9" />
<path
   style="color:#000000;fill:#000000;stroke-linecap:round;stroke-linejoin:round;-inkscape-stroke:none"
   d="m 20,2 a 1,1 0 0 0 -1,1 v 9 9 a 1,1 0 0 0 1,1 1,1 0 0 0 1,-1 V 12 3 A 1,1 0 0 0 20,2 Z"
   id="path2" />
<path
   style="color:#000000;fill:#000000;stroke-linecap:round;stroke-linejoin:round;-inkscape-stroke:none"
   d="M 6,5 C 4.3552989,5 3,6.3552989 3,8 c 0,1.6447011 1.3552989,3 3,3 h 9 c 1.644701,0 3,-1.3552989 3,-3 0,-1.6447011 -1.355299,-3 -3,-3 z m 0,2 h 9 c 0.571297,0 1,0.4287033 1,1 0,0.5712967 -0.428703,1 -1,1 H 6 C 5.4287033,9 5,8.5712967 5,8 5,7.4287033 5.4287033,7 6,7 Z"
   id="rect4" />
<path
   style="color:#000000;fill:#000000;stroke-linecap:round;stroke-linejoin:round;-inkscape-stroke:none"
   d="m 10,13 c -1.6447011,0 -3,1.355299 -3,3 0,1.644701 1.3552989,3 3,3 h 5 c 1.644701,0 3,-1.355299 3,-3 0,-1.644701 -1.355299,-3 -3,-3 z m 0,2 h 5 c 0.571297,0 1,0.428703 1,1 0,0.571297 -0.428703,1 -1,1 H 10 C 9.4287033,17 9,16.571297 9,16 9,15.428703 9.4287033,15 10,15 Z"
   id="rect6" />
<path
   id="_StrokeToPathSelectorObject" />
d=&quot;M0 0 H 0&quot;/&gt;
    </svg>
