<?xml version="1.0" encoding="UTF-8" standalone="no"?>
<svg
   width="24"
   height="24"
   viewBox="0 0 24 24"
   fill="none"
   version="1.1"
   id="svg9"
   sodipodi:docname="align-bottom-line.svg"
   inkscape:version="1.1.1 (c3084ef, 2021-09-22)"
   xmlns:inkscape="http://www.inkscape.org/namespaces/inkscape"
   xmlns:sodipodi="http://sodipodi.sourceforge.net/DTD/sodipodi-0.dtd"
   xmlns="http://www.w3.org/2000/svg"
   xmlns:svg="http://www.w3.org/2000/svg"><defs
   id="defs13" />
<sodipodi:namedview
   id="namedview11"
   pagecolor="#ffffff"
   bordercolor="#666666"
   borderopacity="1.0"
   inkscape:pageshadow="2"
   inkscape:pageopacity="0.0"
   inkscape:pagecheckerboard="0"
   showgrid="false"
   inkscape:zoom="32.75"
   inkscape:cx="11.984733"
   inkscape:cy="12"
   inkscape:window-width="1296"
   inkscape:window-height="1067"
   inkscape:window-x="0"
   inkscape:window-y="25"
   inkscape:window-maximized="0"
   inkscape:current-layer="svg9" />
<path
   style="color:#000000;fill:#000000;stroke-linecap:round;stroke-linejoin:round;-inkscape-stroke:none"
   d="m 3,19 a 1,1 0 0 0 -1,1 1,1 0 0 0 1,1 h 9 9 a 1,1 0 0 0 1,-1 1,1 0 0 0 -1,-1 h -9 z"
   id="path2" />
<path
   style="color:#000000;fill:#000000;stroke-linecap:round;stroke-linejoin:round;-inkscape-stroke:none"
   d="m 8,16 c -1.6447011,0 -3,1.355299 -3,3 0,1.644701 1.3552989,3 3,3 h 9 c 1.644701,0 3,-1.355299 3,-3 0,-1.644701 -1.355299,-3 -3,-3 z m 0,2 h 9 c 0.571297,0 1,0.428703 1,1 0,0.571297 -0.428703,1 -1,1 H 8 C 7.4287033,20 7,19.571297 7,19 7,18.428703 7.4287033,18 8,18 Z"
   id="rect4"
   transform="rotate(-90 6 17)" />
<path
   style="color:#000000;fill:#000000;stroke-linecap:round;stroke-linejoin:round;-inkscape-stroke:none"
   d="m 16,16 c -1.644701,0 -3,1.355299 -3,3 0,1.644701 1.355299,3 3,3 h 5 c 1.644701,0 3,-1.355299 3,-3 0,-1.644701 -1.355299,-3 -3,-3 z m 0,2 h 5 c 0.571297,0 1,0.428703 1,1 0,0.571297 -0.428703,1 -1,1 h -5 c -0.571297,0 -1,-0.428703 -1,-1 0,-0.571297 0.428703,-1 1,-1 z"
   id="rect6"
   transform="rotate(-90 14 17)" />
<path
   id="_StrokeToPathSelectorObject" />
d=&quot;M0 0 H 0&quot;/&gt;
    </svg>
