<?xml version="1.0" encoding="UTF-8" standalone="no"?>
<svg
   width="24"
   height="24"
   viewBox="0 0 24 24"
   fill="none"
   version="1.1"
   id="svg5"
   sodipodi:docname="align-vertical-center-line.svg"
   inkscape:version="1.1.1 (c3084ef, 2021-09-22)"
   xmlns:inkscape="http://www.inkscape.org/namespaces/inkscape"
   xmlns:sodipodi="http://sodipodi.sourceforge.net/DTD/sodipodi-0.dtd"
   xmlns="http://www.w3.org/2000/svg"
   xmlns:svg="http://www.w3.org/2000/svg"><defs
   id="defs9" />
<sodipodi:namedview
   id="namedview7"
   pagecolor="#ffffff"
   bordercolor="#666666"
   borderopacity="1.0"
   inkscape:pageshadow="2"
   inkscape:pageopacity="0.0"
   inkscape:pagecheckerboard="0"
   showgrid="false"
   inkscape:zoom="32.75"
   inkscape:cx="11.984733"
   inkscape:cy="12"
   inkscape:window-width="1296"
   inkscape:window-height="1067"
   inkscape:window-x="0"
   inkscape:window-y="25"
   inkscape:window-maximized="0"
   inkscape:current-layer="svg5" />
<path
   style="color:#000000;fill:#000000;stroke-linecap:round;stroke-linejoin:round;-inkscape-stroke:none"
   d="M 8,3 C 6.3549921,3 5,4.3549921 5,6 v 5 H 3 a 1,1 0 0 0 -1,1 1,1 0 0 0 1,1 h 2 v 5 c 0,1.645023 1.3550102,3 3,3 1.6449898,0 3,-1.354977 3,-3 v -5 h 2 v 2 c 0,1.645005 1.354995,3 3,3 1.645005,0 3,-1.354995 3,-3 v -2 h 2 a 1,1 0 0 0 1,-1 1,1 0 0 0 -1,-1 H 19 V 9 C 19,7.3550102 17.645023,6 16,6 14.354977,6 13,7.3550102 13,9 v 2 H 11 V 6 C 11,4.3549921 9.6450079,3 8,3 Z m 0,2 c 0.5641299,0 1,0.4358701 1,1 v 6 6 C 9,18.564175 8.564148,19 8,19 7.435852,19 7,18.564175 7,18 V 12 6 C 7,5.4358701 7.4358701,5 8,5 Z m 8,3 c 0.564175,0 1,0.435852 1,1 v 3 3 c 0,0.564193 -0.435807,1 -1,1 -0.564193,0 -1,-0.435807 -1,-1 V 12 9 c 0,-0.564148 0.435825,-1 1,-1 z"
   id="path2" />
<path
   id="_StrokeToPathSelectorObject" />
d=&quot;M0 0 H 0&quot;/&gt;
    </svg>
