<?xml version="1.0" encoding="UTF-8" standalone="no"?>
<svg
   width="24"
   height="24"
   viewBox="0 0 24 24"
   fill="none"
   version="1.1"
   id="svg7"
   sodipodi:docname="analytics-restricted-line.svg"
   inkscape:version="1.1.1 (c3084ef, 2021-09-22)"
   xmlns:inkscape="http://www.inkscape.org/namespaces/inkscape"
   xmlns:sodipodi="http://sodipodi.sourceforge.net/DTD/sodipodi-0.dtd"
   xmlns="http://www.w3.org/2000/svg"
   xmlns:svg="http://www.w3.org/2000/svg"><defs
   id="defs11" />
<sodipodi:namedview
   id="namedview9"
   pagecolor="#ffffff"
   bordercolor="#666666"
   borderopacity="1.0"
   inkscape:pageshadow="2"
   inkscape:pageopacity="0.0"
   inkscape:pagecheckerboard="0"
   showgrid="false"
   inkscape:zoom="32.75"
   inkscape:cx="11.984733"
   inkscape:cy="12"
   inkscape:window-width="1296"
   inkscape:window-height="1067"
   inkscape:window-x="0"
   inkscape:window-y="25"
   inkscape:window-maximized="0"
   inkscape:current-layer="svg7" />
<path
   style="color:#000000;fill:#000000;stroke-linecap:round;stroke-linejoin:round;-inkscape-stroke:none"
   d="M 6,3 C 4.3549921,3 3,4.3549921 3,6 v 12 c 0,1.645023 1.3550102,3 3,3 h 12 c 1.645005,0 3,-1.354995 3,-3 v -6 a 1,1 0 0 0 -1,-1 1,1 0 0 0 -1,1 v 6 c 0,0.564193 -0.435807,1 -1,1 H 6 C 5.435852,19 5,18.564175 5,18 V 6 C 5,5.4358701 5.4358701,5 6,5 h 6 A 1,1 0 0 0 13,4 1,1 0 0 0 12,3 Z m 6,4 a 1,1 0 0 0 -1,1 v 8 a 1,1 0 0 0 1,1 1,1 0 0 0 1,-1 V 8 A 1,1 0 0 0 12,7 Z m -4,3 a 1,1 0 0 0 -1,1 v 5 a 1,1 0 0 0 1,1 1,1 0 0 0 1,-1 V 11 A 1,1 0 0 0 8,10 Z m 8,3 a 1,1 0 0 0 -1,1 v 2 a 1,1 0 0 0 1,1 1,1 0 0 0 1,-1 v -2 a 1,1 0 0 0 -1,-1 z"
   id="path2" />
<path
   style="color:#000000;fill:#000000;stroke-linecap:round;stroke-linejoin:round;-inkscape-stroke:none"
   d="M 18.5,1 C 17.263282,1 16.131585,1.5051595 15.318359,2.3183594 14.505268,3.1315404 14,4.2632477 14,5.5 14,7.9734355 16.026564,10 18.5,10 19.736718,10 20.868415,9.4948405 21.681641,8.6816406 22.494732,7.8684596 23,6.7367523 23,5.5 23,3.0265645 20.973436,1 18.5,1 Z m 0,2 C 19.892561,3 21,4.1074394 21,5.5 21,5.8023897 20.778279,6.0017695 20.681641,6.2675781 L 19.207031,4.7929687 17.732422,3.3183594 C 17.998226,3.2217271 18.197595,3 18.5,3 Z m -2.181641,1.7324219 1.47461,1.4746093 1.474609,1.4746094 C 19.001774,7.7782729 18.802405,8 18.5,8 17.107439,8 16,6.8925606 16,5.5 16,5.1976103 16.221721,4.9982305 16.318359,4.7324219 Z"
   id="path4" />
<path
   id="_StrokeToPathSelectorObject" />
d=&quot;M0 0 H 0&quot;/&gt;
    </svg>
