<?xml version="1.0" encoding="UTF-8" standalone="no"?>
<svg
   width="24"
   height="24"
   viewBox="0 0 24 24"
   fill="none"
   version="1.1"
   id="svg7"
   sodipodi:docname="arrows-expand-full-line.svg"
   inkscape:version="1.1.1 (c3084ef, 2021-09-22)"
   xmlns:inkscape="http://www.inkscape.org/namespaces/inkscape"
   xmlns:sodipodi="http://sodipodi.sourceforge.net/DTD/sodipodi-0.dtd"
   xmlns="http://www.w3.org/2000/svg"
   xmlns:svg="http://www.w3.org/2000/svg"><defs
   id="defs11" />
<sodipodi:namedview
   id="namedview9"
   pagecolor="#ffffff"
   bordercolor="#666666"
   borderopacity="1.0"
   inkscape:pageshadow="2"
   inkscape:pageopacity="0.0"
   inkscape:pagecheckerboard="0"
   showgrid="false"
   inkscape:zoom="32.75"
   inkscape:cx="11.984733"
   inkscape:cy="12"
   inkscape:window-width="1296"
   inkscape:window-height="1067"
   inkscape:window-x="0"
   inkscape:window-y="25"
   inkscape:window-maximized="0"
   inkscape:current-layer="svg7" />
<path
   style="color:#000000;fill:#000000;stroke-linecap:round;stroke-linejoin:round;-inkscape-stroke:none"
   d="M 5,4 A 1,1 0 0 0 4.2929687,4.2929687 1,1 0 0 0 4,5 V 9 A 1,1 0 0 0 5,10 1,1 0 0 0 6,9 V 7.4140625 l 2.2929688,2.2929688 a 1,1 0 0 0 1.4140625,0 1,1 0 0 0 0,-1.4140625 L 7.4140625,6 H 9 A 1,1 0 0 0 10,5 1,1 0 0 0 9,4 Z m 10,10 a 1,1 0 0 0 -0.707031,0.292969 1,1 0 0 0 0,1.414062 L 16.585937,18 H 15 a 1,1 0 0 0 -1,1 1,1 0 0 0 1,1 h 4 A 1,1 0 0 0 19.707031,19.707031 1,1 0 0 0 20,19 v -4 a 1,1 0 0 0 -1,-1 1,1 0 0 0 -1,1 v 1.585937 L 15.707031,14.292969 A 1,1 0 0 0 15,14 Z"
   id="path2" />
<path
   style="color:#000000;fill:#000000;stroke-linecap:round;stroke-linejoin:round;-inkscape-stroke:none"
   d="m 15,4 a 1,1 0 0 0 -1,1 1,1 0 0 0 1,1 h 1.585937 l -2.292968,2.2929688 a 1,1 0 0 0 0,1.4140625 1,1 0 0 0 1.414062,0 L 18,7.4140625 V 9 a 1,1 0 0 0 1,1 1,1 0 0 0 1,-1 V 5 A 1,1 0 0 0 19.966797,4.8339844 1,1 0 0 0 19.939453,4.6914062 1,1 0 0 0 19.707031,4.2929687 1,1 0 0 0 19,4 Z M 5,14 a 1,1 0 0 0 -1,1 v 4 A 1,1 0 0 0 4.2929687,19.707031 1,1 0 0 0 5,20 H 9 A 1,1 0 0 0 10,19 1,1 0 0 0 9,18 H 7.4140625 l 2.2929688,-2.292969 a 1,1 0 0 0 0,-1.414062 1,1 0 0 0 -1.4140625,0 L 6,16.585937 V 15 A 1,1 0 0 0 5,14 Z"
   id="path4" />
<path
   id="_StrokeToPathSelectorObject" />
d=&quot;M0 0 H 0&quot;/&gt;
    </svg>
