<?xml version="1.0" encoding="UTF-8" standalone="no"?>
<svg
   width="24"
   height="24"
   viewBox="0 0 24 24"
   fill="none"
   version="1.1"
   id="svg7"
   sodipodi:docname="article-search-line.svg"
   inkscape:version="1.1.1 (c3084ef, 2021-09-22)"
   xmlns:inkscape="http://www.inkscape.org/namespaces/inkscape"
   xmlns:sodipodi="http://sodipodi.sourceforge.net/DTD/sodipodi-0.dtd"
   xmlns="http://www.w3.org/2000/svg"
   xmlns:svg="http://www.w3.org/2000/svg"><defs
   id="defs11" />
<sodipodi:namedview
   id="namedview9"
   pagecolor="#ffffff"
   bordercolor="#666666"
   borderopacity="1.0"
   inkscape:pageshadow="2"
   inkscape:pageopacity="0.0"
   inkscape:pagecheckerboard="0"
   showgrid="false"
   inkscape:zoom="32.75"
   inkscape:cx="11.984733"
   inkscape:cy="12"
   inkscape:window-width="1296"
   inkscape:window-height="1067"
   inkscape:window-x="0"
   inkscape:window-y="25"
   inkscape:window-maximized="0"
   inkscape:current-layer="svg7" />
<path
   style="color:#000000;fill:#000000;stroke-linecap:round;stroke-linejoin:round;-inkscape-stroke:none"
   d="M 5,3 C 3.3549921,3 2,4.3549921 2,6 v 12 c 0,1.645023 1.3550102,3 3,3 h 7 a 1,1 0 0 0 1,-1 1,1 0 0 0 -1,-1 H 5 C 4.435852,19 4,18.564175 4,18 V 6 C 4,5.4358701 4.4358701,5 5,5 h 14 c 0.564175,0 1,0.435852 1,1 v 6 a 1,1 0 0 0 1,1 1,1 0 0 0 1,-1 V 6 C 22,4.3550102 20.645023,3 19,3 Z M 7,7 A 1.0001,1.0001 0 0 0 6,8 v 4 a 1.0001,1.0001 0 0 0 1,1 h 4 a 1.0001,1.0001 0 0 0 1,-1 V 8 A 1.0001,1.0001 0 0 0 11,7 Z m 8,0 a 1,1 0 0 0 -1,1 1,1 0 0 0 1,1 h 2 A 1,1 0 0 0 18,8 1,1 0 0 0 17,7 Z M 8,9 h 2 v 2 H 8 Z m 7,2 a 1,1 0 0 0 -1,1 1,1 0 0 0 1,1 h 2 a 1,1 0 0 0 1,-1 1,1 0 0 0 -1,-1 z m -8,4 a 1,1 0 0 0 -1,1 1,1 0 0 0 1,1 h 5 a 1,1 0 0 0 1,-1 1,1 0 0 0 -1,-1 z"
   id="path2" />
<path
   style="color:#000000;fill:#000000;stroke-linecap:round;stroke-linejoin:round;-inkscape-stroke:none"
   d="m 17.5,14 c -1.921149,0 -3.5,1.578851 -3.5,3.5 0,1.921149 1.578851,3.5 3.5,3.5 0.596004,0 1.134269,-0.191213 1.628906,-0.457031 l 1.164063,1.164062 a 1,1 0 0 0 1.414062,0 1,1 0 0 0 0,-1.414062 L 20.542969,19.128906 C 20.808787,18.634269 21,18.096004 21,17.5 21,15.578851 19.421149,14 17.5,14 Z m 0,2 c 0.840249,0 1.5,0.659751 1.5,1.5 0,0.420218 -0.166904,0.787998 -0.439453,1.060547 C 18.287998,18.833096 17.920218,19 17.5,19 16.659751,19 16,18.340249 16,17.5 16,16.659751 16.659751,16 17.5,16 Z"
   id="path4" />
<path
   id="_StrokeToPathSelectorObject" />
d=&quot;M0 0 H 0&quot;/&gt;
    </svg>
