<?xml version="1.0" encoding="UTF-8" standalone="no"?>
<svg
   width="24"
   height="24"
   viewBox="0 0 24 24"
   fill="none"
   version="1.1"
   id="svg7"
   sodipodi:docname="award-line.svg"
   inkscape:version="1.1.1 (c3084ef, 2021-09-22)"
   xmlns:inkscape="http://www.inkscape.org/namespaces/inkscape"
   xmlns:sodipodi="http://sodipodi.sourceforge.net/DTD/sodipodi-0.dtd"
   xmlns="http://www.w3.org/2000/svg"
   xmlns:svg="http://www.w3.org/2000/svg"><defs
   id="defs11" />
<sodipodi:namedview
   id="namedview9"
   pagecolor="#ffffff"
   bordercolor="#666666"
   borderopacity="1.0"
   inkscape:pageshadow="2"
   inkscape:pageopacity="0.0"
   inkscape:pagecheckerboard="0"
   showgrid="false"
   inkscape:zoom="32.75"
   inkscape:cx="11.984733"
   inkscape:cy="12"
   inkscape:window-width="1296"
   inkscape:window-height="1067"
   inkscape:window-x="0"
   inkscape:window-y="25"
   inkscape:window-maximized="0"
   inkscape:current-layer="svg7" />
<path
   style="color:#000000;fill:#000000;stroke-linecap:round;stroke-linejoin:round;-inkscape-stroke:none"
   d="M 12,1 C 7.593571,1 4,4.593571 4,9 c 0,4.406429 3.593571,8 8,8 4.406429,0 8,-3.593571 8,-8 0,-4.406429 -3.593571,-8 -8,-8 z m 0,2 c 3.32555,0 6,2.6744502 6,6 0,3.32555 -2.67445,6 -6,6 C 8.6744502,15 6,12.32555 6,9 6,5.6744502 8.6744502,3 12,3 Z"
   id="circle2" />
<path
   style="color:#000000;fill:#000000;stroke-linecap:round;stroke-linejoin:round;-inkscape-stroke:none"
   d="m 7,13 a 1,1 0 0 0 -1,1 v 6.234375 c 0,1.504577 1.739133,2.488907 3.0292969,1.714844 L 12,20.166016 14.970703,21.949219 C 16.260869,22.723318 18,21.738977 18,20.234375 V 14 a 1,1 0 0 0 -1,-1 1,1 0 0 0 -1,1 v 6.234375 l -2.970703,-1.783203 c -0.631728,-0.378997 -1.426866,-0.378997 -2.058594,0 L 8,20.234375 V 14 A 1,1 0 0 0 7,13 Z"
   id="path4" />
<path
   id="_StrokeToPathSelectorObject" />
d=&quot;M0 0 H 0&quot;/&gt;
    </svg>
