<?xml version="1.0" encoding="UTF-8" standalone="no"?>
<svg
   width="24"
   height="24"
   viewBox="0 0 24 24"
   fill="none"
   version="1.1"
   id="svg15"
   sodipodi:docname="band-aids-line.svg"
   inkscape:version="1.1.1 (c3084ef, 2021-09-22)"
   xmlns:inkscape="http://www.inkscape.org/namespaces/inkscape"
   xmlns:sodipodi="http://sodipodi.sourceforge.net/DTD/sodipodi-0.dtd"
   xmlns="http://www.w3.org/2000/svg"
   xmlns:svg="http://www.w3.org/2000/svg"><defs
   id="defs19" />
<sodipodi:namedview
   id="namedview17"
   pagecolor="#ffffff"
   bordercolor="#666666"
   borderopacity="1.0"
   inkscape:pageshadow="2"
   inkscape:pageopacity="0.0"
   inkscape:pagecheckerboard="0"
   showgrid="false"
   inkscape:zoom="32.75"
   inkscape:cx="11.984733"
   inkscape:cy="12"
   inkscape:window-width="1296"
   inkscape:window-height="1067"
   inkscape:window-x="0"
   inkscape:window-y="25"
   inkscape:window-maximized="0"
   inkscape:current-layer="svg15" />
<path
   style="color:#000000;fill:#000000;stroke-linecap:round;stroke-linejoin:round;-inkscape-stroke:none"
   d="m 6.5,7.3632812 c -3.0296997,0 -5.5,2.4703003 -5.5,5.4999998 v 10 c 0,3.0297 2.4703003,5.5 5.5,5.5 3.0296997,0 5.5,-2.4703 5.5,-5.5 v -10 C 12,9.8335815 9.5296997,7.3632812 6.5,7.3632812 Z m 0,2.0000001 c 1.9562953,0 3.5,1.5437047 3.5,3.4999997 v 10 c 0,1.956296 -1.5437047,3.5 -3.5,3.5 -1.9562953,0 -3.5,-1.543704 -3.5,-3.5 v -10 C 3,10.906986 4.5437047,9.3632812 6.5,9.3632813 Z"
   id="rect2"
   transform="rotate(-45 2 8.36401)" />
<path
   style="color:#000000;fill:#000000;stroke-linecap:round;stroke-linejoin:round;-inkscape-stroke:none"
   d="m 15.435547,2.8710938 c -1.409667,-1.3e-6 -2.818941,0.533748 -3.888672,1.6035156 L 11.193359,4.828125 a 1,1 0 0 0 -0.002,1.4140625 1,1 0 0 0 1.416016,0 l 0.353516,-0.3535156 c 1.375134,-1.3751813 3.574082,-1.3751751 4.949218,0 1.375245,1.3752132 1.375248,3.5759475 0,4.9511721 l -0.353515,0.353515 a 1,1 0 0 0 0,1.414063 1,1 0 0 0 1.414062,0 l 0.353516,-0.353516 c 2.139548,-2.139512 2.139552,-5.6397934 0,-7.7792966 C 18.254488,3.4048487 16.845214,2.871095 15.435547,2.8710938 Z M 4.828125,11.193359 4.4746094,11.546875 c -2.1394879,2.139537 -2.1394879,5.637807 0,7.777344 2.1395128,2.139439 5.6397576,2.13943 7.7792966,0 l 0.353516,-0.353516 a 1,1 0 0 0 0,-1.414062 1,1 0 0 0 -1.416016,0 l -0.353515,0.353515 c -1.3753166,1.373965 -3.5744161,1.374756 -4.9492191,0 -1.3752287,-1.37526 -1.3752287,-3.573959 0,-4.949218 l 0.3535156,-0.353516 a 1,1 0 0 0 0,-1.414063 1,1 0 0 0 -1.4140625,0 z"
   id="path4" />
<path
   style="color:#000000;fill:#000000;stroke-linecap:round;stroke-linejoin:round;-inkscape-stroke:none"
   d="m 10.480469,11.1875 a 1,1 0 0 0 -1.4140627,0.0098 1,1 0 0 0 0.00977,1.414062 1,1 0 0 0 1.4140621,-0.0098 1,1 0 0 0 -0.0098,-1.414063 z"
   id="path6" />
<path
   style="color:#000000;fill:#000000;stroke-linecap:round;stroke-linejoin:round;-inkscape-stroke:none"
   d="m 11.90625,8.7773438 a 1,1 0 0 0 -0.708984,0.2890625 1,1 0 0 0 -0.0098,1.4140627 1,1 0 0 0 1.414063,0.0098 1,1 0 0 0 0.0098,-1.4140621 1,1 0 0 0 -0.705078,-0.2988281 z"
   id="path8" />
<path
   style="color:#000000;fill:#000000;stroke-linecap:round;stroke-linejoin:round;-inkscape-stroke:none"
   d="m 14.021484,10.898438 a 1,1 0 0 0 -0.707031,0.292968 1,1 0 0 0 0,1.414063 v 0.002 a 1,1 0 0 0 1.414063,0 1,1 0 0 0 0,-1.414063 v -0.002 a 1,1 0 0 0 -0.707032,-0.292968 z"
   id="path10" />
<path
   style="color:#000000;fill:#000000;stroke-linecap:round;stroke-linejoin:round;-inkscape-stroke:none"
   d="m 11.898438,13.019531 a 1,1 0 0 0 -0.707032,0.292969 1,1 0 0 0 0,1.416016 h 0.002 a 1,1 0 0 0 1.414063,0 1,1 0 0 0 0,-1.414063 l -0.002,-0.002 a 1,1 0 0 0 -0.707031,-0.292969 z"
   id="path12" />
<path
   id="_StrokeToPathSelectorObject" />
d=&quot;M0 0 H 0&quot;/&gt;
    </svg>
