<?xml version="1.0" encoding="UTF-8" standalone="no"?>
<svg
   width="24"
   height="24"
   viewBox="0 0 24 24"
   fill="none"
   version="1.1"
   id="svg5"
   sodipodi:docname="basket-2-line.svg"
   inkscape:version="1.1.1 (c3084ef, 2021-09-22)"
   xmlns:inkscape="http://www.inkscape.org/namespaces/inkscape"
   xmlns:sodipodi="http://sodipodi.sourceforge.net/DTD/sodipodi-0.dtd"
   xmlns="http://www.w3.org/2000/svg"
   xmlns:svg="http://www.w3.org/2000/svg"><defs
   id="defs9" />
<sodipodi:namedview
   id="namedview7"
   pagecolor="#ffffff"
   bordercolor="#666666"
   borderopacity="1.0"
   inkscape:pageshadow="2"
   inkscape:pageopacity="0.0"
   inkscape:pagecheckerboard="0"
   showgrid="false"
   inkscape:zoom="32.75"
   inkscape:cx="11.984733"
   inkscape:cy="12"
   inkscape:window-width="1296"
   inkscape:window-height="1067"
   inkscape:window-x="0"
   inkscape:window-y="25"
   inkscape:window-maximized="0"
   inkscape:current-layer="svg5" />
<path
   style="color:#000000;fill:#000000;stroke-linecap:round;stroke-linejoin:round;-inkscape-stroke:none"
   d="M 12,3 C 10.122224,3 8.7483638,3.8603449 7.9882812,4.9160156 7.2281987,5.9716863 7,7.1333354 7,8 V 9 H 6 4 3 a 1,1 0 0 0 -1,1 1,1 0 0 0 1,1 h 0.095703 l 0.9101563,9.099609 A 1.0001,1.0001 0 0 0 5,21 h 14 a 1.0001,1.0001 0 0 0 0.994141,-0.900391 L 20.904297,11 H 21 A 1,1 0 0 0 22,10 1,1 0 0 0 21,9 H 20 18 17 V 8 C 17,7.1333354 16.771801,5.9716863 16.011719,4.9160156 15.251636,3.8603449 13.877776,3 12,3 Z m 0,2 c 1.322221,0 1.948756,0.4729893 2.388672,1.0839844 C 14.828588,6.6949795 15,7.533336 15,8 V 9 H 9 V 8 C 9,7.533336 9.1714119,6.6949795 9.6113281,6.0839844 10.051244,5.4729893 10.677779,5 12,5 Z M 5.1035156,11 H 6 h 2 8 2 0.896484 l -0.800781,8 H 5.9042969 Z M 9,13 a 1,1 0 0 0 -1,1 v 2 a 1,1 0 0 0 1,1 1,1 0 0 0 1,-1 V 14 A 1,1 0 0 0 9,13 Z m 3,0 a 1,1 0 0 0 -1,1 v 2 a 1,1 0 0 0 1,1 1,1 0 0 0 1,-1 v -2 a 1,1 0 0 0 -1,-1 z m 3,0 a 1,1 0 0 0 -1,1 v 2 a 1,1 0 0 0 1,1 1,1 0 0 0 1,-1 v -2 a 1,1 0 0 0 -1,-1 z"
   id="path2" />
<path
   id="_StrokeToPathSelectorObject" />
d=&quot;M0 0 H 0&quot;/&gt;
    </svg>
