<?xml version="1.0" encoding="UTF-8" standalone="no"?>
<svg
   width="24"
   height="24"
   viewBox="0 0 24 24"
   fill="none"
   version="1.1"
   id="svg5"
   sodipodi:docname="bath-shower-line.svg"
   inkscape:version="1.1.1 (c3084ef, 2021-09-22)"
   xmlns:inkscape="http://www.inkscape.org/namespaces/inkscape"
   xmlns:sodipodi="http://sodipodi.sourceforge.net/DTD/sodipodi-0.dtd"
   xmlns="http://www.w3.org/2000/svg"
   xmlns:svg="http://www.w3.org/2000/svg"><defs
   id="defs9" />
<sodipodi:namedview
   id="namedview7"
   pagecolor="#ffffff"
   bordercolor="#666666"
   borderopacity="1.0"
   inkscape:pageshadow="2"
   inkscape:pageopacity="0.0"
   inkscape:pagecheckerboard="0"
   showgrid="false"
   inkscape:zoom="32.75"
   inkscape:cx="11.984733"
   inkscape:cy="12"
   inkscape:window-width="1296"
   inkscape:window-height="1067"
   inkscape:window-x="0"
   inkscape:window-y="25"
   inkscape:window-maximized="0"
   inkscape:current-layer="svg5" />
<path
   style="color:#000000;fill:#000000;stroke-linecap:round;stroke-linejoin:round;-inkscape-stroke:none"
   d="M 18,3 C 16.522224,3 15.399145,3.6936783 14.789063,4.5410156 14.427042,5.0438225 14.431243,5.5094728 14.320313,6 H 13 a 1,1 0 0 0 -1,1 1,1 0 0 0 1,1 h 2 2 A 1,1 0 0 0 18,7 1,1 0 0 0 17,6 H 16.318359 C 16.36717,5.8957223 16.346702,5.7998279 16.412109,5.7089844 16.702026,5.306323 17.077779,5 18,5 18.922221,5 19.297974,5.306323 19.587891,5.7089844 19.877807,6.1116458 20,6.7000003 20,7 v 4 H 4 3 a 1,1 0 0 0 -1,1 1,1 0 0 0 1,1 v 1 c 0,0.739898 0.1707254,1.685623 0.6894531,2.613281 0.3735624,0.668054 1.0346158,1.245012 1.8359375,1.695313 l -0.4707031,1.365234 a 1,1 0 0 0 0.6191406,1.271484 1,1 0 0 0 1.2714844,-0.61914 L 7.4277344,18.927734 C 7.6225739,18.946404 7.7931787,19 8,19 h 8 c 0.206891,0 0.377428,-0.05358 0.572266,-0.07227 l 0.482421,1.398438 a 1,1 0 0 0 1.271485,0.61914 1,1 0 0 0 0.61914,-1.271484 L 18.474609,18.308594 C 19.275937,17.858295 19.93698,17.281335 20.310547,16.613281 20.829281,15.685623 21,14.739901 21,14 V 12.582031 C 21.561882,12.22535 22,11.705308 22,11 V 7 C 22,6.3000007 21.82102,5.388353 21.210937,4.5410156 20.600855,3.6936783 19.477776,3 18,3 Z M 5,13 h 14 v 1 c 0,0.398398 -0.122282,1.076503 -0.435547,1.636719 -0.313265,0.560215 -0.763013,1.017714 -1.574219,1.240234 C 16.712179,16.953169 16.386778,17 16,17 H 8 C 7.6131383,17 7.2876116,16.953172 7.0097656,16.876953 6.1985719,16.654434 5.7488083,16.196934 5.4355469,15.636719 5.1222854,15.076503 5,14.398401 5,14 Z"
   id="path2" />
<path
   id="_StrokeToPathSelectorObject" />
d=&quot;M0 0 H 0&quot;/&gt;
    </svg>
