<?xml version="1.0" encoding="UTF-8" standalone="no"?>
<svg
   width="24"
   height="24"
   viewBox="0 0 24 24"
   fill="none"
   version="1.1"
   id="svg9"
   sodipodi:docname="beach-line.svg"
   inkscape:version="1.1.1 (c3084ef, 2021-09-22)"
   xmlns:inkscape="http://www.inkscape.org/namespaces/inkscape"
   xmlns:sodipodi="http://sodipodi.sourceforge.net/DTD/sodipodi-0.dtd"
   xmlns="http://www.w3.org/2000/svg"
   xmlns:svg="http://www.w3.org/2000/svg"><defs
   id="defs13" />
<sodipodi:namedview
   id="namedview11"
   pagecolor="#ffffff"
   bordercolor="#666666"
   borderopacity="1.0"
   inkscape:pageshadow="2"
   inkscape:pageopacity="0.0"
   inkscape:pagecheckerboard="0"
   showgrid="false"
   inkscape:zoom="32.75"
   inkscape:cx="11.984733"
   inkscape:cy="12"
   inkscape:window-width="1296"
   inkscape:window-height="1067"
   inkscape:window-x="0"
   inkscape:window-y="25"
   inkscape:window-maximized="0"
   inkscape:current-layer="svg9" />
<path
   style="color:#000000;fill:#000000;stroke-linecap:round;stroke-linejoin:round;-inkscape-stroke:none"
   d="M 13.298828,2.0039063 C 11.643211,2.2329027 10.051433,3.1076018 9.1347656,4.6953125 A 1.0001,1.0001 0 0 0 9.5,6.0625 l 3.464844,2 0.865234,0.5 -2.5,4.330078 a 1,1 0 0 0 0.365235,1.365235 1,1 0 0 0 1.367187,-0.365235 l 2.5,-4.330078 0.865234,0.5 3.464844,2 a 1.0001,1.0001 0 0 0 1.365234,-0.367187 c 0.916662,-1.587732 0.879481,-3.4048245 0.25,-4.9531255 C 21.003191,5.5009973 20.072102,4.4729771 18.980469,3.640625 L 19.0625,3.5 A 1,1 0 0 0 18.695312,2.1347656 1,1 0 0 0 17.330078,2.5 l -0.08203,0.140625 C 15.981462,2.111502 14.625931,1.8203481 13.298828,2.0039063 Z m 0.275391,1.9804687 c 0.444049,-0.061419 0.921535,-0.00322 1.394531,0.056641 C 14.348079,4.4735482 13.797547,5.182298 13.257813,5.921875 L 11.582031,4.9550781 C 12.131314,4.4606544 12.774826,4.0949429 13.574219,3.984375 Z M 16.875,5.2871094 c 0.09421,0.7468424 -0.05684,1.5897113 -0.443359,2.4667968 L 15.695313,7.3300781 14.960938,6.90625 C 15.527321,6.1326668 16.18115,5.5790174 16.875,5.2871094 Z m 2.033203,1.0273437 c 0.288649,0.3799504 0.577128,0.7660434 0.746094,1.1816406 0.303869,0.7474101 0.309645,1.4862176 0.15625,2.2089844 L 18.134766,8.7382813 c 0.371043,-0.8378224 0.709183,-1.66956 0.773437,-2.4238282 z"
   id="path2" />
<path
   style="color:#000000;fill:#000000;stroke-linecap:round;stroke-linejoin:round;-inkscape-stroke:none"
   d="m 12,18.169922 c -0.898408,0 -1.796652,0.365456 -2.4355469,1.095703 L 9.3730469,19.482422 C 8.9396256,19.977771 8.2133193,19.950414 7.8183594,19.423828 6.6699481,17.892583 4.3366453,17.834194 3.1113281,19.304687 L 2.2324219,20.359375 A 1,1 0 0 0 2.359375,21.767578 1,1 0 0 0 3.7675781,21.640625 L 4.6484375,20.583984 C 5.0771587,20.06948 5.8169429,20.089247 6.21875,20.625 c 1.1315185,1.508612 3.4183392,1.59503 4.660156,0.175781 l 0.191407,-0.21875 c 0.504209,-0.576304 1.355165,-0.576304 1.859375,0 l 0.191406,0.21875 c 1.241794,1.419257 3.528586,1.332782 4.660156,-0.175781 0.401799,-0.535749 1.141611,-0.55551 1.570312,-0.04102 l 0.88086,1.056641 a 1,1 0 0 0 1.408203,0.126953 1,1 0 0 0 0.126953,-1.408203 l -0.878906,-1.054688 c -1.225297,-1.470504 -3.558632,-1.412107 -4.707031,0.119141 -0.395029,0.526635 -1.121284,0.553935 -1.554688,0.05859 L 14.435547,19.265625 C 13.796652,18.535378 12.898408,18.169922 12,18.169922 Z"
   id="path4" />
<path
   style="color:#000000;fill:#000000;stroke-linecap:round;stroke-linejoin:round;-inkscape-stroke:none"
   d="M 12,13 C 9.7229218,13 7.6324049,13.850616 6.046875,15.25 A 1,1 0 0 0 5.9589844,16.662109 1,1 0 0 0 7.3691406,16.75 C 8.6041479,15.659986 10.219282,15 12,15 c 1.780718,0 3.393984,0.660007 4.628906,1.75 a 1,1 0 0 0 1.41211,-0.08789 A 1,1 0 0 0 17.953125,15.25 C 16.36765,13.850595 14.277078,13 12,13 Z"
   id="path6" />
<path
   id="_StrokeToPathSelectorObject" />
d=&quot;M0 0 H 0&quot;/&gt;
    </svg>
