<?xml version="1.0" encoding="UTF-8" standalone="no"?>
<svg
   width="24"
   height="24"
   viewBox="0 0 24 24"
   fill="none"
   version="1.1"
   id="svg5"
   sodipodi:docname="bell-line.svg"
   inkscape:version="1.1.1 (c3084ef, 2021-09-22)"
   xmlns:inkscape="http://www.inkscape.org/namespaces/inkscape"
   xmlns:sodipodi="http://sodipodi.sourceforge.net/DTD/sodipodi-0.dtd"
   xmlns="http://www.w3.org/2000/svg"
   xmlns:svg="http://www.w3.org/2000/svg"><defs
   id="defs9" />
<sodipodi:namedview
   id="namedview7"
   pagecolor="#ffffff"
   bordercolor="#666666"
   borderopacity="1.0"
   inkscape:pageshadow="2"
   inkscape:pageopacity="0.0"
   inkscape:pagecheckerboard="0"
   showgrid="false"
   inkscape:zoom="32.75"
   inkscape:cx="11.984733"
   inkscape:cy="12"
   inkscape:window-width="1296"
   inkscape:window-height="1067"
   inkscape:window-x="0"
   inkscape:window-y="25"
   inkscape:window-maximized="0"
   inkscape:current-layer="svg5" />
<path
   style="color:#000000;fill:#000000;stroke-linecap:round;stroke-linejoin:round;-inkscape-stroke:none"
   d="M 12,2 A 1,1 0 0 0 11,3 V 4.1445312 C 9.9500469,4.283011 8.7817233,4.5853623 7.6660156,5.3886719 6.1936789,6.4487543 5,8.3222249 5,11 v 3.585938 L 3.2929688,16.292969 A 1.0001,1.0001 0 0 0 4,18 h 4 c 0,0.699999 0.1789796,1.611647 0.7890625,2.458984 C 9.3991454,21.306322 10.522224,22 12,22 13.477776,22 14.600855,21.306322 15.210938,20.458984 15.82102,19.611647 16,18.699999 16,18 h 4 a 1.0001,1.0001 0 0 0 0.707031,-1.707031 L 19,14.585938 V 11 C 19,9.8000012 18.671411,8.1383523 17.611328,6.6660156 16.706572,5.4094096 15.084134,4.5102286 13,4.2285156 V 3 A 1,1 0 0 0 12,2 Z m 0,4 c 2.12222,0 3.248365,0.8063236 3.988281,1.8339844 C 16.728197,8.8616452 17,10.200001 17,11 v 4 a 1.0001,1.0001 0 0 0 0.292969,0.707031 L 17.585937,16 H 15 9 6.4140625 L 6.7070312,15.707031 A 1.0001,1.0001 0 0 0 7,15 V 11 C 7,8.8777799 7.8063236,7.7516345 8.8339844,7.0117187 9.8616452,6.271803 11.200001,6 12,6 Z m -2,12 h 4 c 0,0.3 -0.122193,0.888354 -0.412109,1.291016 C 13.297974,19.693677 12.922221,20 12,20 11.077779,20 10.702026,19.693677 10.412109,19.291016 10.122193,18.888354 10,18.3 10,18 Z"
   id="path2" />
<path
   id="_StrokeToPathSelectorObject" />
d=&quot;M0 0 H 0&quot;/&gt;
    </svg>
