<?xml version="1.0" encoding="UTF-8" standalone="no"?>
<svg
   width="24"
   height="24"
   viewBox="0 0 24 24"
   fill="none"
   version="1.1"
   id="svg5"
   sodipodi:docname="bluetooth-line.svg"
   inkscape:version="1.1.1 (c3084ef, 2021-09-22)"
   xmlns:inkscape="http://www.inkscape.org/namespaces/inkscape"
   xmlns:sodipodi="http://sodipodi.sourceforge.net/DTD/sodipodi-0.dtd"
   xmlns="http://www.w3.org/2000/svg"
   xmlns:svg="http://www.w3.org/2000/svg"><defs
   id="defs9" />
<sodipodi:namedview
   id="namedview7"
   pagecolor="#ffffff"
   bordercolor="#666666"
   borderopacity="1.0"
   inkscape:pageshadow="2"
   inkscape:pageopacity="0.0"
   inkscape:pagecheckerboard="0"
   showgrid="false"
   inkscape:zoom="32.75"
   inkscape:cx="11.984733"
   inkscape:cy="12"
   inkscape:window-width="1296"
   inkscape:window-height="1067"
   inkscape:window-x="0"
   inkscape:window-y="25"
   inkscape:window-maximized="0"
   inkscape:current-layer="svg5" />
<path
   style="color:#000000;fill:#000000;stroke-linecap:round;stroke-linejoin:round;-inkscape-stroke:none"
   d="M 11.566406,3.0996094 A 1.0001,1.0001 0 0 0 11,4 V 9.9179688 L 7.625,7.21875 A 1,1 0 0 0 6.21875,7.375 1,1 0 0 0 6.375,8.78125 L 10.398438,12 6.375,15.21875 A 1,1 0 0 0 6.21875,16.625 1,1 0 0 0 7.625,16.78125 L 11,14.082031 V 20 a 1.0001,1.0001 0 0 0 1.625,0.78125 l 5,-4 a 1.0001,1.0001 0 0 0 0,-1.5625 L 13.601563,12 17.625,8.78125 a 1.0001,1.0001 0 0 0 0,-1.5625 l -5,-4 A 1.0001,1.0001 0 0 0 11.566406,3.0996094 Z M 13,6.0820312 15.398438,8 13,9.9179688 Z M 13,14.082031 15.398438,16 13,17.917969 Z"
   id="path2" />
<path
   id="_StrokeToPathSelectorObject" />
d=&quot;M0 0 H 0&quot;/&gt;
    </svg>
