<?xml version="1.0" encoding="UTF-8" standalone="no"?>
<svg
   width="24"
   height="24"
   viewBox="0 0 24 24"
   fill="none"
   version="1.1"
   id="svg7"
   sodipodi:docname="bookmark-plus-line.svg"
   inkscape:version="1.1.1 (c3084ef, 2021-09-22)"
   xmlns:inkscape="http://www.inkscape.org/namespaces/inkscape"
   xmlns:sodipodi="http://sodipodi.sourceforge.net/DTD/sodipodi-0.dtd"
   xmlns="http://www.w3.org/2000/svg"
   xmlns:svg="http://www.w3.org/2000/svg"><defs
   id="defs11" />
<sodipodi:namedview
   id="namedview9"
   pagecolor="#ffffff"
   bordercolor="#666666"
   borderopacity="1.0"
   inkscape:pageshadow="2"
   inkscape:pageopacity="0.0"
   inkscape:pagecheckerboard="0"
   showgrid="false"
   inkscape:zoom="32.75"
   inkscape:cx="11.984733"
   inkscape:cy="12"
   inkscape:window-width="1296"
   inkscape:window-height="1067"
   inkscape:window-x="0"
   inkscape:window-y="25"
   inkscape:window-maximized="0"
   inkscape:current-layer="svg7" />
<path
   style="color:#000000;fill:#000000;stroke-linecap:round;stroke-linejoin:round;-inkscape-stroke:none"
   d="M 7,2 C 5.3549921,2 4,3.3549921 4,5 v 15.138672 c 0,1.104121 1.2855032,1.850601 2.2441406,1.302734 l 5.2597654,-3.005859 c 0.308845,-0.176447 0.683343,-0.176447 0.992188,0 l 5.259765,3.005859 C 18.714437,21.989124 20,21.242724 20,20.138672 V 5 C 20,3.3550102 18.645023,2 17,2 Z m 0,2 h 10 c 0.564175,0 1,0.435852 1,1 v 14.277344 l -4.511719,-2.578125 c -0.920954,-0.526153 -2.055608,-0.526153 -2.976562,0 L 6,19.277344 V 5 C 6,4.4358701 6.4358701,4 7,4 Z"
   id="path2" />
<path
   style="color:#000000;fill:#000000;stroke-linecap:round;stroke-linejoin:round;-inkscape-stroke:none"
   d="M 12,6 A 1,1 0 0 0 11,7 V 9 H 9 a 1,1 0 0 0 -1,1 1,1 0 0 0 1,1 h 2 v 2 a 1,1 0 0 0 1,1 1,1 0 0 0 1,-1 v -2 h 2 A 1,1 0 0 0 16,10 1,1 0 0 0 15,9 H 13 V 7 A 1,1 0 0 0 12,6 Z"
   id="path4" />
<path
   id="_StrokeToPathSelectorObject" />
d=&quot;M0 0 H 0&quot;/&gt;
    </svg>
