<?xml version="1.0" encoding="UTF-8" standalone="no"?>
<svg
   width="24"
   height="24"
   viewBox="0 0 24 24"
   fill="none"
   version="1.1"
   id="svg7"
   sodipodi:docname="book-minus-line.svg"
   inkscape:version="1.1.1 (c3084ef, 2021-09-22)"
   xmlns:inkscape="http://www.inkscape.org/namespaces/inkscape"
   xmlns:sodipodi="http://sodipodi.sourceforge.net/DTD/sodipodi-0.dtd"
   xmlns="http://www.w3.org/2000/svg"
   xmlns:svg="http://www.w3.org/2000/svg"><defs
   id="defs11" />
<sodipodi:namedview
   id="namedview9"
   pagecolor="#ffffff"
   bordercolor="#666666"
   borderopacity="1.0"
   inkscape:pageshadow="2"
   inkscape:pageopacity="0.0"
   inkscape:pagecheckerboard="0"
   showgrid="false"
   inkscape:zoom="32.75"
   inkscape:cx="11.984733"
   inkscape:cy="12"
   inkscape:window-width="1296"
   inkscape:window-height="1067"
   inkscape:window-x="0"
   inkscape:window-y="25"
   inkscape:window-maximized="0"
   inkscape:current-layer="svg7" />
<path
   style="color:#000000;fill:#000000;stroke-linecap:round;stroke-linejoin:round;-inkscape-stroke:none"
   d="M 6,2 C 4.3549921,2 3,3.3549921 3,5 v 14 c 0,1.645023 1.3550102,3 3,3 h 6 a 1,1 0 0 0 1,-1 1,1 0 0 0 -1,-1 H 6 C 5.435852,20 5,19.564175 5,19 V 5 C 5,4.4358701 5.4358701,4 6,4 h 1 v 8 a 1.0001,1.0001 0 0 0 1.7070313,0.707031 L 11,10.414063 13.292969,12.707031 A 1.0001,1.0001 0 0 0 15,12 V 4 h 3 c 0.564175,0 1,0.435852 1,1 v 7 a 1,1 0 0 0 1,1 1,1 0 0 0 1,-1 V 5 C 21,3.3550102 19.645023,2 18,2 H 14 8 Z m 3,2 h 4 V 9.5859375 L 11.707031,8.2929688 a 1.0001,1.0001 0 0 0 -1.414062,0 L 9,9.5859375 Z"
   id="path2" />
<path
   style="color:#000000;fill:#000000;stroke-linecap:round;stroke-linejoin:round;-inkscape-stroke:none"
   d="m 16,18 a 1,1 0 0 0 -1,1 1,1 0 0 0 1,1 h 3 3 a 1,1 0 0 0 1,-1 1,1 0 0 0 -1,-1 h -3 z"
   id="path4" />
<path
   id="_StrokeToPathSelectorObject" />
d=&quot;M0 0 H 0&quot;/&gt;
    </svg>
