<?xml version="1.0" encoding="UTF-8" standalone="no"?>
<svg
   width="24"
   height="24"
   viewBox="0 0 24 24"
   fill="none"
   version="1.1"
   id="svg5"
   sodipodi:docname="book-open-line.svg"
   inkscape:version="1.1.1 (c3084ef, 2021-09-22)"
   xmlns:inkscape="http://www.inkscape.org/namespaces/inkscape"
   xmlns:sodipodi="http://sodipodi.sourceforge.net/DTD/sodipodi-0.dtd"
   xmlns="http://www.w3.org/2000/svg"
   xmlns:svg="http://www.w3.org/2000/svg"><defs
   id="defs9" />
<sodipodi:namedview
   id="namedview7"
   pagecolor="#ffffff"
   bordercolor="#666666"
   borderopacity="1.0"
   inkscape:pageshadow="2"
   inkscape:pageopacity="0.0"
   inkscape:pagecheckerboard="0"
   showgrid="false"
   inkscape:zoom="32.75"
   inkscape:cx="11.984733"
   inkscape:cy="12"
   inkscape:window-width="1296"
   inkscape:window-height="1067"
   inkscape:window-x="0"
   inkscape:window-y="25"
   inkscape:window-maximized="0"
   inkscape:current-layer="svg5" />
<path
   style="color:#000000;fill:#000000;stroke-linecap:round;stroke-linejoin:round;-inkscape-stroke:none"
   d="M 8.3105469,4.0605469 C 6.4850411,3.83447 4.3259504,4.2270994 2.3671875,5.828125 A 1.0001,1.0001 0 0 0 2,6.6035156 V 19 a 1.0001,1.0001 0 0 0 1.6328125,0.773437 c 1.5412353,-1.259761 3.0488276,-1.501328 4.4316406,-1.330078 1.382813,0.171251 2.6289649,0.818184 3.3281249,1.351563 a 1,1 0 0 0 0.251953,0.06641 1,1 0 0 0 0.289063,0.111328 A 1,1 0 0 0 12,20 a 1,1 0 0 0 0.06641,-0.02734 1,1 0 0 0 0.289063,-0.111328 1,1 0 0 0 0.251953,-0.06641 c 0.69916,-0.533379 1.945312,-1.180312 3.328125,-1.351563 1.382813,-0.17125 2.890405,0.07032 4.43164,1.330078 A 1.0001,1.0001 0 0 0 22,19 V 6.6035156 A 1.0001,1.0001 0 0 0 21.632812,5.828125 C 19.67405,4.2270994 17.514959,3.83447 15.689453,4.0605469 14.167046,4.249087 12.950302,4.8409881 12,5.4550781 11.049698,4.8409881 9.8329537,4.249087 8.3105469,4.0605469 Z M 8.0644531,6.046875 C 9.2543065,6.1942305 10.273762,6.6953957 11,7.171875 V 17.267578 C 10.217019,16.897073 9.3335303,16.583719 8.3105469,16.457031 6.9781748,16.292028 5.4801536,16.655416 4,17.378906 V 7.1835937 C 5.4114207,6.1726029 6.793152,5.8894327 8.0644531,6.046875 Z m 7.8710939,0 C 17.206848,5.8894327 18.588579,6.1726029 20,7.1835937 V 17.378906 C 18.519846,16.655416 17.021825,16.292028 15.689453,16.457031 14.66647,16.583719 13.782981,16.897073 13,17.267578 V 7.171875 c 0.726238,-0.4764793 1.745693,-0.9776445 2.935547,-1.125 z"
   id="path2" />
<path
   id="_StrokeToPathSelectorObject" />
d=&quot;M0 0 H 0&quot;/&gt;
    </svg>
