<?xml version="1.0" encoding="UTF-8" standalone="no"?>
<svg
   width="24"
   height="24"
   viewBox="0 0 24 24"
   fill="none"
   version="1.1"
   id="svg5"
   sodipodi:docname="box-line.svg"
   inkscape:version="1.1.1 (c3084ef, 2021-09-22)"
   xmlns:inkscape="http://www.inkscape.org/namespaces/inkscape"
   xmlns:sodipodi="http://sodipodi.sourceforge.net/DTD/sodipodi-0.dtd"
   xmlns="http://www.w3.org/2000/svg"
   xmlns:svg="http://www.w3.org/2000/svg"><defs
   id="defs9" />
<sodipodi:namedview
   id="namedview7"
   pagecolor="#ffffff"
   bordercolor="#666666"
   borderopacity="1.0"
   inkscape:pageshadow="2"
   inkscape:pageopacity="0.0"
   inkscape:pagecheckerboard="0"
   showgrid="false"
   inkscape:zoom="32.75"
   inkscape:cx="11.984733"
   inkscape:cy="12"
   inkscape:window-width="1296"
   inkscape:window-height="1067"
   inkscape:window-x="0"
   inkscape:window-y="25"
   inkscape:window-maximized="0"
   inkscape:current-layer="svg5" />
<path
   style="color:#000000;fill:#000000;stroke-linecap:round;stroke-linejoin:round;-inkscape-stroke:none"
   d="M 11.470703,2.1523438 3.4707031,7.1523437 A 1,1 0 0 0 3.4023438,7.2480469 1,1 0 0 0 3.2480469,7.4023437 1,1 0 0 0 3.1523438,7.4707031 1,1 0 0 0 3.125,7.6367187 1,1 0 0 0 3.0449219,7.890625 1,1 0 0 0 3,8 v 8 a 1.0001,1.0001 0 0 0 0.4707031,0.847656 l 7.9999999,5 a 1,1 0 0 0 0.166016,0.02734 1,1 0 0 0 0.253906,0.08008 A 1,1 0 0 0 12,22 a 1,1 0 0 0 0.109375,-0.04492 1,1 0 0 0 0.253906,-0.08008 1,1 0 0 0 0.166016,-0.02734 l 8,-5 A 1.0001,1.0001 0 0 0 21,16 V 8.0351563 8 a 1,1 0 0 0 -0.0039,-0.019531 1,1 0 0 0 -0.01563,-0.080078 1,1 0 0 0 -0.08984,-0.3320312 1,1 0 0 0 -0.0332,-0.064453 1,1 0 0 0 -0.0098,-0.033203 1,1 0 0 0 -0.02539,-0.00586 1,1 0 0 0 -0.238282,-0.2539062 1,1 0 0 0 -0.05469,-0.058594 l -4,-2.5 -4,-2.4999999 a 1.0001,1.0001 0 0 0 -1.058594,0 z M 12,4.1796875 14.113281,5.5 8,9.3222656 5.8847656,8 Z M 16,6.6777344 18.115234,8 12,11.822266 9.8847656,10.5 Z M 5,9.8027344 7.4707031,11.347656 11,13.552734 v 5.642578 L 5,15.445313 Z m 14,0 v 5.6425786 l -6,3.749999 v -5.642578 z"
   id="path2" />
<path
   id="_StrokeToPathSelectorObject" />
d=&quot;M0 0 H 0&quot;/&gt;
    </svg>
