<?xml version="1.0" encoding="UTF-8" standalone="no"?>
<svg
   width="24"
   height="24"
   viewBox="0 0 24 24"
   fill="none"
   version="1.1"
   id="svg7"
   sodipodi:docname="browser-cookie-line.svg"
   inkscape:version="1.1.1 (c3084ef, 2021-09-22)"
   xmlns:inkscape="http://www.inkscape.org/namespaces/inkscape"
   xmlns:sodipodi="http://sodipodi.sourceforge.net/DTD/sodipodi-0.dtd"
   xmlns="http://www.w3.org/2000/svg"
   xmlns:svg="http://www.w3.org/2000/svg"><defs
   id="defs11" />
<sodipodi:namedview
   id="namedview9"
   pagecolor="#ffffff"
   bordercolor="#666666"
   borderopacity="1.0"
   inkscape:pageshadow="2"
   inkscape:pageopacity="0.0"
   inkscape:pagecheckerboard="0"
   showgrid="false"
   inkscape:zoom="32.75"
   inkscape:cx="11.984733"
   inkscape:cy="12"
   inkscape:window-width="1296"
   inkscape:window-height="1067"
   inkscape:window-x="0"
   inkscape:window-y="25"
   inkscape:window-maximized="0"
   inkscape:current-layer="svg7" />
<path
   style="color:#000000;fill:#000000;stroke-linecap:round;stroke-linejoin:round;-inkscape-stroke:none"
   d="M 5,3 C 3.3549921,3 2,4.3549921 2,6 v 2 10 c 0,1.645023 1.3550102,3 3,3 H 9 A 1,1 0 0 0 10,20 1,1 0 0 0 9,19 H 5 C 4.435852,19 4,18.564175 4,18 V 9 h 16 v 1 a 1,1 0 0 0 1,1 1,1 0 0 0 1,-1 V 8 6 C 22,4.3550102 20.645023,3 19,3 Z m 0,2 h 14 c 0.564175,0 1,0.435852 1,1 V 7 H 4 V 6 C 4,5.4358701 4.4358701,5 5,5 Z"
   id="path2" />
<path
   style="color:#000000;fill:#000000;stroke-linecap:round;stroke-linejoin:round;-inkscape-stroke:none"
   d="m 17,11 c -3.301847,0 -6,2.698153 -6,6 0,3.301847 2.698153,6 6,6 3.301847,0 6,-2.698153 6,-6 a 1.0001,1.0001 0 0 0 -1,-1 h -1 v -2 a 1.0001,1.0001 0 0 0 -1,-1 h -2 v -1 a 1.0001,1.0001 0 0 0 -1,-1 z m -1,2.199219 V 14 a 1.0001,1.0001 0 0 0 1,1 h 2 v 2 a 1.0001,1.0001 0 0 0 1,1 h 0.800781 C 20.351377,19.718135 18.865649,21 17,21 c -2.220947,0 -4,-1.779053 -4,-4 0,-1.865649 1.281865,-3.351377 3,-3.800781 z M 15,16 a 1,1 0 0 0 -1,1 1,1 0 0 0 1,1 h 0.002 a 1,1 0 0 0 1,-1 1,1 0 0 0 -1,-1 z m 3,2 a 1,1 0 0 0 -1,1 1,1 0 0 0 1,1 h 0.002 a 1,1 0 0 0 1,-1 1,1 0 0 0 -1,-1 z"
   id="path4" />
<path
   id="_StrokeToPathSelectorObject" />
d=&quot;M0 0 H 0&quot;/&gt;
    </svg>
