<?xml version="1.0" encoding="UTF-8" standalone="no"?>
<svg
   width="24"
   height="24"
   viewBox="0 0 24 24"
   fill="none"
   version="1.1"
   id="svg11"
   sodipodi:docname="bug-2-line.svg"
   inkscape:version="1.1.1 (c3084ef, 2021-09-22)"
   xmlns:inkscape="http://www.inkscape.org/namespaces/inkscape"
   xmlns:sodipodi="http://sodipodi.sourceforge.net/DTD/sodipodi-0.dtd"
   xmlns="http://www.w3.org/2000/svg"
   xmlns:svg="http://www.w3.org/2000/svg"><defs
   id="defs15" />
<sodipodi:namedview
   id="namedview13"
   pagecolor="#ffffff"
   bordercolor="#666666"
   borderopacity="1.0"
   inkscape:pageshadow="2"
   inkscape:pageopacity="0.0"
   inkscape:pagecheckerboard="0"
   showgrid="false"
   inkscape:zoom="32.75"
   inkscape:cx="11.984733"
   inkscape:cy="12"
   inkscape:window-width="1296"
   inkscape:window-height="1067"
   inkscape:window-x="0"
   inkscape:window-y="25"
   inkscape:window-maximized="0"
   inkscape:current-layer="svg11" />
<path
   style="color:#000000;fill:#000000;stroke-linecap:round;stroke-linejoin:round;-inkscape-stroke:none"
   d="m 8,3 a 1,1 0 0 0 -0.7070313,0.2929688 1,1 0 0 0 0,1.4140624 L 8.65625,6.0703125 C 7.9407713,6.514156 7.3449032,7.1530766 6.859375,8 H 6 C 5.8666641,8 5.528312,7.9289785 5.3339844,7.7890625 5.1396568,7.6491465 5,7.5222224 5,7 A 1,1 0 0 0 4,6 1,1 0 0 0 3,7 C 3,8.077776 3.5270115,8.952026 4.1660156,9.4121094 4.8050197,9.8721928 5.4666665,10 6,10 H 6.171875 C 6.1221246,10.339933 6,10.625297 6,11 v 1 H 4 a 1,1 0 0 0 -1,1 1,1 0 0 0 1,1 h 2 v 1 c 0,0.286427 0.1440439,0.668683 0.1953125,1 H 6 C 5.4666665,16 4.8050197,16.127807 4.1660156,16.587891 3.5270115,17.047974 3,17.922224 3,19 a 1,1 0 0 0 1,1 1,1 0 0 0 1,-1 C 5,18.477778 5.1396568,18.350853 5.3339844,18.210937 5.528312,18.071022 5.8666641,18 6,18 H 6.9433594 C 7.7924034,19.532446 9.3300095,21 12,21 c 2.669998,0 4.207558,-1.46759 5.056641,-3 H 18 c 0.13336,0 0.471695,0.07102 0.666016,0.210937 C 18.860337,18.35085 19,18.477771 19,19 a 1,1 0 0 0 1,1 1,1 0 0 0 1,-1 C 21,17.92223 20.472987,17.047977 19.833984,16.587891 19.194981,16.127804 18.533339,16 18,16 H 17.804687 C 17.855945,15.668685 18,15.286406 18,15 v -1 h 2 a 1,1 0 0 0 1,-1 1,1 0 0 0 -1,-1 h -2 v -1 c 0,-0.286406 -0.144054,-0.668691 -0.195313,-1 H 18 C 18.533339,10 19.194981,9.8721962 19.833984,9.4121094 20.472987,8.9520226 21,8.0777698 21,7 A 1,1 0 0 0 20,6 1,1 0 0 0 19,7 C 19,7.5222286 18.860337,7.6491499 18.666016,7.7890625 18.471695,7.9289751 18.13336,8 18,8 H 17.134766 C 16.740063,7.2627026 16.127042,6.6336651 15.326172,6.0878906 l 1.380859,-1.3808594 a 1,1 0 0 0 0,-1.4140624 1,1 0 0 0 -1.414062,0 L 13.384766,5.2011719 C 12.939792,5.1105729 12.509675,5 12,5 11.60605,5 11.114864,5.1268518 10.642578,5.2285156 L 8.7070313,3.2929688 A 1,1 0 0 0 8,3 Z m 4,4 c 0.57015,0 1.045259,0.078161 1.447266,0.2050781 1.231033,0.388584 1.866471,1.236019 2.228515,2.1601563 C 15.909928,9.9629869 16,10.584764 16,11 v 2 2 c 0,0.415236 -0.09009,1.037081 -0.324219,1.634766 C 15.195461,17.860763 14.315436,19 12,19 9.684575,19 8.8044502,17.860705 8.3242188,16.634766 8.0900675,16.037057 8,15.415187 8,15 V 13 11 C 8,10.333335 8.1059516,9.7959137 8.2734375,9.3535156 8.725189,8.1602673 9.6482914,7.5533725 10.601563,7.2382812 11.120919,7.0666274 11.639756,7 12,7 Z"
   id="path2" />
<path
   style="color:#000000;fill:#000000;stroke-linecap:round;stroke-linejoin:round;-inkscape-stroke:none"
   d="m 12,9 a 1,1 0 0 0 -1,1 1,1 0 0 0 1,1 h 0.002 a 1,1 0 0 0 1,-1 1,1 0 0 0 -1,-1 z"
   id="path4" />
<path
   style="color:#000000;fill:#000000;stroke-linecap:round;stroke-linejoin:round;-inkscape-stroke:none"
   d="m 10,12 a 1,1 0 0 0 -1,1 1,1 0 0 0 1,1 h 0.002 a 1,1 0 0 0 1,-1 1,1 0 0 0 -1,-1 z"
   id="path6" />
<path
   style="color:#000000;fill:#000000;stroke-linecap:round;stroke-linejoin:round;-inkscape-stroke:none"
   d="m 14,12 a 1,1 0 0 0 -1,1 1,1 0 0 0 1,1 h 0.002 a 1,1 0 0 0 1,-1 1,1 0 0 0 -1,-1 z"
   id="path8" />
<path
   id="_StrokeToPathSelectorObject" />
d=&quot;M0 0 H 0&quot;/&gt;
    </svg>
