<?xml version="1.0" encoding="UTF-8" standalone="no"?>
<svg
   width="24"
   height="24"
   viewBox="0 0 24 24"
   fill="none"
   version="1.1"
   id="svg13"
   sodipodi:docname="cake-line.svg"
   inkscape:version="1.1.1 (c3084ef, 2021-09-22)"
   xmlns:inkscape="http://www.inkscape.org/namespaces/inkscape"
   xmlns:sodipodi="http://sodipodi.sourceforge.net/DTD/sodipodi-0.dtd"
   xmlns="http://www.w3.org/2000/svg"
   xmlns:svg="http://www.w3.org/2000/svg"><defs
   id="defs17" />
<sodipodi:namedview
   id="namedview15"
   pagecolor="#ffffff"
   bordercolor="#666666"
   borderopacity="1.0"
   inkscape:pageshadow="2"
   inkscape:pageopacity="0.0"
   inkscape:pagecheckerboard="0"
   showgrid="false"
   inkscape:zoom="32.75"
   inkscape:cx="11.984733"
   inkscape:cy="12"
   inkscape:window-width="1296"
   inkscape:window-height="1067"
   inkscape:window-x="0"
   inkscape:window-y="25"
   inkscape:window-maximized="0"
   inkscape:current-layer="svg13" />
<path
   style="color:#000000;fill:#000000;stroke-linecap:round;stroke-linejoin:round;-inkscape-stroke:none"
   d="M 7,5 A 1,1 0 0 0 6,6 V 8.203125 C 3.7417806,8.6827728 2,10.604513 2,13 v 1 5 c 0,1.645023 1.3550102,3 3,3 h 14 c 1.645005,0 3,-1.354995 3,-3 V 14 13 C 22,10.604503 20.258205,8.6827707 18,8.203125 V 6 A 1,1 0 0 0 17,5 1,1 0 0 0 16,6 V 8 H 13 V 6 A 1,1 0 0 0 12,5 1,1 0 0 0 11,6 V 8 H 8 V 6 A 1,1 0 0 0 7,5 Z m 0,5 h 5 5 c 1.668637,0 3,1.331363 3,3 v 1 5 c 0,0.564193 -0.435807,1 -1,1 H 5 C 4.435852,20 4,19.564175 4,19 v -5 -1 c 0,-1.668649 1.3313133,-3 3,-3 z"
   id="path2" />
<path
   style="color:#000000;fill:#000000;stroke-linecap:round;stroke-linejoin:round;-inkscape-stroke:none"
   d="m 12,2 a 1,1 0 0 0 -1,1 1,1 0 0 0 1,1 h 0.0098 a 1,1 0 0 0 1,-1 1,1 0 0 0 -1,-1 z"
   id="path4" />
<path
   style="color:#000000;fill:#000000;stroke-linecap:round;stroke-linejoin:round;-inkscape-stroke:none"
   d="M 7,2 A 1,1 0 0 0 6,3 1,1 0 0 0 7,4 h 0.00977 a 1,1 0 0 0 1,-1 1,1 0 0 0 -1,-1 z"
   id="path6" />
<path
   style="color:#000000;fill:#000000;stroke-linecap:round;stroke-linejoin:round;-inkscape-stroke:none"
   d="m 17,2 a 1,1 0 0 0 -1,1 1,1 0 0 0 1,1 h 0.0098 a 1,1 0 0 0 1,-1 1,1 0 0 0 -1,-1 z"
   id="path8" />
<path
   style="color:#000000;fill:#000000;stroke-linecap:round;stroke-linejoin:round;-inkscape-stroke:none"
   d="m 3,12 a 1,1 0 0 0 -1,1 c 0,0.699999 0.1789796,1.611647 0.7890625,2.458984 C 3.3991454,16.306322 4.5222237,17 6,17 7.355856,17 8.3634934,16.389422 9,15.638672 9.6365066,16.389422 10.644144,17 12,17 13.355856,17 14.363493,16.389422 15,15.638672 15.636507,16.389422 16.644144,17 18,17 19.477776,17 20.600855,16.306322 21.210937,15.458984 21.82102,14.611647 22,13.699999 22,13 a 1,1 0 0 0 -1,-1 1,1 0 0 0 -1,1 c 0,0.3 -0.122193,0.888354 -0.412109,1.291016 C 19.297974,14.693677 18.922221,15 18,15 17.077779,15 16.702026,14.693677 16.412109,14.291016 16.122193,13.888354 16,13.3 16,13 a 1.0001,1.0001 0 0 0 -2,0 c 0,0.3 -0.122193,0.888354 -0.412109,1.291016 C 13.297974,14.693677 12.922221,15 12,15 11.077779,15 10.702026,14.693677 10.412109,14.291016 10.122193,13.888354 10,13.3 10,13 A 1.0001,1.0001 0 0 0 8,13 C 8,13.3 7.8778068,13.888354 7.5878906,14.291016 7.2979744,14.693677 6.9222213,15 6,15 5.0777787,15 4.7020256,14.693677 4.4121094,14.291016 4.1221932,13.888354 4,13.3 4,13 A 1,1 0 0 0 3,12 Z"
   id="path10" />
<path
   id="_StrokeToPathSelectorObject" />
d=&quot;M0 0 H 0&quot;/&gt;
    </svg>
