<?xml version="1.0" encoding="UTF-8" standalone="no"?>
<svg
   width="24"
   height="24"
   viewBox="0 0 24 24"
   fill="none"
   version="1.1"
   id="svg7"
   sodipodi:docname="calendar-plus-line.svg"
   inkscape:version="1.1.1 (c3084ef, 2021-09-22)"
   xmlns:inkscape="http://www.inkscape.org/namespaces/inkscape"
   xmlns:sodipodi="http://sodipodi.sourceforge.net/DTD/sodipodi-0.dtd"
   xmlns="http://www.w3.org/2000/svg"
   xmlns:svg="http://www.w3.org/2000/svg"><defs
   id="defs11" />
<sodipodi:namedview
   id="namedview9"
   pagecolor="#ffffff"
   bordercolor="#666666"
   borderopacity="1.0"
   inkscape:pageshadow="2"
   inkscape:pageopacity="0.0"
   inkscape:pagecheckerboard="0"
   showgrid="false"
   inkscape:zoom="32.75"
   inkscape:cx="11.984733"
   inkscape:cy="12"
   inkscape:window-width="1296"
   inkscape:window-height="1067"
   inkscape:window-x="0"
   inkscape:window-y="25"
   inkscape:window-maximized="0"
   inkscape:current-layer="svg7" />
<path
   style="color:#000000;fill:#000000;stroke-linecap:round;stroke-linejoin:round;-inkscape-stroke:none"
   d="M 8,2 A 1,1 0 0 0 7,3 V 4 H 6 C 4.3549921,4 3,5.3549921 3,7 v 2 10 c 0,1.645023 1.3550102,3 3,3 h 6 a 1,1 0 0 0 1,-1 1,1 0 0 0 -1,-1 H 6 C 5.435852,20 5,19.564175 5,19 v -9 h 14 v 2 a 1,1 0 0 0 1,1 1,1 0 0 0 1,-1 V 9 7 C 21,5.3550102 19.645023,4 18,4 H 17 V 3 A 1,1 0 0 0 16,2 1,1 0 0 0 15,3 V 4 H 9 V 3 A 1,1 0 0 0 8,2 Z M 6,6 h 2 8 2 c 0.564175,0 1,0.435852 1,1 V 8 H 5 V 7 C 5,6.4358701 5.4358701,6 6,6 Z"
   id="path2" />
<path
   style="color:#000000;fill:#000000;stroke-linecap:round;stroke-linejoin:round;-inkscape-stroke:none"
   d="m 19,15 a 1,1 0 0 0 -1,1 v 2 h -2 a 1,1 0 0 0 -1,1 1,1 0 0 0 1,1 h 2 v 2 a 1,1 0 0 0 1,1 1,1 0 0 0 1,-1 v -2 h 2 a 1,1 0 0 0 1,-1 1,1 0 0 0 -1,-1 h -2 v -2 a 1,1 0 0 0 -1,-1 z"
   id="path4" />
<path
   id="_StrokeToPathSelectorObject" />
d=&quot;M0 0 H 0&quot;/&gt;
    </svg>
