<?xml version="1.0" encoding="UTF-8" standalone="no"?>
<svg
   width="24"
   height="24"
   viewBox="0 0 24 24"
   fill="none"
   version="1.1"
   id="svg9"
   sodipodi:docname="camera-off-line.svg"
   inkscape:version="1.1.1 (c3084ef, 2021-09-22)"
   xmlns:inkscape="http://www.inkscape.org/namespaces/inkscape"
   xmlns:sodipodi="http://sodipodi.sourceforge.net/DTD/sodipodi-0.dtd"
   xmlns="http://www.w3.org/2000/svg"
   xmlns:svg="http://www.w3.org/2000/svg"><defs
   id="defs13" />
<sodipodi:namedview
   id="namedview11"
   pagecolor="#ffffff"
   bordercolor="#666666"
   borderopacity="1.0"
   inkscape:pageshadow="2"
   inkscape:pageopacity="0.0"
   inkscape:pagecheckerboard="0"
   showgrid="false"
   inkscape:zoom="32.75"
   inkscape:cx="11.984733"
   inkscape:cy="12"
   inkscape:window-width="1296"
   inkscape:window-height="1067"
   inkscape:window-x="0"
   inkscape:window-y="25"
   inkscape:window-maximized="0"
   inkscape:current-layer="svg9" />
<path
   style="color:#000000;fill:#000000;stroke-linecap:round;stroke-linejoin:round;-inkscape-stroke:none"
   d="M 9,3 A 1,1 0 0 0 8,4 1,1 0 0 0 9,5 h 4.929688 c 0.335515,0 0.645972,0.1662 0.832031,0.4453125 l 0.8125,1.21875 C 16.12996,7.4977489 17.06843,8 18.070312,8 H 19 c 0.564175,0 1,0.435852 1,1 v 6.5 a 1,1 0 0 0 1,1 1,1 0 0 0 1,-1 V 9 C 22,7.3550102 20.645023,6 19,6 H 18.070312 C 17.734797,6 17.42434,5.8338 17.238281,5.5546875 l -0.8125,-1.21875 C 15.87004,3.5022511 14.93157,3 13.929688,3 Z M 5,6 C 3.3549921,6 2,7.3549921 2,9 v 9 c 0,1.645023 1.3550102,3 3,3 h 15 a 1,1 0 0 0 1,-1 1,1 0 0 0 -1,-1 H 5 C 4.435852,19 4,18.564175 4,18 V 9 C 4,8.4358701 4.4358701,8 5,8 H 7 A 1,1 0 0 0 8,7 1,1 0 0 0 7,6 Z"
   id="path2" />
<path
   style="color:#000000;fill:#000000;stroke-linecap:round;stroke-linejoin:round;-inkscape-stroke:none"
   d="M 8.875,9.0976563 C 7.7330354,10.013116 7,11.427777 7,13 c 0,2.749547 2.2504111,5 5,5 1.486989,0 2.834908,-0.65653 3.75,-1.693359 A 1,1 0 0 0 15.662109,14.896484 1,1 0 0 0 14.25,14.984375 C 13.699293,15.608344 12.902408,16 12,16 10.331313,16 9,14.668649 9,13 9,12.045826 9.4380465,11.208902 10.125,10.658203 A 1,1 0 0 0 10.279297,9.2519531 1,1 0 0 0 8.875,9.0976563 Z"
   id="path4" />
<path
   style="color:#000000;fill:#000000;stroke-linecap:round;stroke-linejoin:round;-inkscape-stroke:none"
   d="m 3,2 a 1,1 0 0 0 -0.7070312,0.2929688 1,1 0 0 0 0,1.4140625 L 20.292969,21.707031 a 1,1 0 0 0 1.414062,0 1,1 0 0 0 0,-1.414062 L 3.7070313,2.2929688 A 1,1 0 0 0 3,2 Z"
   id="path6" />
<path
   id="_StrokeToPathSelectorObject" />
d=&quot;M0 0 H 0&quot;/&gt;
    </svg>
