<?xml version="1.0" encoding="UTF-8" standalone="no"?>
<svg
   width="24"
   height="24"
   viewBox="0 0 24 24"
   fill="none"
   version="1.1"
   id="svg7"
   sodipodi:docname="camera-line.svg"
   inkscape:version="1.1.1 (c3084ef, 2021-09-22)"
   xmlns:inkscape="http://www.inkscape.org/namespaces/inkscape"
   xmlns:sodipodi="http://sodipodi.sourceforge.net/DTD/sodipodi-0.dtd"
   xmlns="http://www.w3.org/2000/svg"
   xmlns:svg="http://www.w3.org/2000/svg"><defs
   id="defs11" />
<sodipodi:namedview
   id="namedview9"
   pagecolor="#ffffff"
   bordercolor="#666666"
   borderopacity="1.0"
   inkscape:pageshadow="2"
   inkscape:pageopacity="0.0"
   inkscape:pagecheckerboard="0"
   showgrid="false"
   inkscape:zoom="32.75"
   inkscape:cx="11.984733"
   inkscape:cy="12"
   inkscape:window-width="1296"
   inkscape:window-height="1067"
   inkscape:window-x="0"
   inkscape:window-y="25"
   inkscape:window-maximized="0"
   inkscape:current-layer="svg7" />
<path
   style="color:#000000;fill:#000000;stroke-linecap:round;stroke-linejoin:round;-inkscape-stroke:none"
   d="M 10.070313,3 C 9.0684096,3 8.1299642,3.5023119 7.5742187,4.3359375 l -0.8125,1.21875 C 6.5756049,5.8338607 6.2652184,6 5.9296875,6 H 5 C 3.3549921,6 2,7.3549921 2,9 v 9 c 0,1.645023 1.3550102,3 3,3 h 14 c 1.645005,0 3,-1.354995 3,-3 V 9 C 22,7.3550102 20.645023,6 19,6 H 18.070312 C 17.734797,6 17.42434,5.8338 17.238281,5.5546875 l -0.8125,-1.21875 C 15.87004,3.5022511 14.93157,3 13.929688,3 Z m 0,2 h 3.859375 c 0.335515,0 0.645972,0.1662 0.832031,0.4453125 l 0.8125,1.21875 C 16.12996,7.4977489 17.06843,8 18.070312,8 H 19 c 0.564175,0 1,0.435852 1,1 v 9 c 0,0.564193 -0.435807,1 -1,1 H 5 C 4.435852,19 4,18.564175 4,18 V 9 C 4,8.4358701 4.4358701,8 5,8 H 5.9296875 C 6.9315753,8 7.8700358,7.4976881 8.4257813,6.6640625 l 0.8125,-1.21875 C 9.4243951,5.1661393 9.7347367,5 10.070313,5 Z"
   id="path2" />
<path
   style="color:#000000;fill:#000000;stroke-linecap:round;stroke-linejoin:round;-inkscape-stroke:none"
   d="m 12,9 c -2.1972922,0 -4,1.802708 -4,4 0,2.197292 1.8027078,4 4,4 2.197292,0 4,-1.802708 4,-4 0,-2.197292 -1.802708,-4 -4,-4 z m 0,2 c 1.116413,0 2,0.883587 2,2 0,1.116413 -0.883587,2 -2,2 -1.116413,0 -2,-0.883587 -2,-2 0,-1.116413 0.883587,-2 2,-2 z"
   id="circle4" />
<path
   id="_StrokeToPathSelectorObject" />
d=&quot;M0 0 H 0&quot;/&gt;
    </svg>
