<?xml version="1.0" encoding="UTF-8" standalone="no"?>
<svg
   width="24"
   height="24"
   viewBox="0 0 24 24"
   fill="none"
   version="1.1"
   id="svg9"
   sodipodi:docname="car-line.svg"
   inkscape:version="1.1.1 (c3084ef, 2021-09-22)"
   xmlns:inkscape="http://www.inkscape.org/namespaces/inkscape"
   xmlns:sodipodi="http://sodipodi.sourceforge.net/DTD/sodipodi-0.dtd"
   xmlns="http://www.w3.org/2000/svg"
   xmlns:svg="http://www.w3.org/2000/svg"><defs
   id="defs13" />
<sodipodi:namedview
   id="namedview11"
   pagecolor="#ffffff"
   bordercolor="#666666"
   borderopacity="1.0"
   inkscape:pageshadow="2"
   inkscape:pageopacity="0.0"
   inkscape:pagecheckerboard="0"
   showgrid="false"
   inkscape:zoom="32.75"
   inkscape:cx="11.984733"
   inkscape:cy="12"
   inkscape:window-width="1296"
   inkscape:window-height="1067"
   inkscape:window-x="0"
   inkscape:window-y="25"
   inkscape:window-maximized="0"
   inkscape:current-layer="svg9" />
<path
   style="color:#000000;fill:#000000;stroke-linecap:round;stroke-linejoin:round;-inkscape-stroke:none"
   d="M 7.3183594,3 C 6.1210104,3 5.0322118,3.7178128 4.5605469,4.8183594 L 2.0800781,10.605469 A 1,1 0 0 0 2.078125,10.8125 1,1 0 0 0 2,11 v 7 0.5 C 2,19.868854 3.1311113,21 4.5,21 5.6748166,21 6.5311731,20.101529 6.7910156,19 H 17.208984 c 0.259845,1.101539 1.116208,2 2.291016,2 1.368878,0 2.5,-1.131122 2.5,-2.5 V 18 11 a 1,1 0 0 0 -0.07813,-0.386719 1,1 0 0 0 -0.002,-0.0078 L 19.439453,4.8183594 C 18.96777,3.717909 17.879015,3 16.681641,3 Z m 0,2 h 9.3632816 c 0.402824,0 0.759253,0.2351806 0.917968,0.6054687 L 19.482422,10 H 4.5175781 L 6.4003906,5.6054687 C 6.559045,5.2352768 6.9156099,5 7.3183594,5 Z M 4,12 h 16 v 5 H 18 6 4 Z"
   id="path2" />
<path
   style="color:#000000;fill:#000000;stroke-linecap:round;stroke-linejoin:round;-inkscape-stroke:none"
   d="m 7,13 a 1,1 0 0 0 -1,1 1,1 0 0 0 1,1 h 0.00195 a 1,1 0 0 0 1,-1 1,1 0 0 0 -1,-1 z"
   id="path4" />
<path
   style="color:#000000;fill:#000000;stroke-linecap:round;stroke-linejoin:round;-inkscape-stroke:none"
   d="m 17,13 a 1,1 0 0 0 -1,1 1,1 0 0 0 1,1 h 0.002 a 1,1 0 0 0 1,-1 1,1 0 0 0 -1,-1 z"
   id="path6" />
<path
   id="_StrokeToPathSelectorObject" />
d=&quot;M0 0 H 0&quot;/&gt;
    </svg>
