<?xml version="1.0" encoding="UTF-8" standalone="no"?>
<svg
   width="24"
   height="24"
   viewBox="0 0 24 24"
   fill="none"
   version="1.1"
   id="svg7"
   sodipodi:docname="chats-2-line.svg"
   inkscape:version="1.1.1 (c3084ef, 2021-09-22)"
   xmlns:inkscape="http://www.inkscape.org/namespaces/inkscape"
   xmlns:sodipodi="http://sodipodi.sourceforge.net/DTD/sodipodi-0.dtd"
   xmlns="http://www.w3.org/2000/svg"
   xmlns:svg="http://www.w3.org/2000/svg"><defs
   id="defs11" />
<sodipodi:namedview
   id="namedview9"
   pagecolor="#ffffff"
   bordercolor="#666666"
   borderopacity="1.0"
   inkscape:pageshadow="2"
   inkscape:pageopacity="0.0"
   inkscape:pagecheckerboard="0"
   showgrid="false"
   inkscape:zoom="32.75"
   inkscape:cx="11.984733"
   inkscape:cy="12"
   inkscape:window-width="1296"
   inkscape:window-height="1067"
   inkscape:window-x="0"
   inkscape:window-y="25"
   inkscape:window-maximized="0"
   inkscape:current-layer="svg7" />
<path
   style="color:#000000;fill:#000000;stroke-linecap:round;stroke-linejoin:round;-inkscape-stroke:none"
   d="M 12,2 C 6.0448043,2 1,5.9061756 1,11 c 0,2.210785 1.0836834,4.154325 2.6523438,5.695312 -0.5158267,1.577769 -1.4601981,2.69848 -2.3593751,3.597657 A 1.0001,1.0001 0 0 0 2,22 c 3.0242601,0 4.9110467,-1.038616 6.6484375,-2.519531 A 1,1 0 0 0 8.7617188,18.070312 1,1 0 0 0 7.3515625,17.958984 c -0.9442822,0.804887 -1.837756,1.295261 -2.875,1.625 0.5243718,-0.775727 1.0132953,-1.671332 1.2949219,-2.785156 A 1.0001,1.0001 0 0 0 5.4394531,15.783203 C 3.8929667,14.500297 3,12.826954 3,11 3,7.2572732 6.9095067,4 12,4 c 4.700281,0 8.413288,2.8161608 8.933594,6.154297 a 1,1 0 0 0 1.142578,0.833984 1,1 0 0 0 0.833984,-1.1425779 C 22.200263,5.2912271 17.498709,2 12,2 Z"
   id="path2" />
<path
   style="color:#000000;fill:#000000;stroke-linecap:round;stroke-linejoin:round;-inkscape-stroke:none"
   d="m 16,10 c -1.857007,0 -3.556608,0.548963 -4.837891,1.498047 C 9.8808271,12.447131 9,13.853216 9,15.445313 c 0,1.592096 0.8808305,2.996201 2.162109,3.945312 1.281279,0.949111 2.980874,1.498047 4.837891,1.498047 0.69745,0 1.347174,-0.133705 1.986328,-0.28125 C 19.033388,21.387613 20.216071,22 22,22 a 1.0001,1.0001 0 0 0 0.679687,-1.734375 c -0.475851,-0.440639 -0.8576,-0.99925 -1.144531,-1.638672 C 22.375176,17.741797 23,16.684084 23,15.445313 23,13.853216 22.119173,12.447131 20.837891,11.498047 19.556608,10.548963 17.857007,10 16,10 Z m 0,2 c 1.45669,0 2.756194,0.446004 3.646484,1.105469 C 20.536775,13.764933 21,14.582811 21,15.445313 c 0,0.842109 -0.438766,1.637953 -1.289063,2.291015 a 1.0001,1.0001 0 0 0 -0.355468,1.056641 c 0.05872,0.215022 0.185472,0.341059 0.265625,0.533203 -0.250232,-0.164171 -0.489252,-0.285154 -0.78125,-0.523438 A 1.0001,1.0001 0 0 0 17.925781,18.619141 C 17.335901,18.792142 16.685336,18.888672 16,18.888672 c -1.45668,0 -2.75619,-0.445981 -3.646484,-1.105469 C 11.463222,17.123715 11,16.307814 11,15.445313 11,14.582811 11.463225,13.764933 12.353516,13.105469 13.243806,12.446004 14.54331,12 16,12 Z"
   id="path4" />
<path
   id="_StrokeToPathSelectorObject" />
d=&quot;M0 0 H 0&quot;/&gt;
    </svg>
