<?xml version="1.0" encoding="UTF-8" standalone="no"?>
<svg
   width="24"
   height="24"
   viewBox="0 0 24 24"
   fill="none"
   version="1.1"
   id="svg5"
   sodipodi:docname="chat-text-line.svg"
   inkscape:version="1.1.1 (c3084ef, 2021-09-22)"
   xmlns:inkscape="http://www.inkscape.org/namespaces/inkscape"
   xmlns:sodipodi="http://sodipodi.sourceforge.net/DTD/sodipodi-0.dtd"
   xmlns="http://www.w3.org/2000/svg"
   xmlns:svg="http://www.w3.org/2000/svg"><defs
   id="defs9" />
<sodipodi:namedview
   id="namedview7"
   pagecolor="#ffffff"
   bordercolor="#666666"
   borderopacity="1.0"
   inkscape:pageshadow="2"
   inkscape:pageopacity="0.0"
   inkscape:pagecheckerboard="0"
   showgrid="false"
   inkscape:zoom="32.75"
   inkscape:cx="11.984733"
   inkscape:cy="12"
   inkscape:window-width="1296"
   inkscape:window-height="1067"
   inkscape:window-x="0"
   inkscape:window-y="25"
   inkscape:window-maximized="0"
   inkscape:current-layer="svg5" />
<path
   style="color:#000000;fill:#000000;stroke-linecap:round;stroke-linejoin:round;-inkscape-stroke:none"
   d="M 12,2 C 6.4890047,2 2,6.4890047 2,12 c 0,1.77102 0.5152923,3.411809 1.3261719,4.857422 l -1.2753906,3.826172 a 1.0001,1.0001 0 0 0 1.265625,1.265625 L 7.1425781,20.673828 C 8.5881818,21.484687 10.228967,22 12,22 17.511026,22 22,17.511026 22,12 22,6.4890101 17.511031,2 12,2 Z m 0,2 c 4.430159,0 8,3.5698798 8,8 0,4.430165 -3.569835,8 -8,8 -1.578525,0 -3.0414772,-0.454901 -4.2792969,-1.240234 A 1.0001,1.0001 0 0 0 6.8691406,18.65625 L 4.5820312,19.417969 5.34375,17.130859 A 1.0001,1.0001 0 0 0 5.2402344,16.279297 C 4.4548788,15.041475 4,13.57854 4,12 4,7.5698852 7.5698852,4 12,4 Z M 8,8 a 1,1 0 0 0 -1,1 1,1 0 0 0 1,1 h 8 A 1,1 0 0 0 17,9 1,1 0 0 0 16,8 Z m 0,3 a 1,1 0 0 0 -1,1 1,1 0 0 0 1,1 h 8 a 1,1 0 0 0 1,-1 1,1 0 0 0 -1,-1 z m 0,3 a 1,1 0 0 0 -1,1 1,1 0 0 0 1,1 h 3 a 1,1 0 0 0 1,-1 1,1 0 0 0 -1,-1 z"
   id="path2" />
<path
   id="_StrokeToPathSelectorObject" />
d=&quot;M0 0 H 0&quot;/&gt;
    </svg>
