<?xml version="1.0" encoding="UTF-8" standalone="no"?>
<svg width="24" height="24" viewBox="0 0 24 24" fill="none" version="1.1" id="svg7" sodipodi:docname="chats-line.svg" inkscape:version="1.1.1 (c3084ef, 2021-09-22)"
   xmlns:inkscape="http://www.inkscape.org/namespaces/inkscape"
   xmlns:sodipodi="http://sodipodi.sourceforge.net/DTD/sodipodi-0.dtd"
   xmlns="http://www.w3.org/2000/svg"
   xmlns:svg="http://www.w3.org/2000/svg">
   <defs id="defs11" />
   <sodipodi:namedview id="namedview9" pagecolor="#ffffff" bordercolor="#666666" borderopacity="1.0" inkscape:pageshadow="2" inkscape:pageopacity="0.0" inkscape:pagecheckerboard="0" showgrid="false" inkscape:zoom="32.75" inkscape:cx="11.984733" inkscape:cy="12" inkscape:window-width="1296" inkscape:window-height="1067" inkscape:window-x="0" inkscape:window-y="25" inkscape:window-maximized="0" inkscape:current-layer="svg7" />
   <path style="color:#000000;fill:#000000;stroke-linecap:round;stroke-linejoin:round;-inkscape-stroke:none" d="M 9,3 C 5.6981415,3 3,5.6981415 3,9 c 0,0.9489282 0.3549818,1.788939 0.75,2.589844 l -0.6992187,2.09375 a 1.0001,1.0001 0 0 0 1.2656249,1.265625 l 1.921875,-0.640625 C 6.3593387,14.371721 6.4738539,14.445035 6.5996094,14.5 A 1,1 0 0 0 7.9160156,13.984375 1,1 0 0 0 7.4003906,12.667969 C 7.2125969,12.585888 7.0329252,12.489743 6.8613281,12.380859 A 1.0001,1.0001 0 0 0 6.0078125,12.275391 L 5.5820312,12.417969 5.7246094,11.992188 A 1.0001,1.0001 0 0 0 5.6191406,11.138672 C 5.2264613,10.519797 5,9.7913561 5,9 5,6.779024 6.779024,5 9,5 c 1.649024,0 3.051581,0.9897123 3.667969,2.4003906 A 1,1 0 0 0 13.984375,7.9160156 1,1 0 0 0 14.5,6.5996094 C 13.573189,4.4784912 11.451572,3 9,3 Z" id="path2" />
   <path style="color:#000000;fill:#000000;stroke-linecap:round;stroke-linejoin:round;-inkscape-stroke:none" d="m 15,9 c -3.301847,0 -6,2.698153 -6,6 0,3.301847 2.698153,6 6,6 0.948915,0 1.788931,-0.354973 2.589844,-0.75 l 2.09375,0.699219 a 1.0001,1.0001 0 0 0 1.265625,-1.265625 L 20.25,17.589844 C 20.645027,16.788931 21,15.948915 21,15 21,11.698153 18.301847,9 15,9 Z m 0,2 c 2.220947,0 4,1.779053 4,4 0,0.791332 -0.22646,1.519807 -0.619141,2.138672 a 1.0001,1.0001 0 0 0 -0.105468,0.853515 l 0.142578,0.425782 -0.425782,-0.142578 a 1.0001,1.0001 0 0 0 -0.853515,0.105468 C 16.519807,18.77354 15.791332,19 15,19 c -2.220947,0 -4,-1.779053 -4,-4 0,-2.220947 1.779053,-4 4,-4 z" id="path4" />
   <path id="_StrokeToPathSelectorObject" />
d=&quot;M0 0 H 0&quot;/&gt;
</svg>
