<?xml version="1.0" encoding="UTF-8" standalone="no"?>
<svg
   width="24"
   height="24"
   viewBox="0 0 24 24"
   fill="none"
   version="1.1"
   id="svg9"
   sodipodi:docname="chat-status-line.svg"
   inkscape:version="1.1.1 (c3084ef, 2021-09-22)"
   xmlns:inkscape="http://www.inkscape.org/namespaces/inkscape"
   xmlns:sodipodi="http://sodipodi.sourceforge.net/DTD/sodipodi-0.dtd"
   xmlns="http://www.w3.org/2000/svg"
   xmlns:svg="http://www.w3.org/2000/svg"><defs
   id="defs13" />
<sodipodi:namedview
   id="namedview11"
   pagecolor="#ffffff"
   bordercolor="#666666"
   borderopacity="1.0"
   inkscape:pageshadow="2"
   inkscape:pageopacity="0.0"
   inkscape:pagecheckerboard="0"
   showgrid="false"
   inkscape:zoom="32.75"
   inkscape:cx="11.984733"
   inkscape:cy="12"
   inkscape:window-width="1296"
   inkscape:window-height="1067"
   inkscape:window-x="0"
   inkscape:window-y="25"
   inkscape:window-maximized="0"
   inkscape:current-layer="svg9" />
<path
   style="color:#000000;fill:#000000;stroke-linecap:round;stroke-linejoin:round;-inkscape-stroke:none"
   d="M 10.890625,2.0605469 C 5.8919691,2.6131267 2,6.8637657 2,12 c 0,1.77102 0.5152923,3.411809 1.3261719,4.857422 l -1.2753906,3.826172 a 1.0001,1.0001 0 0 0 1.265625,1.265625 L 7.1425781,20.673828 C 8.5881818,21.484687 10.228967,22 12,22 c 5.136272,0 9.386821,-3.891941 9.939453,-8.890625 a 1,1 0 0 0 -0.884766,-1.103516 1,1 0 0 0 -1.103515,0.884766 C 19.508805,16.891932 16.128919,20 12,20 10.421475,20 8.9585228,19.545099 7.7207031,18.759766 A 1.0001,1.0001 0 0 0 6.8691406,18.65625 L 4.5820312,19.417969 5.34375,17.130859 A 1.0001,1.0001 0 0 0 5.2402344,16.279297 C 4.4548788,15.041475 4,13.57854 4,12 4,7.8711436 7.1081399,4.4911474 11.109375,4.0488281 A 1,1 0 0 0 11.994141,2.9453125 1,1 0 0 0 10.890625,2.0605469 Z m 4.443359,0.5078125 a 1,1 0 0 0 -1.277343,0.6113281 1,1 0 0 0 0.609375,1.2753906 c 2.281085,0.8062613 4.093352,2.6228515 4.890625,4.9082032 a 1,1 0 0 0 1.273437,0.6152343 1,1 0 0 0 0.613281,-1.2734375 C 20.445034,5.8434149 18.190294,3.5779363 15.333984,2.5683594 Z"
   id="path2" />
<path
   style="color:#000000;fill:#000000;stroke-linecap:round;stroke-linejoin:round;-inkscape-stroke:none"
   d="M 12,6 C 10.65386,6 9.4007006,6.4481584 8.3984375,7.2011719 A 1,1 0 0 0 8.1992188,8.6015625 1,1 0 0 0 9.5996094,8.7988281 C 10.268845,8.2960228 11.094542,8 12,8 c 2.220952,0 4,1.7790288 4,4 0,0.905452 -0.295996,1.731069 -0.798828,2.400391 a 1,1 0 0 0 0.197266,1.40039 1,1 0 0 0 1.40039,-0.199218 C 17.551795,14.599286 18,13.346146 18,12 18,8.6981367 15.301842,6 12,6 Z m -5,5 a 1,1 0 0 0 -1,1 c 0,3.301842 2.6981367,6 6,6 a 1,1 0 0 0 1,-1 1,1 0 0 0 -1,-1 C 9.7790288,16 8,14.220952 8,12 A 1,1 0 0 0 7,11 Z"
   id="path4" />
<path
   style="color:#000000;fill:#000000;stroke-linecap:round;stroke-linejoin:round;-inkscape-stroke:none"
   d="m 12,10 c -1.092724,0 -2,0.907276 -2,2 0,1.092724 0.907276,2 2,2 1.092724,0 2,-0.907276 2,-2 0,-1.092724 -0.907276,-2 -2,-2 z"
   id="circle6" />
<path
   id="_StrokeToPathSelectorObject" />
d=&quot;M0 0 H 0&quot;/&gt;
    </svg>
