<?xml version="1.0" encoding="UTF-8" standalone="no"?>
<svg
   width="24"
   height="24"
   viewBox="0 0 24 24"
   fill="none"
   version="1.1"
   id="svg11"
   sodipodi:docname="checkbox-list-line.svg"
   inkscape:version="1.1.1 (c3084ef, 2021-09-22)"
   xmlns:inkscape="http://www.inkscape.org/namespaces/inkscape"
   xmlns:sodipodi="http://sodipodi.sourceforge.net/DTD/sodipodi-0.dtd"
   xmlns="http://www.w3.org/2000/svg"
   xmlns:svg="http://www.w3.org/2000/svg"><defs
   id="defs15" />
<sodipodi:namedview
   id="namedview13"
   pagecolor="#ffffff"
   bordercolor="#666666"
   borderopacity="1.0"
   inkscape:pageshadow="2"
   inkscape:pageopacity="0.0"
   inkscape:pagecheckerboard="0"
   showgrid="false"
   inkscape:zoom="32.75"
   inkscape:cx="11.984733"
   inkscape:cy="12"
   inkscape:window-width="1296"
   inkscape:window-height="1067"
   inkscape:window-x="0"
   inkscape:window-y="25"
   inkscape:window-maximized="0"
   inkscape:current-layer="svg11" />
<path
   style="color:#000000;fill:#000000;stroke-linecap:round;stroke-linejoin:round;-inkscape-stroke:none"
   d="m 11,4 a 1,1 0 0 0 -1,1 1,1 0 0 0 1,1 H 21 A 1,1 0 0 0 22,5 1,1 0 0 0 21,4 Z m 0,7 a 1,1 0 0 0 -1,1 1,1 0 0 0 1,1 h 10 a 1,1 0 0 0 1,-1 1,1 0 0 0 -1,-1 z m 0,7 a 1,1 0 0 0 -1,1 1,1 0 0 0 1,1 h 10 a 1,1 0 0 0 1,-1 1,1 0 0 0 -1,-1 z"
   id="path2" />
<path
   style="color:#000000;fill:#000000;stroke-linecap:round;stroke-linejoin:round;-inkscape-stroke:none"
   d="M 4,2 C 2.9092983,2 2,2.9092983 2,4 V 6 C 2,7.0907017 2.9092983,8 4,8 H 6 C 7.0907017,8 8,7.0907017 8,6 V 4 C 8,2.9092983 7.0907017,2 6,2 Z M 4,4 H 6 V 6 H 4 Z"
   id="rect4" />
<path
   style="color:#000000;fill:#000000;stroke-linecap:round;stroke-linejoin:round;-inkscape-stroke:none"
   d="M 4,9 C 2.9092983,9 2,9.9092983 2,11 v 2 c 0,1.090702 0.9092983,2 2,2 h 2 c 1.0907017,0 2,-0.909298 2,-2 V 11 C 8,9.9092983 7.0907017,9 6,9 Z m 0,2 h 2 v 2 H 4 Z"
   id="rect6" />
<path
   style="color:#000000;fill:#000000;stroke-linecap:round;stroke-linejoin:round;-inkscape-stroke:none"
   d="m 4,16 c -1.0907017,0 -2,0.909298 -2,2 v 2 c 0,1.090702 0.9092983,2 2,2 h 2 c 1.0907017,0 2,-0.909298 2,-2 V 18 C 8,16.909298 7.0907017,16 6,16 Z m 0,2 h 2 v 2 H 4 Z"
   id="rect8" />
<path
   id="_StrokeToPathSelectorObject" />
d=&quot;M0 0 H 0&quot;/&gt;
    </svg>
