<?xml version="1.0" encoding="UTF-8" standalone="no"?>
<svg
   width="24"
   height="24"
   viewBox="0 0 24 24"
   fill="none"
   version="1.1"
   id="svg7"
   sodipodi:docname="chevron-left-circle-line.svg"
   inkscape:version="1.1.1 (c3084ef, 2021-09-22)"
   xmlns:inkscape="http://www.inkscape.org/namespaces/inkscape"
   xmlns:sodipodi="http://sodipodi.sourceforge.net/DTD/sodipodi-0.dtd"
   xmlns="http://www.w3.org/2000/svg"
   xmlns:svg="http://www.w3.org/2000/svg"><defs
   id="defs11" />
<sodipodi:namedview
   id="namedview9"
   pagecolor="#ffffff"
   bordercolor="#666666"
   borderopacity="1.0"
   inkscape:pageshadow="2"
   inkscape:pageopacity="0.0"
   inkscape:pagecheckerboard="0"
   showgrid="false"
   inkscape:zoom="32.75"
   inkscape:cx="11.984733"
   inkscape:cy="12"
   inkscape:window-width="1296"
   inkscape:window-height="1067"
   inkscape:window-x="0"
   inkscape:window-y="25"
   inkscape:window-maximized="0"
   inkscape:current-layer="svg7" />
<path
   style="color:#000000;fill:#000000;stroke-linecap:round;stroke-linejoin:round;-inkscape-stroke:none"
   d="M 13,8 A 1,1 0 0 0 12.292969,8.2929688 L 9.2929688,11.292969 a 1.0001,1.0001 0 0 0 0,1.414062 l 3.0000002,3 a 1,1 0 0 0 1.414062,0 1,1 0 0 0 0,-1.414062 L 11.414063,12 13.707031,9.7070313 a 1,1 0 0 0 0,-1.4140625 A 1,1 0 0 0 13,8 Z"
   id="path2" />
<path
   style="color:#000000;fill:#000000;stroke-linecap:round;stroke-linejoin:round;-inkscape-stroke:none"
   d="M 12,2 C 6.4890026,2 2,6.4890026 2,12 2,17.510997 6.4890026,22 12,22 17.510997,22 22,17.510997 22,12 22,6.4890026 17.510997,2 12,2 Z m 0,2 c 4.430118,0 8,3.5698818 8,8 0,4.430118 -3.569882,8 -8,8 C 7.5698818,20 4,16.430118 4,12 4,7.5698818 7.5698818,4 12,4 Z"
   id="circle4" />
<path
   id="_StrokeToPathSelectorObject" />
d=&quot;M0 0 H 0&quot;/&gt;
    </svg>
