<?xml version="1.0" encoding="UTF-8" standalone="no"?>
<svg
   width="24"
   height="24"
   viewBox="0 0 24 24"
   fill="none"
   version="1.1"
   id="svg11"
   sodipodi:docname="chromecast-line.svg"
   inkscape:version="1.1.1 (c3084ef, 2021-09-22)"
   xmlns:inkscape="http://www.inkscape.org/namespaces/inkscape"
   xmlns:sodipodi="http://sodipodi.sourceforge.net/DTD/sodipodi-0.dtd"
   xmlns="http://www.w3.org/2000/svg"
   xmlns:svg="http://www.w3.org/2000/svg"><defs
   id="defs15" />
<sodipodi:namedview
   id="namedview13"
   pagecolor="#ffffff"
   bordercolor="#666666"
   borderopacity="1.0"
   inkscape:pageshadow="2"
   inkscape:pageopacity="0.0"
   inkscape:pagecheckerboard="0"
   showgrid="false"
   inkscape:zoom="32.75"
   inkscape:cx="11.984733"
   inkscape:cy="12"
   inkscape:window-width="1296"
   inkscape:window-height="1067"
   inkscape:window-x="0"
   inkscape:window-y="25"
   inkscape:window-maximized="0"
   inkscape:current-layer="svg11" />
<path
   style="color:#000000;fill:#000000;stroke-linecap:round;stroke-linejoin:round;-inkscape-stroke:none"
   d="m 3,19 a 1,1 0 0 0 -1,1 1,1 0 0 0 1,1 h 0.00977 a 1,1 0 0 0 1,-1 1,1 0 0 0 -1,-1 z"
   id="path2" />
<path
   style="color:#000000;fill:#000000;stroke-linecap:round;stroke-linejoin:round;-inkscape-stroke:none"
   d="m 3,15 a 1,1 0 0 0 -1,1 1,1 0 0 0 1,1 c 1.6686867,0 3,1.331351 3,3 a 1,1 0 0 0 1,1 1,1 0 0 0 1,-1 C 8,17.250453 5.7495889,15 3,15 Z"
   id="path4" />
<path
   style="color:#000000;fill:#000000;stroke-linecap:round;stroke-linejoin:round;-inkscape-stroke:none"
   d="m 3,11 a 1,1 0 0 0 -1,1 1,1 0 0 0 1,1 c 3.8778396,0 7,3.122141 7,7 a 1,1 0 0 0 1,1 1,1 0 0 0 1,-1 C 12,15.041268 7.9587116,11 3,11 Z"
   id="path6" />
<path
   style="color:#000000;fill:#000000;stroke-linecap:round;stroke-linejoin:round;-inkscape-stroke:none"
   d="M 5,3 C 3.3549921,3 2,4.3549921 2,6 v 2.5 a 1,1 0 0 0 1,1 1,1 0 0 0 1,-1 V 6 C 4,5.4358701 4.4358701,5 5,5 h 14 c 0.564175,0 1,0.435852 1,1 v 12 c 0,0.564193 -0.435807,1 -1,1 h -4 a 1,1 0 0 0 -1,1 1,1 0 0 0 1,1 h 4 c 1.645005,0 3,-1.354995 3,-3 V 6 C 22,4.3550102 20.645023,3 19,3 Z"
   id="path8" />
<path
   id="_StrokeToPathSelectorObject" />
d=&quot;M0 0 H 0&quot;/&gt;
    </svg>
