<?xml version="1.0" encoding="UTF-8" standalone="no"?>
<svg
   width="24"
   height="24"
   viewBox="0 0 24 24"
   fill="none"
   version="1.1"
   id="svg5"
   sodipodi:docname="church-line.svg"
   inkscape:version="1.1.1 (c3084ef, 2021-09-22)"
   xmlns:inkscape="http://www.inkscape.org/namespaces/inkscape"
   xmlns:sodipodi="http://sodipodi.sourceforge.net/DTD/sodipodi-0.dtd"
   xmlns="http://www.w3.org/2000/svg"
   xmlns:svg="http://www.w3.org/2000/svg"><defs
   id="defs9" />
<sodipodi:namedview
   id="namedview7"
   pagecolor="#ffffff"
   bordercolor="#666666"
   borderopacity="1.0"
   inkscape:pageshadow="2"
   inkscape:pageopacity="0.0"
   inkscape:pagecheckerboard="0"
   showgrid="false"
   inkscape:zoom="32.75"
   inkscape:cx="11.984733"
   inkscape:cy="12"
   inkscape:window-width="1296"
   inkscape:window-height="1067"
   inkscape:window-x="0"
   inkscape:window-y="25"
   inkscape:window-maximized="0"
   inkscape:current-layer="svg5" />
<path
   style="color:#000000;fill:#000000;stroke-linecap:round;stroke-linejoin:round;-inkscape-stroke:none"
   d="m 12,3 a 1,1 0 0 0 -1,1 v 1 h -1 a 1,1 0 0 0 -1,1 1,1 0 0 0 1,1 h 1 V 8.5 L 3.4003906,14.199219 A 1.0001,1.0001 0 0 0 4,16 h 1 v 3 H 3 a 1,1 0 0 0 -1,1 1,1 0 0 0 1,1 h 3 4 4 4 3 a 1,1 0 0 0 1,-1 1,1 0 0 0 -1,-1 h -2 v -3 h 1 a 1.0001,1.0001 0 0 0 0.599609,-1.800781 L 13,8.5 V 7 h 1 A 1,1 0 0 0 15,6 1,1 0 0 0 14,5 H 13 V 4 A 1,1 0 0 0 12,3 Z m 0,7.25 5.570312,4.179688 A 1.0001,1.0001 0 0 0 17,15 v 4 h -2 v -2 c 0,-1.645005 -1.354995,-3 -3,-3 -1.645005,0 -3,1.354995 -3,3 v 2 H 7 V 15 A 1.0001,1.0001 0 0 0 6.4296875,14.429688 Z M 12,16 c 0.564193,0 1,0.435807 1,1 v 2 h -2 v -2 c 0,-0.564193 0.435807,-1 1,-1 z"
   id="path2" />
<path
   id="_StrokeToPathSelectorObject" />
d=&quot;M0 0 H 0&quot;/&gt;
    </svg>
