<?xml version="1.0" encoding="UTF-8" standalone="no"?>
<svg
   width="24"
   height="24"
   viewBox="0 0 24 24"
   fill="none"
   version="1.1"
   id="svg7"
   sodipodi:docname="clipboard-minus-line.svg"
   inkscape:version="1.1.1 (c3084ef, 2021-09-22)"
   xmlns:inkscape="http://www.inkscape.org/namespaces/inkscape"
   xmlns:sodipodi="http://sodipodi.sourceforge.net/DTD/sodipodi-0.dtd"
   xmlns="http://www.w3.org/2000/svg"
   xmlns:svg="http://www.w3.org/2000/svg"><defs
   id="defs11" />
<sodipodi:namedview
   id="namedview9"
   pagecolor="#ffffff"
   bordercolor="#666666"
   borderopacity="1.0"
   inkscape:pageshadow="2"
   inkscape:pageopacity="0.0"
   inkscape:pagecheckerboard="0"
   showgrid="false"
   inkscape:zoom="32.75"
   inkscape:cx="11.984733"
   inkscape:cy="12"
   inkscape:window-width="1296"
   inkscape:window-height="1067"
   inkscape:window-x="0"
   inkscape:window-y="25"
   inkscape:window-maximized="0"
   inkscape:current-layer="svg7" />
<path
   style="color:#000000;fill:#000000;stroke-linecap:round;stroke-linejoin:round;-inkscape-stroke:none"
   d="M 10,2 C 8.7433488,2 7.8594098,2.8932999 7.4160156,4 H 6 C 4.3549921,4 3,5.3549921 3,7 v 12 c 0,1.645023 1.3550102,3 3,3 h 12 c 1.645005,0 3,-1.354995 3,-3 V 7 C 21,5.3550102 19.645023,4 18,4 H 16.583984 C 16.140594,2.893303 15.256663,2 14,2 Z m 0,2 h 4 c 0.564175,0 1,0.435852 1,1 0,0.564148 -0.435825,1 -1,1 H 10 C 9.4358701,6 9,5.5641299 9,5 9,4.4358701 9.4358701,4 10,4 Z M 6,6 H 7.4160156 C 7.8594098,7.1067001 8.7433488,8 10,8 h 4 c 1.256663,0 2.140594,-0.893303 2.583984,-2 H 18 c 0.564175,0 1,0.435852 1,1 v 12 c 0,0.564193 -0.435807,1 -1,1 H 6 C 5.435852,20 5,19.564175 5,19 V 7 C 5,6.4358701 5.4358701,6 6,6 Z"
   id="path2" />
<path
   style="color:#000000;fill:#000000;stroke-linecap:round;stroke-linejoin:round;-inkscape-stroke:none"
   d="m 9,13 a 1,1 0 0 0 -1,1 1,1 0 0 0 1,1 h 3 3 a 1,1 0 0 0 1,-1 1,1 0 0 0 -1,-1 h -3 z"
   id="path4" />
<path
   id="_StrokeToPathSelectorObject" />
d=&quot;M0 0 H 0&quot;/&gt;
    </svg>
