<?xml version="1.0" encoding="UTF-8" standalone="no"?>
<svg
   width="24"
   height="24"
   viewBox="0 0 24 24"
   fill="none"
   version="1.1"
   id="svg7"
   sodipodi:docname="coins-line.svg"
   inkscape:version="1.1.1 (c3084ef, 2021-09-22)"
   xmlns:inkscape="http://www.inkscape.org/namespaces/inkscape"
   xmlns:sodipodi="http://sodipodi.sourceforge.net/DTD/sodipodi-0.dtd"
   xmlns="http://www.w3.org/2000/svg"
   xmlns:svg="http://www.w3.org/2000/svg"><defs
   id="defs11" />
<sodipodi:namedview
   id="namedview9"
   pagecolor="#ffffff"
   bordercolor="#666666"
   borderopacity="1.0"
   inkscape:pageshadow="2"
   inkscape:pageopacity="0.0"
   inkscape:pagecheckerboard="0"
   showgrid="false"
   inkscape:zoom="32.75"
   inkscape:cx="11.984733"
   inkscape:cy="12"
   inkscape:window-width="1296"
   inkscape:window-height="1067"
   inkscape:window-x="0"
   inkscape:window-y="25"
   inkscape:window-maximized="0"
   inkscape:current-layer="svg7" />
<path
   style="color:#000000;fill:#000000;stroke-linecap:round;stroke-linejoin:round;-inkscape-stroke:none"
   d="M 14,4 C 11.951193,4 10.092274,4.3435445 8.65625,4.9589844 7.938238,5.2667043 7.3200499,5.6403547 6.8378906,6.1289062 6.5409837,6.4297494 6.4698813,6.8764837 6.3222656,7.28125 A 1,1 0 0 0 6.2929687,7.2929687 1,1 0 0 0 6,8 v 4 c 0,0.897691 0.5241006,1.651843 1.1933594,2.189453 0.6692587,0.537611 1.5245218,0.933033 2.5195312,1.230469 C 10.957047,15.791808 12.423686,16 14,16 c 1.576314,0 3.042953,-0.208192 4.287109,-0.580078 0.995021,-0.297436 1.850274,-0.692856 2.519532,-1.230469 C 21.475899,13.651841 22,12.897684 22,12 V 8 A 1,1 0 0 0 21.878906,7.5488281 1,1 0 0 0 21.804687,7.4394531 1,1 0 0 0 21.673828,7.2695312 C 21.525697,6.8695156 21.456125,6.4268202 21.162109,6.1289062 20.67995,5.6403547 20.061762,5.2667043 19.34375,4.9589844 17.907726,4.3435445 16.048807,4 14,4 Z m 0,2 c 1.817189,0 3.459167,0.3265285 4.556641,0.796875 0.548736,0.2351733 0.955363,0.5090038 1.18164,0.7382812 C 19.964559,7.7644337 20,7.9010445 20,8 20,8.1217794 19.93206,8.3277178 19.554687,8.6308594 19.177315,8.934001 18.531374,9.2592232 17.712891,9.5039063 16.689449,9.8098194 15.398083,10 14,10 12.601917,10 11.310551,9.8098194 10.287109,9.5039063 9.4686348,9.2592232 8.8226887,8.9340029 8.4453125,8.6308594 8.0679363,8.3277159 8,8.1217729 8,8 8,7.9010445 8.0354412,7.7644337 8.2617188,7.5351562 8.4879963,7.3058788 8.8946227,7.0320483 9.4433594,6.796875 10.540833,6.3265285 12.182811,6 14,6 Z m -6,4.583984 c 0.532794,0.306665 1.0365344,0.633741 1.7128906,0.835938 C 10.957047,11.791808 12.423686,12 14,12 15.576314,12 17.042953,11.791808 18.287109,11.419922 18.963473,11.217725 19.467205,10.890649 20,10.583984 V 12 c 0,0.121815 -0.06795,0.327723 -0.445313,0.630859 -0.377366,0.303137 -1.023319,0.628384 -1.841796,0.873047 C 16.689449,13.809819 15.398083,14 14,14 12.601917,14 11.310551,13.809819 10.287109,13.503906 9.4686406,13.259243 8.8226827,12.933998 8.4453125,12.630859 8.0679423,12.327721 8,12.121808 8,12 Z"
   id="path2" />
<path
   style="color:#000000;fill:#000000;stroke-linecap:round;stroke-linejoin:round;-inkscape-stroke:none"
   d="M 6.8007812,8.3085938 C 5.5254463,8.5682391 4.4212346,8.9710586 3.5605469,9.5429688 2.6998591,10.114879 2,10.946218 2,12 v 4 c 0,0.897691 0.5241006,1.651843 1.1933594,2.189453 0.6692587,0.537611 1.5245218,0.933033 2.5195312,1.230469 C 6.9570567,19.791801 8.4236386,20 10,20 c 1.576314,0 3.042953,-0.208192 4.287109,-0.580078 0.995021,-0.297436 1.850274,-0.692856 2.519532,-1.230469 C 17.475899,17.651841 18,16.897684 18,16 v -1 a 1,1 0 0 0 -1,-1 1,1 0 0 0 -1,1 v 1 c 0,0.121815 -0.06795,0.327723 -0.445312,0.630859 -0.377367,0.303137 -1.02332,0.628384 -1.841797,0.873047 C 12.689449,17.809819 11.398083,18 10,18 8.6018644,18 7.310601,17.809826 6.2871094,17.503906 5.4686406,17.259243 4.8226827,16.933998 4.4453125,16.630859 4.0679423,16.327721 4,16.121808 4,16 v -1.416016 c 0.5327986,0.306662 1.0365304,0.633755 1.7128906,0.835938 C 6.9570567,15.791801 8.4236386,16 10,16 c 0.73663,0 1.449925,-0.04649 2.126953,-0.132812 A 1,1 0 0 0 12.992188,14.75 1,1 0 0 0 11.873047,13.884766 C 11.282676,13.960041 10.653369,14 10,14 8.6018644,14 7.310601,13.809826 6.2871094,13.503906 5.4686406,13.259243 4.8226827,12.933998 4.4453125,12.630859 4.0679423,12.327721 4,12.121808 4,12 4,11.857083 4.1179423,11.573168 4.6660156,11.208984 5.2140889,10.8448 6.1096061,10.491365 7.1992187,10.269531 a 1,1 0 0 0 0.78125,-1.1796872 1,1 0 0 0 -1.1796875,-0.78125 z"
   id="path4" />
<path
   id="_StrokeToPathSelectorObject" />
d=&quot;M0 0 H 0&quot;/&gt;
    </svg>
