<?xml version="1.0" encoding="UTF-8" standalone="no"?>
<svg
   width="24"
   height="24"
   viewBox="0 0 24 24"
   fill="none"
   version="1.1"
   id="svg7"
   sodipodi:docname="comet-line.svg"
   inkscape:version="1.1.1 (c3084ef, 2021-09-22)"
   xmlns:inkscape="http://www.inkscape.org/namespaces/inkscape"
   xmlns:sodipodi="http://sodipodi.sourceforge.net/DTD/sodipodi-0.dtd"
   xmlns="http://www.w3.org/2000/svg"
   xmlns:svg="http://www.w3.org/2000/svg"><defs
   id="defs11" />
<sodipodi:namedview
   id="namedview9"
   pagecolor="#ffffff"
   bordercolor="#666666"
   borderopacity="1.0"
   inkscape:pageshadow="2"
   inkscape:pageopacity="0.0"
   inkscape:pagecheckerboard="0"
   showgrid="false"
   inkscape:zoom="32.75"
   inkscape:cx="11.984733"
   inkscape:cy="12"
   inkscape:window-width="1296"
   inkscape:window-height="1067"
   inkscape:window-x="0"
   inkscape:window-y="25"
   inkscape:window-maximized="0"
   inkscape:current-layer="svg7" />
<path
   style="color:#000000;fill:#000000;stroke-linecap:round;stroke-linejoin:round;-inkscape-stroke:none"
   d="m 14.828125,2.1777344 c -1.793552,7e-7 -3.586593,0.6822675 -4.9492187,2.0449218 L 9.171875,4.9296875 a 1,1 0 0 0 0,1.4140625 1,1 0 0 0 1.414063,0 l 0.707031,-0.7070313 c 1.960945,-1.9609866 5.109259,-1.961011 7.070312,0 1.96095,1.9609918 1.960938,5.1093753 0,7.0703123 l -2.121094,2.121094 a 1,1 0 0 0 0,1.414062 1,1 0 0 0 1.414063,0 l 2.121094,-2.121093 c 2.725257,-2.725258 2.725245,-7.1731342 0,-9.8984378 C 18.414673,2.8600141 16.621677,2.1777337 14.828125,2.1777344 Z M 7.7578125,6.7578125 A 1,1 0 0 0 7.0507812,7.0507812 L 4.9296875,9.171875 a 1,1 0 0 0 0,1.414063 1,1 0 0 0 1.4140625,0 L 8.4648438,8.4648438 a 1,1 0 0 0 0,-1.4140626 A 1,1 0 0 0 7.7578125,6.7578125 Z M 9.171875,10.585938 2.8066406,16.949219 a 1,1 0 0 0 0,1.414062 1,1 0 0 0 1.4160156,0 L 10.585938,12 a 1,1 0 0 0 0,-1.414062 1,1 0 0 0 -1.414063,0 z M 3.515625,11 A 1,1 0 0 0 2.8066406,11.292969 L 2.0996094,12 a 1,1 0 0 0 0,1.414063 1,1 0 0 0 1.4160156,0 l 0.7070312,-0.707032 a 1,1 0 0 0 0,-1.414062 A 1,1 0 0 0 3.515625,11 Z m 9.191406,2.121094 A 1,1 0 0 0 12,13.414063 l -0.707031,0.707031 a 1,1 0 0 0 0,1.414062 1,1 0 0 0 1.414062,0 l 0.707032,-0.707031 a 1,1 0 0 0 0,-1.414062 1,1 0 0 0 -0.707032,-0.292969 z M 9.8789063,15.949219 A 1,1 0 0 0 9.171875,16.242187 l -2.1210938,2.121094 a 1,1 0 0 0 0,1.414063 1,1 0 0 0 1.4140626,0 L 10.585938,17.65625 a 1,1 0 0 0 0,-1.414063 1,1 0 0 0 -0.7070317,-0.292968 z m 4.2421877,1 -1.414063,1.414062 a 1,1 0 0 0 0,1.414063 1,1 0 0 0 1.414063,0 l 1.414062,-1.414063 a 1,1 0 0 0 0,-1.414062 1,1 0 0 0 -1.414062,0 z"
   id="path2" />
<path
   style="color:#000000;fill:#000000;stroke-linecap:round;stroke-linejoin:round;-inkscape-stroke:none"
   d="m 14.828125,6.171875 c -1.645008,0 -3,1.354992 -3,3 0,1.645008 1.354992,3 3,3 1.645008,0 3,-1.354992 3,-3 0,-1.645008 -1.354992,-3 -3,-3 z m 0,2 c 0.564129,0 1,0.4358712 1,1 0,0.5641288 -0.435871,1 -1,1 -0.564129,0 -1,-0.4358712 -1,-1 0,-0.5641288 0.435871,-1 1,-1 z"
   id="circle4"
   transform="rotate(45 14.8284 9.17157)" />
<path
   id="_StrokeToPathSelectorObject" />
d=&quot;M0 0 H 0&quot;/&gt;
    </svg>
