<?xml version="1.0" encoding="UTF-8" standalone="no"?>
<svg
   width="24"
   height="24"
   viewBox="0 0 24 24"
   fill="none"
   version="1.1"
   id="svg7"
   sodipodi:docname="comments-2-line.svg"
   inkscape:version="1.1.1 (c3084ef, 2021-09-22)"
   xmlns:inkscape="http://www.inkscape.org/namespaces/inkscape"
   xmlns:sodipodi="http://sodipodi.sourceforge.net/DTD/sodipodi-0.dtd"
   xmlns="http://www.w3.org/2000/svg"
   xmlns:svg="http://www.w3.org/2000/svg"><defs
   id="defs11" />
<sodipodi:namedview
   id="namedview9"
   pagecolor="#ffffff"
   bordercolor="#666666"
   borderopacity="1.0"
   inkscape:pageshadow="2"
   inkscape:pageopacity="0.0"
   inkscape:pagecheckerboard="0"
   showgrid="false"
   inkscape:zoom="32.75"
   inkscape:cx="11.984733"
   inkscape:cy="12"
   inkscape:window-width="1296"
   inkscape:window-height="1067"
   inkscape:window-x="0"
   inkscape:window-y="25"
   inkscape:window-maximized="0"
   inkscape:current-layer="svg7" />
<path
   style="color:#000000;fill:#000000;stroke-linecap:round;stroke-linejoin:round;-inkscape-stroke:none"
   d="M 5,2 C 3.3549921,2 2,3.3549921 2,5 v 4 c 0,1.645023 1.3550102,3 3,3 0.564148,0 1,0.435825 1,1 v 1 a 1,1 0 0 0 1,1 1,1 0 0 0 1,-1 V 13 C 8,11.354977 6.6449898,10 5,10 4.435852,10 4,9.5641745 4,9 V 5 C 4,4.4358701 4.4358701,4 5,4 h 7 c 0.564175,0 1,0.435852 1,1 v 3 a 1,1 0 0 0 1,1 1,1 0 0 0 1,-1 V 5 C 15,3.3550102 13.645023,2 12,2 Z"
   id="path2" />
<path
   style="color:#000000;fill:#000000;stroke-linecap:round;stroke-linejoin:round;-inkscape-stroke:none"
   d="m 12,10 c -1.645005,0 -3,1.354995 -3,3 v 4 c 0,1.645005 1.354995,3 3,3 h 1.171875 c 0.265568,0 0.519186,0.105124 0.707031,0.292969 l 1.253907,1.253906 c 0.499055,0.499056 1.257119,0.600604 1.830078,0.363281 C 17.53585,21.672834 18,21.065152 18,20.359375 18,20.149321 18.149321,20 18.359375,20 H 19 c 1.645005,0 3,-1.354995 3,-3 v -4 c 0,-1.645005 -1.354995,-3 -3,-3 z m 0,2 h 7 c 0.564193,0 1,0.435807 1,1 v 4 c 0,0.564193 -0.435807,1 -1,1 h -0.640625 c -1.079628,0 -1.85721,0.814906 -2.130859,1.814453 L 15.292969,18.878906 C 14.730615,18.316552 13.967106,18 13.171875,18 H 12 c -0.564193,0 -1,-0.435807 -1,-1 v -4 c 0,-0.564193 0.435807,-1 1,-1 z"
   id="path4" />
<path
   id="_StrokeToPathSelectorObject" />
d=&quot;M0 0 H 0&quot;/&gt;
    </svg>
