<?xml version="1.0" encoding="UTF-8" standalone="no"?>
<svg
   width="24"
   height="24"
   viewBox="0 0 24 24"
   fill="none"
   version="1.1"
   id="svg13"
   sodipodi:docname="community-line.svg"
   inkscape:version="1.1.1 (c3084ef, 2021-09-22)"
   xmlns:inkscape="http://www.inkscape.org/namespaces/inkscape"
   xmlns:sodipodi="http://sodipodi.sourceforge.net/DTD/sodipodi-0.dtd"
   xmlns="http://www.w3.org/2000/svg"
   xmlns:svg="http://www.w3.org/2000/svg"><defs
   id="defs17" />
<sodipodi:namedview
   id="namedview15"
   pagecolor="#ffffff"
   bordercolor="#666666"
   borderopacity="1.0"
   inkscape:pageshadow="2"
   inkscape:pageopacity="0.0"
   inkscape:pagecheckerboard="0"
   showgrid="false"
   inkscape:zoom="32.75"
   inkscape:cx="11.984733"
   inkscape:cy="12"
   inkscape:window-width="1296"
   inkscape:window-height="1067"
   inkscape:window-x="0"
   inkscape:window-y="25"
   inkscape:window-maximized="0"
   inkscape:current-layer="svg13" />
<path
   style="color:#000000;fill:#000000;stroke-linecap:round;stroke-linejoin:round;-inkscape-stroke:none"
   d="M 9,3 C 7.3549921,3 6,4.3549921 6,6 v 2.65625 c -0.034493,0.031388 -0.0878,0.017487 -0.1210938,0.050781 L 2.8789063,11.707031 C 2.3165904,12.269377 2,13.032882 2,13.828125 V 18 c 0,1.645023 1.3550102,3 3,3 h 3 5 6 c 1.645005,0 3,-1.354995 3,-3 V 6 C 22,4.3550102 20.645023,3 19,3 Z m 0,2 h 10 c 0.564175,0 1,0.435852 1,1 v 12 c 0,0.564193 -0.435807,1 -1,1 h -5 v -5.171875 c 0,-0.795231 -0.316552,-1.55874 -0.878906,-2.121094 l -3,-2.9999997 C 9.5394993,8.1254368 8.7698587,7.8339858 8,7.8339844 V 6 C 8,5.4358701 8.4358701,5 9,5 Z M 8,9.8222656 c 0.2538278,1.1e-6 0.5075865,0.099383 0.7070313,0.2988284 l 2.9999997,3 C 11.894876,13.308939 12,13.562557 12,13.828125 V 19 H 9 V 16 A 1,1 0 0 0 8,15 1,1 0 0 0 7,16 v 3 H 5 C 4.435852,19 4,18.564175 4,18 v -4.171875 c 0,-0.265556 0.1051254,-0.519178 0.2929687,-0.707031 l 3,-3 C 7.4924179,9.9216446 7.7461722,9.8222645 8,9.8222656 Z"
   id="path2" />
<path
   style="color:#000000;fill:#000000;stroke-linecap:round;stroke-linejoin:round;-inkscape-stroke:none"
   d="m 17,7 a 1,1 0 0 0 -1,1 1,1 0 0 0 1,1 h 0.002 a 1,1 0 0 0 1,-1 1,1 0 0 0 -1,-1 z"
   id="path4" />
<path
   style="color:#000000;fill:#000000;stroke-linecap:round;stroke-linejoin:round;-inkscape-stroke:none"
   d="m 13,7 a 1,1 0 0 0 -1,1 1,1 0 0 0 1,1 h 0.002 a 1,1 0 0 0 1,-1 1,1 0 0 0 -1,-1 z"
   id="path6" />
<path
   style="color:#000000;fill:#000000;stroke-linecap:round;stroke-linejoin:round;-inkscape-stroke:none"
   d="m 17,11 a 1,1 0 0 0 -1,1 1,1 0 0 0 1,1 h 0.002 a 1,1 0 0 0 1,-1 1,1 0 0 0 -1,-1 z"
   id="path8" />
<path
   style="color:#000000;fill:#000000;stroke-linecap:round;stroke-linejoin:round;-inkscape-stroke:none"
   d="m 17,15 a 1,1 0 0 0 -1,1 1,1 0 0 0 1,1 h 0.002 a 1,1 0 0 0 1,-1 1,1 0 0 0 -1,-1 z"
   id="path10" />
<path
   id="_StrokeToPathSelectorObject" />
d=&quot;M0 0 H 0&quot;/&gt;
    </svg>
