<?xml version="1.0" encoding="UTF-8" standalone="no"?>
<svg
   width="24"
   height="24"
   viewBox="0 0 24 24"
   fill="none"
   version="1.1"
   id="svg7"
   sodipodi:docname="comments-line.svg"
   inkscape:version="1.1.1 (c3084ef, 2021-09-22)"
   xmlns:inkscape="http://www.inkscape.org/namespaces/inkscape"
   xmlns:sodipodi="http://sodipodi.sourceforge.net/DTD/sodipodi-0.dtd"
   xmlns="http://www.w3.org/2000/svg"
   xmlns:svg="http://www.w3.org/2000/svg"><defs
   id="defs11" />
<sodipodi:namedview
   id="namedview9"
   pagecolor="#ffffff"
   bordercolor="#666666"
   borderopacity="1.0"
   inkscape:pageshadow="2"
   inkscape:pageopacity="0.0"
   inkscape:pagecheckerboard="0"
   showgrid="false"
   inkscape:zoom="32.75"
   inkscape:cx="11.984733"
   inkscape:cy="12"
   inkscape:window-width="1296"
   inkscape:window-height="1067"
   inkscape:window-x="0"
   inkscape:window-y="25"
   inkscape:window-maximized="0"
   inkscape:current-layer="svg7" />
<path
   style="color:#000000;fill:#000000;stroke-linecap:round;stroke-linejoin:round;-inkscape-stroke:none"
   d="M 5,2 C 3.3549921,2 2,3.3549921 2,5 v 9 a 1.0001,1.0001 0 0 0 1.5546875,0.832031 L 6.0507812,13.167969 C 6.215182,13.058382 6.4079935,13 6.6054687,13 H 7 A 1,1 0 0 0 8,12 1,1 0 0 0 7,11 H 6.6054687 C 6.0132448,11 5.4340848,11.175494 4.9414062,11.503906 L 4,12.130859 V 5 C 4,4.4358701 4.4358701,4 5,4 h 7 c 0.564175,0 1,0.435852 1,1 v 2 a 1,1 0 0 0 1,1 1,1 0 0 0 1,-1 V 5 C 15,3.3550102 13.645023,2 12,2 Z"
   id="path2" />
<path
   style="color:#000000;fill:#000000;stroke-linecap:round;stroke-linejoin:round;-inkscape-stroke:none"
   d="m 12,9 c -1.645005,0 -3,1.354995 -3,3 v 5 c 0,1.645005 1.354995,3 3,3 h 5.394531 c 0.197551,0 0.390357,0.05842 0.554688,0.167969 l 2.496093,1.664062 A 1.0001,1.0001 0 0 0 22,21 V 12 C 22,10.354995 20.645005,9 19,9 Z m 0,2 h 7 c 0.564193,0 1,0.435807 1,1 v 7.130859 L 19.058594,18.503906 C 18.565925,18.17546 17.98678,18 17.394531,18 H 12 c -0.564193,0 -1,-0.435807 -1,-1 v -5 c 0,-0.564193 0.435807,-1 1,-1 z"
   id="path4" />
<path
   id="_StrokeToPathSelectorObject" />
d=&quot;M0 0 H 0&quot;/&gt;
    </svg>
