<?xml version="1.0" encoding="UTF-8" standalone="no"?>
<svg
   width="25"
   height="24"
   viewBox="0 0 25 24"
   fill="none"
   version="1.1"
   id="svg15"
   sodipodi:docname="cookie-line.svg"
   inkscape:version="1.1.1 (c3084ef, 2021-09-22)"
   xmlns:inkscape="http://www.inkscape.org/namespaces/inkscape"
   xmlns:sodipodi="http://sodipodi.sourceforge.net/DTD/sodipodi-0.dtd"
   xmlns="http://www.w3.org/2000/svg"
   xmlns:svg="http://www.w3.org/2000/svg"><defs
   id="defs19" />
<sodipodi:namedview
   id="namedview17"
   pagecolor="#ffffff"
   bordercolor="#666666"
   borderopacity="1.0"
   inkscape:pageshadow="2"
   inkscape:pageopacity="0.0"
   inkscape:pagecheckerboard="0"
   showgrid="false"
   inkscape:zoom="32.75"
   inkscape:cx="12.503817"
   inkscape:cy="12"
   inkscape:window-width="1296"
   inkscape:window-height="1067"
   inkscape:window-x="0"
   inkscape:window-y="25"
   inkscape:window-maximized="0"
   inkscape:current-layer="svg15" />
<path
   style="color:#000000;fill:#000000;stroke-linecap:round;stroke-linejoin:round;-inkscape-stroke:none"
   d="M 12.457031,3 C 10.91839,3 8.7464363,3.4277575 6.8496094,4.7871094 4.9527824,6.1464613 3.4179688,8.5209254 3.4179688,12 c -1e-7,3.461632 1.4342202,5.835988 3.2968749,7.205078 C 8.5774985,20.574169 10.773059,21 12.457031,21 14.140982,21 16.334618,20.574169 18.197266,19.205078 20.059913,17.835988 21.494141,15.461632 21.494141,12 v -1 a 1.0001,1.0001 0 0 0 -1,-1 H 17.474609 V 8 a 1.0001,1.0001 0 0 0 -1,-1 H 14.460938 V 4 a 1.0001,1.0001 0 0 0 -1,-1 z m 0,2 h 0.0039 v 3 a 1.0001,1.0001 0 0 0 1,1 h 2.013671 v 2 a 1.0001,1.0001 0 0 0 1,1 h 3.019532 c 0,2.938362 -1.07792,4.562843 -2.480469,5.59375 C 15.611123,18.624657 13.787078,19 12.457031,19 11.126957,19 9.3029451,18.624657 7.9003906,17.59375 6.4978361,16.562843 5.4179687,14.938362 5.4179687,12 5.4179687,9.079081 6.5635178,7.4527551 8.015625,6.4121094 9.4677322,5.3714637 11.316526,5 12.457031,5 Z"
   id="path2" />
<path
   style="color:#000000;fill:#000000;stroke-linecap:round;stroke-linejoin:round;-inkscape-stroke:none"
   d="m 9.4414063,7 a 1,1 0 0 0 -1,1 1,1 0 0 0 1,1 h 0.00195 A 1,1 0 0 0 10.443359,8 1,1 0 0 0 9.4433594,7 Z"
   id="path4" />
<path
   style="color:#000000;fill:#000000;stroke-linecap:round;stroke-linejoin:round;-inkscape-stroke:none"
   d="m 7.4335937,11 a 1,1 0 0 0 -1,1 1,1 0 0 0 1,1 1,1 0 0 0 1.0000001,-1 1,1 0 0 0 -1.0000001,-1 z"
   id="path6" />
<path
   style="color:#000000;fill:#000000;stroke-linecap:round;stroke-linejoin:round;-inkscape-stroke:none"
   d="m 12.457031,12 a 1,1 0 0 0 -1,1 1,1 0 0 0 1,1 1,1 0 0 0 1,-1 1,1 0 0 0 -1,-1 z"
   id="path8" />
<path
   style="color:#000000;fill:#000000;stroke-linecap:round;stroke-linejoin:round;-inkscape-stroke:none"
   d="m 10.447266,15 a 1,1 0 0 0 -1.0000004,1 1,1 0 0 0 1.0000004,1 1,1 0 0 0 1,-1 1,1 0 0 0 -1,-1 z"
   id="path10" />
<path
   style="color:#000000;fill:#000000;stroke-linecap:round;stroke-linejoin:round;-inkscape-stroke:none"
   d="m 16.474609,14 a 1,1 0 0 0 -1,1 1,1 0 0 0 1,1 h 0.002 a 1,1 0 0 0 1,-1 1,1 0 0 0 -1,-1 z"
   id="path12" />
<path
   id="_StrokeToPathSelectorObject" />
d=&quot;M0 0 H 0&quot;/&gt;
    </svg>
