<?xml version="1.0" encoding="UTF-8" standalone="no"?>
<svg
   width="24"
   height="24"
   viewBox="0 0 24 24"
   fill="none"
   version="1.1"
   id="svg9"
   sodipodi:docname="covid-line.svg"
   inkscape:version="1.1.1 (c3084ef, 2021-09-22)"
   xmlns:inkscape="http://www.inkscape.org/namespaces/inkscape"
   xmlns:sodipodi="http://sodipodi.sourceforge.net/DTD/sodipodi-0.dtd"
   xmlns="http://www.w3.org/2000/svg"
   xmlns:svg="http://www.w3.org/2000/svg"><defs
   id="defs13" />
<sodipodi:namedview
   id="namedview11"
   pagecolor="#ffffff"
   bordercolor="#666666"
   borderopacity="1.0"
   inkscape:pageshadow="2"
   inkscape:pageopacity="0.0"
   inkscape:pagecheckerboard="0"
   showgrid="false"
   inkscape:zoom="32.75"
   inkscape:cx="11.984733"
   inkscape:cy="12"
   inkscape:window-width="1296"
   inkscape:window-height="1067"
   inkscape:window-x="0"
   inkscape:window-y="25"
   inkscape:window-maximized="0"
   inkscape:current-layer="svg9" />
<path
   style="color:#000000;fill:#000000;stroke-linecap:round;stroke-linejoin:round;-inkscape-stroke:none"
   d="m 10,1 a 1,1 0 0 0 -1,1 1,1 0 0 0 1,1 h 1 V 4.203125 C 9.5667887,4.391598 8.2836809,4.9312331 7.1914062,5.7773437 L 5.9140625,4.5 6.7070312,3.7070313 a 1,1 0 0 0 0,-1.4140625 1,1 0 0 0 -1.4140625,0 l -1.4999999,1.5 -1.5,1.4999999 a 1,1 0 0 0 0,1.4140625 1,1 0 0 0 1.4140625,0 L 4.5,5.9140625 5.7773437,7.1914062 C 4.9312331,8.2836809 4.391598,9.5667887 4.203125,11 H 3 V 10 A 1,1 0 0 0 2,9 1,1 0 0 0 1,10 v 2 2 a 1,1 0 0 0 1,1 1,1 0 0 0 1,-1 v -1 h 1.2011719 c 0.1879601,1.434669 0.7296109,2.718029 1.5742187,3.810547 L 4.5,18.085937 3.7070313,17.292969 a 1,1 0 0 0 -1.4140625,0 1,1 0 0 0 0,1.414062 l 1.5,1.5 1.4999999,1.5 a 1,1 0 0 0 1.4140625,0 1,1 0 0 0 0,-1.414062 L 5.9140625,19.5 7.1894531,18.224609 C 8.2819927,19.069239 9.5653289,19.610866 11,19.798828 V 21 h -1 a 1,1 0 0 0 -1,1 1,1 0 0 0 1,1 h 2 2 a 1,1 0 0 0 1,-1 1,1 0 0 0 -1,-1 h -1 v -1.201172 c 1.434671,-0.187962 2.718025,-0.729582 3.810547,-1.574219 L 18.085937,19.5 17.292969,20.292969 a 1,1 0 0 0 0,1.414062 1,1 0 0 0 1.414062,0 l 1.5,-1.5 1.5,-1.5 a 1,1 0 0 0 0,-1.414062 1,1 0 0 0 -1.414062,0 L 19.5,18.085937 18.224609,16.810547 C 19.069246,15.718025 19.610866,14.434671 19.798828,13 H 21 v 1 a 1,1 0 0 0 1,1 1,1 0 0 0 1,-1 v -2 -2 a 1,1 0 0 0 -1,-1 1,1 0 0 0 -1,1 v 1 H 19.798828 C 19.610866,9.5653289 19.069239,8.2819927 18.224609,7.1894531 L 19.5,5.9140625 20.292969,6.7070312 a 1,1 0 0 0 1.414062,0 1,1 0 0 0 0,-1.4140625 l -1.5,-1.4999999 -1.5,-1.5 a 1,1 0 0 0 -1.414062,0 1,1 0 0 0 0,1.4140625 L 18.085937,4.5 16.810547,5.7753906 C 15.718029,4.9307828 14.434669,4.389132 13,4.2011719 V 3 h 1 A 1,1 0 0 0 15,2 1,1 0 0 0 14,1 h -2 z m 2,5 c 1.662779,0 3.155333,0.6709152 4.242187,1.7578125 C 17.329142,8.844724 18,10.337221 18,12 18,13.662779 17.329126,15.155335 16.242187,16.242187 15.155335,17.329126 13.662779,18 12,18 10.337221,18 8.844724,17.329142 7.7578125,16.242187 6.6709152,15.155333 6,13.662779 6,12 6,8.6744545 8.6744545,6 12,6 Z"
   id="path2" />
<path
   style="color:#000000;fill:#000000;stroke-linecap:round;stroke-linejoin:round;-inkscape-stroke:none"
   d="m 14,13 a 1,1 0 0 0 -1,1 1,1 0 0 0 1,1 h 0.002 a 1,1 0 0 0 1,-1 1,1 0 0 0 -1,-1 z"
   id="path4" />
<path
   style="color:#000000;fill:#000000;stroke-linecap:round;stroke-linejoin:round;-inkscape-stroke:none"
   d="M 10.5,8 C 9.1311341,8 8,9.1311341 8,10.5 8,11.868866 9.1311341,13 10.5,13 11.868866,13 13,11.868866 13,10.5 13,9.1311341 11.868866,8 10.5,8 Z m 0,2 C 10.787987,10 11,10.212013 11,10.5 11,10.787987 10.787987,11 10.5,11 10.212013,11 10,10.787987 10,10.5 10,10.212013 10.212013,10 10.5,10 Z"
   id="circle6" />
<path
   id="_StrokeToPathSelectorObject" />
d=&quot;M0 0 H 0&quot;/&gt;
    </svg>
