<?xml version="1.0" encoding="UTF-8" standalone="no"?>
<svg
   width="24"
   height="24"
   viewBox="0 0 24 24"
   fill="none"
   version="1.1"
   id="svg11"
   sodipodi:docname="covid-off-line.svg"
   inkscape:version="1.1.1 (c3084ef, 2021-09-22)"
   xmlns:inkscape="http://www.inkscape.org/namespaces/inkscape"
   xmlns:sodipodi="http://sodipodi.sourceforge.net/DTD/sodipodi-0.dtd"
   xmlns="http://www.w3.org/2000/svg"
   xmlns:svg="http://www.w3.org/2000/svg"><defs
   id="defs15" />
<sodipodi:namedview
   id="namedview13"
   pagecolor="#ffffff"
   bordercolor="#666666"
   borderopacity="1.0"
   inkscape:pageshadow="2"
   inkscape:pageopacity="0.0"
   inkscape:pagecheckerboard="0"
   showgrid="false"
   inkscape:zoom="32.75"
   inkscape:cx="11.984733"
   inkscape:cy="12"
   inkscape:window-width="1296"
   inkscape:window-height="1067"
   inkscape:window-x="0"
   inkscape:window-y="25"
   inkscape:window-maximized="0"
   inkscape:current-layer="svg11" />
<path
   style="color:#000000;fill:#000000;stroke-linecap:round;stroke-linejoin:round;-inkscape-stroke:none"
   d="m 10,1 a 1,1 0 0 0 -1,1 1,1 0 0 0 1,1 h 1 v 1 a 1,1 0 0 0 -1,1 1,1 0 0 0 1,1 h 1 c 1.662779,0 3.155333,0.6709152 4.242187,1.7578125 C 17.329142,8.844724 18,10.337221 18,12 v 1 a 1,1 0 0 0 1,1 1,1 0 0 0 1,-1 h 1 v 1 a 1,1 0 0 0 1,1 1,1 0 0 0 1,-1 v -2 -2 a 1,1 0 0 0 -1,-1 1,1 0 0 0 -1,1 v 1 H 19.798828 C 19.610866,9.5653289 19.069239,8.2819927 18.224609,7.1894531 L 19.5,5.9140625 20.292969,6.7070312 a 1,1 0 0 0 1.414062,0 1,1 0 0 0 0,-1.4140625 l -1.5,-1.4999999 -1.5,-1.5 a 1,1 0 0 0 -1.414062,0 1,1 0 0 0 0,1.4140625 L 18.085937,4.5 16.810547,5.7753906 C 15.718029,4.9307828 14.434669,4.389132 13,4.2011719 V 3 h 1 A 1,1 0 0 0 15,2 1,1 0 0 0 14,1 h -2 z m -6.2070312,2.7929688 -1.5,1.4999999 a 1,1 0 0 0 0,1.4140625 1,1 0 0 0 1.4140625,0 L 4.5,5.9140625 5.7167969,7.1308594 C 4.7837995,8.4372152 4.3056408,9.7775583 4.1679687,11 H 3 V 10 A 1,1 0 0 0 2,9 1,1 0 0 0 1,10 v 2 2 a 1,1 0 0 0 1,1 1,1 0 0 0 1,-1 v -1 h 1.2011719 c 0.1879601,1.434669 0.7296109,2.718029 1.5742187,3.810547 L 4.5,18.085937 3.7070313,17.292969 a 1,1 0 0 0 -1.4140625,0 1,1 0 0 0 0,1.414062 l 1.5,1.5 1.4999999,1.5 a 1,1 0 0 0 1.4140625,0 1,1 0 0 0 0,-1.414062 L 5.9140625,19.5 7.1894531,18.224609 C 8.2819927,19.069239 9.5653289,19.610866 11,19.798828 V 21 h -1 a 1,1 0 0 0 -1,1 1,1 0 0 0 1,1 h 2 2 a 1,1 0 0 0 1,-1 1,1 0 0 0 -1,-1 h -1 v -1.201172 c 1.434671,-0.187962 2.718025,-0.729582 3.810547,-1.574219 L 18.085937,19.5 17.292969,20.292969 a 1,1 0 0 0 0,1.414062 1,1 0 0 0 1.414062,0 l 1.5,-1.5 a 1.0001,1.0001 0 0 0 0,-1.414062 L 17.65625,16.242187 a 1.0001,1.0001 0 0 0 -1.414063,0 C 15.155335,17.329126 13.662779,18 12,18 10.337221,18 8.844724,17.329142 7.7578125,16.242187 6.6709152,15.155333 6,13.662779 6,12 6,10.90403 6.4415254,9.0427934 7.6230469,7.7421875 A 1,1 0 0 0 7.7070312,7.7070312 1,1 0 0 0 7.8769531,6.5859375 1,1 0 0 0 7.7988281,6.4511719 1,1 0 0 0 7.7070312,6.2929687 l -0.044922,-0.044922 -0.017578,-0.015625 -2.4375,-2.4394531 a 1.0001,1.0001 0 0 0 -1.4140624,0 z"
   id="path2" />
<path
   style="color:#000000;fill:#000000;stroke-linecap:round;stroke-linejoin:round;-inkscape-stroke:none"
   d="m 14,13 a 1,1 0 0 0 -1,1 1,1 0 0 0 1,1 h 0.002 a 1,1 0 0 0 1,-1 1,1 0 0 0 -1,-1 z"
   id="path4" />
<path
   style="color:#000000;fill:#000000;stroke-linecap:round;stroke-linejoin:round;-inkscape-stroke:none"
   d="M 10.048828,8.7539063 A 1,1 0 0 0 8.6367188,8.8339844 C 8.2418054,9.2752192 8,9.8651846 8,10.5 c 0,1.368854 1.1311113,2.5 2.5,2.5 0.551764,0 1.071488,-0.183056 1.486328,-0.490234 a 1,1 0 0 0 0.208985,-1.398438 1,1 0 0 0 -1.398438,-0.208984 C 10.713116,10.964365 10.616235,11 10.5,11 10.21203,11 10,10.787944 10,10.5 c 0,-0.133584 0.04683,-0.24446 0.126953,-0.333984 a 1,1 0 0 0 -0.07813,-1.4121097 z"
   id="path6" />
<path
   style="color:#000000;fill:#000000;stroke-linecap:round;stroke-linejoin:round;-inkscape-stroke:none"
   d="m 3,2 a 1,1 0 0 0 -0.7070312,0.2929688 1,1 0 0 0 0,1.4140625 L 20.292969,21.707031 a 1,1 0 0 0 1.414062,0 1,1 0 0 0 0,-1.414062 L 3.7070313,2.2929688 A 1,1 0 0 0 3,2 Z"
   id="path8" />
<path
   id="_StrokeToPathSelectorObject" />
d=&quot;M0 0 H 0&quot;/&gt;
    </svg>
