<?xml version="1.0" encoding="UTF-8" standalone="no"?>
<svg
   width="24"
   height="24"
   viewBox="0 0 24 24"
   fill="none"
   version="1.1"
   id="svg5"
   sodipodi:docname="cpu-line.svg"
   inkscape:version="1.1.1 (c3084ef, 2021-09-22)"
   xmlns:inkscape="http://www.inkscape.org/namespaces/inkscape"
   xmlns:sodipodi="http://sodipodi.sourceforge.net/DTD/sodipodi-0.dtd"
   xmlns="http://www.w3.org/2000/svg"
   xmlns:svg="http://www.w3.org/2000/svg"><defs
   id="defs9" />
<sodipodi:namedview
   id="namedview7"
   pagecolor="#ffffff"
   bordercolor="#666666"
   borderopacity="1.0"
   inkscape:pageshadow="2"
   inkscape:pageopacity="0.0"
   inkscape:pagecheckerboard="0"
   showgrid="false"
   inkscape:zoom="32.75"
   inkscape:cx="11.984733"
   inkscape:cy="12"
   inkscape:window-width="1296"
   inkscape:window-height="1067"
   inkscape:window-x="0"
   inkscape:window-y="25"
   inkscape:window-maximized="0"
   inkscape:current-layer="svg5" />
<path
   style="color:#000000;fill:#000000;stroke-linecap:round;stroke-linejoin:round;-inkscape-stroke:none"
   d="M 9,2 A 1,1 0 0 0 8,3 V 4 H 7 C 5.3549921,4 4,5.3549921 4,7 V 8 H 3 a 1,1 0 0 0 -1,1 1,1 0 0 0 1,1 h 1 v 4 H 3 a 1,1 0 0 0 -1,1 1,1 0 0 0 1,1 h 1 v 1 c 0,1.645023 1.3550102,3 3,3 h 1 v 1 a 1,1 0 0 0 1,1 1,1 0 0 0 1,-1 v -1 h 4 v 1 a 1,1 0 0 0 1,1 1,1 0 0 0 1,-1 v -1 h 1 c 1.645005,0 3,-1.354995 3,-3 v -1 h 1 a 1,1 0 0 0 1,-1 1,1 0 0 0 -1,-1 h -1 v -4 h 1 A 1,1 0 0 0 22,9 1,1 0 0 0 21,8 H 20 V 7 C 20,5.3550102 18.645023,4 17,4 H 16 V 3 A 1,1 0 0 0 15,2 1,1 0 0 0 14,3 V 4 H 10 V 3 A 1,1 0 0 0 9,2 Z M 7,6 h 2 6 2 c 0.564175,0 1,0.435852 1,1 v 2 6 2 c 0,0.564193 -0.435807,1 -1,1 H 15 9 7 C 6.435852,18 6,17.564175 6,17 V 15 9 7 C 6,6.4358701 6.4358701,6 7,6 Z m 4,3 C 9.9072943,9 9,9.9072943 9,11 v 2 c 0,1.092706 0.9072943,2 2,2 h 2 c 1.092706,0 2,-0.907294 2,-2 V 11 C 15,9.9072943 14.092706,9 13,9 Z m 0,2 h 2 v 2 h -2 z"
   id="path2" />
<path
   id="_StrokeToPathSelectorObject" />
d=&quot;M0 0 H 0&quot;/&gt;
    </svg>
