<?xml version="1.0" encoding="UTF-8" standalone="no"?>
<svg
   width="24"
   height="24"
   viewBox="0 0 24 24"
   fill="none"
   version="1.1"
   id="svg7"
   sodipodi:docname="creditcard-hand-line.svg"
   inkscape:version="1.1.1 (c3084ef, 2021-09-22)"
   xmlns:inkscape="http://www.inkscape.org/namespaces/inkscape"
   xmlns:sodipodi="http://sodipodi.sourceforge.net/DTD/sodipodi-0.dtd"
   xmlns="http://www.w3.org/2000/svg"
   xmlns:svg="http://www.w3.org/2000/svg"><defs
   id="defs11" />
<sodipodi:namedview
   id="namedview9"
   pagecolor="#ffffff"
   bordercolor="#666666"
   borderopacity="1.0"
   inkscape:pageshadow="2"
   inkscape:pageopacity="0.0"
   inkscape:pagecheckerboard="0"
   showgrid="false"
   inkscape:zoom="32.75"
   inkscape:cx="11.984733"
   inkscape:cy="12"
   inkscape:window-width="1296"
   inkscape:window-height="1067"
   inkscape:window-x="0"
   inkscape:window-y="25"
   inkscape:window-maximized="0"
   inkscape:current-layer="svg7" />
<path
   style="color:#000000;fill:#000000;stroke-linecap:round;stroke-linejoin:round;-inkscape-stroke:none"
   d="M 7,2 C 5.3549921,2 4,3.3549921 4,5 v 12 c 0,1.645023 1.3550102,3 3,3 h 7 a 1,1 0 0 0 1,-1 1,1 0 0 0 -1,-1 H 7 C 6.435852,18 6,17.564175 6,17 V 5 C 6,4.4358701 6.4358701,4 7,4 h 5 v 9.5 a 1,1 0 0 0 1,1 1,1 0 0 0 1,-1 V 4 h 1 c 0.564175,0 1,0.435852 1,1 v 8 a 1,1 0 0 0 1,1 1,1 0 0 0 1,-1 V 5 C 18,3.3550102 16.645023,2 15,2 H 13 Z M 9,6 A 1,1 0 0 0 8,7 v 3 a 1,1 0 0 0 1,1 1,1 0 0 0 1,-1 V 7 A 1,1 0 0 0 9,6 Z"
   id="path2" />
<path
   style="color:#000000;fill:#000000;stroke-linecap:round;stroke-linejoin:round;-inkscape-stroke:none"
   d="M 16.615234,7.0761719 A 1.0001,1.0001 0 0 0 15.998047,8 v 6.585938 l -1.294922,-1.292969 c -0.462364,-0.462087 -1.066693,-0.720711 -1.765625,-0.777344 -0.698932,-0.05663 -1.529094,0.156435 -2.150391,0.777344 -0.621291,0.620903 -0.8340507,1.451465 -0.777343,2.15039 0.05671,0.698925 0.315003,1.301609 0.777343,1.763672 l 5.503907,5.5 a 1,1 0 0 0 1.414062,0 1,1 0 0 0 0,-1.414062 l -5.503906,-5.5 c -0.03796,-0.03794 -0.178923,-0.285645 -0.197266,-0.511719 -0.01834,-0.226074 0.01806,-0.395123 0.197266,-0.574219 0.179202,-0.17909 0.349505,-0.215632 0.576172,-0.197265 0.226666,0.01837 0.473783,0.159352 0.511719,0.197265 l 1.294921,1.294922 c 0.600084,0.599608 1.495345,0.715241 2.179688,0.431641 0.684343,-0.283601 1.234375,-0.999324 1.234375,-1.847656 v -4.173829 l 0.24414,0.244141 C 19.368507,11.781901 20,13.308029 20,14.900391 V 22 a 1,1 0 0 0 1,1 1,1 0 0 0 1,-1 V 14.900391 C 22,12.778156 21.155374,10.742374 19.654297,9.2421875 L 17.705078,7.2929687 A 1.0001,1.0001 0 0 0 16.615234,7.0761719 Z"
   id="path4" />
<path
   id="_StrokeToPathSelectorObject" />
d=&quot;M0 0 H 0&quot;/&gt;
    </svg>
