<?xml version="1.0" encoding="UTF-8" standalone="no"?>
<svg
   width="24"
   height="24"
   viewBox="0 0 24 24"
   fill="none"
   version="1.1"
   id="svg5"
   sodipodi:docname="cup-line.svg"
   inkscape:version="1.1.1 (c3084ef, 2021-09-22)"
   xmlns:inkscape="http://www.inkscape.org/namespaces/inkscape"
   xmlns:sodipodi="http://sodipodi.sourceforge.net/DTD/sodipodi-0.dtd"
   xmlns="http://www.w3.org/2000/svg"
   xmlns:svg="http://www.w3.org/2000/svg"><defs
   id="defs9" />
<sodipodi:namedview
   id="namedview7"
   pagecolor="#ffffff"
   bordercolor="#666666"
   borderopacity="1.0"
   inkscape:pageshadow="2"
   inkscape:pageopacity="0.0"
   inkscape:pagecheckerboard="0"
   showgrid="false"
   inkscape:zoom="32.75"
   inkscape:cx="11.984733"
   inkscape:cy="12"
   inkscape:window-width="1296"
   inkscape:window-height="1067"
   inkscape:window-x="0"
   inkscape:window-y="25"
   inkscape:window-maximized="0"
   inkscape:current-layer="svg5" />
<path
   style="color:#000000;fill:#000000;stroke-linecap:round;stroke-linejoin:round;-inkscape-stroke:none"
   d="M 4,4 A 1.0001,1.0001 0 0 0 3,5 v 7 c 0,2.749547 2.2504111,5 5,5 h 4 c 2.749559,0 5,-2.250441 5,-5 h 1 c 1.645005,0 3,-1.354995 3,-3 V 7 C 21,5.3550102 19.645023,4 18,4 h -2 z m 1,2 h 10 v 5 1 c 0,1.668637 -1.331363,3 -3,3 H 8 C 6.3313133,15 5,13.668649 5,12 Z m 12,0 h 1 c 0.564175,0 1,0.435852 1,1 v 2 c 0,0.5641927 -0.435807,1 -1,1 H 17 Z M 4,18 a 1,1 0 0 0 -1,1 1,1 0 0 0 1,1 h 14 a 1,1 0 0 0 1,-1 1,1 0 0 0 -1,-1 z"
   id="path2" />
<path
   id="_StrokeToPathSelectorObject" />
d=&quot;M0 0 H 0&quot;/&gt;
    </svg>
