<?xml version="1.0" encoding="UTF-8" standalone="no"?>
<svg
   width="24"
   height="24"
   viewBox="0 0 24 24"
   fill="none"
   version="1.1"
   id="svg5"
   sodipodi:docname="curly-braces-line.svg"
   inkscape:version="1.1.1 (c3084ef, 2021-09-22)"
   xmlns:inkscape="http://www.inkscape.org/namespaces/inkscape"
   xmlns:sodipodi="http://sodipodi.sourceforge.net/DTD/sodipodi-0.dtd"
   xmlns="http://www.w3.org/2000/svg"
   xmlns:svg="http://www.w3.org/2000/svg"><defs
   id="defs9" />
<sodipodi:namedview
   id="namedview7"
   pagecolor="#ffffff"
   bordercolor="#666666"
   borderopacity="1.0"
   inkscape:pageshadow="2"
   inkscape:pageopacity="0.0"
   inkscape:pagecheckerboard="0"
   showgrid="false"
   inkscape:zoom="32.75"
   inkscape:cx="11.984733"
   inkscape:cy="12"
   inkscape:window-width="1296"
   inkscape:window-height="1067"
   inkscape:window-x="0"
   inkscape:window-y="25"
   inkscape:window-maximized="0"
   inkscape:current-layer="svg5" />
<path
   style="color:#000000;fill:#000000;stroke-linecap:round;stroke-linejoin:round;-inkscape-stroke:none"
   d="M 9,4 C 7.3549921,4 6,5.3549921 6,7 V 9 C 6,9.2999997 5.8778068,9.8883542 5.5878906,10.291016 5.2979744,10.693677 4.9222213,11 4,11 a 1.0001,1.0001 0 0 0 0,2 c 0.2999997,0 0.8883542,0.122193 1.2910156,0.412109 C 5.693677,13.702026 6,14.077779 6,15 v 2 c 0,1.645023 1.3551309,3 3,3 h 0.5 a 1,1 0 0 0 1,-1 1,1 0 0 0 -1,-1 H 9 C 8.4357313,18 8,17.564175 8,17 V 15 C 8,13.625876 7.3766799,12.602305 6.6113281,11.96875 6.8086352,11.794047 7.0679793,11.657537 7.2109375,11.458984 7.8210204,10.611647 8,9.6999993 8,9 V 7 C 8,6.4358701 8.4358701,6 9,6 h 0.5 a 1,1 0 0 0 1,-1 1,1 0 0 0 -1,-1 z m 5.5,0 a 1,1 0 0 0 -1,1 1,1 0 0 0 1,1 H 15 c 0.564175,0 1,0.435852 1,1 v 2 c 0,0.6999993 0.17898,1.611647 0.789062,2.458984 0.142959,0.198553 0.402303,0.335063 0.59961,0.509766 C 16.62332,12.602305 16,13.625876 16,15 v 2 c 0,0.564193 -0.435687,1 -1,1 h -0.5 a 1,1 0 0 0 -1,1 1,1 0 0 0 1,1 H 15 c 1.644884,0 3,-1.354995 3,-3 v -2 c 0,-0.922221 0.306323,-1.297974 0.708984,-1.587891 C 19.111646,13.122193 19.7,13 20,13 a 1.0001,1.0001 0 0 0 0,-2 C 19.077779,11 18.702026,10.693677 18.412109,10.291016 18.122193,9.8883542 18,9.2999997 18,9 V 7 C 18,5.3550102 16.645023,4 15,4 Z"
   id="path2" />
<path
   id="_StrokeToPathSelectorObject" />
d=&quot;M0 0 H 0&quot;/&gt;
    </svg>
