<?xml version="1.0" encoding="UTF-8" standalone="no"?>
<svg
   width="24"
   height="24"
   viewBox="0 0 24 24"
   fill="none"
   version="1.1"
   id="svg7"
   sodipodi:docname="data-minus-line.svg"
   inkscape:version="1.1.1 (c3084ef, 2021-09-22)"
   xmlns:inkscape="http://www.inkscape.org/namespaces/inkscape"
   xmlns:sodipodi="http://sodipodi.sourceforge.net/DTD/sodipodi-0.dtd"
   xmlns="http://www.w3.org/2000/svg"
   xmlns:svg="http://www.w3.org/2000/svg"><defs
   id="defs11" />
<sodipodi:namedview
   id="namedview9"
   pagecolor="#ffffff"
   bordercolor="#666666"
   borderopacity="1.0"
   inkscape:pageshadow="2"
   inkscape:pageopacity="0.0"
   inkscape:pagecheckerboard="0"
   showgrid="false"
   inkscape:zoom="32.75"
   inkscape:cx="11.984733"
   inkscape:cy="12"
   inkscape:window-width="1296"
   inkscape:window-height="1067"
   inkscape:window-x="0"
   inkscape:window-y="25"
   inkscape:window-maximized="0"
   inkscape:current-layer="svg7" />
<path
   style="color:#000000;fill:#000000;stroke-linecap:round;stroke-linejoin:round;-inkscape-stroke:none"
   d="M 12,2 C 9.3946248,2 7.0316536,2.4572862 5.2304687,3.2578125 4.3298763,3.6580757 3.5632675,4.1435628 2.9824219,4.7539062 2.4015763,5.3642497 2,6.1437182 2,7 v 5 5 c 0,0.856277 0.4015774,1.635754 0.9824219,2.246094 0.5808444,0.61034 1.3474552,1.095828 2.2480468,1.496093 C 7.0316521,21.542719 9.3946221,22 12,22 a 1,1 0 0 0 1,-1 1,1 0 0 0 -1,-1 C 9.6348229,20 7.4991422,19.561255 6.0429687,18.914062 5.314882,18.590466 4.7616453,18.21395 4.4316406,17.867187 4.101636,17.520425 4,17.248272 4,17 v -2.076172 c 0.4038302,0.27652 0.7376273,0.599317 1.2304687,0.81836 C 7.0316521,16.542719 9.3946221,17 12,17 a 1,1 0 0 0 1,-1 1,1 0 0 0 -1,-1 C 9.6348229,15 7.4991422,14.561255 6.0429687,13.914063 5.314882,13.590466 4.7616453,13.21395 4.4316406,12.867188 4.101636,12.520425 4,12.248272 4,12 V 9.9238281 C 4.403831,10.200348 4.7376269,10.523147 5.2304687,10.742188 7.0316536,11.542714 9.3946248,12 12,12 14.605394,12 16.96835,11.542715 18.769531,10.742188 19.262372,10.523147 19.596171,10.200349 20,9.9238281 V 12 a 1,1 0 0 0 1,1 1,1 0 0 0 1,-1 V 7 A 1,1 0 0 0 21.923828,6.6171875 1,1 0 0 0 21.908203,6.59375 C 21.801426,5.9041519 21.501284,5.2621801 21.017578,4.7539062 20.436736,4.143562 19.670122,3.658076 18.769531,3.2578125 16.96835,2.4572854 14.605394,2 12,2 Z m 0,2 c 2.365201,0 4.500866,0.438751 5.957031,1.0859375 0.728083,0.3235932 1.281328,0.7001133 1.611328,1.046875 C 19.89836,6.4795742 20,6.7517099 20,7 c 0,0.2482901 -0.10164,0.5204258 -0.431641,0.8671875 -0.33,0.3467617 -0.883245,0.7232818 -1.611328,1.046875 C 16.500866,9.561249 14.365201,10 12,10 9.6348202,10 7.4991406,9.5612497 6.0429687,8.9140625 5.3148828,8.5904689 4.7616441,8.21395 4.4316406,7.8671875 4.1016371,7.520425 4,7.2482871 4,7 4,6.7517129 4.1016371,6.479575 4.4316406,6.1328125 4.7616441,5.78605 5.3148828,5.4095311 6.0429687,5.0859375 7.4991406,4.4387503 9.6348202,4 12,4 Z"
   id="path2" />
<path
   style="color:#000000;fill:#000000;stroke-linecap:round;stroke-linejoin:round;-inkscape-stroke:none"
   d="m 15,17 a 1,1 0 0 0 -1,1 1,1 0 0 0 1,1 h 3 3 a 1,1 0 0 0 1,-1 1,1 0 0 0 -1,-1 h -3 z"
   id="path4" />
<path
   id="_StrokeToPathSelectorObject" />
d=&quot;M0 0 H 0&quot;/&gt;
    </svg>
