<?xml version="1.0" encoding="UTF-8" standalone="no"?>
<svg
   width="24"
   height="24"
   viewBox="0 0 24 24"
   fill="none"
   version="1.1"
   id="svg5"
   sodipodi:docname="delete-bin-line.svg"
   inkscape:version="1.1.1 (c3084ef, 2021-09-22)"
   xmlns:inkscape="http://www.inkscape.org/namespaces/inkscape"
   xmlns:sodipodi="http://sodipodi.sourceforge.net/DTD/sodipodi-0.dtd"
   xmlns="http://www.w3.org/2000/svg"
   xmlns:svg="http://www.w3.org/2000/svg"><defs
   id="defs9" />
<sodipodi:namedview
   id="namedview7"
   pagecolor="#ffffff"
   bordercolor="#666666"
   borderopacity="1.0"
   inkscape:pageshadow="2"
   inkscape:pageopacity="0.0"
   inkscape:pagecheckerboard="0"
   showgrid="false"
   inkscape:zoom="32.75"
   inkscape:cx="11.984733"
   inkscape:cy="12"
   inkscape:window-width="1296"
   inkscape:window-height="1067"
   inkscape:window-x="0"
   inkscape:window-y="25"
   inkscape:window-maximized="0"
   inkscape:current-layer="svg5" />
<path
   style="color:#000000;fill:#000000;stroke-linecap:round;stroke-linejoin:round;-inkscape-stroke:none"
   d="M 12,3 C 10.156413,3 8.6594802,4.2936606 8.203125,6 H 6 4 A 1,1 0 0 0 3,7 1,1 0 0 0 4,8 h 1 v 10 c 0,1.645023 1.3550102,3 3,3 h 8 c 1.645005,0 3,-1.354995 3,-3 V 8 h 1 A 1,1 0 0 0 21,7 1,1 0 0 0 20,6 H 18 15.796875 C 15.34052,4.2936606 13.843587,3 12,3 Z m 0,2 c 0.722828,0 1.238844,0.4358785 1.589844,1 H 10.410156 C 10.761156,5.4358785 11.277172,5 12,5 Z M 7,8 h 2 6 2 v 10 c 0,0.564193 -0.435807,1 -1,1 H 8 C 7.435852,19 7,18.564175 7,18 Z"
   id="path2" />
<path
   id="_StrokeToPathSelectorObject" />
d=&quot;M0 0 H 0&quot;/&gt;
    </svg>
