<?xml version="1.0" encoding="UTF-8" standalone="no"?>
<svg
   width="24"
   height="24"
   viewBox="0 0 24 24"
   fill="none"
   version="1.1"
   id="svg9"
   sodipodi:docname="door-enter-line.svg"
   inkscape:version="1.1.1 (c3084ef, 2021-09-22)"
   xmlns:inkscape="http://www.inkscape.org/namespaces/inkscape"
   xmlns:sodipodi="http://sodipodi.sourceforge.net/DTD/sodipodi-0.dtd"
   xmlns="http://www.w3.org/2000/svg"
   xmlns:svg="http://www.w3.org/2000/svg"><defs
   id="defs13" />
<sodipodi:namedview
   id="namedview11"
   pagecolor="#ffffff"
   bordercolor="#666666"
   borderopacity="1.0"
   inkscape:pageshadow="2"
   inkscape:pageopacity="0.0"
   inkscape:pagecheckerboard="0"
   showgrid="false"
   inkscape:zoom="32.75"
   inkscape:cx="11.984733"
   inkscape:cy="12"
   inkscape:window-width="1296"
   inkscape:window-height="1067"
   inkscape:window-x="0"
   inkscape:window-y="25"
   inkscape:window-maximized="0"
   inkscape:current-layer="svg9" />
<path
   style="color:#000000;fill:#000000;stroke-linecap:round;stroke-linejoin:round;-inkscape-stroke:none"
   d="M 11.542969,1.7441406 C 11.091897,1.656329 10.613364,1.6720418 10.138672,1.8144531 L 4.1386719,3.6152344 C 2.8738652,3.9946794 2,5.1677687 2,6.4882812 V 17.511719 c 0,1.320553 0.8739017,2.493598 2.1386719,2.873047 l 6.0000001,1.800781 C 12.037442,22.755237 14,21.294931 14,19.3125 V 4.6875 C 14,3.2007078 12.896185,2.0075755 11.542969,1.7441406 Z M 16,3 a 1,1 0 0 0 -1,1 1,1 0 0 0 1,1 h 3 c 0.564175,0 1,0.435852 1,1 v 1 a 1,1 0 0 0 1,1 1,1 0 0 0 1,-1 V 6 C 22,4.3550102 20.645023,3 19,3 Z M 10.712891,3.7304688 C 11.38052,3.5301749 12,3.9904523 12,4.6875 v 14.625 c 0,0.697166 -0.619482,1.15734 -1.287109,0.957031 L 4.7128906,18.470703 C 4.2857425,18.342553 4,17.957764 4,17.511719 V 6.4882812 C 4,6.0423555 4.285779,5.6574314 4.7128906,5.5292969 Z M 21,16 a 1,1 0 0 0 -1,1 v 1 c 0,0.564193 -0.435807,1 -1,1 h -3 a 1,1 0 0 0 -1,1 1,1 0 0 0 1,1 h 3 c 1.645005,0 3,-1.354995 3,-3 v -1 a 1,1 0 0 0 -1,-1 z"
   id="path2" />
<path
   style="color:#000000;fill:#000000;stroke-linecap:round;stroke-linejoin:round;-inkscape-stroke:none"
   d="m 9,11 a 1,1 0 0 0 -1,1 1,1 0 0 0 1,1 h 0.00195 A 1,1 0 0 0 10.001953,12 1,1 0 0 0 9.0019531,11 Z"
   id="path4" />
<path
   style="color:#000000;fill:#000000;stroke-linecap:round;stroke-linejoin:round;-inkscape-stroke:none"
   d="m 17.292969,9.2929688 -2,2.0000002 A 1,1 0 0 0 15,12 a 1,1 0 0 0 0.292969,0.707031 l 2,2 a 1,1 0 0 0 1.414062,0 1,1 0 0 0 0,-1.414062 L 18.414062,13 H 21 a 1,1 0 0 0 1,-1 1,1 0 0 0 -1,-1 h -2.585938 l 0.292969,-0.292969 a 1,1 0 0 0 0,-1.4140622 1,1 0 0 0 -1.414062,0 z"
   id="path6" />
<path
   id="_StrokeToPathSelectorObject" />
d=&quot;M0 0 H 0&quot;/&gt;
    </svg>
