<?xml version="1.0" encoding="UTF-8" standalone="no"?>
<svg
   width="24"
   height="24"
   viewBox="0 0 24 24"
   fill="none"
   version="1.1"
   id="svg7"
   sodipodi:docname="earth-sphere-line.svg"
   inkscape:version="1.1.1 (c3084ef, 2021-09-22)"
   xmlns:inkscape="http://www.inkscape.org/namespaces/inkscape"
   xmlns:sodipodi="http://sodipodi.sourceforge.net/DTD/sodipodi-0.dtd"
   xmlns="http://www.w3.org/2000/svg"
   xmlns:svg="http://www.w3.org/2000/svg"><defs
   id="defs11" />
<sodipodi:namedview
   id="namedview9"
   pagecolor="#ffffff"
   bordercolor="#666666"
   borderopacity="1.0"
   inkscape:pageshadow="2"
   inkscape:pageopacity="0.0"
   inkscape:pagecheckerboard="0"
   showgrid="false"
   inkscape:zoom="32.75"
   inkscape:cx="11.984733"
   inkscape:cy="12"
   inkscape:window-width="1296"
   inkscape:window-height="1067"
   inkscape:window-x="0"
   inkscape:window-y="25"
   inkscape:window-maximized="0"
   inkscape:current-layer="svg7" />
<path
   style="color:#000000;fill:#000000;stroke-linecap:round;stroke-linejoin:round;-inkscape-stroke:none"
   d="M 12,1 C 10.438628,1 8.9477333,1.3269956 7.5996094,1.9160156 a 1,1 0 0 0 -0.515625,1.3164063 1,1 0 0 0 1.3164062,0.515625 C 9.5021043,3.266688 10.716975,3 12,3 A 1,1 0 0 0 13,2 1,1 0 0 0 12,1 Z m 4.232422,1.0839844 a 1,1 0 0 0 -1.316406,0.515625 1,1 0 0 0 0.515625,1.3164062 c 1.037388,0.4532706 1.973168,1.0982313 2.763671,1.8886719 0.790374,0.7903911 1.435346,1.7261925 1.888672,2.7636719 a 1,1 0 0 0 1.316407,0.515625 1,1 0 0 0 0.515625,-1.3164063 C 21.361343,6.4981598 20.5742,5.3554721 19.609375,4.390625 18.64448,3.4258073 17.501831,2.6386328 16.232422,2.0839844 Z M 4.9296875,3.9296875 A 1,1 0 0 0 4.2226562,4.2226562 C 3.2578102,5.1875023 2.4706625,6.3301596 1.9160156,7.5996094 1.3269956,8.9477333 1,10.438628 1,12 a 1,1 0 0 0 1,1 1,1 0 0 0 1,-1 C 3,10.716975 3.266688,9.5021043 3.7480469,8.4003906 4.201319,7.3629627 4.8463066,6.4271309 5.6367187,5.6367187 a 1,1 0 0 0 0,-1.4140625 A 1,1 0 0 0 4.9296875,3.9296875 Z M 22,11 a 1,1 0 0 0 -1,1 c 0,1.283025 -0.266685,2.497928 -0.748047,3.599609 a 1,1 0 0 0 0.515625,1.316407 1,1 0 0 0 1.316406,-0.515625 C 22.673022,15.052274 23,13.561372 23,12 A 1,1 0 0 0 22,11 Z M 3.1972656,15.068359 a 1,1 0 0 0 -0.765625,0.01563 1,1 0 0 0 -0.515625,1.316407 c 0.5546465,1.269404 1.3418203,2.412055 2.3066406,3.376953 0.9648276,0.964794 2.1074504,1.752036 3.3769532,2.30664 A 1,1 0 0 0 8.9160156,21.568359 1,1 0 0 0 8.4003906,20.251953 C 7.3630157,19.798758 6.4271494,19.153685 5.6367187,18.363281 4.8462808,17.57278 4.2013194,16.637002 3.7480469,15.599609 a 1,1 0 0 0 -0.5507813,-0.53125 z m 15.8730464,3.001953 a 1,1 0 0 0 -0.707031,0.292969 c -0.790519,0.79043 -1.726332,1.435477 -2.763672,1.888672 C 14.497928,20.733315 13.283025,21 12,21 a 1,1 0 0 0 -1,1 1,1 0 0 0 1,1 c 1.561372,0 3.052274,-0.326978 4.400391,-0.916016 1.269457,-0.554603 2.412074,-1.341871 3.376953,-2.30664 a 1,1 0 0 0 0,-1.414063 1,1 0 0 0 -0.707032,-0.292969 z"
   id="path2" />
<path
   style="color:#000000;fill:#000000;stroke-linecap:round;stroke-linejoin:round;-inkscape-stroke:none"
   d="M 12,5 C 10.728872,5 9.5297502,5.341822 8.5,5.9375 8.4546851,5.9637134 8.4352893,6.0196762 8.390625,6.046875 a 1,1 0 0 0 -0.074219,0.027344 1,1 0 0 0 -0.00195,0.046875 C 6.3475425,7.3609713 5,9.5113417 5,12 c 0,2.421696 1.304611,4.491873 3.1835938,5.748047 a 1,1 0 0 0 0.00977,0.04102 1,1 0 0 0 0.037109,0.0059 C 8.337749,17.86516 8.3887326,17.998137 8.5,18.0625 9.5297369,18.658159 10.72886,19 12,19 c 2.08426,0 3.968399,-0.916993 5.25,-2.369141 0.0081,-0.0092 0.01148,-0.02202 0.01953,-0.03125 a 1,1 0 0 0 0.04102,-0.06836 C 18.353341,15.30934 19,13.72819 19,12 19,11.221175 18.855488,10.473919 18.619141,9.7714844 a 1,1 0 0 0 -0.0078,-0.074219 1,1 0 0 0 -0.0059,-0.00586 c -0.0028,-0.00794 -0.0011,-0.017465 -0.0039,-0.025391 C 17.639524,6.9442527 15.038473,5 12,5 Z m 0,2 c 1.802053,0 3.204149,1.073453 4.083984,2.4921875 C 14.559053,10.093109 13.757969,11.832369 14.378906,13.375 l 0.914063,2.273438 C 14.407472,16.448047 13.292676,17 12,17 c -0.33726,0 -0.604822,-0.183063 -0.921875,-0.246094 0.973573,-1.116204 0.750069,-2.956928 -0.644531,-3.654297 -0.285537,-0.142763 -0.312063,-0.441239 -0.05664,-0.632812 l 0.589844,-0.441406 C 12.30173,11.024229 12.47381,9.0429762 11.332031,7.8261719 L 10.845703,7.3085937 C 11.235381,7.2109601 11.577663,7 12,7 Z m -3.0488281,1.2109375 0.921875,0.984375 C 10.222067,9.5672666 10.175643,10.119744 9.7675781,10.425781 l -0.5898437,0.441407 c -1.3778562,1.033425 -1.1772406,3.251248 0.3632812,4.021484 0.2881883,0.144108 0.312626,0.444408 0.052734,0.634766 L 9.0703125,15.90625 C 7.861969,14.99492 7,13.637974 7,12 7,10.422923 7.8188112,9.1260773 8.9511719,8.2109375 Z M 16.878906,11.296875 C 16.913392,11.533939 17,11.752244 17,12 c 0,0.613976 -0.119665,1.195665 -0.320313,1.736328 l -0.445312,-1.107422 c -0.222974,-0.553947 0.0556,-1.145893 0.625,-1.326172 z"
   id="path4" />
<path
   id="_StrokeToPathSelectorObject" />
d=&quot;M0 0 H 0&quot;/&gt;
    </svg>
