<?xml version="1.0" encoding="UTF-8" standalone="no"?>
<svg
   width="24"
   height="24"
   viewBox="0 0 24 24"
   fill="none"
   version="1.1"
   id="svg7"
   sodipodi:docname="etherium-circle-line.svg"
   inkscape:version="1.1.1 (c3084ef, 2021-09-22)"
   xmlns:inkscape="http://www.inkscape.org/namespaces/inkscape"
   xmlns:sodipodi="http://sodipodi.sourceforge.net/DTD/sodipodi-0.dtd"
   xmlns="http://www.w3.org/2000/svg"
   xmlns:svg="http://www.w3.org/2000/svg"><defs
   id="defs11" />
<sodipodi:namedview
   id="namedview9"
   pagecolor="#ffffff"
   bordercolor="#666666"
   borderopacity="1.0"
   inkscape:pageshadow="2"
   inkscape:pageopacity="0.0"
   inkscape:pagecheckerboard="0"
   showgrid="false"
   inkscape:zoom="32.75"
   inkscape:cx="11.984733"
   inkscape:cy="12"
   inkscape:window-width="1296"
   inkscape:window-height="1067"
   inkscape:window-x="0"
   inkscape:window-y="25"
   inkscape:window-maximized="0"
   inkscape:current-layer="svg7" />
<path
   style="color:#000000;fill:#000000;stroke-linecap:round;stroke-linejoin:round;-inkscape-stroke:none"
   d="M 12,1 C 5.9367165,1 1,5.9367165 1,12 1,18.063238 5.9367105,23 12,23 18.063244,23 23,18.063244 23,12 23,5.9367105 18.063238,1 12,1 Z m 0,2 c 4.982351,0 9,4.0176006 9,9 0,4.982345 -4.017655,9 -9,9 C 7.0176006,21 3,16.982351 3,12 3,7.0175946 7.0175946,3 12,3 Z"
   id="path2" />
<path
   style="color:#000000;fill:#000000;stroke-linecap:round;stroke-linejoin:round;-inkscape-stroke:none"
   d="M 12,4 A 1.0001,1.0001 0 0 0 11.185547,4.4179687 L 6.1855469,11.417969 a 1,1 0 0 0 -0.025391,0.109375 1,1 0 0 0 -0.080078,0.09375 1,1 0 0 0 -0.00781,0.0078 1,1 0 0 0 0.00195,0.111328 A 1,1 0 0 0 6.0507812,12 a 1,1 0 0 0 0.023437,0.259766 1,1 0 0 0 -0.00195,0.111328 1,1 0 0 0 0.00781,0.0078 1,1 0 0 0 0.080078,0.09375 1,1 0 0 0 0.025391,0.109375 l 5.0000001,7 a 1.0001,1.0001 0 0 0 1.628906,0 l 5,-7 a 1,1 0 0 0 0.02734,-0.07422 1,1 0 0 0 0.04492,-0.06641 1,1 0 0 0 0.02539,-0.03516 1,1 0 0 0 0.01172,-0.0332 1,1 0 0 0 0.0039,-0.002 1,1 0 0 0 0.02734,-0.142578 1,1 0 0 0 0.0078,-0.04492 1,1 0 0 0 0.002,-0.0039 1,1 0 0 0 0.02539,-0.121094 1,1 0 0 0 0.0078,-0.05859 1,1 0 0 0 -0.0078,-0.05859 1,1 0 0 0 -0.02539,-0.121093 1,1 0 0 0 -0.002,-0.0039 1,1 0 0 0 -0.0078,-0.04492 1,1 0 0 0 -0.02734,-0.142578 1,1 0 0 0 -0.0039,-0.002 1,1 0 0 0 -0.01172,-0.0332 1,1 0 0 0 -0.02539,-0.03516 1,1 0 0 0 -0.04492,-0.06641 1,1 0 0 0 -0.02734,-0.07422 l -5,-7.0000003 A 1.0001,1.0001 0 0 0 12,4 Z m 0,2.7226562 2.201172,3.0820313 -1.830078,-0.7324219 a 1.0001,1.0001 0 0 0 -0.742188,0 L 9.7988281,9.8046875 Z M 12,11.076172 14.308594,12 12,12.923828 9.6914063,12 Z m -2.2011719,3.119141 1.8300779,0.732421 a 1.0001,1.0001 0 0 0 0.742188,0 L 14.201172,14.195313 12,17.277344 Z"
   id="path4" />
<path
   id="_StrokeToPathSelectorObject" />
d=&quot;M0 0 H 0&quot;/&gt;
    </svg>
