<?xml version="1.0" encoding="UTF-8" standalone="no"?>
<svg
   width="24"
   height="24"
   viewBox="0 0 24 24"
   fill="none"
   version="1.1"
   id="svg9"
   sodipodi:docname="eye-off-line.svg"
   inkscape:version="1.1.1 (c3084ef, 2021-09-22)"
   xmlns:inkscape="http://www.inkscape.org/namespaces/inkscape"
   xmlns:sodipodi="http://sodipodi.sourceforge.net/DTD/sodipodi-0.dtd"
   xmlns="http://www.w3.org/2000/svg"
   xmlns:svg="http://www.w3.org/2000/svg"><defs
   id="defs13" />
<sodipodi:namedview
   id="namedview11"
   pagecolor="#ffffff"
   bordercolor="#666666"
   borderopacity="1.0"
   inkscape:pageshadow="2"
   inkscape:pageopacity="0.0"
   inkscape:pagecheckerboard="0"
   showgrid="false"
   inkscape:zoom="32.75"
   inkscape:cx="11.984733"
   inkscape:cy="12"
   inkscape:window-width="1296"
   inkscape:window-height="1067"
   inkscape:window-x="0"
   inkscape:window-y="25"
   inkscape:window-maximized="0"
   inkscape:current-layer="svg9" />
<path
   style="color:#000000;fill:#000000;stroke-linecap:round;stroke-linejoin:round;-inkscape-stroke:none"
   d="M 12,4 C 9.8327513,4 7.9851646,4.6203965 6.4921875,5.5 A 1,1 0 0 0 6.1386719,6.8691406 1,1 0 0 0 7.5078125,7.2226562 C 8.7390127,6.4972814 10.209653,6 12,6 c 2.853352,0 4.930723,1.2652061 6.423828,2.703125 1.360366,1.310086 2.121534,2.667084 2.439453,3.289063 -0.406236,0.79831 -1.650306,2.987854 -3.917969,4.499999 a 1,1 0 0 0 -0.277343,1.386719 1,1 0 0 0 1.386718,0.277344 c 2.899712,-1.933614 4.361506,-4.711988 4.75586,-5.527344 a 1.0001,1.0001 0 0 0 0,-0.002 c 0.186383,-0.385922 0.188188,-0.865216 0,-1.253906 -0.304528,-0.629889 -1.250458,-2.4264503 -3,-4.1113283 C 18.061005,5.5768408 15.454042,4 12,4 Z M 3.921875,7.9238281 A 1,1 0 0 0 3.2402344,8.2714844 C 2.0927799,9.6148917 1.4342952,10.864995 1.1894531,11.371094 c -0.1868737,0.386354 -0.19067359,0.86177 0,1.255859 0.3045378,0.629943 1.2504464,2.426452 3,4.111328 C 5.9390068,18.423158 8.5459804,20 12,20 c 0.774416,0 1.509367,-0.07881 2.201172,-0.220703 a 1,1 0 0 0 0.779297,-1.179688 1,1 0 0 0 -1.181641,-0.779297 C 13.237634,17.935418 12.639782,18 12,18 9.1466759,18 7.06929,16.734796 5.5761719,15.296875 4.2197642,13.990611 3.4605758,12.64057 3.140625,12.015625 3.3778022,11.545187 3.8510778,10.634179 4.7597656,9.5703125 A 1,1 0 0 0 4.6503906,8.1601563 1,1 0 0 0 3.921875,7.9238281 Z"
   id="path2" />
<path
   style="color:#000000;fill:#000000;stroke-linecap:round;stroke-linejoin:round;-inkscape-stroke:none"
   d="M 12,8 C 10.980994,8 10.040605,8.38714 9.3339844,9.0195313 a 1,1 0 0 0 -0.080078,1.4121097 1,1 0 0 0 1.4121097,0.07813 C 11.020994,10.192078 11.482208,10 12,10 c 1.116492,0 2,0.883508 2,2 0,0.517749 -0.192074,0.978973 -0.509766,1.333984 a 1,1 0 0 0 0.07813,1.41211 1,1 0 0 0 1.41211,-0.08008 C 15.612777,13.959428 16,13.01905 16,12 16,9.8026954 14.197305,8 12,8 Z"
   id="path4" />
<path
   style="color:#000000;fill:#000000;stroke-linecap:round;stroke-linejoin:round;-inkscape-stroke:none"
   d="m 3,2 a 1,1 0 0 0 -0.7070312,0.2929688 1,1 0 0 0 0,1.4140625 L 20.292969,21.707031 a 1,1 0 0 0 1.414062,0 1,1 0 0 0 0,-1.414062 L 3.7070313,2.2929688 A 1,1 0 0 0 3,2 Z"
   id="path6" />
<path
   id="_StrokeToPathSelectorObject" />
d=&quot;M0 0 H 0&quot;/&gt;
    </svg>
