<?xml version="1.0" encoding="UTF-8" standalone="no"?>
<svg
   width="24"
   height="24"
   viewBox="0 0 24 24"
   fill="none"
   version="1.1"
   id="svg7"
   sodipodi:docname="eye-line.svg"
   inkscape:version="1.1.1 (c3084ef, 2021-09-22)"
   xmlns:inkscape="http://www.inkscape.org/namespaces/inkscape"
   xmlns:sodipodi="http://sodipodi.sourceforge.net/DTD/sodipodi-0.dtd"
   xmlns="http://www.w3.org/2000/svg"
   xmlns:svg="http://www.w3.org/2000/svg"><defs
   id="defs11" />
<sodipodi:namedview
   id="namedview9"
   pagecolor="#ffffff"
   bordercolor="#666666"
   borderopacity="1.0"
   inkscape:pageshadow="2"
   inkscape:pageopacity="0.0"
   inkscape:pagecheckerboard="0"
   showgrid="false"
   inkscape:zoom="32.75"
   inkscape:cx="11.984733"
   inkscape:cy="12"
   inkscape:window-width="1296"
   inkscape:window-height="1067"
   inkscape:window-x="0"
   inkscape:window-y="25"
   inkscape:window-maximized="0"
   inkscape:current-layer="svg7" />
<path
   style="color:#000000;fill:#000000;stroke-linecap:round;stroke-linejoin:round;-inkscape-stroke:none"
   d="M 12,4 C 8.5459804,4 5.9390068,5.5768425 4.1894531,7.2617187 c -1.7495536,1.6848763 -2.6954622,3.4813853 -3,4.1113283 -0.1869893,0.386474 -0.1869893,0.867432 0,1.253906 0.3045378,0.629943 1.2504464,2.426452 3,4.111328 C 5.9390068,18.423158 8.5459804,20 12,20 c 3.454042,0 6.061005,-1.576841 7.810547,-3.261719 1.749542,-1.684878 2.695472,-3.481439 3,-4.111328 0.187152,-0.38655 0.187152,-0.867356 0,-1.253906 -0.304528,-0.629889 -1.250458,-2.4264503 -3,-4.1113283 C 18.061005,5.5768408 15.454042,4 12,4 Z m 0,2 c 2.853352,0 4.930723,1.2652061 6.423828,2.703125 1.364783,1.31434 2.129702,2.678289 2.445313,3.296875 -0.315611,0.618586 -1.08053,1.982535 -2.445313,3.296875 C 16.930723,16.734794 14.853352,18 12,18 9.1466759,18 7.06929,16.734796 5.5761719,15.296875 4.2113766,13.982533 3.4464437,12.618548 3.1308594,12 3.4464437,11.381452 4.2113766,10.017467 5.5761719,8.703125 7.06929,7.2652044 9.1466759,6 12,6 Z"
   id="path2" />
<path
   style="color:#000000;fill:#000000;stroke-linecap:round;stroke-linejoin:round;-inkscape-stroke:none"
   d="m 12,8 c -2.1972922,0 -4,1.8027078 -4,4 0,2.197292 1.8027078,4 4,4 2.197292,0 4,-1.802708 4,-4 0,-2.1972922 -1.802708,-4 -4,-4 z m 0,2 c 1.116413,0 2,0.883587 2,2 0,1.116413 -0.883587,2 -2,2 -1.116413,0 -2,-0.883587 -2,-2 0,-1.116413 0.883587,-2 2,-2 z"
   id="circle4" />
<path
   id="_StrokeToPathSelectorObject" />
d=&quot;M0 0 H 0&quot;/&gt;
    </svg>
