<?xml version="1.0" encoding="UTF-8" standalone="no"?>
<svg
   width="24"
   height="24"
   viewBox="0 0 24 24"
   fill="none"
   version="1.1"
   id="svg17"
   sodipodi:docname="ferris-wheel-line.svg"
   inkscape:version="1.1.1 (c3084ef, 2021-09-22)"
   xmlns:inkscape="http://www.inkscape.org/namespaces/inkscape"
   xmlns:sodipodi="http://sodipodi.sourceforge.net/DTD/sodipodi-0.dtd"
   xmlns="http://www.w3.org/2000/svg"
   xmlns:svg="http://www.w3.org/2000/svg"><defs
   id="defs21" />
<sodipodi:namedview
   id="namedview19"
   pagecolor="#ffffff"
   bordercolor="#666666"
   borderopacity="1.0"
   inkscape:pageshadow="2"
   inkscape:pageopacity="0.0"
   inkscape:pagecheckerboard="0"
   showgrid="false"
   inkscape:zoom="32.75"
   inkscape:cx="11.984733"
   inkscape:cy="12"
   inkscape:window-width="1296"
   inkscape:window-height="1067"
   inkscape:window-x="0"
   inkscape:window-y="25"
   inkscape:window-maximized="0"
   inkscape:current-layer="svg17" />
<path
   style="color:#000000;fill:#000000;stroke-linecap:round;stroke-linejoin:round;-inkscape-stroke:none"
   d="m 12,5 c -3.8541448,0 -7,3.1458552 -7,7 0,3.854145 3.1458552,7 7,7 3.854145,0 7,-3.145855 7,-7 0,-3.8541448 -3.145855,-7 -7,-7 z m 0,2 c 2.773266,0 5,2.2267344 5,5 0,2.773266 -2.226734,5 -5,5 C 9.2267344,17 7,14.773266 7,12 7,9.2267344 9.2267344,7 12,7 Z"
   id="circle2" />
<path
   style="color:#000000;fill:#000000;stroke-linecap:round;stroke-linejoin:round;-inkscape-stroke:none"
   d="M 12,1 C 10.354992,1 9,2.354992 9,4 9,5.645008 10.354992,7 12,7 13.645008,7 15,5.645008 15,4 15,2.354992 13.645008,1 12,1 Z m 0,2 c 0.564129,0 1,0.4358712 1,1 0,0.5641288 -0.435871,1 -1,1 -0.564129,0 -1,-0.4358712 -1,-1 0,-0.5641288 0.435871,-1 1,-1 z"
   id="circle4" />
<path
   style="color:#000000;fill:#000000;stroke-linecap:round;stroke-linejoin:round;-inkscape-stroke:none"
   d="m 19,5 c -1.645008,0 -3,1.354992 -3,3 0,1.645008 1.354992,3 3,3 1.645008,0 3,-1.354992 3,-3 0,-1.645008 -1.354992,-3 -3,-3 z m 0,2 c 0.564129,0 1,0.4358712 1,1 0,0.5641288 -0.435871,1 -1,1 -0.564129,0 -1,-0.4358712 -1,-1 0,-0.5641288 0.435871,-1 1,-1 z"
   id="circle6" />
<path
   style="color:#000000;fill:#000000;stroke-linecap:round;stroke-linejoin:round;-inkscape-stroke:none"
   d="M 5,5 C 3.354992,5 2,6.354992 2,8 2,9.645008 3.354992,11 5,11 6.645008,11 8,9.645008 8,8 8,6.354992 6.645008,5 5,5 Z M 5,7 C 5.5641288,7 6,7.4358712 6,8 6,8.5641288 5.5641288,9 5,9 4.4358712,9 4,8.5641288 4,8 4,7.4358712 4.4358712,7 5,7 Z"
   id="circle8" />
<path
   style="color:#000000;fill:#000000;stroke-linecap:round;stroke-linejoin:round;-inkscape-stroke:none"
   d="m 5,13 c -1.645008,0 -3,1.354992 -3,3 0,1.645008 1.354992,3 3,3 1.645008,0 3,-1.354992 3,-3 0,-1.645008 -1.354992,-3 -3,-3 z m 0,2 c 0.5641288,0 1,0.435871 1,1 0,0.564129 -0.4358712,1 -1,1 -0.5641288,0 -1,-0.435871 -1,-1 0,-0.564129 0.4358712,-1 1,-1 z"
   id="circle10" />
<path
   style="color:#000000;fill:#000000;stroke-linecap:round;stroke-linejoin:round;-inkscape-stroke:none"
   d="m 19,13 c -1.645008,0 -3,1.354992 -3,3 0,1.645008 1.354992,3 3,3 1.645008,0 3,-1.354992 3,-3 0,-1.645008 -1.354992,-3 -3,-3 z m 0,2 c 0.564129,0 1,0.435871 1,1 0,0.564129 -0.435871,1 -1,1 -0.564129,0 -1,-0.435871 -1,-1 0,-0.564129 0.435871,-1 1,-1 z"
   id="circle12" />
<path
   style="color:#000000;fill:#000000;stroke-linecap:round;stroke-linejoin:round;-inkscape-stroke:none"
   d="m 12,11 a 1.0001,1.0001 0 0 0 -0.927734,0.628906 l -4.0000004,10 a 1,1 0 0 0 0.5566406,1.298828 1,1 0 0 0 1.2988282,-0.55664 L 12,14.691406 l 3.072266,7.679688 a 1,1 0 0 0 1.298828,0.55664 1,1 0 0 0 0.55664,-1.298828 l -4,-10 A 1.0001,1.0001 0 0 0 12,11 Z"
   id="path14" />
<path
   id="_StrokeToPathSelectorObject" />
d=&quot;M0 0 H 0&quot;/&gt;
    </svg>
