<?xml version="1.0" encoding="UTF-8" standalone="no"?>
<svg
   width="24"
   height="24"
   viewBox="0 0 24 24"
   fill="none"
   version="1.1"
   id="svg7"
   sodipodi:docname="file-plus-line.svg"
   inkscape:version="1.1.1 (c3084ef, 2021-09-22)"
   xmlns:inkscape="http://www.inkscape.org/namespaces/inkscape"
   xmlns:sodipodi="http://sodipodi.sourceforge.net/DTD/sodipodi-0.dtd"
   xmlns="http://www.w3.org/2000/svg"
   xmlns:svg="http://www.w3.org/2000/svg"><defs
   id="defs11" />
<sodipodi:namedview
   id="namedview9"
   pagecolor="#ffffff"
   bordercolor="#666666"
   borderopacity="1.0"
   inkscape:pageshadow="2"
   inkscape:pageopacity="0.0"
   inkscape:pagecheckerboard="0"
   showgrid="false"
   inkscape:zoom="32.75"
   inkscape:cx="11.984733"
   inkscape:cy="12"
   inkscape:window-width="1296"
   inkscape:window-height="1067"
   inkscape:window-x="0"
   inkscape:window-y="25"
   inkscape:window-maximized="0"
   inkscape:current-layer="svg7" />
<path
   style="color:#000000;fill:#000000;stroke-linecap:round;stroke-linejoin:round;-inkscape-stroke:none"
   d="m 19,15 a 1,1 0 0 0 -1,1 v 2 h -2 a 1,1 0 0 0 -1,1 1,1 0 0 0 1,1 h 2 v 2 a 1,1 0 0 0 1,1 1,1 0 0 0 1,-1 v -2 h 2 a 1,1 0 0 0 1,-1 1,1 0 0 0 -1,-1 h -2 v -2 a 1,1 0 0 0 -1,-1 z"
   id="path2" />
<path
   style="color:#000000;fill:#000000;stroke-linecap:round;stroke-linejoin:round;-inkscape-stroke:none"
   d="M 6,2 C 4.3549921,2 3,3.3549921 3,5 v 14 c 0,1.645023 1.3550102,3 3,3 h 6 a 1,1 0 0 0 1,-1 1,1 0 0 0 -1,-1 H 6 C 5.435852,20 5,19.564175 5,19 V 5 C 5,4.4358701 5.4358701,4 6,4 h 7 v 3 c 0,1.6449898 1.354977,3 3,3 h 3 v 2 a 1,1 0 0 0 1,1 1,1 0 0 0 1,-1 V 9 8.828125 c 0,-0.059427 -0.0629,-0.099199 -0.06641,-0.1582031 a 1,1 0 0 0 -0.03906,-0.097656 C 20.828363,7.88172 20.615684,7.2015955 20.121094,6.7070312 L 16.292969,2.8789063 C 15.798405,2.3843688 15.118266,2.1716389 14.427734,2.1054688 a 1,1 0 0 0 -0.09766,-0.039063 C 14.271075,2.0629025 14.231302,2 14.171875,2 H 14 Z M 15,4.4140625 18.585937,8 H 16 C 15.435825,8 15,7.564148 15,7 Z"
   id="path4" />
<path
   id="_StrokeToPathSelectorObject" />
d=&quot;M0 0 H 0&quot;/&gt;
    </svg>
