<?xml version="1.0" encoding="UTF-8" standalone="no"?>
<svg
   width="24"
   height="24"
   viewBox="0 0 24 24"
   fill="none"
   version="1.1"
   id="svg7"
   sodipodi:docname="fish-line.svg"
   inkscape:version="1.1.1 (c3084ef, 2021-09-22)"
   xmlns:inkscape="http://www.inkscape.org/namespaces/inkscape"
   xmlns:sodipodi="http://sodipodi.sourceforge.net/DTD/sodipodi-0.dtd"
   xmlns="http://www.w3.org/2000/svg"
   xmlns:svg="http://www.w3.org/2000/svg"><defs
   id="defs11" />
<sodipodi:namedview
   id="namedview9"
   pagecolor="#ffffff"
   bordercolor="#666666"
   borderopacity="1.0"
   inkscape:pageshadow="2"
   inkscape:pageopacity="0.0"
   inkscape:pagecheckerboard="0"
   showgrid="false"
   inkscape:zoom="32.75"
   inkscape:cx="11.984733"
   inkscape:cy="12"
   inkscape:window-width="1296"
   inkscape:window-height="1067"
   inkscape:window-x="0"
   inkscape:window-y="25"
   inkscape:window-maximized="0"
   inkscape:current-layer="svg7" />
<path
   style="color:#000000;fill:#000000;stroke-linecap:round;-inkscape-stroke:none"
   d="M 14,6 C 11.058125,6 8.341436,7.4664943 6.1191406,9.2128906 5.5434775,9.6652769 5.1039687,10.152021 4.5976562,10.628906 3.8553043,9.8149818 3.2386599,9.0364258 2.8242188,8.4335938 A 1,1 0 0 0 1.4335937,8.1757813 1,1 0 0 0 1.1757812,9.5664063 C 1.6545308,10.262779 2.3262415,11.113315 3.1367188,12 2.3262415,12.886685 1.6545308,13.737221 1.1757812,14.433594 a 1,1 0 0 0 0.2578125,1.390625 1,1 0 0 0 1.3906251,-0.257813 c 0.4144411,-0.602832 1.0310855,-1.381388 1.7734374,-2.195312 0.5063125,0.476885 0.9458213,0.963629 1.5214844,1.416015 C 8.341436,16.533506 11.058125,18 14,18 c 0.998399,0 1.910114,-0.113021 2.736328,-0.314453 0.111115,-0.02709 0.184804,-0.102961 0.292969,-0.134766 a 1,1 0 0 0 0.01367,0.002 1,1 0 0 0 0.01758,-0.01563 c 3.817083,-1.142606 5.824219,-5.070312 5.824219,-5.070312 L 23.130859,12 22.884766,11.533203 c 0,0 -2.010762,-3.9365278 -5.835938,-5.0742186 a 1,1 0 0 0 -0.01758,-0.019531 1,1 0 0 0 -0.03711,-0.00586 C 16.898569,6.4060651 16.834188,6.3383127 16.736328,6.3144531 15.910106,6.1129859 14.998414,6 14,6 Z m 0,2 c 0.41277,0 0.73518,0.08281 1.103516,0.125 -0.71466,1.6848011 -1.025061,3.370665 -0.873047,4.833984 C 14.35026,14.112127 14.654194,15.059058 15,15.886719 14.662541,15.921623 14.374056,16 14,16 11.74188,16 9.3748367,14.799816 7.3554687,13.212891 6.8689439,12.830554 6.4911027,12.409596 6.0527344,12 6.4911027,11.590404 6.8689439,11.169446 7.3554687,10.787109 9.3748367,9.200184 11.74188,8 14,8 Z m 3.021484,0.625 c 2.085828,0.918014 3.374507,2.763119 3.751953,3.375 -0.374387,0.606925 -1.64377,2.417832 -3.703125,3.349609 C 16.731757,14.654221 16.337765,13.897625 16.21875,12.751953 16.087014,11.483825 16.340019,10.059367 17.021484,8.625 Z M 12,9.5 A 1,1 0 0 0 11.292969,9.7929688 C 10.901548,10.18439 10.506521,10.76826 10.375,11.576172 c -0.131521,0.807912 0.121551,1.834441 0.917969,2.630859 a 1,1 0 0 0 1.414062,0 1,1 0 0 0 0,-1.414062 c -0.403581,-0.403581 -0.400901,-0.627445 -0.357422,-0.894531 0.04348,-0.267087 0.248844,-0.582828 0.357422,-0.691407 a 1,1 0 0 0 0,-1.4140622 A 1,1 0 0 0 12,9.5 Z"
   id="path2" />
<path
   style="color:#000000;fill:#000000;stroke-linecap:round;-inkscape-stroke:none"
   d="m 18,10 a 1,1 0 0 0 -1,1 1,1 0 0 0 1,1 h 0.002 a 1,1 0 0 0 1,-1 1,1 0 0 0 -1,-1 z"
   id="path4" />
<path
   id="_StrokeToPathSelectorObject" />
d=&quot;M0 0 H 0&quot;/&gt;
    </svg>
