<?xml version="1.0" encoding="UTF-8" standalone="no"?>
<svg
   width="24"
   height="24"
   viewBox="0 0 24 24"
   fill="none"
   version="1.1"
   id="svg5"
   sodipodi:docname="flower-2-line.svg"
   inkscape:version="1.1.1 (c3084ef, 2021-09-22)"
   xmlns:inkscape="http://www.inkscape.org/namespaces/inkscape"
   xmlns:sodipodi="http://sodipodi.sourceforge.net/DTD/sodipodi-0.dtd"
   xmlns="http://www.w3.org/2000/svg"
   xmlns:svg="http://www.w3.org/2000/svg"><defs
   id="defs9" />
<sodipodi:namedview
   id="namedview7"
   pagecolor="#ffffff"
   bordercolor="#666666"
   borderopacity="1.0"
   inkscape:pageshadow="2"
   inkscape:pageopacity="0.0"
   inkscape:pagecheckerboard="0"
   showgrid="false"
   inkscape:zoom="32.75"
   inkscape:cx="11.984733"
   inkscape:cy="12"
   inkscape:window-width="1296"
   inkscape:window-height="1067"
   inkscape:window-x="0"
   inkscape:window-y="25"
   inkscape:window-maximized="0"
   inkscape:current-layer="svg5" />
<path
   style="color:#000000;fill:#000000;stroke-linecap:round;stroke-linejoin:round;-inkscape-stroke:none"
   d="M 12,2 A 1.0001,1.0001 0 0 0 11.232422,2.359375 L 9.359375,4.6074219 7.625,3.21875 A 1.0001,1.0001 0 0 0 6,4 v 4 c 0,1.0333336 0.2774173,2.444981 1.1875,3.708984 0.7541309,1.047404 2.112252,1.788184 3.8125,2.060547 v 3.494141 C 10.801421,16.852586 10.69693,16.436601 10.412109,16.041016 9.2020282,14.360342 7.0777767,13 4,13 a 1.0001,1.0001 0 0 0 -1,1 c 0,1.366651 0.3778094,3.278311 1.5878906,4.958984 C 5.7979718,20.639658 7.9222233,22 11,22 h 1 1 c 3.077777,0 5.202028,-1.360342 6.412109,-3.041016 C 20.622191,17.278311 21,15.366651 21,14 a 1.0001,1.0001 0 0 0 -1,-1 c -3.077777,0 -5.202028,1.360342 -6.412109,3.041016 C 13.30307,16.436601 13.198579,16.852586 13,17.263672 v -3.494141 c 1.700248,-0.272363 3.058369,-1.013143 3.8125,-2.060547 C 17.722583,10.444981 18,9.0333336 18,8 V 4 A 1.0001,1.0001 0 0 0 16.375,3.21875 L 14.640625,4.6074219 12.767578,2.359375 A 1.0001,1.0001 0 0 0 12,2 Z m 0,2.5625 1.732422,2.078125 A 1.0001,1.0001 0 0 0 15.125,6.78125 L 16,6.0820312 V 8 C 16,8.6333348 15.777416,9.7216885 15.1875,10.541016 14.597584,11.360343 13.722221,12 12,12 10.277779,12 9.4024158,11.360343 8.8125,10.541016 8.2225842,9.7216885 8,8.6333348 8,8 V 6.0820312 L 8.875,6.78125 A 1.0001,1.0001 0 0 0 10.267578,6.640625 Z M 5.1894531,15.253906 c 1.6801138,0.286646 2.88578,0.963646 3.5996094,1.955078 0.5790827,0.804284 0.8557036,1.702911 1.0214844,2.53711 C 8.1304331,19.459448 6.9247669,18.782448 6.2109375,17.791016 5.6318548,16.986732 5.3552339,16.088105 5.1894531,15.253906 Z m 13.6210939,0 c -0.165781,0.834199 -0.442402,1.732826 -1.021485,2.53711 -0.713829,0.991432 -1.919495,1.668432 -3.599609,1.955078 0.165781,-0.834199 0.442402,-1.732826 1.021485,-2.53711 0.713829,-0.991432 1.919495,-1.668432 3.599609,-1.955078 z"
   id="path2" />
<path
   id="_StrokeToPathSelectorObject" />
d=&quot;M0 0 H 0&quot;/&gt;
    </svg>
