<?xml version="1.0" encoding="UTF-8" standalone="no"?>
<svg
   width="24"
   height="24"
   viewBox="0 0 24 24"
   fill="none"
   version="1.1"
   id="svg7"
   sodipodi:docname="folder-plus-line.svg"
   inkscape:version="1.1.1 (c3084ef, 2021-09-22)"
   xmlns:inkscape="http://www.inkscape.org/namespaces/inkscape"
   xmlns:sodipodi="http://sodipodi.sourceforge.net/DTD/sodipodi-0.dtd"
   xmlns="http://www.w3.org/2000/svg"
   xmlns:svg="http://www.w3.org/2000/svg"><defs
   id="defs11" />
<sodipodi:namedview
   id="namedview9"
   pagecolor="#ffffff"
   bordercolor="#666666"
   borderopacity="1.0"
   inkscape:pageshadow="2"
   inkscape:pageopacity="0.0"
   inkscape:pagecheckerboard="0"
   showgrid="false"
   inkscape:zoom="32.75"
   inkscape:cx="11.984733"
   inkscape:cy="12"
   inkscape:window-width="1296"
   inkscape:window-height="1067"
   inkscape:window-x="0"
   inkscape:window-y="25"
   inkscape:window-maximized="0"
   inkscape:current-layer="svg7" />
<path
   style="color:#000000;fill:#000000;stroke-linecap:round;stroke-linejoin:round;-inkscape-stroke:none"
   d="M 5,3 C 3.3549921,3 2,4.3549921 2,6 v 12 c 0,1.645023 1.3550102,3 3,3 h 7 a 1,1 0 0 0 1,-1 1,1 0 0 0 -1,-1 H 5 C 4.435852,19 4,18.564175 4,18 V 6 C 4,5.4358701 4.4358701,5 5,5 h 3.9296875 c 0.3355309,0 0.6459546,0.1661724 0.8320313,0.4453125 l 0.8125002,1.21875 C 11.12996,7.4977489 12.06843,8 13.070313,8 H 19 c 0.564175,0 1,0.435852 1,1 v 4 a 1,1 0 0 0 1,1 1,1 0 0 0 1,-1 V 9 C 22,7.3550102 20.645023,6 19,6 H 13.070313 C 12.734797,6 12.42434,5.8338 12.238281,5.5546875 l -0.8125,-1.21875 C 10.870059,3.5022787 9.9315753,3 8.9296875,3 Z"
   id="path2" />
<path
   style="color:#000000;fill:#000000;stroke-linecap:round;stroke-linejoin:round;-inkscape-stroke:none"
   d="m 18,14 a 1,1 0 0 0 -1,1 v 2 h -2 a 1,1 0 0 0 -1,1 1,1 0 0 0 1,1 h 2 v 2 a 1,1 0 0 0 1,1 1,1 0 0 0 1,-1 v -2 h 2 a 1,1 0 0 0 1,-1 1,1 0 0 0 -1,-1 h -2 v -2 a 1,1 0 0 0 -1,-1 z"
   id="path4" />
<path
   id="_StrokeToPathSelectorObject" />
d=&quot;M0 0 H 0&quot;/&gt;
    </svg>
