<?xml version="1.0" encoding="UTF-8" standalone="no"?>
<svg
   width="24"
   height="24"
   viewBox="0 0 24 24"
   fill="none"
   version="1.1"
   id="svg7"
   sodipodi:docname="git-compare-line.svg"
   inkscape:version="1.1.1 (c3084ef, 2021-09-22)"
   xmlns:inkscape="http://www.inkscape.org/namespaces/inkscape"
   xmlns:sodipodi="http://sodipodi.sourceforge.net/DTD/sodipodi-0.dtd"
   xmlns="http://www.w3.org/2000/svg"
   xmlns:svg="http://www.w3.org/2000/svg"><defs
   id="defs11" />
<sodipodi:namedview
   id="namedview9"
   pagecolor="#ffffff"
   bordercolor="#666666"
   borderopacity="1.0"
   inkscape:pageshadow="2"
   inkscape:pageopacity="0.0"
   inkscape:pagecheckerboard="0"
   showgrid="false"
   inkscape:zoom="32.75"
   inkscape:cx="11.984733"
   inkscape:cy="12"
   inkscape:window-width="1296"
   inkscape:window-height="1067"
   inkscape:window-x="0"
   inkscape:window-y="25"
   inkscape:window-maximized="0"
   inkscape:current-layer="svg7" />
<path
   style="color:#000000;fill:#000000;stroke-linecap:round;stroke-linejoin:round;-inkscape-stroke:none"
   d="m 15.382813,4.0761719 a 1.0001,1.0001 0 0 0 -1.089844,0.2167968 l -2,2 a 1,1 0 0 0 0,1.4140625 l 2,2.0000001 A 1.0001,1.0001 0 0 0 16,9 V 8 c 0.564175,0 1,0.435852 1,1 v 4.203125 C 15.293648,13.659484 14,15.15643 14,17 c 0,2.197305 1.802695,4 4,4 2.197305,0 4,-1.802695 4,-4 0,-1.84357 -1.293648,-3.340516 -3,-3.796875 V 9 C 19,7.3550102 17.645023,6 16,6 V 5 A 1.0001,1.0001 0 0 0 15.382813,4.0761719 Z M 18,15 c 1.116492,0 2,0.883508 2,2 0,1.116492 -0.883508,2 -2,2 -1.116492,0 -2,-0.883508 -2,-2 0,-1.116492 0.883508,-2 2,-2 z"
   id="path2" />
<path
   style="color:#000000;fill:#000000;stroke-linecap:round;stroke-linejoin:round;-inkscape-stroke:none"
   d="M 6,4 C 3.802709,4 2,5.802709 2,8 2,9.8435582 3.2936533,11.340513 5,11.796875 V 16 c 0,1.645023 1.3550102,3 3,3 v 1 a 1.0001,1.0001 0 0 0 1.7070313,0.707031 l 1.9999997,-2 A 1,1 0 0 0 11.923828,18.382812 1,1 0 0 0 12,18 1,1 0 0 0 11.923828,17.617187 1,1 0 0 0 11.707031,17.292969 l -1.9999997,-2 A 1.0001,1.0001 0 0 0 8,16 v 1 C 7.435852,17 7,16.564175 7,16 V 11.796875 C 8.7063467,11.340513 10,9.8435582 10,8 10,5.802709 8.197291,4 6,4 Z M 6,6 C 7.1164057,6 8,6.8835943 8,8 8,9.1164057 7.1164057,10 6,10 4.8835943,10 4,9.1164057 4,8 4,6.8835943 4.8835943,6 6,6 Z"
   id="path4" />
<path
   id="_StrokeToPathSelectorObject" />
d=&quot;M0 0 H 0&quot;/&gt;
    </svg>
