<?xml version="1.0" encoding="UTF-8" standalone="no"?>
<svg
   width="24"
   height="24"
   viewBox="0 0 24 24"
   fill="none"
   version="1.1"
   id="svg11"
   sodipodi:docname="git-fork-line.svg"
   inkscape:version="1.1.1 (c3084ef, 2021-09-22)"
   xmlns:inkscape="http://www.inkscape.org/namespaces/inkscape"
   xmlns:sodipodi="http://sodipodi.sourceforge.net/DTD/sodipodi-0.dtd"
   xmlns="http://www.w3.org/2000/svg"
   xmlns:svg="http://www.w3.org/2000/svg"><defs
   id="defs15" />
<sodipodi:namedview
   id="namedview13"
   pagecolor="#ffffff"
   bordercolor="#666666"
   borderopacity="1.0"
   inkscape:pageshadow="2"
   inkscape:pageopacity="0.0"
   inkscape:pagecheckerboard="0"
   showgrid="false"
   inkscape:zoom="32.75"
   inkscape:cx="11.984733"
   inkscape:cy="12"
   inkscape:window-width="1296"
   inkscape:window-height="1067"
   inkscape:window-x="0"
   inkscape:window-y="25"
   inkscape:window-maximized="0"
   inkscape:current-layer="svg11" />
<path
   style="color:#000000;fill:#000000;stroke-linecap:round;stroke-linejoin:round;-inkscape-stroke:none"
   d="M 6,2 C 3.8027078,2 2,3.8027078 2,6 2,8.1972922 3.8027078,10 6,10 8.1972922,10 10,8.1972922 10,6 10,3.8027078 8.1972922,2 6,2 Z M 6,4 C 7.116413,4 8,4.883587 8,6 8,7.116413 7.116413,8 6,8 4.883587,8 4,7.116413 4,6 4,4.883587 4.883587,4 6,4 Z"
   id="circle2" />
<path
   style="color:#000000;fill:#000000;stroke-linecap:round;stroke-linejoin:round;-inkscape-stroke:none"
   d="m 18,2 c -2.197292,0 -4,1.8027078 -4,4 0,2.1972922 1.802708,4 4,4 2.197292,0 4,-1.8027078 4,-4 0,-2.1972922 -1.802708,-4 -4,-4 z m 0,2 c 1.116413,0 2,0.883587 2,2 0,1.116413 -0.883587,2 -2,2 -1.116413,0 -2,-0.883587 -2,-2 0,-1.116413 0.883587,-2 2,-2 z"
   id="circle4" />
<path
   style="color:#000000;fill:#000000;stroke-linecap:round;stroke-linejoin:round;-inkscape-stroke:none"
   d="m 12,14 c -2.1972922,0 -4,1.802708 -4,4 0,2.197292 1.8027078,4 4,4 2.197292,0 4,-1.802708 4,-4 0,-2.197292 -1.802708,-4 -4,-4 z m 0,2 c 1.116413,0 2,0.883587 2,2 0,1.116413 -0.883587,2 -2,2 -1.116413,0 -2,-0.883587 -2,-2 0,-1.116413 0.883587,-2 2,-2 z"
   id="circle6" />
<path
   style="color:#000000;fill:#000000;-inkscape-stroke:none"
   d="m 5,9 v 1 c 0,1.645023 1.3550102,3 3,3 h 3 v 2 h 2 v -2 h 3 c 1.645005,0 3,-1.354995 3,-3 V 9 h -2 v 1 c 0,0.564193 -0.435807,1 -1,1 H 12 8 C 7.435852,11 7,10.564175 7,10 V 9 Z"
   id="path8" />
<path
   id="_StrokeToPathSelectorObject" />
d=&quot;M0 0 H 0&quot;/&gt;
    </svg>
