<?xml version="1.0" encoding="UTF-8" standalone="no"?>
<svg
   width="24"
   height="24"
   viewBox="0 0 24 24"
   fill="none"
   version="1.1"
   id="svg5"
   sodipodi:docname="git-commit-line.svg"
   inkscape:version="1.1.1 (c3084ef, 2021-09-22)"
   xmlns:inkscape="http://www.inkscape.org/namespaces/inkscape"
   xmlns:sodipodi="http://sodipodi.sourceforge.net/DTD/sodipodi-0.dtd"
   xmlns="http://www.w3.org/2000/svg"
   xmlns:svg="http://www.w3.org/2000/svg"><defs
   id="defs9" />
<sodipodi:namedview
   id="namedview7"
   pagecolor="#ffffff"
   bordercolor="#666666"
   borderopacity="1.0"
   inkscape:pageshadow="2"
   inkscape:pageopacity="0.0"
   inkscape:pagecheckerboard="0"
   showgrid="false"
   inkscape:zoom="32.75"
   inkscape:cx="11.984733"
   inkscape:cy="12"
   inkscape:window-width="1296"
   inkscape:window-height="1067"
   inkscape:window-x="0"
   inkscape:window-y="25"
   inkscape:window-maximized="0"
   inkscape:current-layer="svg5" />
<path
   style="color:#000000;fill:#000000;stroke-linecap:round;stroke-linejoin:round;-inkscape-stroke:none"
   d="M 12,2 A 1,1 0 0 0 11,3 V 7.203125 C 8.7417863,7.6827674 7,9.6044869 7,12 c 0,2.395487 1.7417806,4.317227 4,4.796875 V 21 a 1,1 0 0 0 1,1 1,1 0 0 0 1,-1 V 16.796875 C 15.258205,16.317229 17,14.395497 17,12 17,9.6044764 15.2582,7.6827652 13,7.203125 V 3 A 1,1 0 0 0 12,2 Z m 0,7 c 1.668649,0 3,1.331313 3,3 0,1.668637 -1.331363,3 -3,3 -1.668687,0 -3,-1.331351 -3,-3 0,-1.668699 1.331301,-3 3,-3 z"
   id="path2" />
<path
   id="_StrokeToPathSelectorObject" />
d=&quot;M0 0 H 0&quot;/&gt;
    </svg>
