<?xml version="1.0" encoding="UTF-8" standalone="no"?>
<svg
   width="24"
   height="24"
   viewBox="0 0 24 24"
   fill="none"
   version="1.1"
   id="svg7"
   sodipodi:docname="globe-earth-line.svg"
   inkscape:version="1.1.1 (c3084ef, 2021-09-22)"
   xmlns:inkscape="http://www.inkscape.org/namespaces/inkscape"
   xmlns:sodipodi="http://sodipodi.sourceforge.net/DTD/sodipodi-0.dtd"
   xmlns="http://www.w3.org/2000/svg"
   xmlns:svg="http://www.w3.org/2000/svg"><defs
   id="defs11" />
<sodipodi:namedview
   id="namedview9"
   pagecolor="#ffffff"
   bordercolor="#666666"
   borderopacity="1.0"
   inkscape:pageshadow="2"
   inkscape:pageopacity="0.0"
   inkscape:pagecheckerboard="0"
   showgrid="false"
   inkscape:zoom="32.75"
   inkscape:cx="11.984733"
   inkscape:cy="12"
   inkscape:window-width="1296"
   inkscape:window-height="1067"
   inkscape:window-x="0"
   inkscape:window-y="25"
   inkscape:window-maximized="0"
   inkscape:current-layer="svg7" />
<path
   style="color:#000000;fill:#000000;stroke-linecap:round;stroke-linejoin:round;-inkscape-stroke:none"
   d="M 12,2 C 6.4890026,2 2,6.4890026 2,12 2,17.510997 6.4890026,22 12,22 17.510997,22 22,17.510997 22,12 22,6.4890026 17.510997,2 12,2 Z m 0,2 c 4.430118,0 8,3.5698818 8,8 0,4.430118 -3.569882,8 -8,8 C 7.5698818,20 4,16.430118 4,12 4,7.5698818 7.5698818,4 12,4 Z"
   id="circle2" />
<path
   style="color:#000000;fill:#000000;stroke-linecap:round;stroke-linejoin:round;-inkscape-stroke:none"
   d="M 8,3 A 1,1 0 0 0 7,4 v 2 c 0,1.6450079 1.3549921,3 3,3 h 1 c 0.564175,0 1,0.435852 1,1 0,1.645005 1.354995,3 3,3 1.645005,0 3,-1.354995 3,-3 0,-0.564148 0.435825,-1 1,-1 h 1 A 1,1 0 0 0 21,8 1,1 0 0 0 20,7 h -1 c -1.645023,0 -3,1.3550102 -3,3 0,0.564193 -0.435807,1 -1,1 -0.564193,0 -1,-0.435807 -1,-1 C 14,8.3550102 12.645023,7 11,7 H 10 C 9.4358701,7 9,6.5641299 9,6 V 4 A 1,1 0 0 0 8,3 Z m -5,8 a 1,1 0 0 0 -1,1 1,1 0 0 0 1,1 h 2 c 0.564148,0 1,0.435825 1,1 0,1.645023 1.3550102,3 3,3 0.5641927,0 1,0.435807 1,1 v 2 a 1,1 0 0 0 1,1 1,1 0 0 0 1,-1 V 18 C 12,16.354995 10.645005,15 9,15 8.435852,15 8,14.564175 8,14 8,12.354977 6.6449898,11 5,11 Z m 14,4 c -1.645005,0 -3,1.354995 -3,3 v 2 a 1,1 0 0 0 1,1 1,1 0 0 0 1,-1 v -2 c 0,-0.564193 0.435807,-1 1,-1 h 3 a 1,1 0 0 0 1,-1 1,1 0 0 0 -1,-1 z"
   id="path4" />
<path
   id="_StrokeToPathSelectorObject" />
d=&quot;M0 0 H 0&quot;/&gt;
    </svg>
