<?xml version="1.0" encoding="UTF-8" standalone="no"?>
<svg
   width="24"
   height="24"
   viewBox="0 0 24 24"
   fill="none"
   version="1.1"
   id="svg7"
   sodipodi:docname="globe-grid-line.svg"
   inkscape:version="1.1.1 (c3084ef, 2021-09-22)"
   xmlns:inkscape="http://www.inkscape.org/namespaces/inkscape"
   xmlns:sodipodi="http://sodipodi.sourceforge.net/DTD/sodipodi-0.dtd"
   xmlns="http://www.w3.org/2000/svg"
   xmlns:svg="http://www.w3.org/2000/svg"><defs
   id="defs11" />
<sodipodi:namedview
   id="namedview9"
   pagecolor="#ffffff"
   bordercolor="#666666"
   borderopacity="1.0"
   inkscape:pageshadow="2"
   inkscape:pageopacity="0.0"
   inkscape:pagecheckerboard="0"
   showgrid="false"
   inkscape:zoom="32.75"
   inkscape:cx="11.984733"
   inkscape:cy="12"
   inkscape:window-width="1296"
   inkscape:window-height="1067"
   inkscape:window-x="0"
   inkscape:window-y="25"
   inkscape:window-maximized="0"
   inkscape:current-layer="svg7" />
<path
   style="color:#000000;fill:#000000;stroke-linecap:round;stroke-linejoin:round;-inkscape-stroke:none"
   d="M 12,2 C 8.0820694,2 4.6760278,4.2607047 3.0390625,7.5546875 2.8547846,7.9255108 2.6945564,8.3097447 2.5566406,8.7050781 2.5209908,8.807271 2.5343482,8.9275681 2.5019531,9.03125 A 1,1 0 0 0 2.5,9.0351563 a 1,1 0 0 0 0,0.00195 C 2.2062268,9.979351 2,10.964144 2,12 c 0,1.035856 0.2062306,2.02064 0.5,2.962891 a 1,1 0 0 0 0,0.002 1,1 0 0 0 0.00195,0.0039 c 0.032395,0.103683 0.019038,0.223977 0.054687,0.326172 C 3.9195968,19.201949 7.6409983,22 12,22 c 4.358966,0 8.080411,-2.79804 9.443359,-6.705078 0.03564,-0.102191 0.0223,-0.222492 0.05469,-0.326172 4.09e-4,-0.0013 0.0015,-0.0026 0.002,-0.0039 a 1,1 0 0 0 0,-0.002 C 21.793742,14.020666 22,13.035874 22,12 22,10.964126 21.793746,9.9793241 21.5,9.0371094 c -1.88e-4,-6.039e-4 1.88e-4,-0.00135 0,-0.00195 a 1,1 0 0 0 -0.0059,-0.029297 c -0.03011,-0.095522 -0.0179,-0.2065287 -0.05078,-0.3007813 -0.0034,-0.00977 -0.01023,-0.017586 -0.01367,-0.027344 a 1,1 0 0 0 -0.04883,-0.089844 C 19.982195,4.7473739 16.311589,2 12,2 Z m 0,2 c 2.963801,0 5.46486,1.6521111 6.847656,4.0351563 H 5.109375 C 6.4908332,5.6427521 9.0293746,4 12,4 Z M 4.3300781,10.035156 H 19.669922 C 19.833248,10.671773 20,11.309972 20,12 c 0,0.690028 -0.16675,1.328215 -0.330078,1.964844 H 4.3300781 C 4.1667511,13.328232 4,12.690043 4,12 4,11.309957 4.1667528,10.671757 4.3300781,10.035156 Z m 0.8222656,5.929688 H 18.847656 C 17.464861,18.34789 14.963804,20 12,20 9.0361589,20 6.5351351,18.347894 5.1523437,15.964844 Z"
   id="path2" />
<path
   style="color:#000000;fill:#000000;stroke-linecap:round;stroke-linejoin:round;-inkscape-stroke:none"
   d="m 11.292969,2.2929688 c -5.3527023,5.352702 -5.3526977,14.0613222 0,19.4140622 a 1.0001,1.0001 0 0 0 1.414062,0 c 5.352739,-5.352739 5.352744,-14.0613617 0,-19.4140622 a 1.0001,1.0001 0 0 0 -1.414062,0 z M 12,4.7714844 C 15.416893,9.0417511 15.416896,14.958218 12,19.228516 8.5831329,14.958218 8.583136,9.0417509 12,4.7714844 Z"
   id="path4" />
<path
   id="_StrokeToPathSelectorObject" />
d=&quot;M0 0 H 0&quot;/&gt;
    </svg>
