<?xml version="1.0" encoding="UTF-8" standalone="no"?>
<svg
   width="24"
   height="24"
   viewBox="0 0 24 24"
   fill="none"
   version="1.1"
   id="svg15"
   sodipodi:docname="hand-pointer-event-line.svg"
   inkscape:version="1.1.1 (c3084ef, 2021-09-22)"
   xmlns:inkscape="http://www.inkscape.org/namespaces/inkscape"
   xmlns:sodipodi="http://sodipodi.sourceforge.net/DTD/sodipodi-0.dtd"
   xmlns="http://www.w3.org/2000/svg"
   xmlns:svg="http://www.w3.org/2000/svg"><defs
   id="defs19" />
<sodipodi:namedview
   id="namedview17"
   pagecolor="#ffffff"
   bordercolor="#666666"
   borderopacity="1.0"
   inkscape:pageshadow="2"
   inkscape:pageopacity="0.0"
   inkscape:pagecheckerboard="0"
   showgrid="false"
   inkscape:zoom="32.75"
   inkscape:cx="11.984733"
   inkscape:cy="12"
   inkscape:window-width="1296"
   inkscape:window-height="1067"
   inkscape:window-x="0"
   inkscape:window-y="25"
   inkscape:window-maximized="0"
   inkscape:current-layer="svg15" />
<path
   style="color:#000000;fill:#000000;stroke-linecap:round;stroke-linejoin:round;-inkscape-stroke:none"
   d="M 12,6 C 10.354977,6 9,7.3550102 9,9 v 5.998047 L 8.4003906,14.199219 C 7.8343548,13.444524 6.943404,13 6,13 H 5.5664062 C 4.1609913,13 3,14.160976 3,15.566406 c 0,0.465067 0.1259911,0.921574 0.3652344,1.320313 l 2.7773437,4.626953 a 1,1 0 0 0 1.3710938,0.34375 1,1 0 0 0 0.34375,-1.371094 L 5.0800781,15.857422 C 5.0272417,15.769361 5,15.669139 5,15.566406 5,15.241838 5.241863,15 5.5664062,15 H 6 c 0.3156148,0 0.6113978,0.147886 0.8007812,0.400391 l 2.3984376,3.199218 A 1.0001,1.0001 0 0 0 11,18 V 9 c 0,-0.564148 0.435825,-1 1,-1 0.564175,0 1,0.435852 1,1 v 5 c 0,1.092706 0.907294,2 2,2 h 1 c 1.668637,0 3,1.331363 3,3 v 2 a 1,1 0 0 0 1,1 1,1 0 0 0 1,-1 v -2 c 0,-2.749559 -2.250441,-5 -5,-5 H 15 V 9 C 15,7.3550102 13.645023,6 12,6 Z"
   id="path2" />
<path
   style="color:#000000;fill:#000000;stroke-linecap:round;stroke-linejoin:round;-inkscape-stroke:none"
   d="m 12,2 a 1,1 0 0 0 -1,1 v 1 a 1,1 0 0 0 1,1 1,1 0 0 0 1,-1 V 3 A 1,1 0 0 0 12,2 Z"
   id="path4" />
<path
   style="color:#000000;fill:#000000;stroke-linecap:round;stroke-linejoin:round;-inkscape-stroke:none"
   d="m 18,9 a 1,1 0 0 0 -1,1 1,1 0 0 0 1,1 h 1 a 1,1 0 0 0 1,-1 1,1 0 0 0 -1,-1 z"
   id="path6" />
<path
   style="color:#000000;fill:#000000;stroke-linecap:round;stroke-linejoin:round;-inkscape-stroke:none"
   d="m 5,9 a 1,1 0 0 0 -1,1 1,1 0 0 0 1,1 H 6 A 1,1 0 0 0 7,10 1,1 0 0 0 6,9 Z"
   id="path8" />
<path
   style="color:#000000;fill:#000000;stroke-linecap:round;stroke-linejoin:round;-inkscape-stroke:none"
   d="m 6.6367187,3.6367188 a 1,1 0 0 0 -0.7070312,0.2929687 1,1 0 0 0 0,1.4140625 l 0.7070312,0.7070312 a 1,1 0 0 0 1.4140626,0 1,1 0 0 0 0,-1.4140625 L 7.34375,3.9296875 A 1,1 0 0 0 6.6367187,3.6367188 Z"
   id="path10" />
<path
   style="color:#000000;fill:#000000;stroke-linecap:round;stroke-linejoin:round;-inkscape-stroke:none"
   d="m 16.65625,3.9296875 -0.707031,0.7070312 a 1,1 0 0 0 0,1.4140625 1,1 0 0 0 1.414062,0 L 18.070312,5.34375 a 1,1 0 0 0 0,-1.4140625 1,1 0 0 0 -1.414062,0 z"
   id="path12" />
<path
   id="_StrokeToPathSelectorObject" />
d=&quot;M0 0 H 0&quot;/&gt;
    </svg>
