<?xml version="1.0" encoding="UTF-8" standalone="no"?>
<svg
   width="24"
   height="24"
   viewBox="0 0 24 24"
   fill="none"
   version="1.1"
   id="svg5"
   sodipodi:docname="hand-pointer-line.svg"
   inkscape:version="1.1.1 (c3084ef, 2021-09-22)"
   xmlns:inkscape="http://www.inkscape.org/namespaces/inkscape"
   xmlns:sodipodi="http://sodipodi.sourceforge.net/DTD/sodipodi-0.dtd"
   xmlns="http://www.w3.org/2000/svg"
   xmlns:svg="http://www.w3.org/2000/svg"><defs
   id="defs9" />
<sodipodi:namedview
   id="namedview7"
   pagecolor="#ffffff"
   bordercolor="#666666"
   borderopacity="1.0"
   inkscape:pageshadow="2"
   inkscape:pageopacity="0.0"
   inkscape:pagecheckerboard="0"
   showgrid="false"
   inkscape:zoom="32.75"
   inkscape:cx="11.984733"
   inkscape:cy="12"
   inkscape:window-width="1296"
   inkscape:window-height="1067"
   inkscape:window-x="0"
   inkscape:window-y="25"
   inkscape:window-maximized="0"
   inkscape:current-layer="svg5" />
<path
   style="color:#000000;fill:#000000;stroke-linecap:round;stroke-linejoin:round;-inkscape-stroke:none"
   d="M 12,3 C 10.354977,3 9,4.3550102 9,6 v 6.998047 L 8.4003906,12.199219 C 7.8343548,11.444524 6.943404,11 6,11 H 5.6171875 C 4.1831493,11 3,12.183138 3,13.617188 c 0,0.406401 0.095474,0.808265 0.2773438,1.171875 l 2.8281249,5.658203 a 1,1 0 0 0 1.3417969,0.447265 1,1 0 0 0 0.4472656,-1.341797 L 5.0644531,13.894531 C 5.0216427,13.808941 5,13.713186 5,13.617188 5,13.264038 5.2640075,13 5.6171875,13 H 6 c 0.3156148,0 0.6113978,0.147886 0.8007812,0.400391 l 2.3984376,3.199218 A 1.0001,1.0001 0 0 0 11,16 V 6 c 0,-0.564148 0.435825,-1 1,-1 0.563782,0 1,0.435852 1,1 v 6 c 0,1.092706 0.906691,2 2,2 h 1 c 1.668637,0 3,1.331363 3,3 v 3 a 1,1 0 0 0 1,1 1,1 0 0 0 1,-1 v -3 c 0,-2.749559 -2.250441,-5 -5,-5 H 15 V 6 C 15,4.3550102 13.645416,3 12,3 Z"
   id="path2" />
<path
   id="_StrokeToPathSelectorObject" />
d=&quot;M0 0 H 0&quot;/&gt;
    </svg>
