<?xml version="1.0" encoding="UTF-8" standalone="no"?>
<svg
   width="24"
   height="24"
   viewBox="0 0 24 24"
   fill="none"
   version="1.1"
   id="svg5"
   sodipodi:docname="headset-line.svg"
   inkscape:version="1.1.1 (c3084ef, 2021-09-22)"
   xmlns:inkscape="http://www.inkscape.org/namespaces/inkscape"
   xmlns:sodipodi="http://sodipodi.sourceforge.net/DTD/sodipodi-0.dtd"
   xmlns="http://www.w3.org/2000/svg"
   xmlns:svg="http://www.w3.org/2000/svg"><defs
   id="defs9" />
<sodipodi:namedview
   id="namedview7"
   pagecolor="#ffffff"
   bordercolor="#666666"
   borderopacity="1.0"
   inkscape:pageshadow="2"
   inkscape:pageopacity="0.0"
   inkscape:pagecheckerboard="0"
   showgrid="false"
   inkscape:zoom="32.75"
   inkscape:cx="11.984733"
   inkscape:cy="12"
   inkscape:window-width="1296"
   inkscape:window-height="1067"
   inkscape:window-x="0"
   inkscape:window-y="25"
   inkscape:window-maximized="0"
   inkscape:current-layer="svg5" />
<path
   style="color:#000000;fill:#000000;stroke-linecap:round;stroke-linejoin:round;-inkscape-stroke:none"
   d="M 12,3 C 8.9222251,3 6.6170157,4.3181135 5.1542969,5.9589844 3.6915781,7.5998553 3,9.4904789 3,11 v 3 4 c 0,1.645023 1.3550102,3 3,3 h 1 c 1.6449898,0 3,-1.354977 3,-3 V 16 C 10,14.354977 8.6449898,13 7,13 H 5 V 11 C 5,10.176193 5.5092058,8.5668093 6.6464844,7.2910156 7.783763,6.015222 9.4777805,5 12,5 14.52222,5 16.216237,6.015222 17.353516,7.2910156 18.490794,8.5668093 19,10.176193 19,11 v 2 h -2 c -1.645005,0 -3,1.354995 -3,3 v 2 c 0,1.645005 1.354995,3 3,3 h 1 c 1.645005,0 3,-1.354995 3,-3 V 14 11 C 21,9.4904789 20.308422,7.5998553 18.845703,5.9589844 17.382984,4.3181135 15.077775,3 12,3 Z M 5,15 h 2 c 0.564148,0 1,0.435825 1,1 v 2 c 0,0.564175 -0.435852,1 -1,1 H 6 C 5.435852,19 5,18.564175 5,18 Z m 12,0 h 2 v 3 c 0,0.564193 -0.435807,1 -1,1 h -1 c -0.564193,0 -1,-0.435807 -1,-1 v -2 c 0,-0.564193 0.435807,-1 1,-1 z"
   id="path2" />
<path
   id="_StrokeToPathSelectorObject" />
d=&quot;M0 0 H 0&quot;/&gt;
    </svg>
