<?xml version="1.0" encoding="UTF-8" standalone="no"?>
<svg
   width="24"
   height="24"
   viewBox="0 0 24 24"
   fill="none"
   version="1.1"
   id="svg9"
   sodipodi:docname="image-circle-plus-line.svg"
   inkscape:version="1.1.1 (c3084ef, 2021-09-22)"
   xmlns:inkscape="http://www.inkscape.org/namespaces/inkscape"
   xmlns:sodipodi="http://sodipodi.sourceforge.net/DTD/sodipodi-0.dtd"
   xmlns="http://www.w3.org/2000/svg"
   xmlns:svg="http://www.w3.org/2000/svg"><defs
   id="defs13" />
<sodipodi:namedview
   id="namedview11"
   pagecolor="#ffffff"
   bordercolor="#666666"
   borderopacity="1.0"
   inkscape:pageshadow="2"
   inkscape:pageopacity="0.0"
   inkscape:pagecheckerboard="0"
   showgrid="false"
   inkscape:zoom="32.75"
   inkscape:cx="11.984733"
   inkscape:cy="12"
   inkscape:window-width="1296"
   inkscape:window-height="1067"
   inkscape:window-x="0"
   inkscape:window-y="25"
   inkscape:window-maximized="0"
   inkscape:current-layer="svg9" />
<path
   style="color:#000000;fill:#000000;stroke-linecap:round;stroke-linejoin:round;-inkscape-stroke:none"
   d="M 8.5,6 C 8.0500005,6 7.5133533,6.1031981 6.9785156,6.4882812 6.443678,6.8733644 6,7.6222231 6,8.5 6,9.3777769 6.443678,10.126636 6.9785156,10.511719 7.5133533,10.896802 8.0500004,11 8.5,11 8.9499996,11 9.4866467,10.896802 10.021484,10.511719 10.556322,10.126636 11,9.3777769 11,8.5 11,7.6222231 10.556322,6.8733644 10.021484,6.4882812 9.4866467,6.1031981 8.9499995,6 8.5,6 Z m 0,2 C 8.55,8 8.7633539,8.0464117 8.8535156,8.1113281 8.9436774,8.1762446 9,8.1777781 9,8.5 9,8.8222219 8.9436774,8.8237554 8.8535156,8.8886719 8.7633539,8.9535883 8.5499999,9 8.5,9 8.4500001,9 8.2366461,8.9535883 8.1464844,8.8886719 8.0563226,8.8237554 8,8.8222219 8,8.5 8,8.1777781 8.0563226,8.1762446 8.1464844,8.1113281 8.2366461,8.0464117 8.45,8 8.5,8 Z M 21,11 C 14.716118,11 10.859687,12.880061 8.6210938,15.201172 6.375084,14.763383 4.2605805,14.776253 2.8359375,15.013672 a 1,1 0 0 0 -0.8222656,1.15039 1,1 0 0 0 1.1503906,0.822266 c 1.2600029,-0.209981 3.4005967,-0.269191 5.5546875,0.230469 2.452204,0.568824 4.897837,1.817283 6.429688,4.30664 a 1,1 0 0 0 1.374999,0.328125 1,1 0 0 0 0.328125,-1.375 C 15.337107,18.015472 13.06935,16.736321 10.783203,15.923828 12.701433,14.32523 15.803932,13 21,13 h 1 a 1,1 0 0 0 1,-1 1,1 0 0 0 -1,-1 z"
   id="path2" />
<path
   style="color:#000000;fill:#000000;stroke-linecap:round;stroke-linejoin:round;-inkscape-stroke:none"
   d="M 12,1 C 5.9367165,1 1,5.9367165 1,12 c 0,6.063238 4.9367105,11 11,11 6.063244,0 11,-4.936756 11,-11 a 1,1 0 0 0 -1,-1 1,1 0 0 0 -1,1 c 0,4.982345 -4.017655,9 -9,9 C 7.0176006,21 3,16.982351 3,12 3,7.0175946 7.0175946,3 12,3 A 1,1 0 0 0 13,2 1,1 0 0 0 12,1 Z"
   id="path4" />
<path
   style="color:#000000;fill:#000000;stroke-linecap:round;stroke-linejoin:round;-inkscape-stroke:none"
   d="m 19,1 a 1,1 0 0 0 -1,1 v 2 h -2 a 1,1 0 0 0 -1,1 1,1 0 0 0 1,1 h 2 v 2 a 1,1 0 0 0 1,1 1,1 0 0 0 1,-1 V 6 h 2 A 1,1 0 0 0 23,5 1,1 0 0 0 22,4 H 20 V 2 A 1,1 0 0 0 19,1 Z"
   id="path6" />
<path
   id="_StrokeToPathSelectorObject" />
d=&quot;M0 0 H 0&quot;/&gt;
    </svg>
