<?xml version="1.0" encoding="UTF-8" standalone="no"?>
<svg
   width="24"
   height="24"
   viewBox="0 0 24 24"
   fill="none"
   version="1.1"
   id="svg9"
   sodipodi:docname="image-circle-off-line.svg"
   inkscape:version="1.1.1 (c3084ef, 2021-09-22)"
   xmlns:inkscape="http://www.inkscape.org/namespaces/inkscape"
   xmlns:sodipodi="http://sodipodi.sourceforge.net/DTD/sodipodi-0.dtd"
   xmlns="http://www.w3.org/2000/svg"
   xmlns:svg="http://www.w3.org/2000/svg"><defs
   id="defs13" />
<sodipodi:namedview
   id="namedview11"
   pagecolor="#ffffff"
   bordercolor="#666666"
   borderopacity="1.0"
   inkscape:pageshadow="2"
   inkscape:pageopacity="0.0"
   inkscape:pagecheckerboard="0"
   showgrid="false"
   inkscape:zoom="32.75"
   inkscape:cx="11.984733"
   inkscape:cy="12"
   inkscape:window-width="1296"
   inkscape:window-height="1067"
   inkscape:window-x="0"
   inkscape:window-y="25"
   inkscape:window-maximized="0"
   inkscape:current-layer="svg9" />
<path
   style="color:#000000;fill:#000000;stroke-linecap:round;stroke-linejoin:round;-inkscape-stroke:none"
   d="M 8.0019531,6.75 A 1,1 0 0 0 6.5898437,6.8398437 C 6.2315105,7.2465793 6,7.8435342 6,8.5 6,9.3777769 6.443678,10.126636 6.9785156,10.511719 7.5133533,10.896802 8.0500004,11 8.5,11 8.9804397,11 9.5673641,10.884629 10.128906,10.429688 A 1,1 0 0 0 10.277344,9.0234375 1,1 0 0 0 8.8710938,8.875 C 8.7852365,8.9445584 8.5533798,9 8.5,9 8.4500001,9 8.2366461,8.9535883 8.1464844,8.8886719 8.0563226,8.8237554 8,8.8222219 8,8.5 8,8.2590267 8.0476905,8.2102203 8.0917969,8.1601563 A 1,1 0 0 0 8.0019531,6.75 Z M 21,11 c -1.521714,0 -2.902031,0.106446 -4.154297,0.302734 a 1,1 0 0 0 -0.833984,1.144532 1,1 0 0 0 1.142578,0.832031 C 18.294429,13.100585 19.572317,13 21,13 h 1 a 1,1 0 0 0 1,-1 1,1 0 0 0 -1,-1 z m -8.388672,1.470703 C 10.888877,13.197684 9.6140188,14.164585 8.6171875,15.199219 6.372795,14.762345 4.259681,14.776403 2.8359375,15.013672 a 1,1 0 0 0 -0.8222656,1.15039 1,1 0 0 0 1.1503906,0.822266 c 1.2600029,-0.209981 3.4005967,-0.269191 5.5546875,0.230469 2.452204,0.568824 4.897837,1.817283 6.429688,4.30664 a 1,1 0 0 0 1.374999,0.328125 1,1 0 0 0 0.328125,-1.375 c -1.516484,-2.464387 -3.788819,-3.742838 -6.078124,-4.554687 0.707784,-0.587567 1.52488,-1.147225 2.615234,-1.607422 a 1,1 0 0 0 0.533203,-1.310547 1,1 0 0 0 -1.310547,-0.533203 z"
   id="path2" />
<path
   style="color:#000000;fill:#000000;stroke-linecap:round;stroke-linejoin:round;-inkscape-stroke:none"
   d="M 12,1 C 10.438632,1 8.947741,1.3269812 7.5996094,1.9160156 a 1,1 0 0 0 -0.515625,1.3164063 1,1 0 0 0 1.3164062,0.515625 C 9.5020966,3.2666824 10.716971,3 12,3 c 4.982351,0 9,4.0176006 9,9 0,0.94289 -0.144678,1.8496 -0.412109,2.701172 -0.0965,0.307229 -0.208351,0.606489 -0.335938,0.898437 a 1,1 0 0 0 0.515625,1.316407 1,1 0 0 0 1.316406,-0.515625 c 0.156213,-0.357452 0.294014,-0.725592 0.41211,-1.101563 C 22.823462,14.256402 23,13.147508 23,12 23,5.9367105 18.063238,1 12,1 Z M 4.8476562,4 A 1,1 0 0 0 4.1445312,4.3007812 C 2.2005593,6.2837811 1,9.0078521 1,12 c 0,6.063238 4.9367105,11 11,11 2.992188,0 5.716184,-1.200524 7.699219,-3.144531 a 1,1 0 0 0 0.01563,-1.414063 1,1 0 0 0 -1.414063,-0.01367 C 16.676219,20.020324 14.458806,21 12,21 7.0176006,21 3,16.982351 3,12 3,9.5412534 3.9797411,7.3237153 5.5722656,5.6992187 A 1,1 0 0 0 5.5585937,4.2851562 1,1 0 0 0 4.8476562,4 Z"
   id="path4" />
<path
   style="color:#000000;fill:#000000;stroke-linecap:round;stroke-linejoin:round;-inkscape-stroke:none"
   d="m 2,1 a 1,1 0 0 0 -0.7070313,0.2929687 1,1 0 0 0 0,1.4140626 L 21.292969,22.707031 a 1,1 0 0 0 1.414062,0 1,1 0 0 0 0,-1.414062 L 2.7070313,1.2929687 A 1,1 0 0 0 2,1 Z"
   id="path6" />
<path
   id="_StrokeToPathSelectorObject" />
d=&quot;M0 0 H 0&quot;/&gt;
    </svg>
