<?xml version="1.0" encoding="UTF-8" standalone="no"?>
<svg
   width="24"
   height="24"
   viewBox="0 0 24 24"
   fill="none"
   version="1.1"
   id="svg5"
   sodipodi:docname="image-frame-line.svg"
   inkscape:version="1.1.1 (c3084ef, 2021-09-22)"
   xmlns:inkscape="http://www.inkscape.org/namespaces/inkscape"
   xmlns:sodipodi="http://sodipodi.sourceforge.net/DTD/sodipodi-0.dtd"
   xmlns="http://www.w3.org/2000/svg"
   xmlns:svg="http://www.w3.org/2000/svg"><defs
   id="defs9" />
<sodipodi:namedview
   id="namedview7"
   pagecolor="#ffffff"
   bordercolor="#666666"
   borderopacity="1.0"
   inkscape:pageshadow="2"
   inkscape:pageopacity="0.0"
   inkscape:pagecheckerboard="0"
   showgrid="false"
   inkscape:zoom="32.75"
   inkscape:cx="11.984733"
   inkscape:cy="12"
   inkscape:window-width="1296"
   inkscape:window-height="1067"
   inkscape:window-x="0"
   inkscape:window-y="25"
   inkscape:window-maximized="0"
   inkscape:current-layer="svg5" />
<path
   style="color:#000000;fill:#000000;stroke-linecap:round;stroke-linejoin:round;-inkscape-stroke:none"
   d="m 12,1.8339844 c -0.769867,-1.2e-6 -1.539502,0.2914179 -2.1210937,0.8730469 L 7.5859375,5 H 5 C 3.3549921,5 2,6.3549921 2,8 v 7 1 2 c 0,1.645023 1.3550102,3 3,3 h 3 8 3 c 1.645005,0 3,-1.354995 3,-3 V 13.039063 13 8 C 22,6.3550102 20.645023,5 19,5 H 16.414062 L 14.121094,2.7070313 C 13.539504,2.1254116 12.769867,1.8339856 12,1.8339844 Z m 0,1.9882812 c 0.253832,1.3e-6 0.507622,0.099409 0.707031,0.2988281 L 13.585938,5 H 10.414063 L 11.292969,4.1210937 C 11.492376,3.9216735 11.746168,3.8222643 12,3.8222656 Z M 5,7 h 3 8 3 c 0.564175,0 1,0.435852 1,1 v 4.082031 C 16.893404,12.072897 12.647083,12.575974 9.7050781,14.855469 8.1086706,14.415037 6.19737,14.140843 4,14.066406 V 8 C 4,7.4358701 4.4358701,7 5,7 Z M 7.5,8 C 7.0500004,8 6.5133533,8.1031981 5.9785156,8.4882813 5.443678,8.8733644 5,9.6222231 5,10.5 5,11.377777 5.443678,12.126636 5.9785156,12.511719 6.5133533,12.896802 7.0500005,13 7.5,13 7.9499995,13 8.4866467,12.896802 9.0214844,12.511719 9.556322,12.126636 10,11.377777 10,10.5 10,9.6222231 9.556322,8.8733644 9.0214844,8.4882813 8.4866467,8.1031981 7.9499996,8 7.5,8 Z m 0,2 c 0.05,0 0.2633539,0.04641 0.3535156,0.111328 C 7.9436774,10.176245 8,10.177778 8,10.5 8,10.822222 7.9436774,10.823755 7.8535156,10.888672 7.7633539,10.953588 7.5499999,11 7.5,11 7.45,11 7.2366461,10.953588 7.1464844,10.888672 7.0563226,10.823755 7,10.822222 7,10.5 7,10.177778 7.0563226,10.176245 7.1464844,10.111328 7.2366461,10.046412 7.4500001,10 7.5,10 Z M 20,14.087891 V 18 c 0,0.564193 -0.435807,1 -1,1 H 16.396484 C 15.663799,17.904029 14.162203,16.78924 11.960938,15.8125 14.315899,14.562424 17.546382,14.110782 20,14.087891 Z M 4,16.066406 c 2.2000045,0.08022 4.0961865,0.356256 5.5839844,0.802735 C 11.557459,17.461318 12.826341,18.254611 13.728516,19 H 8 5 C 4.435852,19 4,18.564175 4,18 Z"
   id="path2" />
<path
   id="_StrokeToPathSelectorObject" />
d=&quot;M0 0 H 0&quot;/&gt;
    </svg>
