<?xml version="1.0" encoding="UTF-8" standalone="no"?>
<svg
   width="24"
   height="24"
   viewBox="0 0 24 24"
   fill="none"
   version="1.1"
   id="svg5"
   sodipodi:docname="image-line.svg"
   inkscape:version="1.1.1 (c3084ef, 2021-09-22)"
   xmlns:inkscape="http://www.inkscape.org/namespaces/inkscape"
   xmlns:sodipodi="http://sodipodi.sourceforge.net/DTD/sodipodi-0.dtd"
   xmlns="http://www.w3.org/2000/svg"
   xmlns:svg="http://www.w3.org/2000/svg"><defs
   id="defs9" />
<sodipodi:namedview
   id="namedview7"
   pagecolor="#ffffff"
   bordercolor="#666666"
   borderopacity="1.0"
   inkscape:pageshadow="2"
   inkscape:pageopacity="0.0"
   inkscape:pagecheckerboard="0"
   showgrid="false"
   inkscape:zoom="32.75"
   inkscape:cx="11.984733"
   inkscape:cy="12"
   inkscape:window-width="1296"
   inkscape:window-height="1067"
   inkscape:window-x="0"
   inkscape:window-y="25"
   inkscape:window-maximized="0"
   inkscape:current-layer="svg5" />
<path
   style="color:#000000;fill:#000000;stroke-linecap:round;stroke-linejoin:round;-inkscape-stroke:none"
   d="M 5,2 C 3.3549921,2 2,3.3549921 2,5 v 11 3 c 0,1.645023 1.3550102,3 3,3 h 2 9 3 c 1.645005,0 3,-1.354995 3,-3 V 15 12 5 C 22,3.3550102 20.645023,2 19,2 Z m 0,2 h 14 c 0.564175,0 1,0.435852 1,1 v 6.082031 C 14.344819,11.283246 10.728167,13.016429 8.6210938,15.201172 6.8773505,14.861284 5.3168644,14.824967 4,14.9375 V 5 C 4,4.4358701 4.4358701,4 5,4 Z M 8.5,6 C 8.0500005,6 7.5133533,6.1031981 6.9785156,6.4882812 6.443678,6.8733644 6,7.6222231 6,8.5 6,9.3777769 6.443678,10.126636 6.9785156,10.511719 7.5133533,10.896802 8.0500004,11 8.5,11 8.9499996,11 9.4866467,10.896802 10.021484,10.511719 10.556322,10.126636 11,9.3777769 11,8.5 11,7.6222231 10.556322,6.8733644 10.021484,6.4882812 9.4866467,6.1031981 8.9499995,6 8.5,6 Z m 0,2 C 8.55,8 8.7633539,8.0464117 8.8535156,8.1113281 8.9436774,8.1762446 9,8.1777781 9,8.5 9,8.8222219 8.9436774,8.8237554 8.8535156,8.8886719 8.7633539,8.9535883 8.5499999,9 8.5,9 8.4500001,9 8.2366461,8.9535883 8.1464844,8.8886719 8.0563226,8.8237554 8,8.8222219 8,8.5 8,8.1777781 8.0563226,8.1762446 8.1464844,8.1113281 8.2366461,8.0464117 8.45,8 8.5,8 Z M 20,13.078125 V 15 19 c 0,0.564193 -0.435807,1 -1,1 H 16.472656 C 14.972832,17.854372 12.901437,16.676645 10.783203,15.923828 12.562814,14.440751 15.446532,13.248907 20,13.078125 Z M 5.6074219,16.835937 c 0.961911,0.0214 2.0342827,0.13103 3.1113281,0.38086 1.883788,0.436971 3.754115,1.28947 5.21875,2.783203 H 7 5 C 4.435852,20 4,19.564175 4,19 v -2.064453 c 0.5052242,-0.04818 0.9745897,-0.113688 1.6074219,-0.09961 z"
   id="path2" />
<path
   id="_StrokeToPathSelectorObject" />
d=&quot;M0 0 H 0&quot;/&gt;
    </svg>
