<?xml version="1.0" encoding="UTF-8" standalone="no"?>
<svg
   width="24"
   height="24"
   viewBox="0 0 24 24"
   fill="none"
   version="1.1"
   id="svg9"
   sodipodi:docname="image-photography-line.svg"
   inkscape:version="1.1.1 (c3084ef, 2021-09-22)"
   xmlns:inkscape="http://www.inkscape.org/namespaces/inkscape"
   xmlns:sodipodi="http://sodipodi.sourceforge.net/DTD/sodipodi-0.dtd"
   xmlns="http://www.w3.org/2000/svg"
   xmlns:svg="http://www.w3.org/2000/svg"><defs
   id="defs13" />
<sodipodi:namedview
   id="namedview11"
   pagecolor="#ffffff"
   bordercolor="#666666"
   borderopacity="1.0"
   inkscape:pageshadow="2"
   inkscape:pageopacity="0.0"
   inkscape:pagecheckerboard="0"
   showgrid="false"
   inkscape:zoom="32.75"
   inkscape:cx="11.984733"
   inkscape:cy="12"
   inkscape:window-width="1296"
   inkscape:window-height="1067"
   inkscape:window-x="0"
   inkscape:window-y="25"
   inkscape:window-maximized="0"
   inkscape:current-layer="svg9" />
<path
   style="color:#000000;fill:#000000;stroke-linecap:round;stroke-linejoin:round;-inkscape-stroke:none"
   d="M 4,3 C 2.3549921,3 1,4.3549921 1,6 v 11 3 c 0,1.645023 1.3550102,3 3,3 h 2 9 3 c 1.645005,0 3,-1.354995 3,-3 v -4 -2 a 1,1 0 0 0 -1,-1 1,1 0 0 0 -1,1 v 2 4 c 0,0.564193 -0.435807,1 -1,1 H 15.472656 C 13.979025,18.863231 11.917817,17.689819 9.8085938,16.935547 10.715775,16.180799 11.801499,15.468714 13.357422,14.947266 a 1,1 0 0 0 0.630859,-1.265625 1,1 0 0 0 -1.265625,-0.628907 C 10.451173,13.813993 8.8343501,14.956897 7.6328125,16.203125 5.8845368,15.861006 4.319951,15.824703 3,15.9375 V 6 C 3,5.4358701 3.4358701,5 4,5 H 7 A 1,1 0 0 0 8,4 1,1 0 0 0 7,3 Z M 7,7 C 6.5500004,7 6.0133533,7.1031981 5.4785156,7.4882812 4.943678,7.8733644 4.5,8.6222231 4.5,9.5 c 0,0.877777 0.443678,1.626636 0.9785156,2.011719 C 6.0133533,11.896802 6.5500005,12 7,12 A 1,1 0 0 0 8,11 1,1 0 0 0 7,10 C 6.95,10 6.7366461,9.9535883 6.6464844,9.8886719 6.5563226,9.8237554 6.5,9.8222219 6.5,9.5 6.5,9.1777781 6.5563226,9.1762446 6.6464844,9.1113281 6.7366461,9.0464117 6.9500001,9 7,9 A 1,1 0 0 0 8,8 1,1 0 0 0 7,7 Z M 4.6074219,17.835937 c 0.961911,0.0214 2.0342827,0.13103 3.1113281,0.38086 C 9.6025383,18.653768 11.472865,19.506267 12.9375,21 H 6 4 C 3.435852,21 3,20.564175 3,20 v -2.064453 c 0.5052242,-0.04818 0.9745897,-0.113688 1.6074219,-0.09961 z"
   id="path2" />
<path
   style="color:#000000;fill:#000000;stroke-linecap:round;stroke-linejoin:round;-inkscape-stroke:none"
   d="M 14,1 A 1.0001,1.0001 0 0 0 13.292969,1.2929687 L 11.585938,3 H 11 C 9.9072702,3 9,3.9072947 9,5 v 5 c 0,1.092706 0.9072943,2 2,2 h 10 c 1.092706,0 2,-0.907294 2,-2 V 5 C 23,3.9072947 22.09273,3 21,3 H 20.414062 L 18.707031,1.2929687 A 1.0001,1.0001 0 0 0 18,1 Z m 0.414063,2 h 3.171874 l 1.707032,1.7070312 A 1.0001,1.0001 0 0 0 20,5 h 1 v 5 H 11 V 5 h 1 a 1.0001,1.0001 0 0 0 0.707031,-0.2929688 z"
   id="path4" />
<path
   style="color:#000000;fill:#000000;stroke-linecap:round;stroke-linejoin:round;-inkscape-stroke:none"
   d="m 16,5 c -1.092724,0 -2,0.9072762 -2,2 0,1.0927238 0.907276,2 2,2 1.092724,0 2,-0.9072762 2,-2 0,-1.0927238 -0.907276,-2 -2,-2 z"
   id="circle6" />
<path
   id="_StrokeToPathSelectorObject" />
d=&quot;M0 0 H 0&quot;/&gt;
    </svg>
