<?xml version="1.0" encoding="UTF-8" standalone="no"?>
<svg
   width="24"
   height="24"
   viewBox="0 0 24 24"
   fill="none"
   version="1.1"
   id="svg7"
   sodipodi:docname="image-off-line.svg"
   inkscape:version="1.1.1 (c3084ef, 2021-09-22)"
   xmlns:inkscape="http://www.inkscape.org/namespaces/inkscape"
   xmlns:sodipodi="http://sodipodi.sourceforge.net/DTD/sodipodi-0.dtd"
   xmlns="http://www.w3.org/2000/svg"
   xmlns:svg="http://www.w3.org/2000/svg"><defs
   id="defs11" />
<sodipodi:namedview
   id="namedview9"
   pagecolor="#ffffff"
   bordercolor="#666666"
   borderopacity="1.0"
   inkscape:pageshadow="2"
   inkscape:pageopacity="0.0"
   inkscape:pagecheckerboard="0"
   showgrid="false"
   inkscape:zoom="32.75"
   inkscape:cx="11.984733"
   inkscape:cy="12"
   inkscape:window-width="1296"
   inkscape:window-height="1067"
   inkscape:window-x="0"
   inkscape:window-y="25"
   inkscape:window-maximized="0"
   inkscape:current-layer="svg7" />
<path
   style="color:#000000;fill:#000000;stroke-linecap:round;stroke-linejoin:round;-inkscape-stroke:none"
   d="M 8,2 A 1,1 0 0 0 7,3 1,1 0 0 0 8,4 h 11 c 0.564175,0 1,0.435852 1,1 v 6.072266 c -1.104487,0.03841 -2.203456,0.08143 -3.154297,0.230468 a 1,1 0 0 0 -0.833984,1.144532 1,1 0 0 0 1.142578,0.832031 C 17.997967,13.147055 19.000751,13.109889 20,13.072266 V 16 a 1,1 0 0 0 1,1 1,1 0 0 0 1,-1 V 12 5 C 22,3.3550102 20.645023,2 19,2 Z M 4.1542969,2.8671875 A 1,1 0 0 0 2.7441406,2.96875 C 2.1543215,3.6516681 2,4.411304 2,5 v 4 7 3 c 0,1.645023 1.3550102,3 3,3 h 2 9 3 c 0.588612,0 1.348284,-0.154285 2.03125,-0.744141 a 1,1 0 0 0 0.101562,-1.410156 1,1 0 0 0 -1.410156,-0.101562 C 19.529824,19.910684 19.147188,20 19,20 h -2.527344 c -1.501992,-2.14873 -3.577833,-3.325825 -5.699218,-4.078125 0.707784,-0.587567 1.52488,-1.147225 2.615234,-1.607422 a 1,1 0 0 0 0.533203,-1.310547 1,1 0 0 0 -1.310547,-0.533203 C 10.888877,13.197684 9.6140188,14.164585 8.6171875,15.199219 6.8750169,14.860103 5.3157934,14.825058 4,14.9375 V 9 5 C 4,4.8528368 4.0893593,4.4701248 4.2558594,4.2773437 A 1,1 0 0 0 4.1542969,2.8671875 Z M 8.0019531,6.75 A 1,1 0 0 0 6.5898437,6.8398437 C 6.2315105,7.2465793 6,7.8435342 6,8.5 6,9.3777769 6.443678,10.126636 6.9785156,10.511719 7.5133533,10.896802 8.0500004,11 8.5,11 8.9804397,11 9.5673641,10.884629 10.128906,10.429688 A 1,1 0 0 0 10.277344,9.0234375 1,1 0 0 0 8.8710938,8.875 C 8.7852365,8.9445584 8.5533798,9 8.5,9 8.4500001,9 8.2366461,8.9535883 8.1464844,8.8886719 8.0563226,8.8237554 8,8.8222219 8,8.5 8,8.2590267 8.0476905,8.2102203 8.0917969,8.1601563 A 1,1 0 0 0 8.0019531,6.75 Z M 5.6074219,16.835937 c 0.961911,0.0214 2.0342827,0.13103 3.1113281,0.38086 1.883788,0.436971 3.754115,1.28947 5.21875,2.783203 H 7 5 C 4.435852,20 4,19.564175 4,19 v -2.064453 c 0.5052242,-0.04818 0.9745897,-0.113688 1.6074219,-0.09961 z"
   id="path2" />
<path
   style="color:#000000;fill:#000000;stroke-linecap:round;stroke-linejoin:round;-inkscape-stroke:none"
   d="m 2,1 a 1,1 0 0 0 -0.7070313,0.2929687 1,1 0 0 0 0,1.4140626 L 21.292969,22.707031 a 1,1 0 0 0 1.414062,0 1,1 0 0 0 0,-1.414062 L 2.7070313,1.2929687 A 1,1 0 0 0 2,1 Z"
   id="path4" />
<path
   id="_StrokeToPathSelectorObject" />
d=&quot;M0 0 H 0&quot;/&gt;
    </svg>
