<?xml version="1.0" encoding="UTF-8" standalone="no"?>
<svg
   width="24"
   height="24"
   viewBox="0 0 24 24"
   fill="none"
   version="1.1"
   id="svg11"
   sodipodi:docname="image-circle-story-line.svg"
   inkscape:version="1.1.1 (c3084ef, 2021-09-22)"
   xmlns:inkscape="http://www.inkscape.org/namespaces/inkscape"
   xmlns:sodipodi="http://sodipodi.sourceforge.net/DTD/sodipodi-0.dtd"
   xmlns="http://www.w3.org/2000/svg"
   xmlns:svg="http://www.w3.org/2000/svg"><defs
   id="defs15" />
<sodipodi:namedview
   id="namedview13"
   pagecolor="#ffffff"
   bordercolor="#666666"
   borderopacity="1.0"
   inkscape:pageshadow="2"
   inkscape:pageopacity="0.0"
   inkscape:pagecheckerboard="0"
   showgrid="false"
   inkscape:zoom="32.75"
   inkscape:cx="11.984733"
   inkscape:cy="12"
   inkscape:window-width="1296"
   inkscape:window-height="1067"
   inkscape:window-x="0"
   inkscape:window-y="25"
   inkscape:window-maximized="0"
   inkscape:current-layer="svg11" />
<path
   style="color:#000000;fill:#000000;stroke-linecap:round;stroke-linejoin:round;-inkscape-stroke:none"
   d="M 17.355469,9.5117188 C 13.79534,10.035339 12.340413,11.351287 10.976563,12.810547 9.2358377,12.217448 7.7596178,11.978406 6.4824219,12 A 1,1 0 0 0 5.5,13.017578 1,1 0 0 0 6.5175781,14 c 1.2144283,-0.02053 2.5119366,0.145482 4.3535159,0.853516 1.392756,0.535548 2.171071,1.318507 3.351562,2.77539 a 1,1 0 0 0 1.40625,0.148438 1,1 0 0 0 0.148438,-1.40625 c -0.899098,-1.109606 -1.835181,-1.943201 -2.921875,-2.626953 1.021745,-1.072863 1.977744,-1.840133 4.791015,-2.253907 a 1,1 0 0 0 0.84375,-1.134765 1,1 0 0 0 -1.134765,-0.8437502 z"
   id="path2" />
<path
   style="color:#000000;fill:#000000;stroke-linecap:round;stroke-linejoin:round;-inkscape-stroke:none"
   d="m 10,9 a 1,1 0 0 0 -1,1 1,1 0 0 0 1,1 h 0.002 a 1,1 0 0 0 1,-1 1,1 0 0 0 -1,-1 z"
   id="path4" />
<path
   style="color:#000000;fill:#000000;stroke-linecap:round;stroke-linejoin:round;-inkscape-stroke:none"
   d="m 12,5 c -3.8541448,0 -7,3.1458552 -7,7 0,3.854145 3.1458552,7 7,7 3.854145,0 7,-3.145855 7,-7 0,-3.8541448 -3.145855,-7 -7,-7 z m 0,2 c 2.773266,0 5,2.2267344 5,5 0,2.773266 -2.226734,5 -5,5 C 9.2267344,17 7,14.773266 7,12 7,9.2267344 9.2267344,7 12,7 Z"
   id="circle6" />
<path
   style="color:#000000;fill:#000000;stroke-linecap:round;stroke-linejoin:round;-inkscape-stroke:none"
   d="M 12,1 C 10.438628,1 8.9477333,1.3269956 7.5996094,1.9160156 a 1,1 0 0 0 -0.515625,1.3164063 1,1 0 0 0 1.3164062,0.515625 C 9.5021043,3.266688 10.716975,3 12,3 A 1,1 0 0 0 13,2 1,1 0 0 0 12,1 Z m 4.232422,1.0839844 a 1,1 0 0 0 -1.316406,0.515625 1,1 0 0 0 0.515625,1.3164062 c 1.037388,0.4532706 1.973168,1.0982313 2.763671,1.8886719 0.790374,0.7903911 1.435346,1.7261925 1.888672,2.7636719 a 1,1 0 0 0 1.316407,0.515625 1,1 0 0 0 0.515625,-1.3164063 C 21.361343,6.4981598 20.5742,5.3554721 19.609375,4.390625 18.64448,3.4258073 17.501831,2.6386328 16.232422,2.0839844 Z M 4.9296875,3.9296875 A 1,1 0 0 0 4.2226562,4.2226562 C 3.2578102,5.1875023 2.4706625,6.3301596 1.9160156,7.5996094 1.3269956,8.9477333 1,10.438628 1,12 a 1,1 0 0 0 1,1 1,1 0 0 0 1,-1 C 3,10.716975 3.266688,9.5021043 3.7480469,8.4003906 4.201319,7.3629627 4.8463066,6.4271309 5.6367187,5.6367187 a 1,1 0 0 0 0,-1.4140625 A 1,1 0 0 0 4.9296875,3.9296875 Z M 22,11 a 1,1 0 0 0 -1,1 c 0,1.283025 -0.266685,2.497928 -0.748047,3.599609 a 1,1 0 0 0 0.515625,1.316407 1,1 0 0 0 1.316406,-0.515625 C 22.673022,15.052274 23,13.561372 23,12 A 1,1 0 0 0 22,11 Z M 3.1972656,15.068359 a 1,1 0 0 0 -0.765625,0.01563 1,1 0 0 0 -0.515625,1.316407 c 0.5546465,1.269404 1.3418203,2.412055 2.3066406,3.376953 0.9648276,0.964794 2.1074504,1.752036 3.3769532,2.30664 A 1,1 0 0 0 8.9160156,21.568359 1,1 0 0 0 8.4003906,20.251953 C 7.3630157,19.798758 6.4271494,19.153685 5.6367187,18.363281 4.8462808,17.57278 4.2013194,16.637002 3.7480469,15.599609 a 1,1 0 0 0 -0.5507813,-0.53125 z m 15.8730464,3.001953 a 1,1 0 0 0 -0.707031,0.292969 c -0.790519,0.79043 -1.726332,1.435477 -2.763672,1.888672 C 14.497928,20.733315 13.283025,21 12,21 a 1,1 0 0 0 -1,1 1,1 0 0 0 1,1 c 1.561372,0 3.052274,-0.326978 4.400391,-0.916016 1.269457,-0.554603 2.412074,-1.341871 3.376953,-2.30664 a 1,1 0 0 0 0,-1.414063 1,1 0 0 0 -0.707032,-0.292969 z"
   id="path8" />
<path
   id="_StrokeToPathSelectorObject" />
d=&quot;M0 0 H 0&quot;/&gt;
    </svg>
