<?xml version="1.0" encoding="UTF-8" standalone="no"?>
<svg
   width="24"
   height="24"
   viewBox="0 0 24 24"
   fill="none"
   version="1.1"
   id="svg21"
   sodipodi:docname="iphone-x-apps-line.svg"
   inkscape:version="1.1.1 (c3084ef, 2021-09-22)"
   xmlns:inkscape="http://www.inkscape.org/namespaces/inkscape"
   xmlns:sodipodi="http://sodipodi.sourceforge.net/DTD/sodipodi-0.dtd"
   xmlns="http://www.w3.org/2000/svg"
   xmlns:svg="http://www.w3.org/2000/svg"><defs
   id="defs25" />
<sodipodi:namedview
   id="namedview23"
   pagecolor="#ffffff"
   bordercolor="#666666"
   borderopacity="1.0"
   inkscape:pageshadow="2"
   inkscape:pageopacity="0.0"
   inkscape:pagecheckerboard="0"
   showgrid="false"
   inkscape:zoom="32.75"
   inkscape:cx="11.984733"
   inkscape:cy="12"
   inkscape:window-width="1296"
   inkscape:window-height="1067"
   inkscape:window-x="0"
   inkscape:window-y="25"
   inkscape:window-maximized="0"
   inkscape:current-layer="svg21" />
<path
   style="color:#000000;fill:#000000;stroke-linecap:round;stroke-linejoin:round;-inkscape-stroke:none"
   d="M 8,2 C 6.3549921,2 5,3.3549921 5,5 v 14 c 0,1.645023 1.3550102,3 3,3 h 8 c 1.645005,0 3,-1.354995 3,-3 V 5 C 19,3.3550102 17.645023,2 16,2 H 14 10 Z M 8,4 H 9 A 1,1 0 0 0 9.296875,4.7089844 C 9.6042335,5.4230026 10.18201,6 11,6 h 2 c 0.81799,0 1.395767,-0.5769974 1.703125,-1.2910156 a 1,1 0 0 0 0.0039,-0.00195 A 1,1 0 0 0 15,4 h 1 c 0.564175,0 1,0.435852 1,1 v 14 c 0,0.564193 -0.435807,1 -1,1 H 8 C 7.435852,20 7,19.564175 7,19 V 5 C 7,4.4358701 7.4358701,4 8,4 Z"
   id="path2" />
<path
   style="color:#000000;fill:#000000;stroke-linecap:round;stroke-linejoin:round;-inkscape-stroke:none"
   d="M 9,7 A 1,1 0 0 0 8,8 v 0.00195 a 1,1 0 0 0 1,1 1,1 0 0 0 1,-1 V 8 A 1,1 0 0 0 9,7 Z"
   id="path4" />
<path
   style="color:#000000;fill:#000000;stroke-linecap:round;stroke-linejoin:round;-inkscape-stroke:none"
   d="m 9,10 a 1,1 0 0 0 -1,1 v 0.002 a 1,1 0 0 0 1,1 1,1 0 0 0 1,-1 V 11 A 1,1 0 0 0 9,10 Z"
   id="path6" />
<path
   style="color:#000000;fill:#000000;stroke-linecap:round;stroke-linejoin:round;-inkscape-stroke:none"
   d="m 12,10 a 1,1 0 0 0 -1,1 v 0.002 a 1,1 0 0 0 1,1 1,1 0 0 0 1,-1 V 11 a 1,1 0 0 0 -1,-1 z"
   id="path8" />
<path
   style="color:#000000;fill:#000000;stroke-linecap:round;stroke-linejoin:round;-inkscape-stroke:none"
   d="m 12,7 a 1,1 0 0 0 -1,1 v 0.00195 a 1,1 0 0 0 1,1 1,1 0 0 0 1,-1 V 8 A 1,1 0 0 0 12,7 Z"
   id="path10" />
<path
   style="color:#000000;fill:#000000;stroke-linecap:round;stroke-linejoin:round;-inkscape-stroke:none"
   d="m 15,7 a 1,1 0 0 0 -1,1 v 0.00195 a 1,1 0 0 0 1,1 1,1 0 0 0 1,-1 V 8 A 1,1 0 0 0 15,7 Z"
   id="path12" />
<path
   style="color:#000000;fill:#000000;stroke-linecap:round;stroke-linejoin:round;-inkscape-stroke:none"
   d="m 15,10 a 1,1 0 0 0 -1,1 v 0.002 a 1,1 0 0 0 1,1 1,1 0 0 0 1,-1 V 11 a 1,1 0 0 0 -1,-1 z"
   id="path14" />
<path
   style="color:#000000;fill:#000000;stroke-linecap:round;stroke-linejoin:round;-inkscape-stroke:none"
   d="m 9,13 a 1,1 0 0 0 -1,1 v 0.002 a 1,1 0 0 0 1,1 1,1 0 0 0 1,-1 V 14 A 1,1 0 0 0 9,13 Z"
   id="path16" />
<path
   style="color:#000000;fill:#000000;stroke-linecap:round;stroke-linejoin:round;-inkscape-stroke:none"
   d="m 12,13 a 1,1 0 0 0 -1,1 v 0.002 a 1,1 0 0 0 1,1 1,1 0 0 0 1,-1 V 14 a 1,1 0 0 0 -1,-1 z"
   id="path18" />
<path
   id="_StrokeToPathSelectorObject" />
d=&quot;M0 0 H 0&quot;/&gt;
    </svg>
