<?xml version="1.0" encoding="UTF-8" standalone="no"?>
<svg
   width="24"
   height="24"
   viewBox="0 0 24 24"
   fill="none"
   version="1.1"
   id="svg23"
   sodipodi:docname="iphone-old-apps-line.svg"
   inkscape:version="1.1.1 (c3084ef, 2021-09-22)"
   xmlns:inkscape="http://www.inkscape.org/namespaces/inkscape"
   xmlns:sodipodi="http://sodipodi.sourceforge.net/DTD/sodipodi-0.dtd"
   xmlns="http://www.w3.org/2000/svg"
   xmlns:svg="http://www.w3.org/2000/svg"><defs
   id="defs27" />
<sodipodi:namedview
   id="namedview25"
   pagecolor="#ffffff"
   bordercolor="#666666"
   borderopacity="1.0"
   inkscape:pageshadow="2"
   inkscape:pageopacity="0.0"
   inkscape:pagecheckerboard="0"
   showgrid="false"
   inkscape:zoom="32.75"
   inkscape:cx="11.984733"
   inkscape:cy="12"
   inkscape:window-width="1296"
   inkscape:window-height="1067"
   inkscape:window-x="0"
   inkscape:window-y="25"
   inkscape:window-maximized="0"
   inkscape:current-layer="svg23" />
<path
   style="color:#000000;fill:#000000;stroke-linecap:round;stroke-linejoin:round;-inkscape-stroke:none"
   d="M 8,2 C 6.3549921,2 5,3.3549921 5,5 v 14 c 0,1.645023 1.3550102,3 3,3 h 8 c 1.645005,0 3,-1.354995 3,-3 V 5 C 19,3.3550102 17.645023,2 16,2 h -2 -4 z m 0,2 h 2 4 2 c 0.564175,0 1,0.435852 1,1 v 14 c 0,0.564193 -0.435807,1 -1,1 H 8 C 7.435852,20 7,19.564175 7,19 V 5 C 7,4.4358701 7.4358701,4 8,4 Z"
   id="path2" />
<path
   style="color:#000000;fill:#000000;stroke-linecap:round;stroke-linejoin:round;-inkscape-stroke:none"
   d="M 9,5 A 1,1 0 0 0 8,6 v 0.00195 a 1,1 0 0 0 1,1 1,1 0 0 0 1,-1 V 6 A 1,1 0 0 0 9,5 Z"
   id="path4" />
<path
   style="color:#000000;fill:#000000;stroke-linecap:round;stroke-linejoin:round;-inkscape-stroke:none"
   d="m 12,5 a 1,1 0 0 0 -1,1 v 0.00195 a 1,1 0 0 0 1,1 1,1 0 0 0 1,-1 V 6 A 1,1 0 0 0 12,5 Z"
   id="path6" />
<path
   style="color:#000000;fill:#000000;stroke-linecap:round;stroke-linejoin:round;-inkscape-stroke:none"
   d="m 15,5 a 1,1 0 0 0 -1,1 v 0.00195 a 1,1 0 0 0 1,1 1,1 0 0 0 1,-1 V 6 A 1,1 0 0 0 15,5 Z"
   id="path8" />
<path
   style="color:#000000;fill:#000000;stroke-linecap:round;stroke-linejoin:round;-inkscape-stroke:none"
   d="M 9,8 A 1,1 0 0 0 8,9 v 0.00195 A 1,1 0 0 0 9,10.001953 1,1 0 0 0 10,9.0019531 V 9 A 1,1 0 0 0 9,8 Z"
   id="path10" />
<path
   style="color:#000000;fill:#000000;stroke-linecap:round;stroke-linejoin:round;-inkscape-stroke:none"
   d="m 12,8 a 1,1 0 0 0 -1,1 v 0.00195 a 1,1 0 0 0 1,0.9999999 1,1 0 0 0 1,-0.9999999 V 9 A 1,1 0 0 0 12,8 Z"
   id="path12" />
<path
   style="color:#000000;fill:#000000;stroke-linecap:round;stroke-linejoin:round;-inkscape-stroke:none"
   d="m 15,8 a 1,1 0 0 0 -1,1 v 0.00195 a 1,1 0 0 0 1,0.9999999 1,1 0 0 0 1,-0.9999999 V 9 A 1,1 0 0 0 15,8 Z"
   id="path14" />
<path
   style="color:#000000;fill:#000000;stroke-linecap:round;stroke-linejoin:round;-inkscape-stroke:none"
   d="m 9,11 a 1,1 0 0 0 -1,1 v 0.002 a 1,1 0 0 0 1,1 1,1 0 0 0 1,-1 V 12 A 1,1 0 0 0 9,11 Z"
   id="path16" />
<path
   style="color:#000000;fill:#000000;stroke-linecap:round;stroke-linejoin:round;-inkscape-stroke:none"
   d="m 12,11 a 1,1 0 0 0 -1,1 v 0.002 a 1,1 0 0 0 1,1 1,1 0 0 0 1,-1 V 12 a 1,1 0 0 0 -1,-1 z"
   id="path18" />
<path
   style="color:#000000;fill:#000000;stroke-linecap:round;stroke-linejoin:round;-inkscape-stroke:none"
   d="m 12,17 a 1,1 0 0 0 -1,1 v 0.002 a 1,1 0 0 0 1,1 1,1 0 0 0 1,-1 V 18 a 1,1 0 0 0 -1,-1 z"
   id="path20" />
<path
   id="_StrokeToPathSelectorObject" />
d=&quot;M0 0 H 0&quot;/&gt;
    </svg>
