<?xml version="1.0" encoding="UTF-8" standalone="no"?>
<svg
   width="24"
   height="24"
   viewBox="0 0 24 24"
   fill="none"
   version="1.1"
   id="svg7"
   sodipodi:docname="laptop-line.svg"
   inkscape:version="1.1.1 (c3084ef, 2021-09-22)"
   xmlns:inkscape="http://www.inkscape.org/namespaces/inkscape"
   xmlns:sodipodi="http://sodipodi.sourceforge.net/DTD/sodipodi-0.dtd"
   xmlns="http://www.w3.org/2000/svg"
   xmlns:svg="http://www.w3.org/2000/svg"><defs
   id="defs11" />
<sodipodi:namedview
   id="namedview9"
   pagecolor="#ffffff"
   bordercolor="#666666"
   borderopacity="1.0"
   inkscape:pageshadow="2"
   inkscape:pageopacity="0.0"
   inkscape:pagecheckerboard="0"
   showgrid="false"
   inkscape:zoom="32.75"
   inkscape:cx="11.984733"
   inkscape:cy="12"
   inkscape:window-width="1296"
   inkscape:window-height="1067"
   inkscape:window-x="0"
   inkscape:window-y="25"
   inkscape:window-maximized="0"
   inkscape:current-layer="svg7" />
<path
   style="color:#000000;fill:#000000;stroke-linecap:round;stroke-linejoin:round;-inkscape-stroke:none"
   d="M 6,3 C 4.3549921,3 3,4.3549921 3,6 v 8 a 1.0001,1.0001 0 0 0 1,1 h 16 a 1.0001,1.0001 0 0 0 1,-1 V 6 C 21,4.3550102 19.645023,3 18,3 Z m 0,2 h 12 c 0.564175,0 1,0.435852 1,1 v 7 H 5 V 6 C 5,5.4358701 5.4358701,5 6,5 Z"
   id="path2" />
<path
   style="color:#000000;fill:#000000;stroke-linecap:round;stroke-linejoin:round;-inkscape-stroke:none"
   d="M 4,13 A 1.0001,1.0001 0 0 0 3.1054688,13.552734 L 1.5527344,16.658203 C 0.5740814,18.615509 2.0479947,21 4.2363281,21 H 19.763672 c 2.188349,0 3.662248,-2.384487 2.683594,-4.341797 L 20.894531,13.552734 A 1.0001,1.0001 0 0 0 20,13 Z m 0.6171875,2 H 19.382812 l 1.275391,2.552734 C 21.009347,18.255022 20.54892,19 19.763672,19 H 4.2363281 C 3.4511245,19 2.9906512,18.255026 3.3417969,17.552734 Z"
   id="path4" />
<path
   id="_StrokeToPathSelectorObject" />
d=&quot;M0 0 H 0&quot;/&gt;
    </svg>
