<?xml version="1.0" encoding="UTF-8" standalone="no"?>
<svg
   width="24"
   height="24"
   viewBox="0 0 24 24"
   fill="none"
   version="1.1"
   id="svg5"
   sodipodi:docname="leaf-3-angled-line.svg"
   inkscape:version="1.1.1 (c3084ef, 2021-09-22)"
   xmlns:inkscape="http://www.inkscape.org/namespaces/inkscape"
   xmlns:sodipodi="http://sodipodi.sourceforge.net/DTD/sodipodi-0.dtd"
   xmlns="http://www.w3.org/2000/svg"
   xmlns:svg="http://www.w3.org/2000/svg"><defs
   id="defs9" />
<sodipodi:namedview
   id="namedview7"
   pagecolor="#ffffff"
   bordercolor="#666666"
   borderopacity="1.0"
   inkscape:pageshadow="2"
   inkscape:pageopacity="0.0"
   inkscape:pagecheckerboard="0"
   showgrid="false"
   inkscape:zoom="32.75"
   inkscape:cx="11.984733"
   inkscape:cy="12"
   inkscape:window-width="1296"
   inkscape:window-height="1067"
   inkscape:window-x="0"
   inkscape:window-y="25"
   inkscape:window-maximized="0"
   inkscape:current-layer="svg5" />
<path
   style="color:#000000;fill:#000000;stroke-linecap:round;stroke-linejoin:round;-inkscape-stroke:none"
   d="M 17.527344,3.84375 C 14.966887,3.8159091 9.9331288,4.1665027 6.5,7.5996094 3.9580627,10.141494 3.7682581,14.042877 5.7851562,16.800781 l -1.5625,1.5625 a 1,1 0 0 0 0,1.414063 1,1 0 0 0 1.4140625,0 l 1.5625,-1.5625 C 9.9571317,20.231763 13.858416,20.04187 16.400391,17.5 19.833514,14.066876 20.184059,9.0330905 20.15625,6.4726562 20.140643,5.0428535 18.957158,3.8592796 17.527344,3.84375 Z m -0.02148,2 c 0.402384,0.00437 0.645998,0.2479152 0.650391,0.6503906 0.02519,2.3193809 -0.402652,6.8245264 -3.169922,9.5917964 -1.796368,1.796295 -4.428254,1.966929 -6.3749999,0.716797 l 1.6015629,-1.601562 c 0.107464,0.05078 0.184707,0.147519 0.298828,0.185547 l 1.171875,0.390625 a 1,1 0 0 0 1.265625,-0.632813 1,1 0 0 0 -0.632813,-1.265625 l -0.585937,-0.195312 1.246094,-1.246094 1.535156,0.511719 a 1,1 0 0 0 1.265625,-0.632813 1,1 0 0 0 -0.632813,-1.265625 l -0.585937,-0.195312 0.976562,-0.9765627 a 1,1 0 0 0 0,-1.4140625 1,1 0 0 0 -1.414062,0 L 13.144531,9.4414063 12.949219,8.8554688 A 1,1 0 0 0 11.683594,8.2226563 1,1 0 0 0 11.050781,9.4882813 L 11.5625,11.023438 10.316406,12.269531 10.121094,11.683594 A 1,1 0 0 0 8.8554688,11.050781 1,1 0 0 0 8.2226563,12.316406 l 0.390625,1.171875 c 0.038036,0.114105 0.1347668,0.191374 0.1855468,0.298828 L 7.1972656,15.388672 C 5.9471665,13.441941 6.1177812,10.809916 7.9140625,9.0136719 10.681348,6.2464047 15.186521,5.8185309 17.505859,5.84375 Z"
   id="path2" />
<path
   id="_StrokeToPathSelectorObject" />
d=&quot;M0 0 H 0&quot;/&gt;
    </svg>
