<?xml version="1.0" encoding="UTF-8" standalone="no"?>
<svg
   width="24"
   height="24"
   viewBox="0 0 24 24"
   fill="none"
   version="1.1"
   id="svg9"
   sodipodi:docname="lidquid-drop-waves-2-line.svg"
   inkscape:version="1.1.1 (c3084ef, 2021-09-22)"
   xmlns:inkscape="http://www.inkscape.org/namespaces/inkscape"
   xmlns:sodipodi="http://sodipodi.sourceforge.net/DTD/sodipodi-0.dtd"
   xmlns="http://www.w3.org/2000/svg"
   xmlns:svg="http://www.w3.org/2000/svg"><defs
   id="defs13" />
<sodipodi:namedview
   id="namedview11"
   pagecolor="#ffffff"
   bordercolor="#666666"
   borderopacity="1.0"
   inkscape:pageshadow="2"
   inkscape:pageopacity="0.0"
   inkscape:pagecheckerboard="0"
   showgrid="false"
   inkscape:zoom="32.75"
   inkscape:cx="11.984733"
   inkscape:cy="12"
   inkscape:window-width="1296"
   inkscape:window-height="1067"
   inkscape:window-x="0"
   inkscape:window-y="25"
   inkscape:window-maximized="0"
   inkscape:current-layer="svg9" />
<path
   style="color:#000000;fill:#000000;stroke-linecap:round;stroke-linejoin:round;-inkscape-stroke:none"
   d="m 12,2 a 1.0001,1.0001 0 0 0 -0.728516,0.3144531 c 0,0 -0.803792,0.8549774 -1.6035152,2.0566406 C 8.8682452,5.572757 8,7.1284697 8,8.8242188 8,10.393296 8.6699932,11.563051 9.5273438,12.201172 10.384694,12.839293 11.318334,13 12,13 12.681666,13 13.615306,12.839293 14.472656,12.201172 15.330007,11.563051 16,10.393296 16,8.8242188 16,7.1284697 15.131755,5.572757 14.332031,4.3710937 13.532308,3.1694305 12.728516,2.3144531 12.728516,2.3144531 A 1.0001,1.0001 0 0 0 12,2 Z m 0,2.6210937 c 0.257267,0.3140676 0.333059,0.3541874 0.667969,0.8574219 C 13.368244,6.5307476 14,7.8885004 14,8.8242188 14,9.8866089 13.669992,10.303457 13.277344,10.595703 12.884696,10.887949 12.318333,11 12,11 11.681667,11 11.115304,10.887949 10.722656,10.595703 10.330008,10.303457 10,9.8866089 10,8.8242188 10,7.8885004 10.631756,6.5307476 11.332031,5.4785156 11.666941,4.9752811 11.742733,4.9351613 12,4.6210937 Z"
   id="path2" />
<path
   style="color:#000000;fill:#000000;stroke-linecap:round;stroke-linejoin:round;-inkscape-stroke:none"
   d="m 8.4941406,13.849609 c -0.8131307,0.03122 -1.6146811,0.356876 -2.2265625,0.96875 -0.4849987,0.484982 -1.2359495,0.526089 -1.7714844,0.09766 L 3.625,14.21875 A 1,1 0 0 0 2.21875,14.375 1,1 0 0 0 2.375,15.78125 l 0.8710938,0.697266 c 1.3184433,1.054766 3.2416872,0.947723 4.4355468,-0.246094 0.4978555,-0.49785 1.2701302,-0.526533 1.8046875,-0.06836 a 1.0001,1.0001 0 0 0 0.00195,0 l 0.1777343,0.152344 c 1.3371644,1.146279 3.3308044,1.146279 4.6679684,0 l 0.177735,-0.152344 a 1.0001,1.0001 0 0 0 0.002,0 c 0.534607,-0.458201 1.306833,-0.429494 1.804687,0.06836 1.193851,1.193851 3.117083,1.300865 4.435547,0.246094 L 21.625,15.78125 A 1,1 0 0 0 21.78125,14.375 1,1 0 0 0 20.375,14.21875 l -0.871094,0.697266 c -0.535534,0.428427 -1.286537,0.387291 -1.771484,-0.09766 -1.223744,-1.223744 -3.207493,-1.300025 -4.521484,-0.173828 l -0.179688,0.154297 c -0.599033,0.513519 -1.463467,0.513519 -2.0625,0 L 10.789063,14.644531 C 10.132072,14.081419 9.3072713,13.818385 8.4941406,13.849609 Z"
   id="path4" />
<path
   style="color:#000000;fill:#000000;stroke-linecap:round;stroke-linejoin:round;-inkscape-stroke:none"
   d="m 8.4921875,17.804687 c -0.7822073,0.03005 -1.5541635,0.341273 -2.1425781,0.929688 -0.4780953,0.478067 -1.2211235,0.478067 -1.6992188,0 L 4.2070312,18.292969 a 1,1 0 0 0 -1.4140624,0 1,1 0 0 0 0,1.414062 l 0.4414062,0.44336 c 1.242403,1.24233 3.288847,1.24233 4.53125,0 0.450969,-0.450969 1.1485658,-0.479517 1.6328125,-0.06445 l 0.2675781,0.230469 c 1.3371644,1.146279 3.3308044,1.146279 4.6679684,0 l 0.267579,-0.230469 c 0.484307,-0.415097 1.181834,-0.386524 1.632812,0.06445 1.242386,1.242386 3.288864,1.242386 4.53125,0 l 0.441406,-0.44336 a 1,1 0 0 0 0,-1.414062 1,1 0 0 0 -1.414062,0 l -0.44336,0.441406 c -0.478012,0.478012 -1.221206,0.478012 -1.699218,0 -1.176821,-1.176821 -3.085919,-1.249117 -4.34961,-0.166016 l -0.269531,0.230469 c -0.599033,0.513519 -1.463467,0.513519 -2.0625,0 L 10.699219,18.568359 C 10.067383,18.026792 9.2743948,17.774636 8.4921875,17.804687 Z"
   id="path6" />
<path
   id="_StrokeToPathSelectorObject" />
d=&quot;M0 0 H 0&quot;/&gt;
    </svg>
