<?xml version="1.0" encoding="UTF-8" standalone="no"?>
<svg
   width="24"
   height="24"
   viewBox="0 0 24 24"
   fill="none"
   version="1.1"
   id="svg7"
   sodipodi:docname="lifebuoy-line.svg"
   inkscape:version="1.1.1 (c3084ef, 2021-09-22)"
   xmlns:inkscape="http://www.inkscape.org/namespaces/inkscape"
   xmlns:sodipodi="http://sodipodi.sourceforge.net/DTD/sodipodi-0.dtd"
   xmlns="http://www.w3.org/2000/svg"
   xmlns:svg="http://www.w3.org/2000/svg"><defs
   id="defs11" />
<sodipodi:namedview
   id="namedview9"
   pagecolor="#ffffff"
   bordercolor="#666666"
   borderopacity="1.0"
   inkscape:pageshadow="2"
   inkscape:pageopacity="0.0"
   inkscape:pagecheckerboard="0"
   showgrid="false"
   inkscape:zoom="32.75"
   inkscape:cx="11.984733"
   inkscape:cy="12"
   inkscape:window-width="1296"
   inkscape:window-height="1067"
   inkscape:window-x="0"
   inkscape:window-y="25"
   inkscape:window-maximized="0"
   inkscape:current-layer="svg7" />
<path
   style="color:#000000;fill:#000000;stroke-linecap:round;stroke-linejoin:round;-inkscape-stroke:none"
   d="M 12,2 C 6.4890026,2 2,6.4890026 2,12 2,17.510997 6.4890026,22 12,22 17.510997,22 22,17.510997 22,12 22,6.4890026 17.510997,2 12,2 Z m 0,2 c 4.430118,0 8,3.5698818 8,8 0,4.430118 -3.569882,8 -8,8 C 7.5698818,20 4,16.430118 4,12 4,7.5698818 7.5698818,4 12,4 Z"
   id="circle2" />
<path
   style="color:#000000;fill:#000000;stroke-linecap:round;stroke-linejoin:round;-inkscape-stroke:none"
   d="m 6,5 a 1,1 0 0 0 -0.7070313,0.2929687 1,1 0 0 0 0,1.4140625 L 7.8945312,9.3085938 C 7.3758483,10.09794 7,10.990252 7,12 c 0,1.009748 0.3758351,1.902063 0.8945312,2.691406 l -2.6015625,2.601563 a 1,1 0 0 0 0,1.414062 1,1 0 0 0 1.4140625,0 L 9.3085938,16.105469 C 10.097951,16.624175 10.99026,17 12,17 c 1.00974,0 1.902052,-0.375811 2.691406,-0.894531 l 2.601563,2.601562 a 1,1 0 0 0 1.414062,0 1,1 0 0 0 0,-1.414062 L 16.105469,14.691406 C 16.624189,13.902052 17,13.00974 17,12 17,10.989372 16.650293,10.072431 16.130859,9.2832031 l 2.576172,-2.5761719 a 1,1 0 0 0 0,-1.4140625 1,1 0 0 0 -1.414062,0 L 14.691406,7.8945312 C 13.902063,7.3758351 13.009748,7 12,7 10.990252,7 10.09794,7.3758483 9.3085938,7.8945312 L 6.7070312,5.2929687 A 1,1 0 0 0 6,5 Z m 6,4 c 0.834384,0 1.577146,0.3349206 2.121094,0.8789063 0.07792,0.077887 0.151271,0.1595257 0.220703,0.2460937 C 14.754135,10.639428 15,11.285556 15,12 15,12.834396 14.665107,13.577156 14.121094,14.121094 13.577156,14.665107 12.834396,15 12,15 11.165604,15 10.422933,14.665151 9.8789063,14.121094 9.3349206,13.577146 9,12.834384 9,12 9,11.165616 9.3348764,10.422944 9.8789063,9.8789063 10.422944,9.3348764 11.165616,9 12,9 Z"
   id="path4" />
<path
   id="_StrokeToPathSelectorObject" />
d=&quot;M0 0 H 0&quot;/&gt;
    </svg>
