<?xml version="1.0" encoding="UTF-8" standalone="no"?>
<svg
   width="24"
   height="24"
   viewBox="0 0 24 24"
   fill="none"
   version="1.1"
   id="svg5"
   sodipodi:docname="lightbulb-shine-line.svg"
   inkscape:version="1.1.1 (c3084ef, 2021-09-22)"
   xmlns:inkscape="http://www.inkscape.org/namespaces/inkscape"
   xmlns:sodipodi="http://sodipodi.sourceforge.net/DTD/sodipodi-0.dtd"
   xmlns="http://www.w3.org/2000/svg"
   xmlns:svg="http://www.w3.org/2000/svg"><defs
   id="defs9" />
<sodipodi:namedview
   id="namedview7"
   pagecolor="#ffffff"
   bordercolor="#666666"
   borderopacity="1.0"
   inkscape:pageshadow="2"
   inkscape:pageopacity="0.0"
   inkscape:pagecheckerboard="0"
   showgrid="false"
   inkscape:zoom="32.75"
   inkscape:cx="11.984733"
   inkscape:cy="12"
   inkscape:window-width="1296"
   inkscape:window-height="1067"
   inkscape:window-x="0"
   inkscape:window-y="25"
   inkscape:window-maximized="0"
   inkscape:current-layer="svg5" />
<path
   style="color:#000000;fill:#000000;stroke-linecap:round;stroke-linejoin:round;-inkscape-stroke:none"
   d="m 12,1 a 1,1 0 0 0 -1,1 v 1 a 1,1 0 0 0 1,1 1,1 0 0 0 1,-1 V 2 A 1,1 0 0 0 12,1 Z M 4.5,3.5 a 1,1 0 0 0 -0.7070312,0.2929688 1,1 0 0 0 0,1.4140624 l 0.9999999,1 a 1,1 0 0 0 1.4140625,0 1,1 0 0 0 0,-1.4140625 l -1,-0.9999999 A 1,1 0 0 0 4.5,3.5 Z m 14.292969,0.2929688 -1,0.9999999 a 1,1 0 0 0 0,1.4140625 1,1 0 0 0 1.414062,0 l 1,-1 a 1,1 0 0 0 0,-1.4140624 1,1 0 0 0 -1.414062,0 z M 12,6 c -3.3018585,0 -6,2.6981415 -6,6 0,2.168217 1.2652999,3.942291 3,4.996094 V 19 a 1.0001,1.0001 0 0 0 1,1 h 4 a 1.0001,1.0001 0 0 0 1,-1 V 16.996094 C 16.7347,15.942291 18,14.168217 18,12 18,8.6981367 15.301842,6 12,6 Z m 0,2 c 2.220952,0 4,1.7790288 4,4 0,1.649024 -0.989712,3.051581 -2.400391,3.667969 A 1.0001,1.0001 0 0 0 13,16.583984 V 18 H 11 V 16.583984 A 1.0001,1.0001 0 0 0 10.400391,15.667969 C 8.9897123,15.051581 8,13.649024 8,12 8,9.779024 9.779024,8 12,8 Z M 2,11 a 1,1 0 0 0 -1,1 1,1 0 0 0 1,1 H 3 A 1,1 0 0 0 4,12 1,1 0 0 0 3,11 Z m 19,0 a 1,1 0 0 0 -1,1 1,1 0 0 0 1,1 h 1 a 1,1 0 0 0 1,-1 1,1 0 0 0 -1,-1 z M 10,21 a 1,1 0 0 0 -1,1 1,1 0 0 0 1,1 h 4 a 1,1 0 0 0 1,-1 1,1 0 0 0 -1,-1 z"
   id="path2" />
<path
   id="_StrokeToPathSelectorObject" />
d=&quot;M0 0 H 0&quot;/&gt;
    </svg>
