<?xml version="1.0" encoding="UTF-8" standalone="no"?>
<svg
   width="24"
   height="24"
   viewBox="0 0 24 24"
   fill="none"
   version="1.1"
   id="svg5"
   sodipodi:docname="line-height-line.svg"
   inkscape:version="1.1.1 (c3084ef, 2021-09-22)"
   xmlns:inkscape="http://www.inkscape.org/namespaces/inkscape"
   xmlns:sodipodi="http://sodipodi.sourceforge.net/DTD/sodipodi-0.dtd"
   xmlns="http://www.w3.org/2000/svg"
   xmlns:svg="http://www.w3.org/2000/svg"><defs
   id="defs9" />
<sodipodi:namedview
   id="namedview7"
   pagecolor="#ffffff"
   bordercolor="#666666"
   borderopacity="1.0"
   inkscape:pageshadow="2"
   inkscape:pageopacity="0.0"
   inkscape:pagecheckerboard="0"
   showgrid="false"
   inkscape:zoom="32.75"
   inkscape:cx="11.984733"
   inkscape:cy="12"
   inkscape:window-width="1296"
   inkscape:window-height="1067"
   inkscape:window-x="0"
   inkscape:window-y="25"
   inkscape:window-maximized="0"
   inkscape:current-layer="svg5" />
<path
   style="color:#000000;fill:#000000;stroke-linecap:round;stroke-linejoin:round;-inkscape-stroke:none"
   d="M 6,4 A 1,1 0 0 0 5.2929687,4.2929687 l -1.9999999,2 a 1,1 0 0 0 0,1.4140625 1,1 0 0 0 1.4140624,0 L 5,7.4140625 V 10 a 1,1 0 0 0 1,1 1,1 0 0 0 1,-1 V 7.4140625 l 0.2929687,0.2929687 a 1,1 0 0 0 1.4140626,0 1,1 0 0 0 0,-1.4140625 l -2.0000001,-2 A 1,1 0 0 0 6,4 Z m 6,2 a 1,1 0 0 0 -1,1 1,1 0 0 0 1,1 h 8 A 1,1 0 0 0 21,7 1,1 0 0 0 20,6 Z m 0,5 a 1,1 0 0 0 -1,1 1,1 0 0 0 1,1 h 8 a 1,1 0 0 0 1,-1 1,1 0 0 0 -1,-1 z m -6,2 a 1,1 0 0 0 -1,1 v 2.585937 L 4.7070312,16.292969 a 1,1 0 0 0 -1.4140624,0 1,1 0 0 0 0,1.414062 l 1.9999999,2 A 1,1 0 0 0 6,20 1,1 0 0 0 6.7070312,19.707031 l 2.0000001,-2 a 1,1 0 0 0 0,-1.414062 1,1 0 0 0 -1.4140626,0 L 7,16.585937 V 14 A 1,1 0 0 0 6,13 Z m 6,3 a 1,1 0 0 0 -1,1 1,1 0 0 0 1,1 h 8 a 1,1 0 0 0 1,-1 1,1 0 0 0 -1,-1 z"
   id="path2" />
<path
   id="_StrokeToPathSelectorObject" />
d=&quot;M0 0 H 0&quot;/&gt;
    </svg>
