<?xml version="1.0" encoding="UTF-8" standalone="no"?>
<svg
   width="24"
   height="24"
   viewBox="0 0 24 24"
   fill="none"
   version="1.1"
   id="svg9"
   sodipodi:docname="link-line.svg"
   inkscape:version="1.1.1 (c3084ef, 2021-09-22)"
   xmlns:inkscape="http://www.inkscape.org/namespaces/inkscape"
   xmlns:sodipodi="http://sodipodi.sourceforge.net/DTD/sodipodi-0.dtd"
   xmlns="http://www.w3.org/2000/svg"
   xmlns:svg="http://www.w3.org/2000/svg"><defs
   id="defs13" />
<sodipodi:namedview
   id="namedview11"
   pagecolor="#ffffff"
   bordercolor="#666666"
   borderopacity="1.0"
   inkscape:pageshadow="2"
   inkscape:pageopacity="0.0"
   inkscape:pagecheckerboard="0"
   showgrid="false"
   inkscape:zoom="32.75"
   inkscape:cx="11.984733"
   inkscape:cy="12"
   inkscape:window-width="1296"
   inkscape:window-height="1067"
   inkscape:window-x="0"
   inkscape:window-y="25"
   inkscape:window-maximized="0"
   inkscape:current-layer="svg9" />
<path
   style="color:#000000;fill:#000000;stroke-linecap:round;stroke-linejoin:round;-inkscape-stroke:none"
   d="m 15,7 a 1,1 0 0 0 -1,1 1,1 0 0 0 1,1 h 2 c 0.466645,0 1.305015,0.1714102 1.916016,0.6113281 C 19.527016,10.051246 20,10.677783 20,12 20,13.322217 19.527016,13.948754 18.916016,14.388672 18.305015,14.82859 17.466645,15 17,15 h -2 a 1,1 0 0 0 -1,1 1,1 0 0 0 1,1 h 2 c 0.866654,0 2.028311,-0.2282 3.083984,-0.988281 C 21.139657,15.251638 22,13.877779 22,12 22,10.122221 21.139657,8.7483621 20.083984,7.9882812 19.028311,7.2282004 17.866654,7 17,7 Z"
   id="path2" />
<path
   style="color:#000000;fill:#000000;stroke-linecap:round;stroke-linejoin:round;-inkscape-stroke:none"
   d="M 7,7 C 6.1333354,7 4.9716863,7.2281987 3.9160156,7.9882812 2.8603449,8.7483638 2,10.122224 2,12 2,13.877776 2.8603449,15.251636 3.9160156,16.011719 4.9716863,16.771801 6.1333354,17 7,17 H 9 A 1,1 0 0 0 10,16 1,1 0 0 0 9,15 H 7 C 6.533336,15 5.6949795,14.828588 5.0839844,14.388672 4.4729893,13.948756 4,13.322221 4,12 4,10.677779 4.4729893,10.051244 5.0839844,9.6113281 5.6949795,9.1714119 6.533336,9 7,9 H 9 A 1,1 0 0 0 10,8 1,1 0 0 0 9,7 Z"
   id="path4" />
<path
   style="color:#000000;fill:#000000;stroke-linecap:round;stroke-linejoin:round;-inkscape-stroke:none"
   d="m 8,11 a 1,1 0 0 0 -1,1 1,1 0 0 0 1,1 h 8 a 1,1 0 0 0 1,-1 1,1 0 0 0 -1,-1 z"
   id="path6" />
<path
   id="_StrokeToPathSelectorObject" />
d=&quot;M0 0 H 0&quot;/&gt;
    </svg>
