<?xml version="1.0" encoding="UTF-8" standalone="no"?>
<svg
   width="24"
   height="24"
   viewBox="0 0 24 24"
   fill="none"
   version="1.1"
   id="svg7"
   sodipodi:docname="lira-circle-line.svg"
   inkscape:version="1.1.1 (c3084ef, 2021-09-22)"
   xmlns:inkscape="http://www.inkscape.org/namespaces/inkscape"
   xmlns:sodipodi="http://sodipodi.sourceforge.net/DTD/sodipodi-0.dtd"
   xmlns="http://www.w3.org/2000/svg"
   xmlns:svg="http://www.w3.org/2000/svg"><defs
   id="defs11" />
<sodipodi:namedview
   id="namedview9"
   pagecolor="#ffffff"
   bordercolor="#666666"
   borderopacity="1.0"
   inkscape:pageshadow="2"
   inkscape:pageopacity="0.0"
   inkscape:pagecheckerboard="0"
   showgrid="false"
   inkscape:zoom="32.75"
   inkscape:cx="11.984733"
   inkscape:cy="12"
   inkscape:window-width="1296"
   inkscape:window-height="1067"
   inkscape:window-x="0"
   inkscape:window-y="25"
   inkscape:window-maximized="0"
   inkscape:current-layer="svg7" />
<path
   style="color:#000000;fill:#000000;stroke-linecap:round;stroke-linejoin:round;-inkscape-stroke:none"
   d="M 12,1 C 5.9367165,1 1,5.9367165 1,12 1,18.063238 5.9367105,23 12,23 18.063244,23 23,18.063244 23,12 23,5.9367105 18.063238,1 12,1 Z m 0,2 c 4.982351,0 9,4.0176006 9,9 0,4.982345 -4.017655,9 -9,9 C 7.0176006,21 3,16.982351 3,12 3,7.0175946 7.0175946,3 12,3 Z"
   id="path2" />
<path
   style="color:#000000;fill:#000000;stroke-linecap:round;stroke-linejoin:round;-inkscape-stroke:none"
   d="M 11,5 A 1,1 0 0 0 10,6 V 7.2792969 L 7.6835937,8.0507813 A 1,1 0 0 0 7.0507812,9.3164063 1,1 0 0 0 8.3164063,9.9492188 L 10,9.3886719 v 0.8906251 l -2.3164063,0.771484 a 1,1 0 0 0 -0.6328125,1.265625 1,1 0 0 0 1.2656251,0.632813 L 10,12.388672 V 17 a 1.0001,1.0001 0 0 0 1,1 c 1.033345,0 2.444984,-0.277416 3.708984,-1.1875 C 15.972985,15.902416 17,14.277773 17,12 a 1,1 0 0 0 -1,-1 1,1 0 0 0 -1,1 c 0,1.722223 -0.639662,2.597586 -1.458984,3.1875 C 13.044184,15.54522 12.533146,15.560116 12,15.679688 v -3.958985 l 2.316406,-0.771484 A 1,1 0 0 0 14.949219,9.6835938 1,1 0 0 0 13.683594,9.0507813 L 12,9.6113281 V 8.7207031 L 14.316406,7.9492187 A 1,1 0 0 0 14.949219,6.6835937 1,1 0 0 0 13.683594,6.0507812 L 12,6.6113281 V 6 A 1,1 0 0 0 11,5 Z"
   id="path4" />
<path
   id="_StrokeToPathSelectorObject" />
d=&quot;M0 0 H 0&quot;/&gt;
    </svg>
