<?xml version="1.0" encoding="UTF-8" standalone="no"?>
<svg
   width="24"
   height="24"
   viewBox="0 0 24 24"
   fill="none"
   version="1.1"
   id="svg7"
   sodipodi:docname="lock-off-line.svg"
   inkscape:version="1.1.1 (c3084ef, 2021-09-22)"
   xmlns:inkscape="http://www.inkscape.org/namespaces/inkscape"
   xmlns:sodipodi="http://sodipodi.sourceforge.net/DTD/sodipodi-0.dtd"
   xmlns="http://www.w3.org/2000/svg"
   xmlns:svg="http://www.w3.org/2000/svg"><defs
   id="defs11" />
<sodipodi:namedview
   id="namedview9"
   pagecolor="#ffffff"
   bordercolor="#666666"
   borderopacity="1.0"
   inkscape:pageshadow="2"
   inkscape:pageopacity="0.0"
   inkscape:pagecheckerboard="0"
   showgrid="false"
   inkscape:zoom="32.75"
   inkscape:cx="11.984733"
   inkscape:cy="12"
   inkscape:window-width="1296"
   inkscape:window-height="1067"
   inkscape:window-x="0"
   inkscape:window-y="25"
   inkscape:window-maximized="0"
   inkscape:current-layer="svg7" />
<path
   style="color:#000000;fill:#000000;stroke-linecap:round;stroke-linejoin:round;-inkscape-stroke:none"
   d="M 12,2 C 11.093169,2 10.235574,2.2443819 9.5,2.6699219 A 1,1 0 0 0 9.1347656,4.0351562 1,1 0 0 0 10.5,4.4003906 C 10.941025,4.1452513 11.449633,4 12,4 c 1.668649,0 3,1.3313133 3,3 v 2 a 1,1 0 0 0 -1,1 1,1 0 0 0 1,1 h 1 2 c 0.564193,0 1,0.435807 1,1 v 3 a 1,1 0 0 0 1,1 1,1 0 0 0 1,-1 V 12 C 21,10.354995 19.645005,9 18,9 H 17 V 7 C 17,4.2504111 14.749547,2 12,2 Z M 8,7 A 1,1 0 0 0 7,8 V 9 H 6 C 4.3550102,9 3,10.354977 3,12 v 7 c 0,1.645023 1.3550102,3 3,3 h 12 c 1.102494,0 2.078788,-0.603009 2.597656,-1.5 A 1,1 0 0 0 20.232422,19.134766 1,1 0 0 0 18.867187,19.5 C 18.694457,19.798608 18.378104,20 18,20 H 6 C 5.435852,20 5,19.564175 5,19 v -7 c 0,-0.564175 0.435852,-1 1,-1 h 2 2 A 1,1 0 0 0 11,10 1,1 0 0 0 10,9 H 9 V 8 A 1,1 0 0 0 8,7 Z m 4,6 a 1,1 0 0 0 -1,1 v 3 a 1,1 0 0 0 1,1 1,1 0 0 0 1,-1 v -3 a 1,1 0 0 0 -1,-1 z"
   id="path2" />
<path
   style="color:#000000;fill:#000000;stroke-linecap:round;stroke-linejoin:round;-inkscape-stroke:none"
   d="m 3,2 a 1,1 0 0 0 -0.7070312,0.2929688 1,1 0 0 0 0,1.4140625 L 20.292969,21.707031 a 1,1 0 0 0 1.414062,0 1,1 0 0 0 0,-1.414062 L 3.7070313,2.2929688 A 1,1 0 0 0 3,2 Z"
   id="path4" />
<path
   id="_StrokeToPathSelectorObject" />
d=&quot;M0 0 H 0&quot;/&gt;
    </svg>
