<?xml version="1.0" encoding="UTF-8" standalone="no"?>
<svg
   width="24"
   height="24"
   viewBox="0 0 24 24"
   fill="none"
   version="1.1"
   id="svg7"
   sodipodi:docname="login-half-circle-line.svg"
   inkscape:version="1.1.1 (c3084ef, 2021-09-22)"
   xmlns:inkscape="http://www.inkscape.org/namespaces/inkscape"
   xmlns:sodipodi="http://sodipodi.sourceforge.net/DTD/sodipodi-0.dtd"
   xmlns="http://www.w3.org/2000/svg"
   xmlns:svg="http://www.w3.org/2000/svg"><defs
   id="defs11" />
<sodipodi:namedview
   id="namedview9"
   pagecolor="#ffffff"
   bordercolor="#666666"
   borderopacity="1.0"
   inkscape:pageshadow="2"
   inkscape:pageopacity="0.0"
   inkscape:pagecheckerboard="0"
   showgrid="false"
   inkscape:zoom="32.75"
   inkscape:cx="11.984733"
   inkscape:cy="12"
   inkscape:window-width="1296"
   inkscape:window-height="1067"
   inkscape:window-x="0"
   inkscape:window-y="25"
   inkscape:window-maximized="0"
   inkscape:current-layer="svg7" />
<path
   style="color:#000000;fill:#000000;stroke-linecap:round;stroke-linejoin:round;-inkscape-stroke:none"
   d="m 11,7 a 1,1 0 0 0 -0.707031,0.2929687 1,1 0 0 0 0,1.4140626 L 12.585938,11 H 5 a 1,1 0 0 0 -1,1 1,1 0 0 0 1,1 h 7.585938 l -2.292969,2.292969 a 1,1 0 0 0 0,1.414062 1,1 0 0 0 1.414062,0 l 4,-4 A 1,1 0 0 0 15.966797,12.080078 1,1 0 0 0 16,12 a 1,1 0 0 0 -0.0332,-0.166016 1,1 0 0 0 0,-0.09375 1,1 0 0 0 -0.02734,-0.04883 1,1 0 0 0 -0.232422,-0.398437 l -4,-4.0000003 A 1,1 0 0 0 11,7 Z"
   id="path2" />
<path
   style="color:#000000;fill:#000000;stroke-linecap:round;stroke-linejoin:round;-inkscape-stroke:none"
   d="m 10,2 a 1,1 0 0 0 -1,1 1,1 0 0 0 1,1 c 4.430159,0 8,3.5698798 8,8 0,4.430165 -3.569835,8 -8,8 a 1,1 0 0 0 -1,1 1,1 0 0 0 1,1 C 15.511026,22 20,17.511026 20,12 20,6.4890101 15.511031,2 10,2 Z"
   id="path4" />
<path
   id="_StrokeToPathSelectorObject" />
d=&quot;M0 0 H 0&quot;/&gt;
    </svg>
