<?xml version="1.0" encoding="UTF-8" standalone="no"?>
<svg
   width="24"
   height="24"
   viewBox="0 0 24 24"
   fill="none"
   version="1.1"
   id="svg7"
   sodipodi:docname="logout-half-circle-line.svg"
   inkscape:version="1.1.1 (c3084ef, 2021-09-22)"
   xmlns:inkscape="http://www.inkscape.org/namespaces/inkscape"
   xmlns:sodipodi="http://sodipodi.sourceforge.net/DTD/sodipodi-0.dtd"
   xmlns="http://www.w3.org/2000/svg"
   xmlns:svg="http://www.w3.org/2000/svg"><defs
   id="defs11" />
<sodipodi:namedview
   id="namedview9"
   pagecolor="#ffffff"
   bordercolor="#666666"
   borderopacity="1.0"
   inkscape:pageshadow="2"
   inkscape:pageopacity="0.0"
   inkscape:pagecheckerboard="0"
   showgrid="false"
   inkscape:zoom="32.75"
   inkscape:cx="11.984733"
   inkscape:cy="12"
   inkscape:window-width="1296"
   inkscape:window-height="1067"
   inkscape:window-x="0"
   inkscape:window-y="25"
   inkscape:window-maximized="0"
   inkscape:current-layer="svg7" />
<path
   style="color:#000000;fill:#000000;stroke-linecap:round;stroke-linejoin:round;-inkscape-stroke:none"
   d="m 15,7 a 1,1 0 0 0 -0.707031,0.2929687 1,1 0 0 0 0,1.4140626 L 16.585937,11 H 9 a 1,1 0 0 0 -1,1 1,1 0 0 0 1,1 h 7.585937 l -2.292968,2.292969 a 1,1 0 0 0 0,1.414062 1,1 0 0 0 1.414062,0 l 4,-4 A 1,1 0 0 0 19.966797,12.080078 1,1 0 0 0 20,12 a 1,1 0 0 0 -0.0332,-0.166016 1,1 0 0 0 -0.02734,-0.142578 1,1 0 0 0 -0.232422,-0.398437 l -4,-4.0000003 A 1,1 0 0 0 15,7 Z"
   id="path2" />
<path
   style="color:#000000;fill:#000000;stroke-linecap:round;stroke-linejoin:round;-inkscape-stroke:none"
   d="M 14,2 C 8.4890047,2 4,6.4890047 4,12 4,17.511031 8.4890101,22 14,22 a 1,1 0 0 0 1,-1 1,1 0 0 0 -1,-1 C 9.5698798,20 6,16.430159 6,12 6,7.5698852 9.5698852,4 14,4 A 1,1 0 0 0 15,3 1,1 0 0 0 14,2 Z"
   id="path4" />
<path
   id="_StrokeToPathSelectorObject" />
d=&quot;M0 0 H 0&quot;/&gt;
    </svg>
