<?xml version="1.0" encoding="UTF-8" standalone="no"?>
<svg
   width="24"
   height="24"
   viewBox="0 0 24 24"
   fill="none"
   version="1.1"
   id="svg5"
   sodipodi:docname="mail-line.svg"
   inkscape:version="1.1.1 (c3084ef, 2021-09-22)"
   xmlns:inkscape="http://www.inkscape.org/namespaces/inkscape"
   xmlns:sodipodi="http://sodipodi.sourceforge.net/DTD/sodipodi-0.dtd"
   xmlns="http://www.w3.org/2000/svg"
   xmlns:svg="http://www.w3.org/2000/svg"><defs
   id="defs9" />
<sodipodi:namedview
   id="namedview7"
   pagecolor="#ffffff"
   bordercolor="#666666"
   borderopacity="1.0"
   inkscape:pageshadow="2"
   inkscape:pageopacity="0.0"
   inkscape:pagecheckerboard="0"
   showgrid="false"
   inkscape:zoom="32.75"
   inkscape:cx="11.984733"
   inkscape:cy="12"
   inkscape:window-width="1296"
   inkscape:window-height="1067"
   inkscape:window-x="0"
   inkscape:window-y="25"
   inkscape:window-maximized="0"
   inkscape:current-layer="svg5" />
<path
   style="color:#000000;fill:#000000;stroke-linecap:round;stroke-linejoin:round;-inkscape-stroke:none"
   d="M 5,4 C 3.3549921,4 2,5.3549921 2,7 v 10 c 0,1.645023 1.3550102,3 3,3 h 14 c 1.645005,0 3,-1.354995 3,-3 V 7 C 22,5.3550102 20.645023,4 19,4 Z m 0,2 h 14 c 0.564175,0 1,0.435852 1,1 v 10 c 0,0.564193 -0.435807,1 -1,1 H 5 C 4.435852,18 4,17.564175 4,17 V 7 C 4,6.4358701 4.4358701,6 5,6 Z M 17.111328,8.0058594 A 1,1 0 0 0 16.375,8.21875 l -3.75,3 c -0.369512,0.295599 -0.880488,0.295599 -1.25,0 l -3.75,-3 A 1,1 0 0 0 6.21875,8.375 1,1 0 0 0 6.375,9.78125 l 3.75,3 c 1.091287,0.872999 2.658713,0.872999 3.75,0 l 3.75,-3 A 1,1 0 0 0 17.78125,8.375 1,1 0 0 0 17.111328,8.0058594 Z"
   id="path2" />
<path
   id="_StrokeToPathSelectorObject" />
d=&quot;M0 0 H 0&quot;/&gt;
    </svg>
