<?xml version="1.0" encoding="UTF-8" standalone="no"?>
<svg
   width="24"
   height="24"
   viewBox="0 0 24 24"
   fill="none"
   version="1.1"
   id="svg11"
   sodipodi:docname="map-simple-destination-line.svg"
   inkscape:version="1.1.1 (c3084ef, 2021-09-22)"
   xmlns:inkscape="http://www.inkscape.org/namespaces/inkscape"
   xmlns:sodipodi="http://sodipodi.sourceforge.net/DTD/sodipodi-0.dtd"
   xmlns="http://www.w3.org/2000/svg"
   xmlns:svg="http://www.w3.org/2000/svg"><defs
   id="defs15" />
<sodipodi:namedview
   id="namedview13"
   pagecolor="#ffffff"
   bordercolor="#666666"
   borderopacity="1.0"
   inkscape:pageshadow="2"
   inkscape:pageopacity="0.0"
   inkscape:pagecheckerboard="0"
   showgrid="false"
   inkscape:zoom="32.75"
   inkscape:cx="11.984733"
   inkscape:cy="12"
   inkscape:window-width="1296"
   inkscape:window-height="1067"
   inkscape:window-x="0"
   inkscape:window-y="25"
   inkscape:window-maximized="0"
   inkscape:current-layer="svg11" />
<path
   style="color:#000000;fill:#000000;stroke-linecap:round;stroke-linejoin:round;-inkscape-stroke:none"
   d="m 9.4472656,3.1054688 a 1.0001,1.0001 0 0 0 -1.0019531,0.0625 l -6,3.9999999 A 1.0001,1.0001 0 0 0 2,8 v 12 a 1.0001,1.0001 0 0 0 1.4472656,0.894531 L 9,18.117187 l 5.552734,2.777344 a 1.0001,1.0001 0 0 0 1.001954,-0.0625 l 5.999999,-4 A 1.0001,1.0001 0 0 0 22,16 V 4 A 1.0001,1.0001 0 0 0 20.552734,3.1054688 L 15,5.8828125 Z m -0.375,2.0488281 5.4804684,2.7402343 a 1.0001,1.0001 0 0 0 0.894532,0 L 20,5.6171875 v 9.8476565 l -5.072266,3.380859 -5.4804684,-2.740234 a 1.0001,1.0001 0 0 0 -0.8945312,0 L 4,18.382812 V 8.5351563 Z"
   id="path2" />
<path
   style="color:#000000;fill:#000000;stroke-linecap:round;stroke-linejoin:round;-inkscape-stroke:none"
   d="m 7,11 a 1,1 0 0 0 -1,1 v 0.002 a 1,1 0 0 0 1,1 1,1 0 0 0 1,-1 V 12 A 1,1 0 0 0 7,11 Z"
   id="path4" />
<path
   style="color:#000000;fill:#000000;stroke-linecap:round;stroke-linejoin:round;-inkscape-stroke:none"
   d="m 11,11 a 1,1 0 0 0 -1,1 v 0.002 a 1,1 0 0 0 1,1 1,1 0 0 0 1,-1 V 12 a 1,1 0 0 0 -1,-1 z"
   id="path6" />
<path
   style="color:#000000;fill:#000000;stroke-linecap:round;stroke-linejoin:round;-inkscape-stroke:none"
   d="m 14,9 a 1,1 0 0 0 -0.707031,0.2929688 1,1 0 0 0 0,1.4140622 L 14.585938,12 13.292969,13.292969 a 1,1 0 0 0 0,1.414062 1,1 0 0 0 1.414062,0 L 16,13.414063 l 1.292969,1.292968 a 1,1 0 0 0 1.414062,0 1,1 0 0 0 0,-1.414062 L 17.414062,12 18.707031,10.707031 a 1,1 0 0 0 0,-1.4140622 1,1 0 0 0 -1.414062,0 L 16,10.585938 14.707031,9.2929688 A 1,1 0 0 0 14,9 Z"
   id="path8" />
<path
   id="_StrokeToPathSelectorObject" />
d=&quot;M0 0 H 0&quot;/&gt;
    </svg>
