<?xml version="1.0" encoding="UTF-8" standalone="no"?>
<svg
   width="24"
   height="24"
   viewBox="0 0 24 24"
   fill="none"
   version="1.1"
   id="svg9"
   sodipodi:docname="map-marker-area-line.svg"
   inkscape:version="1.1.1 (c3084ef, 2021-09-22)"
   xmlns:inkscape="http://www.inkscape.org/namespaces/inkscape"
   xmlns:sodipodi="http://sodipodi.sourceforge.net/DTD/sodipodi-0.dtd"
   xmlns="http://www.w3.org/2000/svg"
   xmlns:svg="http://www.w3.org/2000/svg"><defs
   id="defs13" />
<sodipodi:namedview
   id="namedview11"
   pagecolor="#ffffff"
   bordercolor="#666666"
   borderopacity="1.0"
   inkscape:pageshadow="2"
   inkscape:pageopacity="0.0"
   inkscape:pagecheckerboard="0"
   showgrid="false"
   inkscape:zoom="32.75"
   inkscape:cx="11.984733"
   inkscape:cy="12"
   inkscape:window-width="1296"
   inkscape:window-height="1067"
   inkscape:window-x="0"
   inkscape:window-y="25"
   inkscape:window-maximized="0"
   inkscape:current-layer="svg9" />
<path
   style="color:#000000;fill:#000000;stroke-linecap:round;stroke-linejoin:round;-inkscape-stroke:none"
   d="m 6.375,15.087891 a 1,1 0 0 0 -0.765625,0.0078 C 4.9089756,15.393311 4.3089448,15.743194 3.8359375,16.203125 3.3629302,16.663056 3,17.28869 3,18 c 0,0.774504 0.4247069,1.437134 0.9648438,1.916016 0.5401368,0.478882 1.2251983,0.841769 2.0273437,1.142578 C 7.5964784,21.66021 9.6895257,22 12,22 c 2.310484,0 4.403523,-0.339789 6.007812,-0.941406 0.802145,-0.300809 1.487209,-0.663696 2.027344,-1.142578 C 20.575292,19.437133 21,18.774502 21,18 21,17.288677 20.63707,16.663052 20.164062,16.203125 19.691055,15.743198 19.091006,15.39331 18.390625,15.095703 a 1,1 0 0 0 -1.310547,0.529297 1,1 0 0 0 0.529297,1.310547 c 0.544318,0.231292 0.94434,0.493277 1.160156,0.703125 C 18.985348,17.84852 19,17.950524 19,18 c 0,0.0539 -0.02346,0.18098 -0.292969,0.419922 -0.269504,0.238942 -0.754824,0.523534 -1.40039,0.765625 C 16.015508,19.669729 14.107812,20 12,20 9.8921987,20 7.9844956,19.669729 6.6933594,19.185547 6.0477913,18.943456 5.5624748,18.658864 5.2929687,18.419922 5.0234627,18.180979 5,18.053895 5,18 5,17.95051 5.0146593,17.848515 5.2304687,17.638672 5.4462782,17.428828 5.8462956,17.166839 6.390625,16.935547 A 1,1 0 0 0 6.9199219,15.625 1,1 0 0 0 6.375,15.087891 Z"
   id="path2" />
<path
   style="color:#000000;fill:#000000;stroke-linecap:round;stroke-linejoin:round;-inkscape-stroke:none"
   d="M 12,2 C 8.670844,2 6,4.8699887 6,8.4453125 c 0,2.0852705 1.3951663,4.2086765 2.6855469,6.0175785 1.2903805,1.808902 2.5761721,3.21289 2.5761721,3.21289 a 1.0001,1.0001 0 0 0 1.476562,0 c 0,0 1.285792,-1.403988 2.576172,-3.21289 C 16.604834,12.653989 18,10.530583 18,8.4453125 18,4.8699844 15.32914,2 12,2 Z m 0,2 c 2.193654,0 4,1.8350668 4,4.4453125 0,1.007486 -1.104836,3.1597845 -2.314453,4.8554685 C 12.844604,14.479645 12.435773,14.901617 12,15.402344 11.564227,14.901617 11.155396,14.479645 10.314453,13.300781 9.1048362,11.605097 8,9.4527985 8,8.4453125 8,5.8350625 9.8063215,4 12,4 Z"
   id="path4" />
<path
   style="color:#000000;fill:#000000;stroke-linecap:round;stroke-linejoin:round;-inkscape-stroke:none"
   d="m 12,6 c -1.092724,0 -2,0.9072762 -2,2 0,1.0927238 0.907276,2 2,2 1.092724,0 2,-0.9072762 2,-2 0,-1.0927238 -0.907276,-2 -2,-2 z"
   id="circle6" />
<path
   id="_StrokeToPathSelectorObject" />
d=&quot;M0 0 H 0&quot;/&gt;
    </svg>
