<?xml version="1.0" encoding="UTF-8" standalone="no"?>
<svg
   width="24"
   height="24"
   viewBox="0 0 24 24"
   fill="none"
   version="1.1"
   id="svg5"
   sodipodi:docname="map-simple-line.svg"
   inkscape:version="1.1.1 (c3084ef, 2021-09-22)"
   xmlns:inkscape="http://www.inkscape.org/namespaces/inkscape"
   xmlns:sodipodi="http://sodipodi.sourceforge.net/DTD/sodipodi-0.dtd"
   xmlns="http://www.w3.org/2000/svg"
   xmlns:svg="http://www.w3.org/2000/svg"><defs
   id="defs9" />
<sodipodi:namedview
   id="namedview7"
   pagecolor="#ffffff"
   bordercolor="#666666"
   borderopacity="1.0"
   inkscape:pageshadow="2"
   inkscape:pageopacity="0.0"
   inkscape:pagecheckerboard="0"
   showgrid="false"
   inkscape:zoom="32.75"
   inkscape:cx="11.984733"
   inkscape:cy="12"
   inkscape:window-width="1296"
   inkscape:window-height="1067"
   inkscape:window-x="0"
   inkscape:window-y="25"
   inkscape:window-maximized="0"
   inkscape:current-layer="svg5" />
<path
   style="color:#000000;fill:#000000;stroke-linecap:round;stroke-linejoin:round;-inkscape-stroke:none"
   d="m 21.472656,3.1191406 a 1.0001,1.0001 0 0 0 -1.027344,0.048828 L 15,6.7988281 9.5546875,3.1679688 a 1.0001,1.0001 0 0 0 -1.109375,0 l -6,3.9999999 A 1.0001,1.0001 0 0 0 2,8 v 12 a 1.0001,1.0001 0 0 0 1.5546875,0.832031 L 9,17.201172 l 5.445313,3.630859 a 1.0001,1.0001 0 0 0 1.109375,0 l 5.999999,-4 A 1.0001,1.0001 0 0 0 22,16 V 4 A 1.0001,1.0001 0 0 0 21.472656,3.1191406 Z M 9,5.2011719 14.445313,8.8320313 a 1.0001,1.0001 0 0 0 1.109375,0 L 20,5.8691406 v 9.5957034 l -5,3.333984 -5.4453125,-3.630859 a 1.0001,1.0001 0 0 0 -1.109375,0 L 4,18.130859 V 8.5351563 Z"
   id="path2" />
<path
   id="_StrokeToPathSelectorObject" />
d=&quot;M0 0 H 0&quot;/&gt;
    </svg>
