<?xml version="1.0" encoding="UTF-8" standalone="no"?>
<svg
   width="24"
   height="24"
   viewBox="0 0 24 24"
   fill="none"
   version="1.1"
   id="svg5"
   sodipodi:docname="maximize-line.svg"
   inkscape:version="1.1.1 (c3084ef, 2021-09-22)"
   xmlns:inkscape="http://www.inkscape.org/namespaces/inkscape"
   xmlns:sodipodi="http://sodipodi.sourceforge.net/DTD/sodipodi-0.dtd"
   xmlns="http://www.w3.org/2000/svg"
   xmlns:svg="http://www.w3.org/2000/svg"><defs
   id="defs9" />
<sodipodi:namedview
   id="namedview7"
   pagecolor="#ffffff"
   bordercolor="#666666"
   borderopacity="1.0"
   inkscape:pageshadow="2"
   inkscape:pageopacity="0.0"
   inkscape:pagecheckerboard="0"
   showgrid="false"
   inkscape:zoom="32.75"
   inkscape:cx="11.984733"
   inkscape:cy="12"
   inkscape:window-width="1296"
   inkscape:window-height="1067"
   inkscape:window-x="0"
   inkscape:window-y="25"
   inkscape:window-maximized="0"
   inkscape:current-layer="svg5" />
<path
   style="color:#000000;fill:#000000;stroke-linecap:round;stroke-linejoin:round;-inkscape-stroke:none"
   d="m 16,3 a 1,1 0 0 0 -1,1 1,1 0 0 0 1,1 h 1.585937 l -4.292968,4.2929688 a 1,1 0 0 0 0,1.4140622 1,1 0 0 0 1.414062,0 L 19,6.4140625 V 8 a 1,1 0 0 0 1,1 1,1 0 0 0 1,-1 V 4 A 1,1 0 0 0 20.923828,3.6171875 1,1 0 0 0 20.707031,3.2929688 1,1 0 0 0 20.382812,3.0761719 1,1 0 0 0 20,3 Z M 10,13 A 1,1 0 0 0 9.2929688,13.292969 L 5,17.585937 V 16 A 1,1 0 0 0 4,15 1,1 0 0 0 3,16 v 4 A 1,1 0 0 0 3.2929688,20.707031 1,1 0 0 0 4,21 H 8 A 1,1 0 0 0 9,20 1,1 0 0 0 8,19 H 6.4140625 l 4.2929685,-4.292969 a 1,1 0 0 0 0,-1.414062 A 1,1 0 0 0 10,13 Z"
   id="path2" />
<path
   id="_StrokeToPathSelectorObject" />
d=&quot;M0 0 H 0&quot;/&gt;
    </svg>
