<?xml version="1.0" encoding="UTF-8" standalone="no"?>
<svg
   width="24"
   height="24"
   viewBox="0 0 24 24"
   fill="none"
   version="1.1"
   id="svg5"
   sodipodi:docname="megaphone-line.svg"
   inkscape:version="1.1.1 (c3084ef, 2021-09-22)"
   xmlns:inkscape="http://www.inkscape.org/namespaces/inkscape"
   xmlns:sodipodi="http://sodipodi.sourceforge.net/DTD/sodipodi-0.dtd"
   xmlns="http://www.w3.org/2000/svg"
   xmlns:svg="http://www.w3.org/2000/svg"><defs
   id="defs9" />
<sodipodi:namedview
   id="namedview7"
   pagecolor="#ffffff"
   bordercolor="#666666"
   borderopacity="1.0"
   inkscape:pageshadow="2"
   inkscape:pageopacity="0.0"
   inkscape:pagecheckerboard="0"
   showgrid="false"
   inkscape:zoom="32.75"
   inkscape:cx="11.984733"
   inkscape:cy="12"
   inkscape:window-width="1296"
   inkscape:window-height="1067"
   inkscape:window-x="0"
   inkscape:window-y="25"
   inkscape:window-maximized="0"
   inkscape:current-layer="svg5" />
<path
   style="color:#000000;fill:#000000;stroke-linecap:round;stroke-linejoin:round;-inkscape-stroke:none"
   d="m 19.019531,2.7363281 c -0.341086,-0.011931 -0.688729,0.065417 -1.011719,0.25 L 12.732422,6 H 7 c -2.7495768,0 -5,2.2504232 -5,5 0,2.395487 1.7417806,4.317227 4,4.796875 V 19.5 C 6,20.868854 7.1311113,22 8.5,22 9.8688887,22 11,20.868854 11,19.5 V 16 h 1.732422 l 5.27539,3.013672 C 19.29981,19.751928 21,18.765382 21,17.277344 V 14 8 4.7226562 C 21,3.6066267 20.042789,2.7721209 19.019531,2.7363281 Z M 19,4.7226562 V 8 14 17.277344 L 14,14.417969 V 7.5820312 Z M 7,8 h 5 v 6 H 10 7 C 5.3313133,14 4,12.668649 4,11 4,9.3313012 5.3313012,8 7,8 Z m 1,8 h 1 v 3.5 C 9,19.787944 8.7879696,20 8.5,20 8.2120304,20 8,19.787944 8,19.5 Z"
   id="path2" />
<path
   id="_StrokeToPathSelectorObject" />
d=&quot;M0 0 H 0&quot;/&gt;
    </svg>
