<?xml version="1.0" encoding="UTF-8" standalone="no"?>
<svg
   width="24"
   height="24"
   viewBox="0 0 24 24"
   fill="none"
   version="1.1"
   id="svg5"
   sodipodi:docname="menu-expand-left-line.svg"
   inkscape:version="1.1.1 (c3084ef, 2021-09-22)"
   xmlns:inkscape="http://www.inkscape.org/namespaces/inkscape"
   xmlns:sodipodi="http://sodipodi.sourceforge.net/DTD/sodipodi-0.dtd"
   xmlns="http://www.w3.org/2000/svg"
   xmlns:svg="http://www.w3.org/2000/svg"><defs
   id="defs9" />
<sodipodi:namedview
   id="namedview7"
   pagecolor="#ffffff"
   bordercolor="#666666"
   borderopacity="1.0"
   inkscape:pageshadow="2"
   inkscape:pageopacity="0.0"
   inkscape:pagecheckerboard="0"
   showgrid="false"
   inkscape:zoom="32.75"
   inkscape:cx="11.984733"
   inkscape:cy="12"
   inkscape:window-width="1296"
   inkscape:window-height="1067"
   inkscape:window-x="0"
   inkscape:window-y="25"
   inkscape:window-maximized="0"
   inkscape:current-layer="svg5" />
<path
   style="color:#000000;fill:#000000;stroke-linecap:round;stroke-linejoin:round;-inkscape-stroke:none"
   d="m 11,7 a 1,1 0 0 0 -1,1 1,1 0 0 0 1,1 h 9 A 1,1 0 0 0 21,8 1,1 0 0 0 20,7 Z M 7,8 A 1,1 0 0 0 6.2929687,8.2929688 L 3.2929688,11.292969 A 1,1 0 0 0 3,12 1,1 0 0 0 3.2929688,12.707031 l 2.9999999,3 a 1,1 0 0 0 1.4140625,0 1,1 0 0 0 0,-1.414062 L 6.4140625,13 H 20 a 1,1 0 0 0 1,-1 1,1 0 0 0 -1,-1 H 6.4140625 L 7.7070312,9.7070313 a 1,1 0 0 0 0,-1.4140625 A 1,1 0 0 0 7,8 Z m 4,7 a 1,1 0 0 0 -1,1 1,1 0 0 0 1,1 h 9 a 1,1 0 0 0 1,-1 1,1 0 0 0 -1,-1 z"
   id="path2" />
<path
   id="_StrokeToPathSelectorObject" />
d=&quot;M0 0 H 0&quot;/&gt;
    </svg>
