<?xml version="1.0" encoding="UTF-8" standalone="no"?>
<svg
   width="24"
   height="24"
   viewBox="0 0 24 24"
   fill="none"
   version="1.1"
   id="svg5"
   sodipodi:docname="menu-expand-right-line.svg"
   inkscape:version="1.1.1 (c3084ef, 2021-09-22)"
   xmlns:inkscape="http://www.inkscape.org/namespaces/inkscape"
   xmlns:sodipodi="http://sodipodi.sourceforge.net/DTD/sodipodi-0.dtd"
   xmlns="http://www.w3.org/2000/svg"
   xmlns:svg="http://www.w3.org/2000/svg"><defs
   id="defs9" />
<sodipodi:namedview
   id="namedview7"
   pagecolor="#ffffff"
   bordercolor="#666666"
   borderopacity="1.0"
   inkscape:pageshadow="2"
   inkscape:pageopacity="0.0"
   inkscape:pagecheckerboard="0"
   showgrid="false"
   inkscape:zoom="32.75"
   inkscape:cx="11.984733"
   inkscape:cy="12"
   inkscape:window-width="1296"
   inkscape:window-height="1067"
   inkscape:window-x="0"
   inkscape:window-y="25"
   inkscape:window-maximized="0"
   inkscape:current-layer="svg5" />
<path
   style="color:#000000;fill:#000000;stroke-linecap:round;stroke-linejoin:round;-inkscape-stroke:none"
   d="M 4,7 A 1,1 0 0 0 3,8 1,1 0 0 0 4,9 h 9 A 1,1 0 0 0 14,8 1,1 0 0 0 13,7 Z m 12.292969,1.2929688 a 1,1 0 0 0 0,1.4140625 L 17.585937,11 H 4 a 1,1 0 0 0 -1,1 1,1 0 0 0 1,1 h 13.585937 l -1.292968,1.292969 a 1,1 0 0 0 0,1.414062 1,1 0 0 0 1.414062,0 l 3,-3 a 1,1 0 0 0 0.259766,-0.447265 1,1 0 0 0 0,-0.179688 A 1,1 0 0 0 21,12 a 1,1 0 0 0 -0.0332,-0.166016 1,1 0 0 0 0,-0.09375 1,1 0 0 0 -0.02734,-0.04883 1,1 0 0 0 -0.232422,-0.398437 l -3,-3.0000002 a 1,1 0 0 0 -1.414062,0 z M 4,15 a 1,1 0 0 0 -1,1 1,1 0 0 0 1,1 h 9 a 1,1 0 0 0 1,-1 1,1 0 0 0 -1,-1 z"
   id="path2" />
<path
   id="_StrokeToPathSelectorObject" />
d=&quot;M0 0 H 0&quot;/&gt;
    </svg>
