<?xml version="1.0" encoding="UTF-8" standalone="no"?>
<svg
   width="24"
   height="24"
   viewBox="0 0 24 24"
   fill="none"
   version="1.1"
   id="svg7"
   sodipodi:docname="microphone-line.svg"
   inkscape:version="1.1.1 (c3084ef, 2021-09-22)"
   xmlns:inkscape="http://www.inkscape.org/namespaces/inkscape"
   xmlns:sodipodi="http://sodipodi.sourceforge.net/DTD/sodipodi-0.dtd"
   xmlns="http://www.w3.org/2000/svg"
   xmlns:svg="http://www.w3.org/2000/svg"><defs
   id="defs11" />
<sodipodi:namedview
   id="namedview9"
   pagecolor="#ffffff"
   bordercolor="#666666"
   borderopacity="1.0"
   inkscape:pageshadow="2"
   inkscape:pageopacity="0.0"
   inkscape:pagecheckerboard="0"
   showgrid="false"
   inkscape:zoom="32.75"
   inkscape:cx="11.984733"
   inkscape:cy="12"
   inkscape:window-width="1296"
   inkscape:window-height="1067"
   inkscape:window-x="0"
   inkscape:window-y="25"
   inkscape:window-maximized="0"
   inkscape:current-layer="svg7" />
<path
   style="color:#000000;fill:#000000;stroke-linecap:round;stroke-linejoin:round;-inkscape-stroke:none"
   d="M 12,2 C 9.8026753,2 8,3.8027291 8,6 v 5 c 0,2.197305 1.8026954,4 4,4 2.197305,0 4,-1.802695 4,-4 V 6 C 16,3.8027291 14.197325,2 12,2 Z m 0,2 c 1.116472,0 2,0.8835742 2,2 v 5 c 0,1.116492 -0.883508,2 -2,2 -1.116492,0 -2,-0.883508 -2,-2 V 6 c 0,-1.1164258 0.883528,-2 2,-2 z"
   id="path2" />
<path
   style="color:#000000;fill:#000000;stroke-linecap:round;stroke-linejoin:round;-inkscape-stroke:none"
   d="m 5,9 a 1,1 0 0 0 -1,1 v 1 c 0,4.052133 3.0846151,7.281987 7,7.796875 V 21 a 1,1 0 0 0 1,1 1,1 0 0 0 1,-1 V 18.796875 C 16.91539,18.281987 20,15.052131 20,11 v -1 a 1,1 0 0 0 -1,-1 1,1 0 0 0 -1,1 v 1 c 0,3.325559 -2.674441,6 -6,6 C 8.6744527,17 6,14.325557 6,11 V 10 A 1,1 0 0 0 5,9 Z"
   id="path4" />
<path
   id="_StrokeToPathSelectorObject" />
d=&quot;M0 0 H 0&quot;/&gt;
    </svg>
