<?xml version="1.0" encoding="UTF-8" standalone="no"?>
<svg
   width="24"
   height="24"
   viewBox="0 0 24 24"
   fill="none"
   version="1.1"
   id="svg5"
   sodipodi:docname="minimize-line.svg"
   inkscape:version="1.1.1 (c3084ef, 2021-09-22)"
   xmlns:inkscape="http://www.inkscape.org/namespaces/inkscape"
   xmlns:sodipodi="http://sodipodi.sourceforge.net/DTD/sodipodi-0.dtd"
   xmlns="http://www.w3.org/2000/svg"
   xmlns:svg="http://www.w3.org/2000/svg"><defs
   id="defs9" />
<sodipodi:namedview
   id="namedview7"
   pagecolor="#ffffff"
   bordercolor="#666666"
   borderopacity="1.0"
   inkscape:pageshadow="2"
   inkscape:pageopacity="0.0"
   inkscape:pagecheckerboard="0"
   showgrid="false"
   inkscape:zoom="32.75"
   inkscape:cx="11.984733"
   inkscape:cy="12"
   inkscape:window-width="1296"
   inkscape:window-height="1067"
   inkscape:window-x="0"
   inkscape:window-y="25"
   inkscape:window-maximized="0"
   inkscape:current-layer="svg5" />
<path
   style="color:#000000;fill:#000000;stroke-linecap:round;stroke-linejoin:round;-inkscape-stroke:none"
   d="M 19.292969,3.2929688 15,7.5859375 V 6 A 1,1 0 0 0 14,5 1,1 0 0 0 13,6 v 4 A 1,1 0 0 0 13.292969,10.707031 1,1 0 0 0 14,11 h 4 a 1,1 0 0 0 1,-1 1,1 0 0 0 -1,-1 h -1.585938 l 4.292969,-4.2929688 a 1,1 0 0 0 0,-1.4140624 1,1 0 0 0 -1.414062,0 z M 6,13 a 1,1 0 0 0 -1,1 1,1 0 0 0 1,1 h 1.5859375 l -4.2929687,4.292969 a 1,1 0 0 0 0,1.414062 1,1 0 0 0 1.4140624,0 L 9,16.414062 V 18 a 1,1 0 0 0 1,1 1,1 0 0 0 1,-1 v -4 a 1,1 0 0 0 -0.0332,-0.166016 1,1 0 0 0 -0.02734,-0.142578 A 1,1 0 0 0 10.707031,13.292969 1,1 0 0 0 10,13 Z"
   id="path2" />
<path
   id="_StrokeToPathSelectorObject" />
d=&quot;M0 0 H 0&quot;/&gt;
    </svg>
