<?xml version="1.0" encoding="UTF-8" standalone="no"?>
<svg
   width="24"
   height="24"
   viewBox="0 0 24 24"
   fill="none"
   version="1.1"
   id="svg9"
   sodipodi:docname="money-hand-line.svg"
   inkscape:version="1.1.1 (c3084ef, 2021-09-22)"
   xmlns:inkscape="http://www.inkscape.org/namespaces/inkscape"
   xmlns:sodipodi="http://sodipodi.sourceforge.net/DTD/sodipodi-0.dtd"
   xmlns="http://www.w3.org/2000/svg"
   xmlns:svg="http://www.w3.org/2000/svg"><defs
   id="defs13" />
<sodipodi:namedview
   id="namedview11"
   pagecolor="#ffffff"
   bordercolor="#666666"
   borderopacity="1.0"
   inkscape:pageshadow="2"
   inkscape:pageopacity="0.0"
   inkscape:pagecheckerboard="0"
   showgrid="false"
   inkscape:zoom="32.75"
   inkscape:cx="11.984733"
   inkscape:cy="12"
   inkscape:window-width="1296"
   inkscape:window-height="1067"
   inkscape:window-x="0"
   inkscape:window-y="25"
   inkscape:window-maximized="0"
   inkscape:current-layer="svg9" />
<path
   style="color:#000000;fill:#000000;stroke-linecap:round;stroke-linejoin:round;-inkscape-stroke:none"
   d="M 14.615234,7.0761719 A 1.0001,1.0001 0 0 0 13.998047,8 v 6.585938 l -1.294922,-1.292969 c -0.462364,-0.462087 -1.066695,-0.72071 -1.765625,-0.777344 -0.69893,-0.05663 -1.5291065,0.156424 -2.1503906,0.777344 -0.6212823,0.620902 -0.8340474,1.451465 -0.7773438,2.15039 0.056704,0.698925 0.3149901,1.301605 0.7773438,1.763672 l 5.5039066,5.5 a 1,1 0 0 0 1.414062,0 1,1 0 0 0 0,-1.414062 l -5.503906,-5.5 c -0.03796,-0.03793 -0.178924,-0.285645 -0.197266,-0.511719 -0.018341,-0.226074 0.01806,-0.395122 0.197266,-0.574219 0.179185,-0.17908 0.34951,-0.215632 0.576172,-0.197265 0.226661,0.01837 0.473783,0.159352 0.511719,0.197265 l 1.294921,1.294922 c 0.600084,0.599608 1.495345,0.715241 2.179688,0.431641 0.684343,-0.283601 1.234375,-0.999324 1.234375,-1.847656 v -4.173829 l 0.24414,0.244141 C 17.368507,11.781901 18,13.308029 18,14.900391 V 22 a 1,1 0 0 0 1,1 1,1 0 0 0 1,-1 V 14.900391 C 20,12.778156 19.155374,10.742374 17.654297,9.2421875 L 15.705078,7.2929687 A 1.0001,1.0001 0 0 0 14.615234,7.0761719 Z"
   id="path2" />
<path
   style="color:#000000;fill:#000000;stroke-linecap:round;stroke-linejoin:round;-inkscape-stroke:none"
   d="M 7,1 C 5.3549921,1 4,2.3549921 4,4 v 2 6 2 c 0,1.645023 1.3550102,3 3,3 h 2 a 1.0001,1.0001 0 0 0 1,-1 C 10,15.133346 9.7717996,13.971689 9.0117188,12.916016 8.4083237,12.077963 7.322001,11.491495 6,11.232422 V 6.7675781 C 7.3219995,6.5085078 8.4083223,5.9220354 9.0117188,5.0839844 9.5133761,4.3872376 9.731783,3.6738925 9.8574219,3 h 0.2851561 c 0.125639,0.6738925 0.344046,1.3872376 0.845703,2.0839844 C 11.591678,5.9220354 12.678,6.5085078 14,6.7675781 V 12 a 1,1 0 0 0 1,1 1,1 0 0 0 1,-1 V 6 4 C 16,2.3550102 14.645023,1 13,1 H 11 9 Z M 7,3 H 7.6816406 C 7.5834068,3.33057 7.5990353,3.623844 7.3886719,3.9160156 7.0929595,4.3267274 6.6189223,4.6105794 6,4.7949219 V 4 C 6,3.4358701 6.4358701,3 7,3 Z m 5.318359,0 H 13 c 0.564175,0 1,0.435852 1,1 V 4.7949219 C 13.381078,4.6105794 12.90704,4.3267274 12.611328,3.9160156 12.400965,3.623844 12.416593,3.33057 12.318359,3 Z M 6,13.205078 c 0.6189215,0.184344 1.0929584,0.468191 1.3886719,0.878906 C 7.5990362,14.376158 7.5834067,14.66943 7.6816406,15 H 7 C 6.435852,15 6,14.564175 6,14 Z"
   id="path4" />
<path
   style="color:#000000;fill:#000000;stroke-linecap:round;stroke-linejoin:round;-inkscape-stroke:none"
   d="M 10,7 C 8.9072762,7 8,7.9072762 8,9 c 0,1.092724 0.9072762,2 2,2 1.092724,0 2,-0.907276 2,-2 0,-1.0927238 -0.907276,-2 -2,-2 z"
   id="circle6"
   transform="rotate(90 10 9)" />
<path
   id="_StrokeToPathSelectorObject" />
d=&quot;M0 0 H 0&quot;/&gt;
    </svg>
