<?xml version="1.0" encoding="UTF-8" standalone="no"?>
<svg
   width="24"
   height="24"
   viewBox="0 0 24 24"
   fill="none"
   version="1.1"
   id="svg9"
   sodipodi:docname="money-minus-line.svg"
   inkscape:version="1.1.1 (c3084ef, 2021-09-22)"
   xmlns:inkscape="http://www.inkscape.org/namespaces/inkscape"
   xmlns:sodipodi="http://sodipodi.sourceforge.net/DTD/sodipodi-0.dtd"
   xmlns="http://www.w3.org/2000/svg"
   xmlns:svg="http://www.w3.org/2000/svg"><defs
   id="defs13" />
<sodipodi:namedview
   id="namedview11"
   pagecolor="#ffffff"
   bordercolor="#666666"
   borderopacity="1.0"
   inkscape:pageshadow="2"
   inkscape:pageopacity="0.0"
   inkscape:pagecheckerboard="0"
   showgrid="false"
   inkscape:zoom="32.75"
   inkscape:cx="11.984733"
   inkscape:cy="12"
   inkscape:window-width="1296"
   inkscape:window-height="1067"
   inkscape:window-x="0"
   inkscape:window-y="25"
   inkscape:window-maximized="0"
   inkscape:current-layer="svg9" />
<path
   style="color:#000000;fill:#000000;stroke-linecap:round;stroke-linejoin:round;-inkscape-stroke:none"
   d="M 5,5 C 3.3549921,5 2,6.3549921 2,8 v 2 4 2 c 0,1.645023 1.3550102,3 3,3 h 2 4 a 1,1 0 0 0 1,-1 1,1 0 0 0 -1,-1 H 7.7675781 C 7.5085078,15.678 6.9220354,14.591678 6.0839844,13.988281 5.3872376,13.486624 4.6738925,13.268217 4,13.142578 V 10.857422 C 4.6738925,10.731783 5.3872376,10.513376 6.0839844,10.011719 6.9220354,9.4083223 7.5085078,8.3219995 7.7675781,7 h 8.4648439 c 0.259073,1.322001 0.845541,2.4083237 1.683594,3.011719 0.696748,0.501656 1.410096,0.720064 2.083984,0.845703 V 14 a 1,1 0 0 0 1,1 1,1 0 0 0 1,-1 V 10 8 C 22,6.3550102 20.645023,5 19,5 H 17 7 Z M 5,7 H 5.7949219 C 5.6105794,7.6189223 5.3267274,8.0929595 4.9160156,8.3886719 4.623844,8.5990353 4.33057,8.5834068 4,8.6816406 V 8 C 4,7.4358701 4.4358701,7 5,7 Z M 18.205078,7 H 19 c 0.564175,0 1,0.435852 1,1 V 8.6816406 C 19.66943,8.5834067 19.376158,8.5990362 19.083984,8.3886719 18.673269,8.0929584 18.389422,7.6189215 18.205078,7 Z M 4,15.318359 c 0.33057,0.09823 0.623844,0.08261 0.9160156,0.292969 C 5.3267274,15.90704 5.6105794,16.381078 5.7949219,17 H 5 C 4.435852,17 4,16.564175 4,16 Z"
   id="path2" />
<path
   style="color:#000000;fill:#000000;stroke-linecap:round;stroke-linejoin:round;-inkscape-stroke:none"
   d="m 12,9 c -1.645008,0 -3,1.354992 -3,3 0,1.645008 1.354992,3 3,3 1.645008,0 3,-1.354992 3,-3 0,-1.645008 -1.354992,-3 -3,-3 z m 0,2 c 0.564129,0 1,0.435871 1,1 0,0.564129 -0.435871,1 -1,1 -0.564129,0 -1,-0.435871 -1,-1 0,-0.564129 0.435871,-1 1,-1 z"
   id="circle4" />
<path
   style="color:#000000;fill:#000000;stroke-linecap:round;stroke-linejoin:round;-inkscape-stroke:none"
   d="m 15,17 a 1,1 0 0 0 -1,1 1,1 0 0 0 1,1 h 3 3 a 1,1 0 0 0 1,-1 1,1 0 0 0 -1,-1 h -3 z"
   id="path6" />
<path
   id="_StrokeToPathSelectorObject" />
d=&quot;M0 0 H 0&quot;/&gt;
    </svg>
