<?xml version="1.0" encoding="UTF-8" standalone="no"?>
<svg
   width="24"
   height="24"
   viewBox="0 0 24 24"
   fill="none"
   version="1.1"
   id="svg5"
   sodipodi:docname="mouse-line.svg"
   inkscape:version="1.1.1 (c3084ef, 2021-09-22)"
   xmlns:inkscape="http://www.inkscape.org/namespaces/inkscape"
   xmlns:sodipodi="http://sodipodi.sourceforge.net/DTD/sodipodi-0.dtd"
   xmlns="http://www.w3.org/2000/svg"
   xmlns:svg="http://www.w3.org/2000/svg"><defs
   id="defs9" />
<sodipodi:namedview
   id="namedview7"
   pagecolor="#ffffff"
   bordercolor="#666666"
   borderopacity="1.0"
   inkscape:pageshadow="2"
   inkscape:pageopacity="0.0"
   inkscape:pagecheckerboard="0"
   showgrid="false"
   inkscape:zoom="32.75"
   inkscape:cx="11.984733"
   inkscape:cy="12"
   inkscape:window-width="1296"
   inkscape:window-height="1067"
   inkscape:window-x="0"
   inkscape:window-y="25"
   inkscape:window-maximized="0"
   inkscape:current-layer="svg5" />
<path
   style="color:#000000;fill:#000000;stroke-linecap:round;stroke-linejoin:round;-inkscape-stroke:none"
   d="M 12,2 C 8.1458543,2 5,5.1458543 5,9 v 2 4 c 0,3.854137 3.1458523,7 7,7 3.854139,0 7,-3.145861 7,-7 V 11 9 C 19,5.2828727 16.052294,2.2908802 12.386719,2.078125 A 1,1 0 0 0 12,2 Z M 11,4.2011719 V 10 H 7 V 9 C 7,6.5821324 8.7283188,4.674695 11,4.2011719 Z m 2,0 C 15.271676,4.6746954 17,6.5821341 17,9 v 1 H 13 Z M 7,12 h 5 5 v 3 c 0,2.773254 -2.226746,5 -5,5 -2.7732656,0 -5,-2.226744 -5,-5 z"
   id="path2" />
<path
   id="_StrokeToPathSelectorObject" />
d=&quot;M0 0 H 0&quot;/&gt;
    </svg>
