<?xml version="1.0" encoding="UTF-8" standalone="no"?>
<svg
   width="24"
   height="24"
   viewBox="0 0 24 24"
   fill="none"
   version="1.1"
   id="svg5"
   sodipodi:docname="music-note-line.svg"
   inkscape:version="1.1.1 (c3084ef, 2021-09-22)"
   xmlns:inkscape="http://www.inkscape.org/namespaces/inkscape"
   xmlns:sodipodi="http://sodipodi.sourceforge.net/DTD/sodipodi-0.dtd"
   xmlns="http://www.w3.org/2000/svg"
   xmlns:svg="http://www.w3.org/2000/svg"><defs
   id="defs9" />
<sodipodi:namedview
   id="namedview7"
   pagecolor="#ffffff"
   bordercolor="#666666"
   borderopacity="1.0"
   inkscape:pageshadow="2"
   inkscape:pageopacity="0.0"
   inkscape:pagecheckerboard="0"
   showgrid="false"
   inkscape:zoom="32.75"
   inkscape:cx="11.984733"
   inkscape:cy="12"
   inkscape:window-width="1296"
   inkscape:window-height="1067"
   inkscape:window-x="0"
   inkscape:window-y="25"
   inkscape:window-maximized="0"
   inkscape:current-layer="svg5" />
<path
   style="color:#000000;fill:#000000;stroke-linecap:round;stroke-linejoin:round;-inkscape-stroke:none"
   d="m 13,3 a 1.0001,1.0001 0 0 0 -1,1 v 4 5.511719 C 11.44136,13.205729 10.778502,13 10,13 8.5222237,13 7.3991454,13.693678 6.7890625,14.541016 6.1789796,15.388353 6,16.300001 6,17 6,17.699999 6.1789796,18.611647 6.7890625,19.458984 7.3991454,20.306322 8.5222237,21 10,21 11.477776,21 12.600855,20.306322 13.210938,19.458984 13.82102,18.611647 14,17.699999 14,17 V 9 h 3 A 1.0001,1.0001 0 0 0 18,8 V 4 A 1.0001,1.0001 0 0 0 17,3 Z m 1,2 h 2 v 2 h -2 z m -4,10 c 0.922221,0 1.297974,0.306323 1.587891,0.708984 C 11.877807,16.111646 12,16.7 12,17 12,17.3 11.877807,17.888354 11.587891,18.291016 11.297974,18.693677 10.922221,19 10,19 9.0777787,19 8.7020256,18.693677 8.4121094,18.291016 8.1221932,17.888354 8,17.3 8,17 8,16.7 8.1221932,16.111646 8.4121094,15.708984 8.7020256,15.306323 9.0777787,15 10,15 Z"
   id="path2" />
<path
   id="_StrokeToPathSelectorObject" />
d=&quot;M0 0 H 0&quot;/&gt;
    </svg>
