<?xml version="1.0" encoding="UTF-8" standalone="no"?>
<svg
   width="24"
   height="24"
   viewBox="0 0 24 24"
   fill="none"
   version="1.1"
   id="svg5"
   sodipodi:docname="open-line.svg"
   inkscape:version="1.1.1 (c3084ef, 2021-09-22)"
   xmlns:inkscape="http://www.inkscape.org/namespaces/inkscape"
   xmlns:sodipodi="http://sodipodi.sourceforge.net/DTD/sodipodi-0.dtd"
   xmlns="http://www.w3.org/2000/svg"
   xmlns:svg="http://www.w3.org/2000/svg"><defs
   id="defs9" />
<sodipodi:namedview
   id="namedview7"
   pagecolor="#ffffff"
   bordercolor="#666666"
   borderopacity="1.0"
   inkscape:pageshadow="2"
   inkscape:pageopacity="0.0"
   inkscape:pagecheckerboard="0"
   showgrid="false"
   inkscape:zoom="32.75"
   inkscape:cx="11.984733"
   inkscape:cy="12"
   inkscape:window-width="1296"
   inkscape:window-height="1067"
   inkscape:window-x="0"
   inkscape:window-y="25"
   inkscape:window-maximized="0"
   inkscape:current-layer="svg5" />
<path
   style="color:#000000;fill:#000000;stroke-linecap:round;stroke-linejoin:round;-inkscape-stroke:none"
   d="M 6,3 C 4.3549921,3 3,4.3549921 3,6 v 12 c 0,1.645023 1.3550102,3 3,3 h 12 c 1.645005,0 3,-1.354995 3,-3 v -4 a 1,1 0 0 0 -1,-1 1,1 0 0 0 -1,1 v 4 c 0,0.564193 -0.435807,1 -1,1 H 6 C 5.435852,19 5,18.564175 5,18 V 6 C 5,5.4358701 5.4358701,5 6,5 h 4 A 1,1 0 0 0 11,4 1,1 0 0 0 10,3 Z m 9,0 a 1,1 0 0 0 -1,1 1,1 0 0 0 1,1 h 2.585937 l -6.292968,6.292969 a 1,1 0 0 0 0,1.414062 1,1 0 0 0 1.414062,0 L 19,6.4140625 V 9 a 1,1 0 0 0 1,1 1,1 0 0 0 1,-1 V 4 A 1,1 0 0 0 20.923828,3.6171875 1,1 0 0 0 20.707031,3.2929688 1,1 0 0 0 20,3 Z"
   id="path2" />
<path
   id="_StrokeToPathSelectorObject" />
d=&quot;M0 0 H 0&quot;/&gt;
    </svg>
