<?xml version="1.0" encoding="UTF-8" standalone="no"?>
<svg
   width="24"
   height="24"
   viewBox="0 0 24 24"
   fill="none"
   version="1.1"
   id="svg5"
   sodipodi:docname="phone-hangup-line.svg"
   inkscape:version="1.1.1 (c3084ef, 2021-09-22)"
   xmlns:inkscape="http://www.inkscape.org/namespaces/inkscape"
   xmlns:sodipodi="http://sodipodi.sourceforge.net/DTD/sodipodi-0.dtd"
   xmlns="http://www.w3.org/2000/svg"
   xmlns:svg="http://www.w3.org/2000/svg"><defs
   id="defs9" />
<sodipodi:namedview
   id="namedview7"
   pagecolor="#ffffff"
   bordercolor="#666666"
   borderopacity="1.0"
   inkscape:pageshadow="2"
   inkscape:pageopacity="0.0"
   inkscape:pagecheckerboard="0"
   showgrid="false"
   inkscape:zoom="32.75"
   inkscape:cx="11.984733"
   inkscape:cy="12"
   inkscape:window-width="1296"
   inkscape:window-height="1067"
   inkscape:window-x="0"
   inkscape:window-y="25"
   inkscape:window-maximized="0"
   inkscape:current-layer="svg5" />
<path
   style="color:#000000;fill:#000000;stroke-linecap:round;stroke-linejoin:round;-inkscape-stroke:none"
   d="M 12,7 C 9.749753,7 7.8100488,7.3544217 6.1855469,7.8925781 2.9641703,8.9597175 1.0142861,10.675779 0.16796875,11.945313 a 1.0001,1.0001 0 0 0 0.125,1.261718 l 2.50000005,2.5 a 1.0001,1.0001 0 0 0 1.2617187,0.125 l 3,-2 A 1.0001,1.0001 0 0 0 7.5,13 V 9.6855469 C 8.8036575,9.3138458 10.229115,9 12,9 c 1.770894,0 3.196337,0.3138449 4.5,0.6855469 V 13 a 1.0001,1.0001 0 0 0 0.445312,0.832031 l 3,2 a 1.0001,1.0001 0 0 0 1.261719,-0.125 l 2.5,-2.5 a 1.0001,1.0001 0 0 0 0.125,-1.261718 C 22.985709,10.675829 21.035853,8.959718 17.814453,7.8925781 16.189946,7.3544234 14.250257,7 12,7 Z m -6.5,3.458984 v 2.00586 L 3.6269531,13.712891 2.4121094,12.498047 C 2.9813277,11.878614 4.0158837,11.170044 5.5,10.458984 Z m 13,0 c 1.484112,0.711054 2.51866,1.419615 3.087891,2.039063 L 20.373047,13.712891 18.5,12.464844 Z"
   id="path2" />
<path
   id="_StrokeToPathSelectorObject" />
d=&quot;M0 0 H 0&quot;/&gt;
    </svg>
