<?xml version="1.0" encoding="UTF-8" standalone="no"?>
<svg
   width="24"
   height="24"
   viewBox="0 0 24 24"
   fill="none"
   version="1.1"
   id="svg11"
   sodipodi:docname="phone-ring-line.svg"
   inkscape:version="1.1.1 (c3084ef, 2021-09-22)"
   xmlns:inkscape="http://www.inkscape.org/namespaces/inkscape"
   xmlns:sodipodi="http://sodipodi.sourceforge.net/DTD/sodipodi-0.dtd"
   xmlns="http://www.w3.org/2000/svg"
   xmlns:svg="http://www.w3.org/2000/svg"><defs
   id="defs15" />
<sodipodi:namedview
   id="namedview13"
   pagecolor="#ffffff"
   bordercolor="#666666"
   borderopacity="1.0"
   inkscape:pageshadow="2"
   inkscape:pageopacity="0.0"
   inkscape:pagecheckerboard="0"
   showgrid="false"
   inkscape:zoom="32.75"
   inkscape:cx="11.984733"
   inkscape:cy="12"
   inkscape:window-width="1296"
   inkscape:window-height="1067"
   inkscape:window-x="0"
   inkscape:window-y="25"
   inkscape:window-maximized="0"
   inkscape:current-layer="svg11" />
<path
   style="color:#000000;fill:#000000;stroke-linecap:round;stroke-linejoin:round;-inkscape-stroke:none"
   d="m 12,12 c -2.2502346,0 -4.1899206,0.354369 -5.8144531,0.892578 -3.2213838,1.067121 -5.1712642,2.783206 -6.01757815,4.052734 a 1.0001,1.0001 0 0 0 0.125,1.261719 l 2.50000005,2.5 a 1.0001,1.0001 0 0 0 1.2617187,0.125 l 3,-2 A 1.0001,1.0001 0 0 0 7.5,18 V 14.685547 C 8.8036369,14.313835 10.229104,14 12,14 c 1.770905,0 3.196358,0.313834 4.5,0.685547 V 18 a 1.0001,1.0001 0 0 0 0.445312,0.832031 l 3,2 a 1.0001,1.0001 0 0 0 1.261719,-0.125 l 2.5,-2.5 a 1.0001,1.0001 0 0 0 0.125,-1.261719 C 22.985712,15.675834 21.03586,13.959699 17.814453,12.892578 16.189915,12.354371 14.250244,12 12,12 Z m -6.5,3.458984 v 2.00586 L 3.6269531,18.712891 2.4121094,17.498047 C 2.9813286,16.878609 4.0158869,16.170038 5.5,15.458984 Z m 13,0 c 1.484109,0.711049 2.518659,1.41961 3.087891,2.039063 L 20.373047,18.712891 18.5,17.464844 Z"
   id="path2" />
<path
   style="color:#000000;fill:#000000;stroke-linecap:round;stroke-linejoin:round;-inkscape-stroke:none"
   d="m 12,3 a 1,1 0 0 0 -1,1 v 4 a 1,1 0 0 0 1,1 1,1 0 0 0 1,-1 V 4 A 1,1 0 0 0 12,3 Z"
   id="path4" />
<path
   style="color:#000000;fill:#000000;stroke-linecap:round;stroke-linejoin:round;-inkscape-stroke:none"
   d="m 4.6367187,5.6367187 a 1,1 0 0 0 -0.7070312,0.2929688 1,1 0 0 0 0,1.4140625 l 2.828125,2.828125 a 1,1 0 0 0 1.4140625,0 1,1 0 0 0 0,-1.4140625 L 5.34375,5.9296875 A 1,1 0 0 0 4.6367187,5.6367187 Z"
   id="path6" />
<path
   style="color:#000000;fill:#000000;stroke-linecap:round;stroke-linejoin:round;-inkscape-stroke:none"
   d="M 19.363281,5.6367187 A 1,1 0 0 0 18.65625,5.9296875 l -2.828125,2.828125 a 1,1 0 0 0 0,1.4140625 1,1 0 0 0 1.414062,0 L 20.070312,7.34375 a 1,1 0 0 0 0,-1.4140625 1,1 0 0 0 -0.707031,-0.2929688 z"
   id="path8" />
<path
   id="_StrokeToPathSelectorObject" />
d=&quot;M0 0 H 0&quot;/&gt;
    </svg>
