<?xml version="1.0" encoding="UTF-8" standalone="no"?>
<svg
   width="24"
   height="24"
   viewBox="0 0 24 24"
   fill="none"
   version="1.1"
   id="svg9"
   sodipodi:docname="phone-retro-line.svg"
   inkscape:version="1.1.1 (c3084ef, 2021-09-22)"
   xmlns:inkscape="http://www.inkscape.org/namespaces/inkscape"
   xmlns:sodipodi="http://sodipodi.sourceforge.net/DTD/sodipodi-0.dtd"
   xmlns="http://www.w3.org/2000/svg"
   xmlns:svg="http://www.w3.org/2000/svg"><defs
   id="defs13" />
<sodipodi:namedview
   id="namedview11"
   pagecolor="#ffffff"
   bordercolor="#666666"
   borderopacity="1.0"
   inkscape:pageshadow="2"
   inkscape:pageopacity="0.0"
   inkscape:pagecheckerboard="0"
   showgrid="false"
   inkscape:zoom="32.75"
   inkscape:cx="11.984733"
   inkscape:cy="12"
   inkscape:window-width="1296"
   inkscape:window-height="1067"
   inkscape:window-x="0"
   inkscape:window-y="25"
   inkscape:window-maximized="0"
   inkscape:current-layer="svg9" />
<path
   style="color:#000000;fill:#000000;stroke-linecap:round;stroke-linejoin:round;-inkscape-stroke:none"
   d="M 12,3 C 9.749753,3 7.8100488,3.3544217 6.1855469,3.8925781 2.9641609,4.9597206 1.0142731,6.6758624 0.16796875,7.9453125 a 1.0001,1.0001 0 0 0 0.125,1.2617188 L 2.7929688,11.707031 a 1.0001,1.0001 0 0 0 1.2617187,0.125 l 3,-1.9999997 A 1.0001,1.0001 0 0 0 7.5,9 V 5.6855469 C 8.8036575,5.3138458 10.229115,5 12,5 c 1.770894,0 3.196337,0.3138449 4.5,0.6855469 V 9 a 1.0001,1.0001 0 0 0 0.445312,0.8320313 l 3,1.9999997 a 1.0001,1.0001 0 0 0 1.261719,-0.125 l 2.5,-2.4999997 a 1.0001,1.0001 0 0 0 0.125,-1.2617188 C 22.985722,6.6759122 21.035862,4.9597212 17.814453,3.8925781 16.189946,3.3544234 14.250257,3 12,3 Z M 5.5,6.4589844 V 8.4648438 L 3.6269531,9.7128906 2.4121094,8.4980469 C 2.9813347,7.8786136 4.0158853,7.1700499 5.5,6.4589844 Z m 13,0 c 1.484111,0.7110601 2.518653,1.4196142 3.087891,2.0390625 L 20.373047,9.7128906 18.5,8.4648438 Z"
   id="path2" />
<path
   style="color:#000000;fill:#000000;stroke-linecap:round;stroke-linejoin:round;-inkscape-stroke:none"
   d="M 10,6 A 1,1 0 0 0 9,7 V 9.5859375 L 3.8789063,14.707031 C 3.3165904,15.269377 3,16.032882 3,16.828125 V 18 c 0,1.645023 1.3550102,3 3,3 h 12 c 1.645005,0 3,-1.354995 3,-3 v -1.171875 c 0,-0.795231 -0.316552,-1.55874 -0.878906,-2.121094 L 15,9.5859375 V 7 A 1,1 0 0 0 14,6 1,1 0 0 0 13,7 V 9 H 11 V 7 A 1,1 0 0 0 10,6 Z m 0.414063,5 h 3.171875 l 5.121093,5.121094 C 18.894876,16.308939 19,16.562557 19,16.828125 V 18 c 0,0.564193 -0.435807,1 -1,1 H 6 C 5.435852,19 5,18.564175 5,18 v -1.171875 c 0,-0.265556 0.1051254,-0.519178 0.2929687,-0.707031 z"
   id="path4" />
<path
   style="color:#000000;fill:#000000;stroke-linecap:round;stroke-linejoin:round;-inkscape-stroke:none"
   d="m 12,12 c -1.645008,0 -3,1.354992 -3,3 0,1.645008 1.354992,3 3,3 1.645008,0 3,-1.354992 3,-3 0,-1.645008 -1.354992,-3 -3,-3 z m 0,2 c 0.564129,0 1,0.435871 1,1 0,0.564129 -0.435871,1 -1,1 -0.564129,0 -1,-0.435871 -1,-1 0,-0.564129 0.435871,-1 1,-1 z"
   id="circle6" />
<path
   id="_StrokeToPathSelectorObject" />
d=&quot;M0 0 H 0&quot;/&gt;
    </svg>
