<?xml version="1.0" encoding="UTF-8" standalone="no"?>
<svg
   width="24"
   height="24"
   viewBox="0 0 24 24"
   fill="none"
   version="1.1"
   id="svg5"
   sodipodi:docname="pill-line.svg"
   inkscape:version="1.1.1 (c3084ef, 2021-09-22)"
   xmlns:inkscape="http://www.inkscape.org/namespaces/inkscape"
   xmlns:sodipodi="http://sodipodi.sourceforge.net/DTD/sodipodi-0.dtd"
   xmlns="http://www.w3.org/2000/svg"
   xmlns:svg="http://www.w3.org/2000/svg"><defs
   id="defs9" />
<sodipodi:namedview
   id="namedview7"
   pagecolor="#ffffff"
   bordercolor="#666666"
   borderopacity="1.0"
   inkscape:pageshadow="2"
   inkscape:pageopacity="0.0"
   inkscape:pagecheckerboard="0"
   showgrid="false"
   inkscape:zoom="32.75"
   inkscape:cx="11.984733"
   inkscape:cy="12"
   inkscape:window-width="1296"
   inkscape:window-height="1067"
   inkscape:window-x="0"
   inkscape:window-y="25"
   inkscape:window-maximized="0"
   inkscape:current-layer="svg5" />
<path
   style="color:#000000;fill:#000000;stroke-linecap:round;stroke-linejoin:round;-inkscape-stroke:none"
   d="m 15.535156,3.4707031 c -1.281713,0 -2.56303,0.4868583 -3.535156,1.4589844 L 8.4648438,8.4648438 4.9296875,12 c -1.9442411,1.944254 -1.9442778,5.126147 0,7.070312 1.9442462,1.944247 5.1260665,1.944247 7.0703125,0 L 15.535156,15.535156 19.070312,12 c 1.944239,-1.944264 1.94425,-5.126075 0,-7.0703125 C 18.098186,3.9575614 16.81687,3.4707031 15.535156,3.4707031 Z m 0,1.9882813 c 0.765685,0 1.531122,0.2947933 2.121094,0.8847656 1.179947,1.1799394 1.179958,3.0622144 0,4.242188 L 14.828125,13.414063 10.585938,9.171875 13.414063,6.34375 c 0.589972,-0.5899723 1.355409,-0.8847656 2.121093,-0.8847656 z m -6.363281,5.1269536 4.242188,4.242187 -2.828125,2.828125 c -1.1799511,1.179951 -3.0622374,1.179951 -4.242188,0 -1.1798991,-1.179831 -1.1799358,-3.062244 0,-4.242187 z"
   id="path2" />
<path
   id="_StrokeToPathSelectorObject" />
d=&quot;M0 0 H 0&quot;/&gt;
    </svg>
