<?xml version="1.0" encoding="UTF-8" standalone="no"?>
<svg
   width="24"
   height="24"
   viewBox="0 0 24 24"
   fill="none"
   version="1.1"
   id="svg11"
   sodipodi:docname="pinwheel-line.svg"
   inkscape:version="1.1.1 (c3084ef, 2021-09-22)"
   xmlns:inkscape="http://www.inkscape.org/namespaces/inkscape"
   xmlns:sodipodi="http://sodipodi.sourceforge.net/DTD/sodipodi-0.dtd"
   xmlns="http://www.w3.org/2000/svg"
   xmlns:svg="http://www.w3.org/2000/svg"><defs
   id="defs15" />
<sodipodi:namedview
   id="namedview13"
   pagecolor="#ffffff"
   bordercolor="#666666"
   borderopacity="1.0"
   inkscape:pageshadow="2"
   inkscape:pageopacity="0.0"
   inkscape:pagecheckerboard="0"
   showgrid="false"
   inkscape:zoom="32.75"
   inkscape:cx="11.984733"
   inkscape:cy="12"
   inkscape:window-width="1296"
   inkscape:window-height="1067"
   inkscape:window-x="0"
   inkscape:window-y="25"
   inkscape:window-maximized="0"
   inkscape:current-layer="svg11" />
<path
   style="color:#000000;fill:#000000;stroke-linecap:round;stroke-linejoin:round;-inkscape-stroke:none"
   d="M 17,6 C 14.52417,6 12.384764,7.507203 11.472656,9.6621094 11.113674,10.510129 11.344074,11.471016 11.871094,12.068359 12.398113,12.665703 13.166966,13 14,13 h 6 c 0.833034,0 1.601887,-0.334297 2.128906,-0.931641 0.52702,-0.597343 0.75742,-1.55823 0.398438,-2.4062496 C 21.615236,7.507203 19.47583,6 17,6 Z m 0,2 c 1.665366,0 3.079056,1.0085362 3.685547,2.441406 0.07162,0.16918 0.05109,0.182582 -0.05664,0.304688 C 20.521176,10.868199 20.271565,11 20,11 h -6 c -0.271565,0 -0.521176,-0.131801 -0.628906,-0.253906 -0.10773,-0.122106 -0.128258,-0.135508 -0.05664,-0.304688 C 13.920944,9.0085362 15.334634,8 17,8 Z"
   id="path2" />
<path
   style="color:#000000;fill:#000000;stroke-linecap:round;stroke-linejoin:round;-inkscape-stroke:none"
   d="m 13.039063,11.339844 c -0.420984,0.07864 -0.80875,0.26774 -1.107422,0.53125 C 11.334297,12.398113 11,13.166966 11,14 v 6 c 0,0.833034 0.334297,1.601887 0.931641,2.128906 0.597343,0.52702 1.55823,0.75742 2.40625,0.398438 C 16.492808,21.615237 18,19.475826 18,17 c 0,-2.475826 -1.507192,-4.615237 -3.662109,-5.527344 -0.42401,-0.179491 -0.877845,-0.21145 -1.298828,-0.132812 z m 0.519531,1.974609 C 14.991473,13.920945 16,15.33463 16,17 c 0,1.66537 -1.008527,3.079055 -2.441406,3.685547 -0.16918,0.07162 -0.182582,0.05109 -0.304688,-0.05664 C 13.131801,20.521176 13,20.271565 13,20 v -6 c 0,-0.271565 0.131801,-0.521176 0.253906,-0.628906 0.122106,-0.10773 0.135508,-0.128258 0.304688,-0.05664 z"
   id="path4" />
<path
   style="color:#000000;fill:#000000;stroke-linecap:round;stroke-linejoin:round;-inkscape-stroke:none"
   d="M 4,11 C 3.1669731,11 2.3981182,11.33431 1.8710937,11.931641 1.3440693,12.528972 1.1136926,13.489857 1.4726562,14.337891 2.3847964,16.492801 4.5241818,18 7,18 c 2.4758182,0 4.615236,-1.507189 5.527344,-3.662109 0.358982,-0.84802 0.128582,-1.808907 -0.398438,-2.40625 C 11.601887,11.334297 10.833034,11 10,11 Z m 0,2 h 6 c 0.271565,0 0.521176,0.131801 0.628906,0.253906 0.10773,0.122106 0.128258,0.135508 0.05664,0.304688 C 10.079057,14.99147 8.6653576,16 7,16 5.3346424,16 3.9209715,14.99148 3.3144531,13.558594 3.2428472,13.389428 3.2633489,13.376025 3.3710938,13.253906 3.4788386,13.131788 3.728458,13 4,13 Z"
   id="path6" />
<path
   style="color:#000000;fill:#000000;stroke-linecap:round;stroke-linejoin:round;-inkscape-stroke:none"
   d="M 10.960938,1.3398437 C 10.539957,1.2611936 10.086126,1.2931744 9.6621094,1.4726562 7.5072169,2.3848058 6,4.5241785 6,7 6,9.4758215 7.5072001,11.615235 9.6621094,12.527344 10.510129,12.886326 11.471016,12.655926 12.068359,12.128906 12.665703,11.601887 13,10.833034 13,10 V 4 C 13,3.1669731 12.66569,2.3981182 12.068359,1.8710937 11.769694,1.6075815 11.381918,1.4184939 10.960938,1.3398437 Z m -0.519532,1.9746094 c 0.169166,-0.071606 0.182569,-0.051104 0.304688,0.056641 C 10.868212,3.4788386 11,3.728458 11,4 v 6 c 0,0.271565 -0.131801,0.521176 -0.253906,0.628906 -0.122106,0.10773 -0.135508,0.128258 -0.304688,0.05664 C 9.0085391,10.079057 8,8.6653544 8,7 8,5.3346456 9.0085223,3.920982 10.441406,3.3144531 Z"
   id="path8" />
<path
   id="_StrokeToPathSelectorObject" />
d=&quot;M0 0 H 0&quot;/&gt;
    </svg>
