<?xml version="1.0" encoding="UTF-8" standalone="no"?>
<svg
   width="24"
   height="24"
   viewBox="0 0 24 24"
   fill="none"
   version="1.1"
   id="svg7"
   sodipodi:docname="planet-ring-2-line.svg"
   inkscape:version="1.1.1 (c3084ef, 2021-09-22)"
   xmlns:inkscape="http://www.inkscape.org/namespaces/inkscape"
   xmlns:sodipodi="http://sodipodi.sourceforge.net/DTD/sodipodi-0.dtd"
   xmlns="http://www.w3.org/2000/svg"
   xmlns:svg="http://www.w3.org/2000/svg"><defs
   id="defs11" />
<sodipodi:namedview
   id="namedview9"
   pagecolor="#ffffff"
   bordercolor="#666666"
   borderopacity="1.0"
   inkscape:pageshadow="2"
   inkscape:pageopacity="0.0"
   inkscape:pagecheckerboard="0"
   showgrid="false"
   inkscape:zoom="32.75"
   inkscape:cx="11.984733"
   inkscape:cy="12"
   inkscape:window-width="1296"
   inkscape:window-height="1067"
   inkscape:window-x="0"
   inkscape:window-y="25"
   inkscape:window-maximized="0"
   inkscape:current-layer="svg7" />
<path
   style="color:#000000;fill:#000000;stroke-linecap:round;stroke-linejoin:round;-inkscape-stroke:none"
   d="m 12,4 c -4.406429,0 -8,3.593571 -8,8 0,4.406429 3.593571,8 8,8 4.406429,0 8,-3.593571 8,-8 0,-4.406429 -3.593571,-8 -8,-8 z m 0,2 c 3.32555,0 6,2.6744502 6,6 0,3.32555 -2.67445,6 -6,6 C 8.6744502,18 6,15.32555 6,12 6,8.6744502 8.6744502,6 12,6 Z"
   id="circle2" />
<path
   style="color:#000000;fill:#000000;stroke-linecap:round;stroke-linejoin:round;-inkscape-stroke:none"
   d="m 17.951172,6.9609375 a 1,1 0 0 0 -0.949219,1.046875 1,1 0 0 0 1.046875,0.9511719 c 1.232735,-0.059488 2.255116,0.01516 2.902344,0.1757812 0.647228,0.1606213 0.733128,0.3674476 0.708984,0.2773438 -0.02101,-0.0784 0.02475,0.054063 -0.308594,0.421875 -0.333348,0.3678116 -0.957598,0.8506166 -1.792968,1.3378906 -1.670742,0.974547 -4.178101,1.99264 -7.041016,2.759766 C 9.6547236,14.698717 6.9751832,15.071113 5.0410156,15.0625 4.0739318,15.058194 3.2909479,14.950685 2.8183594,14.798828 2.3457709,14.646971 2.3188302,14.509466 2.3398438,14.587891 c 0.012443,0.04644 -0.015973,0.06227 0.044922,-0.05859 0.060895,-0.120867 0.2173379,-0.335469 0.4765625,-0.578125 0.5184493,-0.485313 1.4228573,-1.083948 2.5859375,-1.666016 A 1,1 0 0 0 5.8945312,10.943359 1,1 0 0 0 4.5527344,10.498047 c -1.2739074,0.637531 -2.3101193,1.291551 -3.0585938,1.992187 -0.3742372,0.350318 -0.68220283,0.713358 -0.89648435,1.138672 -0.21428152,0.425314 -0.3288508,0.956326 -0.18945312,1.476563 0.2354233,0.878624 1.01030537,1.344279 1.79882817,1.597656 0.7885227,0.253377 1.7280195,0.354494 2.8242187,0.359375 2.1923983,0.0098 4.998687,-0.393997 8.003906,-1.199219 3.005279,-0.805272 5.637445,-1.85823 7.53125,-2.96289 0.946903,-0.552331 1.711384,-1.110912 2.267578,-1.72461 0.556195,-0.613698 0.993218,-1.4026305 0.757813,-2.2812497 C 23.321353,7.8852483 22.387861,7.4326158 21.431641,7.1953125 20.47542,6.9580092 19.308334,6.8954453 17.951172,6.9609375 Z"
   id="path4" />
<path
   id="_StrokeToPathSelectorObject" />
d=&quot;M0 0 H 0&quot;/&gt;
    </svg>
