<?xml version="1.0" encoding="UTF-8" standalone="no"?>
<svg
   width="24"
   height="24"
   viewBox="0 0 24 24"
   fill="none"
   version="1.1"
   id="svg9"
   sodipodi:docname="planet-line.svg"
   inkscape:version="1.1.1 (c3084ef, 2021-09-22)"
   xmlns:inkscape="http://www.inkscape.org/namespaces/inkscape"
   xmlns:sodipodi="http://sodipodi.sourceforge.net/DTD/sodipodi-0.dtd"
   xmlns="http://www.w3.org/2000/svg"
   xmlns:svg="http://www.w3.org/2000/svg"><defs
   id="defs13" />
<sodipodi:namedview
   id="namedview11"
   pagecolor="#ffffff"
   bordercolor="#666666"
   borderopacity="1.0"
   inkscape:pageshadow="2"
   inkscape:pageopacity="0.0"
   inkscape:pagecheckerboard="0"
   showgrid="false"
   inkscape:zoom="32.75"
   inkscape:cx="11.984733"
   inkscape:cy="12"
   inkscape:window-width="1296"
   inkscape:window-height="1067"
   inkscape:window-x="0"
   inkscape:window-y="25"
   inkscape:window-maximized="0"
   inkscape:current-layer="svg9" />
<path
   style="color:#000000;fill:#000000;stroke-linecap:round;stroke-linejoin:round;-inkscape-stroke:none"
   d="M 12,2 C 9.0804144,2 6.4547645,3.2736112 4.6269531,5.2753906 A 1,1 0 0 0 4.5761719,5.3125 c -0.00813,0.00902 -0.021197,0.012435 -0.029297,0.021484 C 2.9643364,7.1021363 2,9.4443171 2,12 c 0,0.685701 0.090577,1.349509 0.2226563,1.998047 a 1,1 0 0 0 0,0.002 1,1 0 0 0 0.00195,0.002 c 0.014482,0.07096 0.00746,0.14834 0.023437,0.21875 0.381891,1.682976 1.1881837,3.204452 2.2988281,4.445313 0.0081,0.009 0.021164,0.01246 0.029297,0.02148 a 1,1 0 0 0 0.050781,0.03711 C 6.4547579,20.72633 9.080402,22 12,22 c 5.511026,0 10,-4.488974 10,-10 0,-0.685736 -0.09063,-1.349582 -0.222656,-1.998047 -1.28e-4,-6.26e-4 1.27e-4,-0.0013 0,-0.002 a 1,1 0 0 0 -0.002,-0.00781 c -0.01413,-0.069059 -0.0079,-0.1443533 -0.02344,-0.2128906 -0.007,-0.030867 -0.02787,-0.05518 -0.03516,-0.085937 a 1,1 0 0 0 -0.05859,-0.140625 C 20.559168,5.2195055 16.662028,2 12,2 Z m 0,2 c 3.346258,0 6.099268,2.0975916 7.296875,5 H 15 a 1,1 0 0 0 -1,1 1,1 0 0 0 1,1 h 4.888672 C 19.930671,11.332067 20,11.655675 20,12 c 0,4.430165 -3.569835,8 -8,8 -1.359243,0 -2.5854483,-0.404971 -3.703125,-1 H 11 a 1,1 0 0 0 1,-1 1,1 0 0 0 -1,-1 H 5.8066406 C 5.3211624,16.39928 4.9429823,15.724964 4.6464844,15 H 13 a 1,1 0 0 0 1,-1 1,1 0 0 0 -1,-1 H 4.1113281 C 4.0693326,12.667954 4,12.344346 4,12 4,10.086793 4.7165023,8.3749906 5.8320312,7 H 12 A 1,1 0 0 0 13,6 1,1 0 0 0 12,5 H 8.296875 C 9.4145476,4.4049769 10.64075,4 12,4 Z m -2,5 a 1,1 0 0 0 -1,1 1,1 0 0 0 1,1 h 2 a 1,1 0 0 0 1,-1 1,1 0 0 0 -1,-1 z"
   id="path2" />
<path
   style="color:#000000;fill:#000000;stroke-linecap:round;stroke-linejoin:round;-inkscape-stroke:none"
   d="m 7,9 a 1,1 0 0 0 -0.7070313,0.2929688 1,1 0 0 0 0,1.4140622 1,1 0 0 0 1.4140625,0 1,1 0 0 0 0,-1.4140622 A 1,1 0 0 0 7,9 Z"
   id="path4" />
<path
   style="color:#000000;fill:#000000;stroke-linecap:round;stroke-linejoin:round;-inkscape-stroke:none"
   d="m 16,13 a 1,1 0 0 0 -0.707031,0.292969 1,1 0 0 0 0,1.414062 1,1 0 0 0 1.414062,0 1,1 0 0 0 0,-1.414062 A 1,1 0 0 0 16,13 Z"
   id="path6" />
<path
   id="_StrokeToPathSelectorObject" />
d=&quot;M0 0 H 0&quot;/&gt;
    </svg>
