<?xml version="1.0" encoding="UTF-8" standalone="no"?>
<svg
   width="24"
   height="24"
   viewBox="0 0 24 24"
   fill="none"
   version="1.1"
   id="svg14"
   sodipodi:docname="planet-rocket-line.svg"
   inkscape:version="1.1.1 (c3084ef, 2021-09-22)"
   xmlns:inkscape="http://www.inkscape.org/namespaces/inkscape"
   xmlns:sodipodi="http://sodipodi.sourceforge.net/DTD/sodipodi-0.dtd"
   xmlns="http://www.w3.org/2000/svg"
   xmlns:svg="http://www.w3.org/2000/svg"><sodipodi:namedview
   id="namedview16"
   pagecolor="#ffffff"
   bordercolor="#666666"
   borderopacity="1.0"
   inkscape:pageshadow="2"
   inkscape:pageopacity="0.0"
   inkscape:pagecheckerboard="0"
   showgrid="false"
   inkscape:zoom="32.75"
   inkscape:cx="11.984733"
   inkscape:cy="12"
   inkscape:window-width="1296"
   inkscape:window-height="1067"
   inkscape:window-x="0"
   inkscape:window-y="25"
   inkscape:window-maximized="0"
   inkscape:current-layer="svg14" />
<g
   clip-path="url(#clip0_201_1459)"
   id="g6">
  <path
     style="color:#000000;fill:#000000;stroke-linecap:round;stroke-linejoin:round;-inkscape-stroke:none"
     d="m 22.228516,7.5742187 -1.402344,0.3183594 c -1.656939,0.3753846 -3.173632,1.2126041 -4.375,2.4140629 l -1.919922,1.919922 c -0.438861,-0.201816 -0.895113,-0.329057 -1.339844,-0.330079 -0.753604,-0.0017 -1.460163,0.207792 -2.101562,0.480469 -1.2827989,0.545355 -2.2913831,1.324395 -2.7871096,1.806641 a 1.0001,1.0001 0 0 0 0.2480469,1.609375 l 2.7031247,1.359375 2.59375,2.59375 1.328125,2.669922 a 1.0001,1.0001 0 0 0 1.591797,0.271484 c 0.508185,-0.494127 1.285796,-1.478645 1.835938,-2.751953 0.27507,-0.636654 0.486703,-1.341315 0.482421,-2.095703 -0.0025,-0.445836 -0.132865,-0.904211 -0.33789,-1.34375 l 1.945312,-1.947266 c 1.201431,-1.201431 2.038669,-2.718035 2.414063,-4.375 L 23.425781,8.7714844 A 1.0001,1.0001 0 0 0 22.228516,7.5742187 Z m -1.140625,2.3378907 c -0.310958,1.2152626 -0.919814,2.3338756 -1.808594,3.2226566 l -2.486328,2.486328 -0.01563,0.01563 -2.105469,2.105468 -1.414062,-1.414062 2.121093,-2.121094 0.01367,-0.01367 2.472656,-2.472656 c 0.88865,-0.888716 2.007414,-1.497642 3.222657,-1.8085936 z m -8.332032,4.0898436 -1.109375,1.109375 -0.652343,-0.328125 c 0.34536,-0.223126 0.491545,-0.401728 0.878906,-0.566406 0.322327,-0.137031 0.59845,-0.165471 0.882812,-0.214844 z m 4.230469,4.255859 c -0.04753,0.283364 -0.07964,0.560834 -0.21875,0.882813 -0.163986,0.379547 -0.33838,0.51623 -0.5625,0.853516 l -0.318359,-0.638672 z"
     id="path2" />
  <path
     style="color:#000000;fill:#000000;stroke-linecap:round;stroke-linejoin:round;-inkscape-stroke:none"
     d="M 17.230469,0.94335938 C 16.771419,0.89940363 16.28807,0.977556 15.826172,1.1054687 14.902376,1.3612942 13.890422,1.8657333 12.779297,2.5683594 a 1,1 0 0 0 -0.0078,0.033203 C 9.9243895,1.5404775 6.6250641,2.0624359 4.34375,4.34375 2.0656989,6.6218011 1.5409271,9.9153271 2.5957031,12.759766 a 1,1 0 0 0 -0.027344,0.01953 c -0.7026267,1.111126 -1.2070668,2.12308 -1.4628907,3.046875 -0.25582379,0.923795 -0.31317886,1.934912 0.4101563,2.658203 0.6432097,0.64321 1.5439274,0.661164 2.3535156,0.486328 0.8095882,-0.174836 1.6751444,-0.557685 2.6269531,-1.101562 A 1,1 0 0 0 6.8691406,16.503906 1,1 0 0 0 5.5039062,16.130859 c -0.8397094,0.479822 -1.57141,0.779977 -2.0566406,0.884766 -0.4852305,0.104789 -0.5749884,-0.0027 -0.5175781,0.05469 0.064596,0.06459 -0.06674,-0.09613 0.1035156,-0.710937 0.1055056,-0.380987 0.4704321,-1.001944 0.7597657,-1.556641 a 1,1 0 0 0 1.0332031,0.01758 1,1 0 0 0 0.2480468,-1.392579 C 3.4424155,11.089477 3.662522,7.853103 5.7578125,5.7578125 7.8530887,3.6625363 11.089596,3.4424644 13.427734,5.0742187 a 1,1 0 0 0 1.392579,-0.2480468 1,1 0 0 0 0.04101,-1.0605469 c 0.52909,-0.2722165 1.13128,-0.6308536 1.498047,-0.7324219 0.614803,-0.1702566 0.775527,-0.038921 0.710937,-0.1035156 -0.04338,-0.043376 0.0082,-0.045547 -0.0098,0.2128906 -0.018,0.2584374 -0.128438,0.6970619 -0.355469,1.2265625 -0.454063,1.0590013 -1.346974,2.4844127 -2.5625,4.0078125 A 1,1 0 0 0 14.300781,9.78125 1,1 0 0 0 15.705078,9.6230469 C 16.99835,8.0022098 17.975882,6.480807 18.542969,5.1582031 18.826512,4.4969012 19.014559,3.8854365 19.056641,3.28125 19.098722,2.6770635 18.970554,2.0017655 18.484375,1.515625 18.122731,1.1539532 17.689518,0.98731512 17.230469,0.94335938 Z"
     id="path4" />
</g>
<defs
   id="defs11">
  <clipPath
     id="clip0_201_1459">
    <rect
       width="24"
       height="24"
       fill="white"
       id="rect8" />
  </clipPath>
</defs>
<path
   id="_StrokeToPathSelectorObject" />
d=&quot;M0 0 H 0&quot;/&gt;
    </svg>
