<?xml version="1.0" encoding="UTF-8" standalone="no"?>
<svg
   width="24"
   height="24"
   viewBox="0 0 24 24"
   fill="none"
   version="1.1"
   id="svg9"
   sodipodi:docname="plus-minus-2-line.svg"
   inkscape:version="1.1.1 (c3084ef, 2021-09-22)"
   xmlns:inkscape="http://www.inkscape.org/namespaces/inkscape"
   xmlns:sodipodi="http://sodipodi.sourceforge.net/DTD/sodipodi-0.dtd"
   xmlns="http://www.w3.org/2000/svg"
   xmlns:svg="http://www.w3.org/2000/svg"><defs
   id="defs13" />
<sodipodi:namedview
   id="namedview11"
   pagecolor="#ffffff"
   bordercolor="#666666"
   borderopacity="1.0"
   inkscape:pageshadow="2"
   inkscape:pageopacity="0.0"
   inkscape:pagecheckerboard="0"
   showgrid="false"
   inkscape:zoom="32.75"
   inkscape:cx="11.984733"
   inkscape:cy="12"
   inkscape:window-width="1296"
   inkscape:window-height="1067"
   inkscape:window-x="0"
   inkscape:window-y="25"
   inkscape:window-maximized="0"
   inkscape:current-layer="svg9" />
<path
   style="color:#000000;fill:#000000;stroke-linecap:round;stroke-linejoin:round;-inkscape-stroke:none"
   d="M 19.292969,3.2929688 3.2929688,19.292969 a 1,1 0 0 0 0,1.414062 1,1 0 0 0 1.4140624,0 L 20.707031,4.7070312 a 1,1 0 0 0 0,-1.4140624 1,1 0 0 0 -1.414062,0 z"
   id="path2" />
<path
   style="color:#000000;fill:#000000;stroke-linecap:round;stroke-linejoin:round;-inkscape-stroke:none"
   d="M 7,3 A 1,1 0 0 0 6,4 V 6 H 4 A 1,1 0 0 0 3,7 1,1 0 0 0 4,8 h 2 v 2 a 1,1 0 0 0 1,1 1,1 0 0 0 1,-1 V 8 h 2 A 1,1 0 0 0 11,7 1,1 0 0 0 10,6 H 8 V 4 A 1,1 0 0 0 7,3 Z"
   id="path4" />
<path
   style="color:#000000;fill:#000000;stroke-linecap:round;stroke-linejoin:round;-inkscape-stroke:none"
   d="m 14,16 a 1,1 0 0 0 -1,1 1,1 0 0 0 1,1 h 3 3 a 1,1 0 0 0 1,-1 1,1 0 0 0 -1,-1 h -3 z"
   id="path6" />
<path
   id="_StrokeToPathSelectorObject" />
d=&quot;M0 0 H 0&quot;/&gt;
    </svg>
