<?xml version="1.0" encoding="UTF-8" standalone="no"?>
<svg
   width="24"
   height="24"
   viewBox="0 0 24 24"
   fill="none"
   version="1.1"
   id="svg7"
   sodipodi:docname="pound-circle-line.svg"
   inkscape:version="1.1.1 (c3084ef, 2021-09-22)"
   xmlns:inkscape="http://www.inkscape.org/namespaces/inkscape"
   xmlns:sodipodi="http://sodipodi.sourceforge.net/DTD/sodipodi-0.dtd"
   xmlns="http://www.w3.org/2000/svg"
   xmlns:svg="http://www.w3.org/2000/svg"><defs
   id="defs11" />
<sodipodi:namedview
   id="namedview9"
   pagecolor="#ffffff"
   bordercolor="#666666"
   borderopacity="1.0"
   inkscape:pageshadow="2"
   inkscape:pageopacity="0.0"
   inkscape:pagecheckerboard="0"
   showgrid="false"
   inkscape:zoom="32.75"
   inkscape:cx="11.984733"
   inkscape:cy="12"
   inkscape:window-width="1296"
   inkscape:window-height="1067"
   inkscape:window-x="0"
   inkscape:window-y="25"
   inkscape:window-maximized="0"
   inkscape:current-layer="svg7" />
<path
   style="color:#000000;fill:#000000;stroke-linecap:round;stroke-linejoin:round;-inkscape-stroke:none"
   d="M 12,1 C 5.9367165,1 1,5.9367165 1,12 1,18.063238 5.9367105,23 12,23 18.063244,23 23,18.063244 23,12 23,5.9367105 18.063238,1 12,1 Z m 0,2 c 4.982351,0 9,4.0176006 9,9 0,4.982345 -4.017655,9 -9,9 C 7.0176006,21 3,16.982351 3,12 3,7.0175946 7.0175946,3 12,3 Z"
   id="path2" />
<path
   style="color:#000000;fill:#000000;stroke-linecap:round;stroke-linejoin:round;-inkscape-stroke:none"
   d="M 13,6 C 12.466661,6 11.805019,6.1278038 11.166016,6.5878906 10.527013,7.0479774 10,7.9222302 10,9 v 2 H 9 a 1,1 0 0 0 -1,1 1,1 0 0 0 1,1 h 1 v 1 c 0,0.13336 -0.071025,0.471695 -0.2109375,0.666016 C 9.6491499,14.860337 9.5222286,15 9,15 a 1.0001,1.0001 0 0 0 0,2 h 6 a 1,1 0 0 0 1,-1 1,1 0 0 0 -1,-1 H 11.679688 C 11.788969,14.657304 12,14.290789 12,14 v -1 h 1 a 1,1 0 0 0 1,-1 1,1 0 0 0 -1,-1 H 12 V 9 C 12,8.4777714 12.139663,8.3508501 12.333984,8.2109375 12.528305,8.0710249 12.86664,8 13,8 13.13336,8 13.471695,8.0710249 13.666016,8.2109375 13.860337,8.3508501 14,8.4777714 14,9 a 1,1 0 0 0 1,1 1,1 0 0 0 1,-1 C 16,7.9222302 15.472987,7.0479774 14.833984,6.5878906 14.194981,6.1278038 13.533339,6 13,6 Z"
   id="path4" />
<path
   id="_StrokeToPathSelectorObject" />
d=&quot;M0 0 H 0&quot;/&gt;
    </svg>
