<?xml version="1.0" encoding="UTF-8" standalone="no"?>
<svg
   width="24"
   height="24"
   viewBox="0 0 24 24"
   fill="none"
   version="1.1"
   id="svg5"
   sodipodi:docname="presentation-line.svg"
   inkscape:version="1.1.1 (c3084ef, 2021-09-22)"
   xmlns:inkscape="http://www.inkscape.org/namespaces/inkscape"
   xmlns:sodipodi="http://sodipodi.sourceforge.net/DTD/sodipodi-0.dtd"
   xmlns="http://www.w3.org/2000/svg"
   xmlns:svg="http://www.w3.org/2000/svg"><defs
   id="defs9" />
<sodipodi:namedview
   id="namedview7"
   pagecolor="#ffffff"
   bordercolor="#666666"
   borderopacity="1.0"
   inkscape:pageshadow="2"
   inkscape:pageopacity="0.0"
   inkscape:pagecheckerboard="0"
   showgrid="false"
   inkscape:zoom="32.75"
   inkscape:cx="11.984733"
   inkscape:cy="12"
   inkscape:window-width="1296"
   inkscape:window-height="1067"
   inkscape:window-x="0"
   inkscape:window-y="25"
   inkscape:window-maximized="0"
   inkscape:current-layer="svg5" />
<path
   style="color:#000000;fill:#000000;stroke-linecap:round;stroke-linejoin:round;-inkscape-stroke:none"
   d="M 3,2 A 1,1 0 0 0 2,3 1,1 0 0 0 3,4 v 11 a 1.0001,1.0001 0 0 0 1,1 h 4.6113281 l -1.5605469,4.683594 a 1,1 0 0 0 0.6328125,1.265625 1,1 0 0 0 1.2656251,-0.632813 L 10.720703,16 h 2.558594 l 1.771484,5.316406 a 1,1 0 0 0 1.265625,0.632813 1,1 0 0 0 0.632813,-1.265625 L 15.388672,16 H 20 a 1.0001,1.0001 0 0 0 1,-1 V 4 A 1,1 0 0 0 22,3 1,1 0 0 0 21,2 H 20 4 Z M 5,4 H 19 V 14 H 14 10 5 Z"
   id="path2" />
<path
   id="_StrokeToPathSelectorObject" />
d=&quot;M0 0 H 0&quot;/&gt;
    </svg>
