<?xml version="1.0" encoding="UTF-8" standalone="no"?>
<svg
   width="24"
   height="24"
   viewBox="0 0 24 24"
   fill="none"
   version="1.1"
   id="svg5"
   sodipodi:docname="pulse-line.svg"
   inkscape:version="1.1.1 (c3084ef, 2021-09-22)"
   xmlns:inkscape="http://www.inkscape.org/namespaces/inkscape"
   xmlns:sodipodi="http://sodipodi.sourceforge.net/DTD/sodipodi-0.dtd"
   xmlns="http://www.w3.org/2000/svg"
   xmlns:svg="http://www.w3.org/2000/svg"><defs
   id="defs9" />
<sodipodi:namedview
   id="namedview7"
   pagecolor="#ffffff"
   bordercolor="#666666"
   borderopacity="1.0"
   inkscape:pageshadow="2"
   inkscape:pageopacity="0.0"
   inkscape:pagecheckerboard="0"
   showgrid="false"
   inkscape:zoom="32.75"
   inkscape:cx="11.984733"
   inkscape:cy="12"
   inkscape:window-width="1296"
   inkscape:window-height="1067"
   inkscape:window-x="0"
   inkscape:window-y="25"
   inkscape:window-maximized="0"
   inkscape:current-layer="svg5" />
<path
   style="color:#000000;fill:#000000;stroke-linecap:round;stroke-linejoin:round;-inkscape-stroke:none"
   d="M 13.9375,4.0019531 A 1.0001,1.0001 0 0 0 13.039063,4.7246094 L 9.8125,16.019531 7.9199219,11.605469 A 1.0001,1.0001 0 0 0 7,11 H 3 a 1,1 0 0 0 -1,1 1,1 0 0 0 1,1 h 3.3398437 l 2.7402344,6.394531 a 1.0001,1.0001 0 0 0 1.8808599,-0.11914 L 14.1875,7.9804687 16.080078,12.394531 A 1.0001,1.0001 0 0 0 17,13 h 4 a 1,1 0 0 0 1,-1 1,1 0 0 0 -1,-1 H 17.660156 L 14.919922,4.6054687 A 1.0001,1.0001 0 0 0 13.9375,4.0019531 Z"
   id="path2" />
<path
   id="_StrokeToPathSelectorObject" />
d=&quot;M0 0 H 0&quot;/&gt;
    </svg>
