<?xml version="1.0" encoding="UTF-8" standalone="no"?>
<svg
   width="24"
   height="24"
   viewBox="0 0 24 24"
   fill="none"
   version="1.1"
   id="svg13"
   sodipodi:docname="radio-list-line.svg"
   inkscape:version="1.1.1 (c3084ef, 2021-09-22)"
   xmlns:inkscape="http://www.inkscape.org/namespaces/inkscape"
   xmlns:sodipodi="http://sodipodi.sourceforge.net/DTD/sodipodi-0.dtd"
   xmlns="http://www.w3.org/2000/svg"
   xmlns:svg="http://www.w3.org/2000/svg"><defs
   id="defs17" />
<sodipodi:namedview
   id="namedview15"
   pagecolor="#ffffff"
   bordercolor="#666666"
   borderopacity="1.0"
   inkscape:pageshadow="2"
   inkscape:pageopacity="0.0"
   inkscape:pagecheckerboard="0"
   showgrid="false"
   inkscape:zoom="32.75"
   inkscape:cx="11.984733"
   inkscape:cy="12"
   inkscape:window-width="1296"
   inkscape:window-height="1067"
   inkscape:window-x="0"
   inkscape:window-y="25"
   inkscape:window-maximized="0"
   inkscape:current-layer="svg13" />
<path
   style="color:#000000;fill:#000000;stroke-linecap:round;stroke-linejoin:round;-inkscape-stroke:none"
   d="m 11,4 a 1,1 0 0 0 -1,1 1,1 0 0 0 1,1 H 21 A 1,1 0 0 0 22,5 1,1 0 0 0 21,4 Z m 0,7 a 1,1 0 0 0 -1,1 1,1 0 0 0 1,1 h 10 a 1,1 0 0 0 1,-1 1,1 0 0 0 -1,-1 z m 0,7 a 1,1 0 0 0 -1,1 1,1 0 0 0 1,1 h 10 a 1,1 0 0 0 1,-1 1,1 0 0 0 -1,-1 z"
   id="path2" />
<path
   style="color:#000000;fill:#000000;stroke-linecap:round;stroke-linejoin:round;-inkscape-stroke:none"
   d="M 5,2 C 3.354992,2 2,3.354992 2,5 2,6.645008 3.354992,8 5,8 6.645008,8 8,6.645008 8,5 8,3.354992 6.645008,2 5,2 Z M 5,4 C 5.5641288,4 6,4.4358712 6,5 6,5.5641288 5.5641288,6 5,6 4.4358712,6 4,5.5641288 4,5 4,4.4358712 4.4358712,4 5,4 Z"
   id="circle4" />
<path
   style="color:#000000;fill:#000000;stroke-linecap:round;stroke-linejoin:round;-inkscape-stroke:none"
   d="M 5,2 C 3.354992,2 2,3.354992 2,5 2,6.645008 3.354992,8 5,8 6.645008,8 8,6.645008 8,5 8,3.354992 6.645008,2 5,2 Z M 5,4 C 5.5641288,4 6,4.4358712 6,5 6,5.5641288 5.5641288,6 5,6 4.4358712,6 4,5.5641288 4,5 4,4.4358712 4.4358712,4 5,4 Z"
   id="circle6" />
<path
   style="color:#000000;fill:#000000;stroke-linecap:round;stroke-linejoin:round;-inkscape-stroke:none"
   d="m 5,9 c -1.645008,0 -3,1.354992 -3,3 0,1.645008 1.354992,3 3,3 1.645008,0 3,-1.354992 3,-3 C 8,10.354992 6.645008,9 5,9 Z m 0,2 c 0.5641288,0 1,0.435871 1,1 0,0.564129 -0.4358712,1 -1,1 -0.5641288,0 -1,-0.435871 -1,-1 0,-0.564129 0.4358712,-1 1,-1 z"
   id="circle8" />
<path
   style="color:#000000;fill:#000000;stroke-linecap:round;stroke-linejoin:round;-inkscape-stroke:none"
   d="m 5,16 c -1.645008,0 -3,1.354992 -3,3 0,1.645008 1.354992,3 3,3 1.645008,0 3,-1.354992 3,-3 0,-1.645008 -1.354992,-3 -3,-3 z m 0,2 c 0.5641288,0 1,0.435871 1,1 0,0.564129 -0.4358712,1 -1,1 -0.5641288,0 -1,-0.435871 -1,-1 0,-0.564129 0.4358712,-1 1,-1 z"
   id="circle10" />
<path
   id="_StrokeToPathSelectorObject" />
d=&quot;M0 0 H 0&quot;/&gt;
    </svg>
