<?xml version="1.0" encoding="UTF-8" standalone="no"?>
<svg
   width="24"
   height="24"
   viewBox="0 0 24 24"
   fill="none"
   version="1.1"
   id="svg5"
   sodipodi:docname="redo-line.svg"
   inkscape:version="1.1.1 (c3084ef, 2021-09-22)"
   xmlns:inkscape="http://www.inkscape.org/namespaces/inkscape"
   xmlns:sodipodi="http://sodipodi.sourceforge.net/DTD/sodipodi-0.dtd"
   xmlns="http://www.w3.org/2000/svg"
   xmlns:svg="http://www.w3.org/2000/svg"><defs
   id="defs9" />
<sodipodi:namedview
   id="namedview7"
   pagecolor="#ffffff"
   bordercolor="#666666"
   borderopacity="1.0"
   inkscape:pageshadow="2"
   inkscape:pageopacity="0.0"
   inkscape:pagecheckerboard="0"
   showgrid="false"
   inkscape:zoom="32.75"
   inkscape:cx="11.984733"
   inkscape:cy="12"
   inkscape:window-width="1296"
   inkscape:window-height="1067"
   inkscape:window-x="0"
   inkscape:window-y="25"
   inkscape:window-maximized="0"
   inkscape:current-layer="svg5" />
<path
   style="color:#000000;fill:#000000;stroke-linecap:round;stroke-linejoin:round;-inkscape-stroke:none"
   d="M 12,7 C 9.4318864,7 7.2578291,8.0008536 5.7226562,9.625 4.1874834,11.249146 3.2745445,13.460014 3.0058594,15.890625 A 1,1 0 0 0 3.890625,16.994141 1,1 0 0 0 4.9941406,16.109375 C 5.222895,14.039991 5.9934543,12.250851 7.1757812,11 8.3581082,9.7491493 9.9355682,9 12,9 c 1.93038,0 4.430738,1.635764 5.832031,4 H 15 a 1,1 0 0 0 -1,1 1,1 0 0 0 1,1 h 5 a 1.0001,1.0001 0 0 0 1,-1 V 9 A 1,1 0 0 0 20,8 1,1 0 0 0 19,9 v 2.058594 C 17.242506,8.6148895 14.601361,7 12,7 Z"
   id="path2" />
<path
   id="_StrokeToPathSelectorObject" />
d=&quot;M0 0 H 0&quot;/&gt;
    </svg>
