<?xml version="1.0" encoding="UTF-8" standalone="no"?>
<svg
   width="24"
   height="24"
   viewBox="0 0 24 24"
   fill="none"
   version="1.1"
   id="svg5"
   sodipodi:docname="reload-line.svg"
   inkscape:version="1.1.1 (c3084ef, 2021-09-22)"
   xmlns:inkscape="http://www.inkscape.org/namespaces/inkscape"
   xmlns:sodipodi="http://sodipodi.sourceforge.net/DTD/sodipodi-0.dtd"
   xmlns="http://www.w3.org/2000/svg"
   xmlns:svg="http://www.w3.org/2000/svg"><defs
   id="defs9" />
<sodipodi:namedview
   id="namedview7"
   pagecolor="#ffffff"
   bordercolor="#666666"
   borderopacity="1.0"
   inkscape:pageshadow="2"
   inkscape:pageopacity="0.0"
   inkscape:pagecheckerboard="0"
   showgrid="false"
   inkscape:zoom="32.75"
   inkscape:cx="11.984733"
   inkscape:cy="12"
   inkscape:window-width="1296"
   inkscape:window-height="1067"
   inkscape:window-x="0"
   inkscape:window-y="25"
   inkscape:window-maximized="0"
   inkscape:current-layer="svg5" />
<path
   style="color:#000000;fill:#000000;stroke-linecap:round;stroke-linejoin:round;-inkscape-stroke:none"
   d="m 16.292969,2.2929688 a 1,1 0 0 0 0,1.4140625 L 17.585937,5 H 11.5 C 6.8174258,5 3,8.8174258 3,13.5 3,18.182539 6.8174194,22 11.5,22 16.182546,22 20,18.182546 20,13.5 a 1,1 0 0 0 -1,-1 1,1 0 0 0 -1,1 C 18,17.101646 15.101646,20 11.5,20 7.8983089,20 5,17.101652 5,13.5 5,9.8983024 7.8983024,7 11.5,7 h 6.085937 l -1.292968,1.2929688 a 1,1 0 0 0 0,1.4140625 1,1 0 0 0 1.414062,0 l 3,-3.0000001 A 1,1 0 0 0 20.966797,6.0800781 1,1 0 0 0 21,6 1,1 0 0 0 20.966797,5.8339844 1,1 0 0 0 20.939453,5.6914062 1,1 0 0 0 20.707031,5.2929687 l -3,-2.9999999 a 1,1 0 0 0 -1.414062,0 z"
   id="path2" />
<path
   id="_StrokeToPathSelectorObject" />
d=&quot;M0 0 H 0&quot;/&gt;
    </svg>
