<?xml version="1.0" encoding="UTF-8" standalone="no"?>
<svg
   width="24"
   height="24"
   viewBox="0 0 24 24"
   fill="none"
   version="1.1"
   id="svg7"
   sodipodi:docname="reload-circle-line.svg"
   inkscape:version="1.1.1 (c3084ef, 2021-09-22)"
   xmlns:inkscape="http://www.inkscape.org/namespaces/inkscape"
   xmlns:sodipodi="http://sodipodi.sourceforge.net/DTD/sodipodi-0.dtd"
   xmlns="http://www.w3.org/2000/svg"
   xmlns:svg="http://www.w3.org/2000/svg"><defs
   id="defs11" />
<sodipodi:namedview
   id="namedview9"
   pagecolor="#ffffff"
   bordercolor="#666666"
   borderopacity="1.0"
   inkscape:pageshadow="2"
   inkscape:pageopacity="0.0"
   inkscape:pagecheckerboard="0"
   showgrid="false"
   inkscape:zoom="32.75"
   inkscape:cx="11.984733"
   inkscape:cy="12"
   inkscape:window-width="1296"
   inkscape:window-height="1067"
   inkscape:window-x="0"
   inkscape:window-y="25"
   inkscape:window-maximized="0"
   inkscape:current-layer="svg7" />
<path
   style="color:#000000;fill:#000000;stroke-linecap:round;stroke-linejoin:round;-inkscape-stroke:none"
   d="M 12,2 C 6.4890026,2 2,6.4890026 2,12 2,17.510997 6.4890026,22 12,22 17.510997,22 22,17.510997 22,12 22,6.4890026 17.510997,2 12,2 Z m 0,2 c 4.430118,0 8,3.5698818 8,8 0,4.430118 -3.569882,8 -8,8 C 7.5698818,20 4,16.430118 4,12 4,7.5698818 7.5698818,4 12,4 Z"
   id="circle2" />
<path
   style="color:#000000;fill:#000000;stroke-linecap:round;stroke-linejoin:round;-inkscape-stroke:none"
   d="m 13,7 a 1,1 0 0 0 -0.707031,0.2929687 1,1 0 0 0 0,1.4140626 L 12.585938,9 H 12 C 11.300001,9 10.388353,9.1789796 9.5410156,9.7890625 8.6936783,10.399145 8,11.522224 8,13 8,14.477776 8.6936783,15.600855 9.5410156,16.210937 10.388353,16.82102 11.300001,17 12,17 c 0.747362,0 1.743666,-0.200779 2.628906,-0.917969 a 1,1 0 0 0 0.148438,-1.40625 1,1 0 0 0 -1.40625,-0.148437 C 12.961535,14.859153 12.320237,15 12,15 11.7,15 11.111646,14.877807 10.708984,14.587891 10.306323,14.297974 10,13.922221 10,13 10,12.077779 10.306323,11.702026 10.708984,11.412109 11.111646,11.122193 11.7,11 12,11 h 0.585938 l -0.292969,0.292969 a 1,1 0 0 0 0,1.414062 1,1 0 0 0 1.414062,0 l 2,-2 a 1.0001,1.0001 0 0 0 0,-1.4140622 l -2,-2.0000001 A 1,1 0 0 0 13,7 Z"
   id="path4" />
<path
   id="_StrokeToPathSelectorObject" />
d=&quot;M0 0 H 0&quot;/&gt;
    </svg>
