<?xml version="1.0" encoding="UTF-8" standalone="no"?>
<svg
   width="24"
   height="24"
   viewBox="0 0 24 24"
   fill="none"
   version="1.1"
   id="svg7"
   sodipodi:docname="remove-format-line.svg"
   inkscape:version="1.1.1 (c3084ef, 2021-09-22)"
   xmlns:inkscape="http://www.inkscape.org/namespaces/inkscape"
   xmlns:sodipodi="http://sodipodi.sourceforge.net/DTD/sodipodi-0.dtd"
   xmlns="http://www.w3.org/2000/svg"
   xmlns:svg="http://www.w3.org/2000/svg"><defs
   id="defs11" />
<sodipodi:namedview
   id="namedview9"
   pagecolor="#ffffff"
   bordercolor="#666666"
   borderopacity="1.0"
   inkscape:pageshadow="2"
   inkscape:pageopacity="0.0"
   inkscape:pagecheckerboard="0"
   showgrid="false"
   inkscape:zoom="32.75"
   inkscape:cx="11.984733"
   inkscape:cy="12"
   inkscape:window-width="1296"
   inkscape:window-height="1067"
   inkscape:window-x="0"
   inkscape:window-y="25"
   inkscape:window-maximized="0"
   inkscape:current-layer="svg7" />
<path
   style="color:#000000;fill:#000000;stroke-linecap:round;stroke-linejoin:round;-inkscape-stroke:none"
   d="M 9,5 A 1,1 0 0 0 8,6 1,1 0 0 0 9,7 h 3.611328 l -1.560547,4.683594 a 1,1 0 0 0 0.632813,1.265625 1,1 0 0 0 1.265625,-0.632813 L 14.720703,7 H 19 A 1,1 0 0 0 20,6 1,1 0 0 0 19,5 h -5 z m 1.982422,10.050781 A 1,1 0 0 0 9.71875,15.683594 l -0.6679687,2 a 1,1 0 0 0 0.6328125,1.265625 1,1 0 0 0 1.2656252,-0.632813 l 0.666015,-2 a 1,1 0 0 0 -0.632812,-1.265625 z"
   id="path2" />
<path
   style="color:#000000;fill:#000000;stroke-linecap:round;stroke-linejoin:round;-inkscape-stroke:none"
   d="m 5,4 a 1,1 0 0 0 -0.7070313,0.2929687 1,1 0 0 0 0,1.4140625 L 18.292969,19.707031 a 1,1 0 0 0 1.414062,0 1,1 0 0 0 0,-1.414062 L 5.7070312,4.2929687 A 1,1 0 0 0 5,4 Z"
   id="path4" />
<path
   id="_StrokeToPathSelectorObject" />
d=&quot;M0 0 H 0&quot;/&gt;
    </svg>
