<?xml version="1.0" encoding="UTF-8" standalone="no"?>
<svg
   width="24"
   height="24"
   viewBox="0 0 24 24"
   fill="none"
   version="1.1"
   id="svg7"
   sodipodi:docname="remove-column-line.svg"
   inkscape:version="1.1.1 (c3084ef, 2021-09-22)"
   xmlns:inkscape="http://www.inkscape.org/namespaces/inkscape"
   xmlns:sodipodi="http://sodipodi.sourceforge.net/DTD/sodipodi-0.dtd"
   xmlns="http://www.w3.org/2000/svg"
   xmlns:svg="http://www.w3.org/2000/svg"><defs
   id="defs11" />
<sodipodi:namedview
   id="namedview9"
   pagecolor="#ffffff"
   bordercolor="#666666"
   borderopacity="1.0"
   inkscape:pageshadow="2"
   inkscape:pageopacity="0.0"
   inkscape:pagecheckerboard="0"
   showgrid="false"
   inkscape:zoom="32.75"
   inkscape:cx="11.984733"
   inkscape:cy="12"
   inkscape:window-width="1296"
   inkscape:window-height="1067"
   inkscape:window-x="0"
   inkscape:window-y="25"
   inkscape:window-maximized="0"
   inkscape:current-layer="svg7" />
<path
   style="color:#000000;fill:#000000;stroke-linecap:round;stroke-linejoin:round;-inkscape-stroke:none"
   d="M 3,2 A 1,1 0 0 0 2,3 1,1 0 0 0 3,4 H 5 V 8 H 3 a 1,1 0 0 0 -1,1 1,1 0 0 0 1,1 h 2 v 4 H 3 a 1,1 0 0 0 -1,1 1,1 0 0 0 1,1 h 2 v 4 H 3 a 1,1 0 0 0 -1,1 1,1 0 0 0 1,1 h 3 4 c 1.645005,0 3,-1.354995 3,-3 V 15 9 5 C 13,3.3550102 11.645023,2 10,2 H 6 Z m 4,2 h 3 c 0.564175,0 1,0.435852 1,1 V 8 H 7 Z m 0,6 h 4 v 4 H 7 Z m 0,6 h 4 v 3 c 0,0.564193 -0.435807,1 -1,1 H 7 Z"
   id="path2" />
<path
   style="color:#000000;fill:#000000;stroke-linecap:round;stroke-linejoin:round;-inkscape-stroke:none"
   d="m 15,8 a 1,1 0 0 0 -0.707031,0.2929688 1,1 0 0 0 0,1.4140625 L 16.585937,12 14.292969,14.292969 a 1,1 0 0 0 0,1.414062 1,1 0 0 0 1.414062,0 L 18,13.414063 l 2.292969,2.292968 a 1,1 0 0 0 1.414062,0 1,1 0 0 0 0,-1.414062 L 19.414062,12 21.707031,9.7070313 a 1,1 0 0 0 0,-1.4140625 1,1 0 0 0 -1.414062,0 L 18,10.585938 15.707031,8.2929688 A 1,1 0 0 0 15,8 Z"
   id="path4" />
<path
   id="_StrokeToPathSelectorObject" />
d=&quot;M0 0 H 0&quot;/&gt;
    </svg>
