<?xml version="1.0" encoding="UTF-8" standalone="no"?>
<svg
   width="24"
   height="24"
   viewBox="0 0 24 24"
   fill="none"
   version="1.1"
   id="svg5"
   sodipodi:docname="restricted-line.svg"
   inkscape:version="1.1.1 (c3084ef, 2021-09-22)"
   xmlns:inkscape="http://www.inkscape.org/namespaces/inkscape"
   xmlns:sodipodi="http://sodipodi.sourceforge.net/DTD/sodipodi-0.dtd"
   xmlns="http://www.w3.org/2000/svg"
   xmlns:svg="http://www.w3.org/2000/svg"><defs
   id="defs9" />
<sodipodi:namedview
   id="namedview7"
   pagecolor="#ffffff"
   bordercolor="#666666"
   borderopacity="1.0"
   inkscape:pageshadow="2"
   inkscape:pageopacity="0.0"
   inkscape:pagecheckerboard="0"
   showgrid="false"
   inkscape:zoom="32.75"
   inkscape:cx="11.984733"
   inkscape:cy="12"
   inkscape:window-width="1296"
   inkscape:window-height="1067"
   inkscape:window-x="0"
   inkscape:window-y="25"
   inkscape:window-maximized="0"
   inkscape:current-layer="svg5" />
<path
   style="color:#000000;fill:#000000;stroke-linecap:round;stroke-linejoin:round;-inkscape-stroke:none"
   d="M 12,2 C 9.2445024,2 6.7382003,3.1211747 4.9296875,4.9296875 3.1211747,6.7382003 2,9.2445024 2,12 c 0,5.511031 4.4890101,10 10,10 2.755526,0 5.261791,-1.121277 7.070312,-2.929688 C 20.878723,17.261791 22,14.755526 22,12 22,6.4890101 17.511031,2 12,2 Z m 0,2 c 4.430159,0 8,3.5698798 8,8 0,1.847129 -0.726726,3.460972 -1.773438,4.8125 L 12.707031,11.292969 7.1875,5.7734375 C 8.5390049,4.7267014 10.152881,4 12,4 Z M 5.7734375,7.1875 11.292969,12.707031 16.8125,18.226562 C 15.460972,19.273274 13.847129,20 12,20 7.5698798,20 4,16.430159 4,12 4,10.152881 4.7267014,8.5390049 5.7734375,7.1875 Z"
   id="path2" />
<path
   id="_StrokeToPathSelectorObject" />
d=&quot;M0 0 H 0&quot;/&gt;
    </svg>
