<?xml version="1.0" encoding="UTF-8" standalone="no"?>
<svg
   width="24"
   height="24"
   viewBox="0 0 24 24"
   fill="none"
   version="1.1"
   id="svg11"
   sodipodi:docname="robot-line.svg"
   inkscape:version="1.1.1 (c3084ef, 2021-09-22)"
   xmlns:inkscape="http://www.inkscape.org/namespaces/inkscape"
   xmlns:sodipodi="http://sodipodi.sourceforge.net/DTD/sodipodi-0.dtd"
   xmlns="http://www.w3.org/2000/svg"
   xmlns:svg="http://www.w3.org/2000/svg"><defs
   id="defs15" />
<sodipodi:namedview
   id="namedview13"
   pagecolor="#ffffff"
   bordercolor="#666666"
   borderopacity="1.0"
   inkscape:pageshadow="2"
   inkscape:pageopacity="0.0"
   inkscape:pagecheckerboard="0"
   showgrid="false"
   inkscape:zoom="32.75"
   inkscape:cx="11.984733"
   inkscape:cy="12"
   inkscape:window-width="1296"
   inkscape:window-height="1067"
   inkscape:window-x="0"
   inkscape:window-y="25"
   inkscape:window-maximized="0"
   inkscape:current-layer="svg11" />
<path
   style="color:#000000;fill:#000000;stroke-linecap:round;stroke-linejoin:round;-inkscape-stroke:none"
   d="M 12,4 A 1,1 0 0 0 11,5 V 8 H 9 C 6.6044764,8 4.6827652,9.7418003 4.203125,12 H 4 c -1.6449898,0 -3,1.354977 -3,3 v 1 c 0,1.645023 1.3550102,3 3,3 v 1 a 1.0001,1.0001 0 0 0 1,1 h 3 4 4 3 a 1.0001,1.0001 0 0 0 1,-1 v -1 c 1.645005,0 3,-1.354995 3,-3 v -1 c 0,-1.645005 -1.354995,-3 -3,-3 H 19.796875 C 19.317229,9.7417947 17.395497,8 15,8 H 13 V 5 A 1,1 0 0 0 12,4 Z m -3,6 h 3 3 c 1.668637,0 3,1.331363 3,3 v 5 1 H 17 V 16 A 1.0001,1.0001 0 0 0 16,15 H 12 8 a 1.0001,1.0001 0 0 0 -1,1 v 3 H 6 v -1 -1.5 -2 -1.5 c 0,-1.668649 1.3313133,-3 3,-3 z m -5,4 v 0.5 2 0.5 C 3.435852,17 3,16.564175 3,16 v -1 c 0,-0.564175 0.435852,-1 1,-1 z m 16,0 c 0.564193,0 1,0.435807 1,1 v 1 c 0,0.564193 -0.435807,1 -1,1 z M 9,17 h 2 v 2 H 9 Z m 4,0 h 2 v 2 h -2 z"
   id="path2" />
<path
   style="color:#000000;fill:#000000;stroke-linecap:round;stroke-linejoin:round;-inkscape-stroke:none"
   d="m 9,12 a 1,1 0 0 0 -1,1 1,1 0 0 0 1,1 h 0.00195 A 1,1 0 0 0 10.001953,13 1,1 0 0 0 9.0019531,12 Z"
   id="path4" />
<path
   style="color:#000000;fill:#000000;stroke-linecap:round;stroke-linejoin:round;-inkscape-stroke:none"
   d="m 15,12 a 1,1 0 0 0 -1,1 1,1 0 0 0 1,1 h 0.002 a 1,1 0 0 0 1,-1 1,1 0 0 0 -1,-1 z"
   id="path6" />
<path
   style="color:#000000;fill:#000000;stroke-linecap:round;stroke-linejoin:round;-inkscape-stroke:none"
   d="m 12,3 c -1.092724,0 -2,0.9072762 -2,2 0,1.0927238 0.907276,2 2,2 1.092724,0 2,-0.9072762 2,-2 0,-1.0927238 -0.907276,-2 -2,-2 z"
   id="circle8" />
<path
   id="_StrokeToPathSelectorObject" />
d=&quot;M0 0 H 0&quot;/&gt;
    </svg>
