<?xml version="1.0" encoding="UTF-8" standalone="no"?>
<svg
   width="24"
   height="24"
   viewBox="0 0 24 24"
   fill="none"
   version="1.1"
   id="svg12"
   sodipodi:docname="rocket-3-start-line.svg"
   inkscape:version="1.1.1 (c3084ef, 2021-09-22)"
   xmlns:inkscape="http://www.inkscape.org/namespaces/inkscape"
   xmlns:sodipodi="http://sodipodi.sourceforge.net/DTD/sodipodi-0.dtd"
   xmlns="http://www.w3.org/2000/svg"
   xmlns:svg="http://www.w3.org/2000/svg"><sodipodi:namedview
   id="namedview14"
   pagecolor="#ffffff"
   bordercolor="#666666"
   borderopacity="1.0"
   inkscape:pageshadow="2"
   inkscape:pageopacity="0.0"
   inkscape:pagecheckerboard="0"
   showgrid="false"
   inkscape:zoom="32.75"
   inkscape:cx="11.984733"
   inkscape:cy="12"
   inkscape:window-width="1296"
   inkscape:window-height="1067"
   inkscape:window-x="0"
   inkscape:window-y="25"
   inkscape:window-maximized="0"
   inkscape:current-layer="svg12" />
<g
   clip-path="url(#clip0_201_1550)"
   id="g4">
  <path
     style="color:#000000;fill:#000000;stroke-linecap:round;stroke-linejoin:round;-inkscape-stroke:none"
     d="m 19.578125,3.2675781 -1.402344,0.3183594 c -1.657046,0.3753835 -3.173658,1.2107338 -4.375,2.4121094 L 9.0625,10.736328 C 7.80551,9.7740587 6.5744036,9.3060957 5.5253906,9.5429688 4.2411874,9.8329491 3.417379,10.725204 2.828125,11.314453 a 1.0001,1.0001 0 0 0 0.1933594,1.564453 l 3.4277343,2.056641 2.6562501,2.65625 2.0585942,3.429687 a 1.0001,1.0001 0 0 0 1.564453,0.191407 c 0.589249,-0.58925 1.479553,-1.411106 1.769531,-2.695313 0.236898,-1.049135 -0.230835,-2.279945 -1.193359,-3.537109 l 4.738281,-4.738281 c 1.201334,-1.2013798 2.03867,-2.7199613 2.414062,-4.3769536 L 20.773437,4.4628906 A 1.0001,1.0001 0 0 0 19.578125,3.2675781 Z M 18.4375,5.6035156 c -0.31096,1.2152936 -0.919912,2.3339408 -1.808594,3.2226563 l -5.314453,5.3164061 -1.4140624,1.414063 h -0.00195 L 8.484375,14.142578 9.9003906,12.728516 15.214844,7.4121094 C 16.103519,6.5234095 17.222188,5.9144666 18.4375,5.6035156 Z M 5.9648437,11.494141 C 6.3640964,11.403987 6.9366714,11.59945 7.6738281,12.125 L 6.9160156,12.882813 5.34375,11.939453 c 0.2059112,-0.132585 0.4254634,-0.401138 0.6210937,-0.445312 z m -0.4589843,3.939453 a 1,1 0 0 0 -1.3867188,0.273437 c 0,0 -0.4763254,0.700059 -0.8261718,1.582031 -0.1749233,0.440987 -0.3308097,0.93579 -0.359375,1.486329 -0.028565,0.550538 0.1015774,1.230458 0.6015625,1.730468 0.5000103,0.499991 1.1818915,0.630131 1.7324218,0.601563 0.5505303,-0.02857 1.0433853,-0.184458 1.484375,-0.359375 0.8819796,-0.349835 1.5839844,-0.826172 1.5839844,-0.826172 A 1,1 0 0 0 8.609375,18.535156 1,1 0 0 0 7.2207031,18.261719 c 0,0 -0.5682042,0.374338 -1.2050781,0.626953 -0.318437,0.126307 -0.6458404,0.210028 -0.8515625,0.220703 -0.2057221,0.01067 -0.2170346,-0.01977 -0.2148438,-0.01758 0.00216,0.0022 -0.028252,-0.0072 -0.017578,-0.212891 0.010674,-0.205714 0.094395,-0.533137 0.2207031,-0.851562 C 5.4049592,17.390493 5.78125,16.820312 5.78125,16.820312 A 1,1 0 0 0 5.5058594,15.433594 Z m 6.4121096,0.933593 c 0.525216,0.73691 0.720993,1.309816 0.630859,1.708985 -0.04427,0.196038 -0.312302,0.416693 -0.445312,0.623047 L 11.160156,17.125 Z"
     id="path2" />
</g>
<defs
   id="defs9">
  <clipPath
     id="clip0_201_1550">
    <rect
       width="24"
       height="24"
       fill="white"
       id="rect6" />
  </clipPath>
</defs>
<path
   id="_StrokeToPathSelectorObject" />
d=&quot;M0 0 H 0&quot;/&gt;
    </svg>
