<?xml version="1.0" encoding="UTF-8" standalone="no"?>
<svg
   width="24"
   height="24"
   viewBox="0 0 24 24"
   fill="none"
   version="1.1"
   id="svg5"
   sodipodi:docname="ruler-2-line.svg"
   inkscape:version="1.1.1 (c3084ef, 2021-09-22)"
   xmlns:inkscape="http://www.inkscape.org/namespaces/inkscape"
   xmlns:sodipodi="http://sodipodi.sourceforge.net/DTD/sodipodi-0.dtd"
   xmlns="http://www.w3.org/2000/svg"
   xmlns:svg="http://www.w3.org/2000/svg"><defs
   id="defs9" />
<sodipodi:namedview
   id="namedview7"
   pagecolor="#ffffff"
   bordercolor="#666666"
   borderopacity="1.0"
   inkscape:pageshadow="2"
   inkscape:pageopacity="0.0"
   inkscape:pagecheckerboard="0"
   showgrid="false"
   inkscape:zoom="32.75"
   inkscape:cx="11.984733"
   inkscape:cy="12"
   inkscape:window-width="1296"
   inkscape:window-height="1067"
   inkscape:window-x="0"
   inkscape:window-y="25"
   inkscape:window-maximized="0"
   inkscape:current-layer="svg5" />
<path
   style="color:#000000;fill:#000000;stroke-linecap:round;stroke-linejoin:round;-inkscape-stroke:none"
   d="m 15,2.8339844 c -0.769867,-1.2e-6 -1.539502,0.2914179 -2.121094,0.8730469 L 11.292969,5.2929687 8.2929688,8.2929688 5.2929687,11.292969 3.7070313,12.878906 c -1.1632394,1.16318 -1.1632579,3.079004 0,4.242188 l 3.1718749,3.171875 c 1.1632048,1.163145 3.0789904,1.163152 4.2421878,0 l 9.171875,-9.171875 c 1.163149,-1.1631944 1.163135,-3.0789785 0,-4.2421878 L 17.121094,3.7070313 C 16.539504,3.1254116 15.769867,2.8339856 15,2.8339844 Z m 0,1.9882812 c 0.253832,1.3e-6 0.507622,0.099409 0.707031,0.2988281 l 3.171875,3.1718751 c 0.398864,0.3988891 0.398849,1.0151982 0,1.4140625 L 9.7070313,18.878906 c -0.3988613,0.398846 -1.0151888,0.398854 -1.4140625,0 L 5.1210937,15.707031 c -0.3988405,-0.398815 -0.398839,-1.015244 0,-1.414062 L 6,13.414063 7.2929687,14.707031 a 1,1 0 0 0 1.4140626,0 1,1 0 0 0 0,-1.414062 L 7.4140625,12 9,10.414063 l 2.292969,2.292968 a 1,1 0 0 0 1.414062,0 1,1 0 0 0 0,-1.414062 L 10.414063,9 12,7.4140625 13.292969,8.7070313 a 1,1 0 0 0 1.414062,0 1,1 0 0 0 0,-1.4140626 L 13.414063,6 14.292969,5.1210937 C 14.492376,4.9216735 14.746168,4.8222643 15,4.8222656 Z"
   id="path2" />
<path
   id="_StrokeToPathSelectorObject" />
d=&quot;M0 0 H 0&quot;/&gt;
    </svg>
