<?xml version="1.0" encoding="UTF-8" standalone="no"?>
<svg
   width="24"
   height="24"
   viewBox="0 0 24 24"
   fill="none"
   version="1.1"
   id="svg7"
   sodipodi:docname="rupee-circle-line.svg"
   inkscape:version="1.1.1 (c3084ef, 2021-09-22)"
   xmlns:inkscape="http://www.inkscape.org/namespaces/inkscape"
   xmlns:sodipodi="http://sodipodi.sourceforge.net/DTD/sodipodi-0.dtd"
   xmlns="http://www.w3.org/2000/svg"
   xmlns:svg="http://www.w3.org/2000/svg"><defs
   id="defs11" />
<sodipodi:namedview
   id="namedview9"
   pagecolor="#ffffff"
   bordercolor="#666666"
   borderopacity="1.0"
   inkscape:pageshadow="2"
   inkscape:pageopacity="0.0"
   inkscape:pagecheckerboard="0"
   showgrid="false"
   inkscape:zoom="32.75"
   inkscape:cx="11.984733"
   inkscape:cy="12"
   inkscape:window-width="1296"
   inkscape:window-height="1067"
   inkscape:window-x="0"
   inkscape:window-y="25"
   inkscape:window-maximized="0"
   inkscape:current-layer="svg7" />
<path
   style="color:#000000;fill:#000000;stroke-linecap:round;stroke-linejoin:round;-inkscape-stroke:none"
   d="M 12,1 C 5.9367165,1 1,5.9367165 1,12 1,18.063238 5.9367105,23 12,23 18.063244,23 23,18.063244 23,12 23,5.9367105 18.063238,1 12,1 Z m 0,2 c 4.982351,0 9,4.0176006 9,9 0,4.982345 -4.017655,9 -9,9 C 7.0176006,21 3,16.982351 3,12 3,7.0175946 7.0175946,3 12,3 Z"
   id="path2" />
<path
   style="color:#000000;fill:#000000;stroke-linecap:round;stroke-linejoin:round;-inkscape-stroke:none"
   d="M 8,6 A 1,1 0 0 0 7,7 1,1 0 0 0 8,8 h 3 c 0.3,0 0.888354,0.1221932 1.291016,0.4121094 C 12.498436,8.5614523 12.675062,8.7419918 12.802734,9 H 7.9960937 a 1,1 0 0 0 -1,1 1,1 0 0 0 1,1 h 4.8066403 c -0.127672,0.258008 -0.304298,0.438548 -0.511718,0.587891 C 11.888354,11.877807 11.3,12 11,12 H 7.9960937 a 1.0001,1.0001 0 0 0 -0.6230468,1.78125 l 5.0019531,4 A 1,1 0 0 0 13.78125,17.625 1,1 0 0 0 13.625,16.21875 L 10.849609,14 H 11 c 0.699999,0 1.611647,-0.17898 2.458984,-0.789062 C 14.087001,12.758766 14.526381,11.951494 14.765625,11 H 16 A 1,1 0 0 0 17,10 1,1 0 0 0 16,9 H 14.765625 C 14.679125,8.6559834 14.643929,8.2841637 14.488281,8 H 16 A 1,1 0 0 0 17,7 1,1 0 0 0 16,6 h -5 z"
   id="path4" />
<path
   id="_StrokeToPathSelectorObject" />
d=&quot;M0 0 H 0&quot;/&gt;
    </svg>
