<?xml version="1.0" encoding="UTF-8" standalone="no"?>
<svg
   width="24"
   height="24"
   viewBox="0 0 24 24"
   fill="none"
   version="1.1"
   id="svg5"
   sodipodi:docname="save-line.svg"
   inkscape:version="1.1.1 (c3084ef, 2021-09-22)"
   xmlns:inkscape="http://www.inkscape.org/namespaces/inkscape"
   xmlns:sodipodi="http://sodipodi.sourceforge.net/DTD/sodipodi-0.dtd"
   xmlns="http://www.w3.org/2000/svg"
   xmlns:svg="http://www.w3.org/2000/svg"><defs
   id="defs9" />
<sodipodi:namedview
   id="namedview7"
   pagecolor="#ffffff"
   bordercolor="#666666"
   borderopacity="1.0"
   inkscape:pageshadow="2"
   inkscape:pageopacity="0.0"
   inkscape:pagecheckerboard="0"
   showgrid="false"
   inkscape:zoom="32.75"
   inkscape:cx="11.984733"
   inkscape:cy="12"
   inkscape:window-width="1296"
   inkscape:window-height="1067"
   inkscape:window-x="0"
   inkscape:window-y="25"
   inkscape:window-maximized="0"
   inkscape:current-layer="svg5" />
<path
   style="color:#000000;fill:#000000;stroke-linecap:round;stroke-linejoin:round;-inkscape-stroke:none"
   d="M 4,3 A 1.0001,1.0001 0 0 0 3,4 v 16 a 1.0001,1.0001 0 0 0 1,1 h 16 a 1.0001,1.0001 0 0 0 1,-1 V 8 A 1.0001,1.0001 0 0 0 20.707031,7.2929687 l -4,-3.9999999 A 1.0001,1.0001 0 0 0 16,3 H 14 8 Z m 1,2 h 2 v 3 a 1.0001,1.0001 0 0 0 1,1 h 6 A 1.0001,1.0001 0 0 0 15,8 V 5 h 0.585938 L 19,8.4140625 V 19 H 5 Z m 4,0 h 4 V 7 H 9 Z m 3,6 c -0.533339,0 -1.194981,0.127804 -1.833984,0.587891 C 9.5270126,12.047977 9,12.92223 9,14 9,15.07777 9.5270126,15.952023 10.166016,16.412109 10.805019,16.872196 11.466661,17 12,17 12.533339,17 13.194981,16.872196 13.833984,16.412109 14.472987,15.952023 15,15.07777 15,14 15,12.92223 14.472987,12.047977 13.833984,11.587891 13.194981,11.127804 12.533339,11 12,11 Z m 0,2 c 0.13336,0 0.471695,0.07103 0.666016,0.210938 C 12.860337,13.35085 13,13.477771 13,14 13,14.522229 12.860337,14.64915 12.666016,14.789063 12.471695,14.928975 12.13336,15 12,15 11.86664,15 11.528305,14.928975 11.333984,14.789063 11.139663,14.64915 11,14.522229 11,14 11,13.477771 11.139663,13.35085 11.333984,13.210938 11.528305,13.071025 11.86664,13 12,13 Z"
   id="path2" />
<path
   id="_StrokeToPathSelectorObject" />
d=&quot;M0 0 H 0&quot;/&gt;
    </svg>
