<?xml version="1.0" encoding="UTF-8" standalone="no"?>
<svg
   width="24"
   height="24"
   viewBox="0 0 24 24"
   fill="none"
   version="1.1"
   id="svg7"
   sodipodi:docname="scale-light-line.svg"
   inkscape:version="1.1.1 (c3084ef, 2021-09-22)"
   xmlns:inkscape="http://www.inkscape.org/namespaces/inkscape"
   xmlns:sodipodi="http://sodipodi.sourceforge.net/DTD/sodipodi-0.dtd"
   xmlns="http://www.w3.org/2000/svg"
   xmlns:svg="http://www.w3.org/2000/svg"><defs
   id="defs11" />
<sodipodi:namedview
   id="namedview9"
   pagecolor="#ffffff"
   bordercolor="#666666"
   borderopacity="1.0"
   inkscape:pageshadow="2"
   inkscape:pageopacity="0.0"
   inkscape:pagecheckerboard="0"
   showgrid="false"
   inkscape:zoom="32.75"
   inkscape:cx="11.984733"
   inkscape:cy="12"
   inkscape:window-width="1296"
   inkscape:window-height="1067"
   inkscape:window-x="0"
   inkscape:window-y="25"
   inkscape:window-maximized="0"
   inkscape:current-layer="svg7" />
<path
   style="color:#000000;fill:#000000;stroke-linecap:round;stroke-linejoin:round;-inkscape-stroke:none"
   d="M 9,2 C 7.3549921,2 6,3.3549921 6,5 v 4 c 0,1.645023 1.3550102,3 3,3 h 3 3 c 1.645005,0 3,-1.354995 3,-3 V 5 C 18,3.3550102 16.645023,2 15,2 Z m 0,2 h 6 c 0.564175,0 1,0.435852 1,1 v 4 c 0,0.5641927 -0.435807,1 -1,1 H 12.675781 L 10.927734,5.6289062 A 1,1 0 0 0 9.6289063,5.0722656 1,1 0 0 0 9.0722656,6.3710937 L 10.523438,10 H 9 C 8.435852,10 8,9.5641745 8,9 V 5 C 8,4.4358701 8.4358701,4 9,4 Z"
   id="path2" />
<path
   style="color:#000000;fill:#000000;stroke-linecap:round;stroke-linejoin:round;-inkscape-stroke:none"
   d="M 5,4 C 3.3549921,4 2,5.3549921 2,7 v 12 c 0,1.645023 1.3550102,3 3,3 h 14 c 1.645005,0 3,-1.354995 3,-3 V 7 C 22,5.3550102 20.645023,4 19,4 h -2 a 1,1 0 0 0 -1,1 1,1 0 0 0 1,1 h 2 c 0.564175,0 1,0.435852 1,1 v 12 c 0,0.564193 -0.435807,1 -1,1 H 5 C 4.435852,20 4,19.564175 4,19 V 7 C 4,6.4358701 4.4358701,6 5,6 H 7 A 1,1 0 0 0 8,5 1,1 0 0 0 7,4 Z m 5,12 a 1,1 0 0 0 -1,1 1,1 0 0 0 1,1 h 4 a 1,1 0 0 0 1,-1 1,1 0 0 0 -1,-1 z"
   id="path4" />
<path
   id="_StrokeToPathSelectorObject" />
d=&quot;M0 0 H 0&quot;/&gt;
    </svg>
