<?xml version="1.0" encoding="UTF-8" standalone="no"?>
<svg
   width="24"
   height="24"
   viewBox="0 0 24 24"
   fill="none"
   version="1.1"
   id="svg9"
   sodipodi:docname="scan-user-line.svg"
   inkscape:version="1.1.1 (c3084ef, 2021-09-22)"
   xmlns:inkscape="http://www.inkscape.org/namespaces/inkscape"
   xmlns:sodipodi="http://sodipodi.sourceforge.net/DTD/sodipodi-0.dtd"
   xmlns="http://www.w3.org/2000/svg"
   xmlns:svg="http://www.w3.org/2000/svg"><defs
   id="defs13" />
<sodipodi:namedview
   id="namedview11"
   pagecolor="#ffffff"
   bordercolor="#666666"
   borderopacity="1.0"
   inkscape:pageshadow="2"
   inkscape:pageopacity="0.0"
   inkscape:pagecheckerboard="0"
   showgrid="false"
   inkscape:zoom="32.75"
   inkscape:cx="11.984733"
   inkscape:cy="12"
   inkscape:window-width="1296"
   inkscape:window-height="1067"
   inkscape:window-x="0"
   inkscape:window-y="25"
   inkscape:window-maximized="0"
   inkscape:current-layer="svg9" />
<path
   style="color:#000000;fill:#000000;stroke-linecap:round;stroke-linejoin:round;-inkscape-stroke:none"
   d="M 5,2 C 3.3549921,2 2,3.3549921 2,5 V 7 A 1,1 0 0 0 3,8 1,1 0 0 0 4,7 V 5 C 4,4.4358701 4.4358701,4 5,4 H 7 A 1,1 0 0 0 8,3 1,1 0 0 0 7,2 Z m 12,0 a 1,1 0 0 0 -1,1 1,1 0 0 0 1,1 h 2 c 0.564175,0 1,0.435852 1,1 v 2 a 1,1 0 0 0 1,1 1,1 0 0 0 1,-1 V 5 C 22,3.3550102 20.645023,2 19,2 Z M 3,16 a 1,1 0 0 0 -1,1 v 2 c 0,1.645023 1.3550102,3 3,3 H 7 A 1,1 0 0 0 8,21 1,1 0 0 0 7,20 H 5 C 4.435852,20 4,19.564175 4,19 V 17 A 1,1 0 0 0 3,16 Z m 18,0 a 1,1 0 0 0 -1,1 v 2 c 0,0.564193 -0.435807,1 -1,1 h -2 a 1,1 0 0 0 -1,1 1,1 0 0 0 1,1 h 2 c 1.645005,0 3,-1.354995 3,-3 v -2 a 1,1 0 0 0 -1,-1 z"
   id="path2" />
<path
   style="color:#000000;fill:#000000;stroke-linecap:round;stroke-linejoin:round;-inkscape-stroke:none"
   d="M 12,5 C 9.8027078,5 8,6.8027078 8,9 c 0,2.197292 1.8027078,4 4,4 2.197292,0 4,-1.802708 4,-4 0,-2.1972922 -1.802708,-4 -4,-4 z m 0,2 c 1.116413,0 2,0.883587 2,2 0,1.116413 -0.883587,2 -2,2 -1.116413,0 -2,-0.883587 -2,-2 0,-1.116413 0.883587,-2 2,-2 z"
   id="circle4" />
<path
   style="color:#000000;fill:#000000;stroke-linecap:round;stroke-linejoin:round;-inkscape-stroke:none"
   d="m 12,11 c -3.1937789,0 -6,2.11534 -6,5 a 1,1 0 0 0 1,1 1,1 0 0 0 1,-1 c 0,-1.533535 1.6709444,-3 4,-3 2.329032,0 4,1.466471 4,3 a 1,1 0 0 0 1,1 1,1 0 0 0 1,-1 c 0,-2.884666 -2.806238,-5 -6,-5 z"
   id="path6" />
<path
   id="_StrokeToPathSelectorObject" />
d=&quot;M0 0 H 0&quot;/&gt;
    </svg>
