<?xml version="1.0" encoding="UTF-8" standalone="no"?>
<svg
   width="24"
   height="24"
   viewBox="0 0 24 24"
   fill="none"
   version="1.1"
   id="svg9"
   sodipodi:docname="scan-fingerprint-line.svg"
   inkscape:version="1.1.1 (c3084ef, 2021-09-22)"
   xmlns:inkscape="http://www.inkscape.org/namespaces/inkscape"
   xmlns:sodipodi="http://sodipodi.sourceforge.net/DTD/sodipodi-0.dtd"
   xmlns="http://www.w3.org/2000/svg"
   xmlns:svg="http://www.w3.org/2000/svg"><defs
   id="defs13" />
<sodipodi:namedview
   id="namedview11"
   pagecolor="#ffffff"
   bordercolor="#666666"
   borderopacity="1.0"
   inkscape:pageshadow="2"
   inkscape:pageopacity="0.0"
   inkscape:pagecheckerboard="0"
   showgrid="false"
   inkscape:zoom="32.75"
   inkscape:cx="11.984733"
   inkscape:cy="12"
   inkscape:window-width="1296"
   inkscape:window-height="1067"
   inkscape:window-x="0"
   inkscape:window-y="25"
   inkscape:window-maximized="0"
   inkscape:current-layer="svg9" />
<path
   style="color:#000000;fill:#000000;stroke-linecap:round;stroke-linejoin:round;-inkscape-stroke:none"
   d="M 12,4 C 9.3222249,4 7.4487543,5.1936789 6.3886719,6.6660156 5.3285894,8.1383523 5,9.8000012 5,11 v 3 a 1,1 0 0 0 1,1 1,1 0 0 0 1,-1 V 11 C 7,10.200001 7.271803,8.8616452 8.0117188,7.8339844 8.7516345,6.8063236 9.8777799,6 12,6 14.12222,6 15.248365,6.8063236 15.988281,7.8339844 16.728197,8.8616452 17,10.200001 17,11 a 1,1 0 0 0 1,1 1,1 0 0 0 1,-1 C 19,9.8000012 18.671411,8.1383523 17.611328,6.6660156 16.551246,5.1936789 14.677775,4 12,4 Z m 0,3 C 10.522224,7 9.3991454,7.6936783 8.7890625,8.5410156 8.1789796,9.388353 8,10.300001 8,11 v 7 a 1,1 0 0 0 1,1 1,1 0 0 0 1,-1 V 11 C 10,10.7 10.122193,10.111646 10.412109,9.7089844 10.702026,9.306323 11.077779,9 12,9 12.922221,9 13.297974,9.306323 13.587891,9.7089844 13.877807,10.111646 14,10.7 14,11 v 6 a 1,1 0 0 0 1,1 1,1 0 0 0 1,-1 V 11 C 16,10.300001 15.82102,9.388353 15.210938,8.5410156 14.600855,7.6936783 13.477776,7 12,7 Z m 0,3 a 1,1 0 0 0 -1,1 v 8 a 1,1 0 0 0 1,1 1,1 0 0 0 1,-1 v -8 a 1,1 0 0 0 -1,-1 z m 6,3 a 1,1 0 0 0 -1,1 v 1 a 1,1 0 0 0 1,1 1,1 0 0 0 1,-1 v -1 a 1,1 0 0 0 -1,-1 z"
   id="path2" />
<path
   style="color:#000000;fill:#000000;stroke-linecap:round;stroke-linejoin:round;-inkscape-stroke:none"
   d="m 6,16 a 1,1 0 0 0 -1,1 1,1 0 0 0 1,1 h 0.00195 a 1,1 0 0 0 1,-1 1,1 0 0 0 -1,-1 z"
   id="path4" />
<path
   style="color:#000000;fill:#000000;stroke-linecap:round;stroke-linejoin:round;-inkscape-stroke:none"
   d="M 5,2 C 3.3549921,2 2,3.3549921 2,5 V 7 A 1,1 0 0 0 3,8 1,1 0 0 0 4,7 V 5 C 4,4.4358701 4.4358701,4 5,4 H 7 A 1,1 0 0 0 8,3 1,1 0 0 0 7,2 Z m 12,0 a 1,1 0 0 0 -1,1 1,1 0 0 0 1,1 h 2 c 0.564175,0 1,0.435852 1,1 v 2 a 1,1 0 0 0 1,1 1,1 0 0 0 1,-1 V 5 C 22,3.3550102 20.645023,2 19,2 Z M 3,16 a 1,1 0 0 0 -1,1 v 2 c 0,1.645023 1.3550102,3 3,3 H 7 A 1,1 0 0 0 8,21 1,1 0 0 0 7,20 H 5 C 4.435852,20 4,19.564175 4,19 V 17 A 1,1 0 0 0 3,16 Z m 18,0 a 1,1 0 0 0 -1,1 v 2 c 0,0.564193 -0.435807,1 -1,1 h -2 a 1,1 0 0 0 -1,1 1,1 0 0 0 1,1 h 2 c 1.645005,0 3,-1.354995 3,-3 v -2 a 1,1 0 0 0 -1,-1 z"
   id="path6" />
<path
   id="_StrokeToPathSelectorObject" />
d=&quot;M0 0 H 0&quot;/&gt;
    </svg>
