<?xml version="1.0" encoding="UTF-8" standalone="no"?>
<svg
   width="24"
   height="24"
   viewBox="0 0 24 24"
   fill="none"
   version="1.1"
   id="svg7"
   sodipodi:docname="script-prescription-line.svg"
   inkscape:version="1.1.1 (c3084ef, 2021-09-22)"
   xmlns:inkscape="http://www.inkscape.org/namespaces/inkscape"
   xmlns:sodipodi="http://sodipodi.sourceforge.net/DTD/sodipodi-0.dtd"
   xmlns="http://www.w3.org/2000/svg"
   xmlns:svg="http://www.w3.org/2000/svg"><defs
   id="defs11" />
<sodipodi:namedview
   id="namedview9"
   pagecolor="#ffffff"
   bordercolor="#666666"
   borderopacity="1.0"
   inkscape:pageshadow="2"
   inkscape:pageopacity="0.0"
   inkscape:pagecheckerboard="0"
   showgrid="false"
   inkscape:zoom="32.75"
   inkscape:cx="11.984733"
   inkscape:cy="12"
   inkscape:window-width="1296"
   inkscape:window-height="1067"
   inkscape:window-x="0"
   inkscape:window-y="25"
   inkscape:window-maximized="0"
   inkscape:current-layer="svg7" />
<path
   style="color:#000000;fill:#000000;stroke-linecap:round;stroke-linejoin:round;-inkscape-stroke:none"
   d="M 6,2 C 5.3000007,2 4.388353,2.1789796 3.5410156,2.7890625 2.6936783,3.3991454 2,4.5222237 2,6 V 19.001953 C 2,20.646976 3.3560966,22 5,22 h 5.5 a 1,1 0 0 0 1,-1 1,1 0 0 0 -1,-1 H 5 C 4.4347656,20 4,19.566128 4,19.001953 V 6 C 4,5.0777787 4.306323,4.7020256 4.7089844,4.4121094 5.1116458,4.1221932 5.7000003,4 6,4 6.2999997,4 6.8883542,4.1221932 7.2910156,4.4121094 7.693677,4.7020256 8,5.0777787 8,6 8,6.9222213 7.693677,7.2979744 7.2910156,7.5878906 6.8883542,7.8778068 6.2999997,8 6,8 a 1.0001,1.0001 0 0 0 0,2 h 11 a 1,1 0 0 0 1,1 1,1 0 0 0 1,-1 V 9.6796875 C 19.490527,9.5687569 19.956178,9.5729584 20.458984,9.2109375 21.306322,8.6008546 22,7.4777763 22,6 22,4.5222237 21.306322,3.3991454 20.458984,2.7890625 19.611647,2.1789796 18.699999,2 18,2 Z M 9.4882813,4 H 18 c 0.3,0 0.888354,0.1221932 1.291016,0.4121094 C 19.693677,4.7020256 20,5.0777787 20,6 20,6.9222213 19.693677,7.2979744 19.291016,7.5878906 18.888354,7.8778068 18.3,8 18,8 H 9.4882813 C 9.7942713,7.4413604 10,6.7785025 10,6 10,5.2214975 9.7942713,4.5586396 9.4882813,4 Z M 7,12 a 1,1 0 0 0 -1,1 1,1 0 0 0 1,1 h 3 a 1,1 0 0 0 1,-1 1,1 0 0 0 -1,-1 z m 0,4 a 1,1 0 0 0 -1,1 1,1 0 0 0 1,1 h 3 a 1,1 0 0 0 1,-1 1,1 0 0 0 -1,-1 z"
   id="path2" />
<path
   style="color:#000000;fill:#000000;stroke-linecap:round;stroke-linejoin:round;-inkscape-stroke:none"
   d="m 14,12 a 1.0001,1.0001 0 0 0 -1,1 v 3 3 a 1,1 0 0 0 1,1 1,1 0 0 0 1,-1 v -2 h 0.585938 l 1.999999,2 -1.292968,1.292969 a 1,1 0 0 0 0,1.414062 1,1 0 0 0 1.414062,0 L 19,20.414062 l 1.292969,1.292969 a 1,1 0 0 0 1.414062,0 1,1 0 0 0 0,-1.414062 L 20.414062,19 21.707031,17.707031 a 1,1 0 0 0 0,-1.414062 1,1 0 0 0 -1.414062,0 L 19,17.585937 18.144531,16.730469 C 19.167808,16.416959 20,15.61869 20,14.5 20,13.131122 18.868878,12 17.5,12 Z m 1,2 h 2.5 c 0.28792,0 0.5,0.21208 0.5,0.5 0,0.28792 -0.21208,0.5 -0.5,0.5 H 16 15 Z"
   id="path4" />
<path
   id="_StrokeToPathSelectorObject" />
d=&quot;M0 0 H 0&quot;/&gt;
    </svg>
