<?xml version="1.0" encoding="UTF-8" standalone="no"?>
<svg
   width="24"
   height="24"
   viewBox="0 0 24 24"
   fill="none"
   version="1.1"
   id="svg5"
   sodipodi:docname="scroll-line.svg"
   inkscape:version="1.1.1 (c3084ef, 2021-09-22)"
   xmlns:inkscape="http://www.inkscape.org/namespaces/inkscape"
   xmlns:sodipodi="http://sodipodi.sourceforge.net/DTD/sodipodi-0.dtd"
   xmlns="http://www.w3.org/2000/svg"
   xmlns:svg="http://www.w3.org/2000/svg"><defs
   id="defs9" />
<sodipodi:namedview
   id="namedview7"
   pagecolor="#ffffff"
   bordercolor="#666666"
   borderopacity="1.0"
   inkscape:pageshadow="2"
   inkscape:pageopacity="0.0"
   inkscape:pagecheckerboard="0"
   showgrid="false"
   inkscape:zoom="32.75"
   inkscape:cx="11.984733"
   inkscape:cy="12"
   inkscape:window-width="1296"
   inkscape:window-height="1067"
   inkscape:window-x="0"
   inkscape:window-y="25"
   inkscape:window-maximized="0"
   inkscape:current-layer="svg5" />
<path
   style="color:#000000;fill:#000000;stroke-linecap:round;stroke-linejoin:round;-inkscape-stroke:none"
   d="M 7,3 C 5.3549921,3 4,4.3549921 4,6 v 9 H 3 a 1.0001,1.0001 0 0 0 -1,1 v 2 c 0,1.645023 1.3550102,3 3,3 h 10 c 2.197305,0 4,-1.802695 4,-4 v -6 c 1.645023,0 3,-1.3550102 3,-3 V 6 C 22,4.3550102 20.645023,3 19,3 h -1 z m 0,2 h 10 v 5 7 c 0,1.116492 -0.883508,2 -2,2 -1.322217,0 -1.948754,-0.472984 -2.388672,-1.083984 C 12.17141,17.305015 12,16.466645 12,16 A 1.0001,1.0001 0 0 0 11,15 H 6 V 6 C 6,5.4358701 6.4358701,5 7,5 Z m 12,0 c 0.564175,0 1,0.435852 1,1 v 2 c 0,0.564148 -0.435825,1 -1,1 z M 4,17 h 1 5.142578 c 0.120674,0.647256 0.340309,1.327445 0.804688,2 H 5 C 4.435852,19 4,18.564175 4,18 Z"
   id="path2" />
<path
   id="_StrokeToPathSelectorObject" />
d=&quot;M0 0 H 0&quot;/&gt;
    </svg>
