<?xml version="1.0" encoding="UTF-8" standalone="no"?>
<svg
   width="24"
   height="24"
   viewBox="0 0 24 24"
   fill="none"
   version="1.1"
   id="svg5"
   sodipodi:docname="search-line.svg"
   inkscape:version="1.1.1 (c3084ef, 2021-09-22)"
   xmlns:inkscape="http://www.inkscape.org/namespaces/inkscape"
   xmlns:sodipodi="http://sodipodi.sourceforge.net/DTD/sodipodi-0.dtd"
   xmlns="http://www.w3.org/2000/svg"
   xmlns:svg="http://www.w3.org/2000/svg"><defs
   id="defs9" />
<sodipodi:namedview
   id="namedview7"
   pagecolor="#ffffff"
   bordercolor="#666666"
   borderopacity="1.0"
   inkscape:pageshadow="2"
   inkscape:pageopacity="0.0"
   inkscape:pagecheckerboard="0"
   showgrid="false"
   inkscape:zoom="32.75"
   inkscape:cx="11.984733"
   inkscape:cy="12"
   inkscape:window-width="1296"
   inkscape:window-height="1067"
   inkscape:window-x="0"
   inkscape:window-y="25"
   inkscape:window-maximized="0"
   inkscape:current-layer="svg5" />
<path
   style="color:#000000;fill:#000000;stroke-linecap:round;stroke-linejoin:round;-inkscape-stroke:none"
   d="m 11,3 c -4.4064267,0 -8,3.5935733 -8,8 0,4.406435 3.593575,8 8,8 1.837442,0 3.457315,-0.729197 4.810547,-1.775391 l 3.482422,3.482422 a 1,1 0 0 0 1.414062,0 1,1 0 0 0 0,-1.414062 L 17.224609,15.810547 C 18.270803,14.457315 19,12.837442 19,11 19,6.593575 15.406435,3 11,3 Z m 0,2 c 3.325557,0 6,2.6744527 6,6 0,1.662779 -0.670874,3.155335 -1.757812,4.242188 C 14.155335,16.329126 12.662779,17 11,17 7.6744527,17 5,14.325557 5,11 5,7.6744545 7.6744545,5 11,5 Z"
   id="path2" />
<path
   id="_StrokeToPathSelectorObject" />
d=&quot;M0 0 H 0&quot;/&gt;
    </svg>
