<?xml version="1.0" encoding="UTF-8" standalone="no"?>
<svg
   width="24"
   height="24"
   viewBox="0 0 24 24"
   fill="none"
   version="1.1"
   id="svg13"
   sodipodi:docname="server-line.svg"
   inkscape:version="1.1.1 (c3084ef, 2021-09-22)"
   xmlns:inkscape="http://www.inkscape.org/namespaces/inkscape"
   xmlns:sodipodi="http://sodipodi.sourceforge.net/DTD/sodipodi-0.dtd"
   xmlns="http://www.w3.org/2000/svg"
   xmlns:svg="http://www.w3.org/2000/svg"><defs
   id="defs17" />
<sodipodi:namedview
   id="namedview15"
   pagecolor="#ffffff"
   bordercolor="#666666"
   borderopacity="1.0"
   inkscape:pageshadow="2"
   inkscape:pageopacity="0.0"
   inkscape:pagecheckerboard="0"
   showgrid="false"
   inkscape:zoom="32.75"
   inkscape:cx="11.984733"
   inkscape:cy="12"
   inkscape:window-width="1296"
   inkscape:window-height="1067"
   inkscape:window-x="0"
   inkscape:window-y="25"
   inkscape:window-maximized="0"
   inkscape:current-layer="svg13" />
<path
   style="color:#000000;fill:#000000;stroke-linecap:round;stroke-linejoin:round;-inkscape-stroke:none"
   d="M 5,5 C 3.3549921,5 2,6.3549921 2,8 v 4 4 c 0,1.645023 1.3550102,3 3,3 h 14 c 1.645005,0 3,-1.354995 3,-3 V 12 8 C 22,6.3550102 20.645023,5 19,5 Z m 0,2 h 14 c 0.564175,0 1,0.435852 1,1 v 3 H 4 V 8 C 4,7.4358701 4.4358701,7 5,7 Z m -1,6 h 16 v 3 c 0,0.564193 -0.435807,1 -1,1 H 5 C 4.435852,17 4,16.564175 4,16 Z"
   id="path2" />
<path
   style="color:#000000;fill:#000000;stroke-linecap:round;stroke-linejoin:round;-inkscape-stroke:none"
   d="m 6,8 a 1,1 0 0 0 -1,1 1,1 0 0 0 1,1 h 0.00977 a 1,1 0 0 0 1,-1 1,1 0 0 0 -1,-1 z"
   id="path4" />
<path
   style="color:#000000;fill:#000000;stroke-linecap:round;stroke-linejoin:round;-inkscape-stroke:none"
   d="m 6,14 a 1,1 0 0 0 -1,1 1,1 0 0 0 1,1 h 0.00977 a 1,1 0 0 0 1,-1 1,1 0 0 0 -1,-1 z"
   id="path6" />
<path
   style="color:#000000;fill:#000000;stroke-linecap:round;stroke-linejoin:round;-inkscape-stroke:none"
   d="m 9,8 a 1,1 0 0 0 -1,1 1,1 0 0 0 1,1 h 0.00977 A 1,1 0 0 0 10.009766,9 1,1 0 0 0 9.0097656,8 Z"
   id="path8" />
<path
   style="color:#000000;fill:#000000;stroke-linecap:round;stroke-linejoin:round;-inkscape-stroke:none"
   d="m 9,14 a 1,1 0 0 0 -1,1 1,1 0 0 0 1,1 h 0.00977 A 1,1 0 0 0 10.009766,15 1,1 0 0 0 9.0097656,14 Z"
   id="path10" />
<path
   id="_StrokeToPathSelectorObject" />
d=&quot;M0 0 H 0&quot;/&gt;
    </svg>
