<?xml version="1.0" encoding="UTF-8" standalone="no"?>
<svg
   width="24"
   height="24"
   viewBox="0 0 24 24"
   fill="none"
   version="1.1"
   id="svg7"
   sodipodi:docname="settings-cog-check-line.svg"
   inkscape:version="1.1.1 (c3084ef, 2021-09-22)"
   xmlns:inkscape="http://www.inkscape.org/namespaces/inkscape"
   xmlns:sodipodi="http://sodipodi.sourceforge.net/DTD/sodipodi-0.dtd"
   xmlns="http://www.w3.org/2000/svg"
   xmlns:svg="http://www.w3.org/2000/svg"><defs
   id="defs11" />
<sodipodi:namedview
   id="namedview9"
   pagecolor="#ffffff"
   bordercolor="#666666"
   borderopacity="1.0"
   inkscape:pageshadow="2"
   inkscape:pageopacity="0.0"
   inkscape:pagecheckerboard="0"
   showgrid="false"
   inkscape:zoom="32.75"
   inkscape:cx="11.984733"
   inkscape:cy="12"
   inkscape:window-width="1296"
   inkscape:window-height="1067"
   inkscape:window-x="0"
   inkscape:window-y="25"
   inkscape:window-maximized="0"
   inkscape:current-layer="svg7" />
<path
   style="color:#000000;fill:#000000;stroke-linecap:round;stroke-linejoin:round;-inkscape-stroke:none"
   d="M 10,2 A 1.0001,1.0001 0 0 0 9.0234375,2.7832031 L 8.5644531,4.8496094 C 8.2004549,5.0251965 7.8540019,5.2248153 7.5234375,5.4511719 L 5.5058594,4.8144531 A 1.0001,1.0001 0 0 0 4.3398437,5.2675781 L 2.3398438,8.7324219 A 1.0001,1.0001 0 0 0 2.5292969,9.96875 L 4.046875,11.361328 C 4.0298946,11.574031 4,11.783312 4,12 c 0,0.216688 0.029894,0.425977 0.046875,0.638672 L 2.5292969,14.03125 a 1.0001,1.0001 0 0 0 -0.1894531,1.236328 l 1.9999999,3.464844 a 1.0001,1.0001 0 0 0 1.1660157,0.453125 l 2.0175781,-0.636719 c 0.33057,0.226365 0.6769958,0.425976 1.0410156,0.601563 l 0.4589844,2.066406 A 1.0001,1.0001 0 0 0 10,22 h 4 a 1.0001,1.0001 0 0 0 0.976563,-0.783203 l 0.458984,-2.066406 c 0.364008,-0.175585 0.710446,-0.37519 1.041015,-0.601563 l 2.017579,0.636719 a 1.0001,1.0001 0 0 0 1.166015,-0.453125 l 2,-3.464844 A 1.0001,1.0001 0 0 0 21.470703,14.03125 L 19.953125,12.638672 C 19.970108,12.425925 20,12.216658 20,12 c 0,-0.216658 -0.02989,-0.425925 -0.04687,-0.638672 L 21.470703,9.96875 a 1.0001,1.0001 0 0 0 0.189453,-1.2363281 l -2,-3.4648438 A 1.0001,1.0001 0 0 0 18.494141,4.8144531 L 16.476562,5.4511719 C 16.146013,5.2248328 15.799525,5.0251946 15.435547,4.8496094 L 14.976563,2.7832031 A 1.0001,1.0001 0 0 0 14,2 Z m 0.802734,2 h 2.394532 l 0.376953,1.6972656 a 1.0001,1.0001 0 0 0 0.611328,0.7128906 c 0.565989,0.2216012 1.0906,0.5279661 1.558594,0.9023438 a 1.0001,1.0001 0 0 0 0.925781,0.171875 l 1.660156,-0.5214844 1.197266,2.0742188 -1.28125,1.1757816 a 1.0001,1.0001 0 0 0 -0.3125,0.884765 C 17.977788,11.391082 18,11.69286 18,12 c 0,0.30714 -0.02221,0.608918 -0.06641,0.902344 a 1.0001,1.0001 0 0 0 0.3125,0.884765 l 1.28125,1.175782 -1.197266,2.074218 -1.660156,-0.521484 A 1.0001,1.0001 0 0 0 15.744141,16.6875 c -0.467806,0.374313 -0.992634,0.680788 -1.558594,0.902344 a 1.0001,1.0001 0 0 0 -0.611328,0.71289 L 13.197266,20 H 10.802734 L 10.425781,18.302734 A 1.0001,1.0001 0 0 0 9.8144531,17.589844 C 9.2484708,17.368293 8.723754,17.06185 8.2558594,16.6875 A 1.0001,1.0001 0 0 0 7.3300781,16.515625 l -1.6601562,0.521484 -1.1972657,-2.074218 1.28125,-1.175782 a 1.0001,1.0001 0 0 0 0.3125,-0.884765 C 6.0222285,12.60874 6,12.307084 6,12 6,11.692916 6.02222,11.391403 6.0664062,11.097656 a 1.0001,1.0001 0 0 0 -0.3125,-0.884765 L 4.4726562,9.0371094 5.6699219,6.9628906 7.3300781,7.484375 A 1.0001,1.0001 0 0 0 8.2558594,7.3125 C 8.7237515,6.9381606 9.2484296,6.631761 9.8144531,6.4101562 A 1.0001,1.0001 0 0 0 10.425781,5.6953125 Z"
   id="path2" />
<path
   style="color:#000000;fill:#000000;stroke-linecap:round;stroke-linejoin:round;-inkscape-stroke:none"
   d="M 15,9 A 1,1 0 0 0 14.292969,9.2929688 L 11,12.585938 9.7070313,11.292969 a 1,1 0 0 0 -1.4140625,0 1,1 0 0 0 0,1.414062 l 2.0000002,2 a 1.0001,1.0001 0 0 0 1.414062,0 l 4,-4 a 1,1 0 0 0 0,-1.4140622 A 1,1 0 0 0 15,9 Z"
   id="path4" />
<path
   id="_StrokeToPathSelectorObject" />
d=&quot;M0 0 H 0&quot;/&gt;
    </svg>
