<?xml version="1.0" encoding="UTF-8" standalone="no"?>
<svg
   width="24"
   height="24"
   viewBox="0 0 24 24"
   fill="none"
   version="1.1"
   id="svg5"
   sodipodi:docname="share-line.svg"
   inkscape:version="1.1.1 (c3084ef, 2021-09-22)"
   xmlns:inkscape="http://www.inkscape.org/namespaces/inkscape"
   xmlns:sodipodi="http://sodipodi.sourceforge.net/DTD/sodipodi-0.dtd"
   xmlns="http://www.w3.org/2000/svg"
   xmlns:svg="http://www.w3.org/2000/svg"><defs
   id="defs9" />
<sodipodi:namedview
   id="namedview7"
   pagecolor="#ffffff"
   bordercolor="#666666"
   borderopacity="1.0"
   inkscape:pageshadow="2"
   inkscape:pageopacity="0.0"
   inkscape:pagecheckerboard="0"
   showgrid="false"
   inkscape:zoom="32.75"
   inkscape:cx="11.984733"
   inkscape:cy="12"
   inkscape:window-width="1296"
   inkscape:window-height="1067"
   inkscape:window-x="0"
   inkscape:window-y="25"
   inkscape:window-maximized="0"
   inkscape:current-layer="svg5" />
<path
   style="color:#000000;fill:#000000;stroke-linecap:round;stroke-linejoin:round;-inkscape-stroke:none"
   d="M 13.238281,4.0683594 A 1.0001,1.0001 0 0 0 12.599609,5 V 7.6582031 C 10.889702,7.8219535 8.8495763,8.3425309 6.9804687,9.8144531 4.7598351,11.563202 3,14.546036 3,19 a 1.0001,1.0001 0 0 0 2,0 c 0,-0.03479 0.1388409,-0.670955 1.3710937,-1.294922 1.0969115,-0.555435 3.1852056,-1.015275 6.2285153,-1.123047 V 19 a 1.0001,1.0001 0 0 0 1.738282,0.673828 l 6.40039,-7 a 1.0001,1.0001 0 0 0 0,-1.347656 L 14.337891,4.3261719 A 1.0001,1.0001 0 0 0 13.238281,4.0683594 Z M 14.599609,7.5742187 18.646484,12 14.599609,16.425781 V 15.5 a 1.0001,1.0001 0 0 0 -1,-1 C 9.6583416,14.5 7.1164943,15.085565 5.46875,15.919922 5.4220892,15.943549 5.4086154,15.975931 5.3632812,16 5.8908612,13.844199 6.9564658,12.378814 8.21875,11.384766 9.9981124,9.9835177 12.218361,9.5 13.599609,9.5 a 1.0001,1.0001 0 0 0 1,-1 z"
   id="path2" />
<path
   id="_StrokeToPathSelectorObject" />
d=&quot;M0 0 H 0&quot;/&gt;
    </svg>
