<?xml version="1.0" encoding="UTF-8" standalone="no"?>
<svg
   width="24"
   height="24"
   viewBox="0 0 24 24"
   fill="none"
   version="1.1"
   id="svg7"
   sodipodi:docname="share-circle-line.svg"
   inkscape:version="1.1.1 (c3084ef, 2021-09-22)"
   xmlns:inkscape="http://www.inkscape.org/namespaces/inkscape"
   xmlns:sodipodi="http://sodipodi.sourceforge.net/DTD/sodipodi-0.dtd"
   xmlns="http://www.w3.org/2000/svg"
   xmlns:svg="http://www.w3.org/2000/svg"><defs
   id="defs11" />
<sodipodi:namedview
   id="namedview9"
   pagecolor="#ffffff"
   bordercolor="#666666"
   borderopacity="1.0"
   inkscape:pageshadow="2"
   inkscape:pageopacity="0.0"
   inkscape:pagecheckerboard="0"
   showgrid="false"
   inkscape:zoom="32.75"
   inkscape:cx="11.984733"
   inkscape:cy="12"
   inkscape:window-width="1296"
   inkscape:window-height="1067"
   inkscape:window-x="0"
   inkscape:window-y="25"
   inkscape:window-maximized="0"
   inkscape:current-layer="svg7" />
<path
   style="color:#000000;fill:#000000;stroke-linecap:round;stroke-linejoin:round;-inkscape-stroke:none"
   d="M 12.617188,6.0761719 A 1.0001,1.0001 0 0 0 12,7 V 8.2246094 C 10.870149,8.4545472 9.673177,8.9520053 8.5722656,9.9648438 7.1458307,11.277164 6,13.322225 6,16 h 2 c 0,0.13331 0.00226,-0.04152 0.1191406,-0.236328 C 8.2360225,15.568868 8.4463465,15.310937 8.7949219,15.052734 9.3619863,14.632689 10.462362,14.272253 12,14.125 V 15 a 1.0001,1.0001 0 0 0 1.707031,0.707031 l 4,-4 a 1.0001,1.0001 0 0 0 0,-1.414062 l -4,-4.0000003 A 1.0001,1.0001 0 0 0 12.617188,6.0761719 Z M 13.792969,9.2070313 15.585938,11 13.792969,12.792969 A 1.0001,1.0001 0 0 0 13,12 C 11.212684,12 9.9533763,12.36159 8.90625,12.824219 9.2129317,12.314258 9.5265111,11.804672 9.9277344,11.435547 11.001297,10.447869 12.366667,10 13,10 a 1.0001,1.0001 0 0 0 0.792969,-0.7929687 z"
   id="path2" />
<path
   style="color:#000000;fill:#000000;stroke-linecap:round;stroke-linejoin:round;-inkscape-stroke:none"
   d="M 12,1 C 5.9367185,1 1,5.9367185 1,12 1,18.063282 5.9367185,23 12,23 18.063282,23 23,18.063282 23,12 23,5.9367185 18.063282,1 12,1 Z m 0,2 c 4.982402,0 9,4.0175976 9,9 0,4.982402 -4.017598,9 -9,9 C 7.0175976,21 3,16.982402 3,12 3,7.0175976 7.0175976,3 12,3 Z"
   id="circle4" />
<path
   id="_StrokeToPathSelectorObject" />
d=&quot;M0 0 H 0&quot;/&gt;
    </svg>
