<?xml version="1.0" encoding="UTF-8" standalone="no"?>
<svg
   width="24"
   height="24"
   viewBox="0 0 24 24"
   fill="none"
   version="1.1"
   id="svg7"
   sodipodi:docname="shield-plus-line.svg"
   inkscape:version="1.1.1 (c3084ef, 2021-09-22)"
   xmlns:inkscape="http://www.inkscape.org/namespaces/inkscape"
   xmlns:sodipodi="http://sodipodi.sourceforge.net/DTD/sodipodi-0.dtd"
   xmlns="http://www.w3.org/2000/svg"
   xmlns:svg="http://www.w3.org/2000/svg"><defs
   id="defs11" />
<sodipodi:namedview
   id="namedview9"
   pagecolor="#ffffff"
   bordercolor="#666666"
   borderopacity="1.0"
   inkscape:pageshadow="2"
   inkscape:pageopacity="0.0"
   inkscape:pagecheckerboard="0"
   showgrid="false"
   inkscape:zoom="32.75"
   inkscape:cx="11.984733"
   inkscape:cy="12"
   inkscape:window-width="1296"
   inkscape:window-height="1067"
   inkscape:window-x="0"
   inkscape:window-y="25"
   inkscape:window-maximized="0"
   inkscape:current-layer="svg7" />
<path
   style="color:#000000;fill:#000000;stroke-linecap:round;stroke-linejoin:round;-inkscape-stroke:none"
   d="M 11.292969,2.2929688 C 9.6858071,3.9001304 6.3689115,4.1455937 5.1113281,4.0058594 A 1.0001,1.0001 0 0 0 4,5 v 9 c 0,2.583331 2.0653376,4.491145 3.9179687,5.814453 1.8526312,1.323308 3.6875003,2.105469 3.6875003,2.105469 a 1.0001,1.0001 0 0 0 0.789062,0 c 0,0 1.834869,-0.782161 3.6875,-2.105469 C 17.934662,18.491145 20,16.583331 20,14 V 5 A 1.0001,1.0001 0 0 0 18.888672,4.0058594 C 17.631088,4.1455937 14.314193,3.9001304 12.707031,2.2929688 a 1.0001,1.0001 0 0 0 -1.414062,0 z M 12,4.203125 c 1.972097,1.5178928 4.286448,1.7852716 6,1.7382812 V 14 c 0,1.416665 -1.434666,3.008857 -3.082031,4.185547 C 13.467007,19.221948 12.328672,19.705988 12,19.853516 11.671328,19.705988 10.532993,19.221948 9.0820313,18.185547 7.4346659,17.008857 6,15.416665 6,14 V 5.9414062 c 1.713552,0.04699 4.027903,-0.2203884 6,-1.7382812 z"
   id="path2" />
<path
   style="color:#000000;fill:#000000;stroke-linecap:round;stroke-linejoin:round;-inkscape-stroke:none"
   d="m 12,8 a 1,1 0 0 0 -1,1 v 2 H 9 a 1,1 0 0 0 -1,1 1,1 0 0 0 1,1 h 2 v 2 a 1,1 0 0 0 1,1 1,1 0 0 0 1,-1 v -2 h 2 a 1,1 0 0 0 1,-1 1,1 0 0 0 -1,-1 H 13 V 9 A 1,1 0 0 0 12,8 Z"
   id="path4" />
<path
   id="_StrokeToPathSelectorObject" />
d=&quot;M0 0 H 0&quot;/&gt;
    </svg>
