<?xml version="1.0" encoding="UTF-8" standalone="no"?>
<svg
   width="24"
   height="24"
   viewBox="0 0 24 24"
   fill="none"
   version="1.1"
   id="svg5"
   sodipodi:docname="ship-line.svg"
   inkscape:version="1.1.1 (c3084ef, 2021-09-22)"
   xmlns:inkscape="http://www.inkscape.org/namespaces/inkscape"
   xmlns:sodipodi="http://sodipodi.sourceforge.net/DTD/sodipodi-0.dtd"
   xmlns="http://www.w3.org/2000/svg"
   xmlns:svg="http://www.w3.org/2000/svg"><defs
   id="defs9" />
<sodipodi:namedview
   id="namedview7"
   pagecolor="#ffffff"
   bordercolor="#666666"
   borderopacity="1.0"
   inkscape:pageshadow="2"
   inkscape:pageopacity="0.0"
   inkscape:pagecheckerboard="0"
   showgrid="false"
   inkscape:zoom="32.75"
   inkscape:cx="11.984733"
   inkscape:cy="12"
   inkscape:window-width="1296"
   inkscape:window-height="1067"
   inkscape:window-x="0"
   inkscape:window-y="25"
   inkscape:window-maximized="0"
   inkscape:current-layer="svg5" />
<path
   style="color:#000000;fill:#000000;stroke-linecap:round;stroke-linejoin:round;-inkscape-stroke:none"
   d="M 10,2 A 1.0001,1.0001 0 0 0 9,3 V 5 H 6 A 1.0001,1.0001 0 0 0 5.0195312,6.1914062 l 0.8125,4.1542968 -3.0488281,0.677735 a 1.0001,1.0001 0 0 0 -0.6777343,1.423828 l 1.9999999,4 a 1,1 0 0 0 1.3417969,0.447265 1,1 0 0 0 0.4472656,-1.341797 l -1.4277343,-2.853515 2.75,-0.611328 L 11,11.246094 V 15 a 1,1 0 0 0 1,1 1,1 0 0 0 1,-1 v -3.753906 l 3.783203,0.841797 2.75,0.611328 -1.427734,2.853515 a 1,1 0 0 0 0.447265,1.341797 1,1 0 0 0 1.341797,-0.447265 l 2,-4 a 1.0001,1.0001 0 0 0 -0.677734,-1.423828 l -3.048828,-0.677735 0.8125,-4.1542968 A 1.0001,1.0001 0 0 0 18,5 H 15 V 3 A 1.0001,1.0001 0 0 0 14,2 Z m 1,2 h 2 V 5 H 11 Z M 7.2128906,7 H 10 h 4 2.787109 l -0.570312,2.9121094 -4,-0.8886719 a 1,1 0 0 0 -0.05273,0.00977 A 1,1 0 0 0 12,9 1,1 0 0 0 11.896484,9.0429688 1,1 0 0 0 11.783203,9.0234375 L 7.7832031,9.9121094 Z M 12,17.375 c -1.007632,0 -2.014831,0.410414 -2.7324219,1.230469 l -0.037109,0.04102 C 8.7064213,19.243265 7.8408097,19.358733 7.1796875,18.917969 6.2024704,18.266481 4.9633915,18.138186 3.8730469,18.574219 l -1.2441406,0.498047 a 1,1 0 0 0 -0.5566407,1.298828 1,1 0 0 0 1.2988282,0.55664 l 1.2460937,-0.498047 c 0.4810339,-0.192367 1.0221635,-0.134967 1.453125,0.152344 1.484205,0.989507 3.491374,0.723208 4.6660155,-0.61914 l 0.03711,-0.04102 c 0.661798,-0.754601 1.793895,-0.755592 2.455078,0 l 0.03516,0.04102 c 1.174605,1.342386 3.18178,1.608631 4.666015,0.61914 0.430423,-0.286948 0.972541,-0.343805 1.453125,-0.152344 l 1.246094,0.498047 a 1,1 0 0 0 1.298828,-0.55664 1,1 0 0 0 -0.55664,-1.298828 l -1.244141,-0.498047 c -1.090336,-0.436023 -2.329436,-0.30772 -3.306641,0.34375 -0.661171,0.440781 -1.526796,0.325259 -2.050781,-0.271485 l -0.002,-0.002 -0.03516,-0.03906 C 14.014831,17.785414 13.007632,17.375 12,17.375 Z"
   id="path2" />
<path
   id="_StrokeToPathSelectorObject" />
d=&quot;M0 0 H 0&quot;/&gt;
    </svg>
