<?xml version="1.0" encoding="UTF-8" standalone="no"?>
<svg
   width="24"
   height="24"
   viewBox="0 0 24 24"
   fill="none"
   version="1.1"
   id="svg7"
   sodipodi:docname="shooting-star-line.svg"
   inkscape:version="1.1.1 (c3084ef, 2021-09-22)"
   xmlns:inkscape="http://www.inkscape.org/namespaces/inkscape"
   xmlns:sodipodi="http://sodipodi.sourceforge.net/DTD/sodipodi-0.dtd"
   xmlns="http://www.w3.org/2000/svg"
   xmlns:svg="http://www.w3.org/2000/svg"><defs
   id="defs11" />
<sodipodi:namedview
   id="namedview9"
   pagecolor="#ffffff"
   bordercolor="#666666"
   borderopacity="1.0"
   inkscape:pageshadow="2"
   inkscape:pageopacity="0.0"
   inkscape:pagecheckerboard="0"
   showgrid="false"
   inkscape:zoom="32.75"
   inkscape:cx="11.984733"
   inkscape:cy="12"
   inkscape:window-width="1296"
   inkscape:window-height="1067"
   inkscape:window-x="0"
   inkscape:window-y="25"
   inkscape:window-maximized="0"
   inkscape:current-layer="svg7" />
<path
   style="color:#000000;fill:#000000;stroke-linecap:round;stroke-linejoin:round;-inkscape-stroke:none"
   d="M 8.6289063,7.0722656 C 6.789352,7.8080895 2.9598446,9.8031821 1.1308594,13.003906 a 1,1 0 0 0 0.3730468,1.365235 1,1 0 0 0 1.3652344,-0.373047 C 4.2401522,11.596824 7.8773114,9.5252491 9.3710938,8.9277344 A 1,1 0 0 0 9.9277344,7.6289062 1,1 0 0 0 8.6289063,7.0722656 Z m 3.1347657,2.9628904 a 1,1 0 0 0 -0.759766,0.0957 c -2.5417284,1.452382 -7.8134181,5.5639 -9.9453123,11.533203 a 1,1 0 0 0 0.6054688,1.277344 1,1 0 0 0 1.2773438,-0.605469 C 4.8095081,17.105252 9.871167,13.083356 11.996094,11.869141 a 1,1 0 0 0 0.373047,-1.365235 1,1 0 0 0 -0.605469,-0.46875 z M 12.5,13.5 a 1,1 0 0 0 -0.707031,0.292969 c -1.227306,1.227306 -3.871559,4.127883 -5.1875003,6.759765 a 1,1 0 0 0 0.4472657,1.341797 1,1 0 0 0 1.3417969,-0.447265 C 9.4785876,19.279153 12.10094,16.313123 13.207031,15.207031 a 1,1 0 0 0 0,-1.414062 A 1,1 0 0 0 12.5,13.5 Z"
   id="path2" />
<path
   style="color:#000000;fill:#000000;stroke-linecap:round;stroke-linejoin:round;-inkscape-stroke:none"
   d="m 15.087891,2.1992188 a 1.0001,1.0001 0 0 0 -0.720703,0.765625 l -0.570313,2.7871093 -2.304687,1.0488281 a 1.0001,1.0001 0 0 0 -0.08594,1.7753907 l 2.525391,1.4589841 -0.152344,2.539063 a 1.0001,1.0001 0 0 0 1.662109,0.808594 l 2.136719,-1.894532 2.794922,0.572266 A 1.0001,1.0001 0 0 0 21.408203,10.53125 L 20.005859,8.4082031 21.464844,5.8808594 A 1.0001,1.0001 0 0 0 20.501953,4.3847656 L 17.982422,4.6289062 16.095703,2.5019531 A 1.0001,1.0001 0 0 0 15.087891,2.1992188 Z m 0.83789,3.1249999 0.898438,1.0136719 a 1.0001,1.0001 0 0 0 0.84375,0.3320313 l 1.09375,-0.1054688 -0.796875,1.3789063 a 1.0001,1.0001 0 0 0 0.03125,1.0507812 l 0.412109,0.6230469 -0.919922,-0.1875 A 1.0001,1.0001 0 0 0 16.625,9.6601563 l -0.703125,0.6230467 0.04492,-0.7460936 a 1.0001,1.0001 0 0 0 -0.5,-0.9257813 L 14.089844,7.8164062 15.087891,7.3613281 a 1.0001,1.0001 0 0 0 0.566406,-0.7109375 z"
   id="path4" />
<path
   id="_StrokeToPathSelectorObject" />
d=&quot;M0 0 H 0&quot;/&gt;
    </svg>
