<?xml version="1.0" encoding="UTF-8" standalone="no"?>
<svg
   width="24"
   height="24"
   viewBox="0 0 24 24"
   fill="none"
   version="1.1"
   id="svg7"
   sodipodi:docname="strike-through-line.svg"
   inkscape:version="1.1.1 (c3084ef, 2021-09-22)"
   xmlns:inkscape="http://www.inkscape.org/namespaces/inkscape"
   xmlns:sodipodi="http://sodipodi.sourceforge.net/DTD/sodipodi-0.dtd"
   xmlns="http://www.w3.org/2000/svg"
   xmlns:svg="http://www.w3.org/2000/svg"><defs
   id="defs11" />
<sodipodi:namedview
   id="namedview9"
   pagecolor="#ffffff"
   bordercolor="#666666"
   borderopacity="1.0"
   inkscape:pageshadow="2"
   inkscape:pageopacity="0.0"
   inkscape:pagecheckerboard="0"
   showgrid="false"
   inkscape:zoom="32.75"
   inkscape:cx="11.984733"
   inkscape:cy="12"
   inkscape:window-width="1296"
   inkscape:window-height="1067"
   inkscape:window-x="0"
   inkscape:window-y="25"
   inkscape:window-maximized="0"
   inkscape:current-layer="svg7" />
<path
   style="color:#000000;fill:#000000;stroke-linecap:round;stroke-linejoin:round;-inkscape-stroke:none"
   d="M 10,4 C 7.802709,4 6,5.802709 6,8 v 1 c 0,2.197325 1.8027291,4 4,4 h 7 a 1,1 0 0 0 1,-1 1,1 0 0 0 -1,-1 H 10 C 8.8835742,11 8,10.116472 8,9 V 8 C 8,6.8835943 8.8835943,6 10,6 h 7 A 1,1 0 0 0 18,5 1,1 0 0 0 17,4 Z m 7,10 a 1,1 0 0 0 -1,1 v 1 c 0,1.116492 -0.883508,2 -2,2 H 7 a 1,1 0 0 0 -1,1 1,1 0 0 0 1,1 h 7 c 2.197305,0 4,-1.802695 4,-4 v -1 a 1,1 0 0 0 -1,-1 z"
   id="path2" />
<path
   style="color:#000000;fill:#000000;stroke-linecap:round;stroke-linejoin:round;-inkscape-stroke:none"
   d="m 5,11 a 1,1 0 0 0 -1,1 1,1 0 0 0 1,1 h 14 a 1,1 0 0 0 1,-1 1,1 0 0 0 -1,-1 z"
   id="path4" />
<path
   id="_StrokeToPathSelectorObject" />
d=&quot;M0 0 H 0&quot;/&gt;
    </svg>
