<?xml version="1.0" encoding="UTF-8" standalone="no"?>
<svg
   width="24"
   height="24"
   viewBox="0 0 24 24"
   fill="none"
   version="1.1"
   id="svg5"
   sodipodi:docname="suitcase-3-line.svg"
   inkscape:version="1.1.1 (c3084ef, 2021-09-22)"
   xmlns:inkscape="http://www.inkscape.org/namespaces/inkscape"
   xmlns:sodipodi="http://sodipodi.sourceforge.net/DTD/sodipodi-0.dtd"
   xmlns="http://www.w3.org/2000/svg"
   xmlns:svg="http://www.w3.org/2000/svg"><defs
   id="defs9" />
<sodipodi:namedview
   id="namedview7"
   pagecolor="#ffffff"
   bordercolor="#666666"
   borderopacity="1.0"
   inkscape:pageshadow="2"
   inkscape:pageopacity="0.0"
   inkscape:pagecheckerboard="0"
   showgrid="false"
   inkscape:zoom="32.75"
   inkscape:cx="11.984733"
   inkscape:cy="12"
   inkscape:window-width="1296"
   inkscape:window-height="1067"
   inkscape:window-x="0"
   inkscape:window-y="25"
   inkscape:window-maximized="0"
   inkscape:current-layer="svg5" />
<path
   style="color:#000000;fill:#000000;stroke-linecap:round;stroke-linejoin:round;-inkscape-stroke:none"
   d="M 11,2 C 9.3549921,2 8,3.3549921 8,5 H 6 C 4.3549921,5 3,6.3549921 3,8 v 10 c 0,1.645023 1.3550102,3 3,3 a 1,1 0 0 0 1,1 1,1 0 0 0 1,-1 h 8 a 1,1 0 0 0 1,1 1,1 0 0 0 1,-1 c 1.645005,0 3,-1.354995 3,-3 V 8 C 21,6.3550102 19.645023,5 18,5 H 16 C 16,3.3550102 14.645023,2 13,2 Z m 0,2 h 2 c 0.564175,0 1,0.435852 1,1 H 10 C 10,4.4358701 10.43587,4 11,4 Z M 6,7 h 3 6 3 c 0.564175,0 1,0.435852 1,1 v 10 c 0,0.564193 -0.435807,1 -1,1 H 17 7 6 C 5.435852,19 5,18.564175 5,18 V 8 C 5,7.4358701 5.4358701,7 6,7 Z m 3,2 a 1,1 0 0 0 -1,1 v 6 a 1,1 0 0 0 1,1 1,1 0 0 0 1,-1 V 10 A 1,1 0 0 0 9,9 Z m 6,0 a 1,1 0 0 0 -1,1 v 6 a 1,1 0 0 0 1,1 1,1 0 0 0 1,-1 V 10 A 1,1 0 0 0 15,9 Z"
   id="path2" />
<path
   id="_StrokeToPathSelectorObject" />
d=&quot;M0 0 H 0&quot;/&gt;
    </svg>
