<?xml version="1.0" encoding="UTF-8" standalone="no"?>
<svg
   width="24"
   height="24"
   viewBox="0 0 24 24"
   fill="none"
   version="1.1"
   id="svg5"
   sodipodi:docname="suitcase-2-line.svg"
   inkscape:version="1.1.1 (c3084ef, 2021-09-22)"
   xmlns:inkscape="http://www.inkscape.org/namespaces/inkscape"
   xmlns:sodipodi="http://sodipodi.sourceforge.net/DTD/sodipodi-0.dtd"
   xmlns="http://www.w3.org/2000/svg"
   xmlns:svg="http://www.w3.org/2000/svg"><defs
   id="defs9" />
<sodipodi:namedview
   id="namedview7"
   pagecolor="#ffffff"
   bordercolor="#666666"
   borderopacity="1.0"
   inkscape:pageshadow="2"
   inkscape:pageopacity="0.0"
   inkscape:pagecheckerboard="0"
   showgrid="false"
   inkscape:zoom="32.75"
   inkscape:cx="11.984733"
   inkscape:cy="12"
   inkscape:window-width="1296"
   inkscape:window-height="1067"
   inkscape:window-x="0"
   inkscape:window-y="25"
   inkscape:window-maximized="0"
   inkscape:current-layer="svg5" />
<path
   style="color:#000000;fill:#000000;stroke-linecap:round;stroke-linejoin:round;-inkscape-stroke:none"
   d="M 11,3 C 9.3549921,3 8,4.3549921 8,6 V 7 H 7 5 C 3.3549921,7 2,8.3549921 2,10 v 8 c 0,1.645023 1.3550102,3 3,3 h 2 10 2 c 1.645005,0 3,-1.354995 3,-3 V 10 C 22,8.3550102 20.645023,7 19,7 H 17 16 V 6 C 16,4.3550102 14.645023,3 13,3 Z m 0,2 h 2 c 0.564175,0 1,0.435852 1,1 V 7 H 10 V 6 C 10,5.4358701 10.43587,5 11,5 Z M 5,9 H 6 V 19 H 5 C 4.435852,19 4,18.564175 4,18 V 10 C 4,9.4358701 4.4358701,9 5,9 Z m 3,0 h 1 6 1 V 19 H 8 Z m 10,0 h 1 c 0.564175,0 1,0.435852 1,1 v 8 c 0,0.564193 -0.435807,1 -1,1 h -1 z"
   id="path2" />
<path
   id="_StrokeToPathSelectorObject" />
d=&quot;M0 0 H 0&quot;/&gt;
    </svg>
