<?xml version="1.0" encoding="UTF-8" standalone="no"?>
<svg
   width="24"
   height="24"
   viewBox="0 0 24 24"
   fill="none"
   version="1.1"
   id="svg7"
   sodipodi:docname="tag-line.svg"
   inkscape:version="1.1.1 (c3084ef, 2021-09-22)"
   xmlns:inkscape="http://www.inkscape.org/namespaces/inkscape"
   xmlns:sodipodi="http://sodipodi.sourceforge.net/DTD/sodipodi-0.dtd"
   xmlns="http://www.w3.org/2000/svg"
   xmlns:svg="http://www.w3.org/2000/svg"><defs
   id="defs11" />
<sodipodi:namedview
   id="namedview9"
   pagecolor="#ffffff"
   bordercolor="#666666"
   borderopacity="1.0"
   inkscape:pageshadow="2"
   inkscape:pageopacity="0.0"
   inkscape:pagecheckerboard="0"
   showgrid="false"
   inkscape:zoom="32.75"
   inkscape:cx="11.984733"
   inkscape:cy="12"
   inkscape:window-width="1296"
   inkscape:window-height="1067"
   inkscape:window-x="0"
   inkscape:window-y="25"
   inkscape:window-maximized="0"
   inkscape:current-layer="svg7" />
<path
   style="color:#000000;fill:#000000;stroke-linecap:round;stroke-linejoin:round;-inkscape-stroke:none"
   d="M 5,2 C 3.3549921,2 2,3.3549921 2,5 v 6.171875 c 0,0.795243 0.3165904,1.558748 0.8789063,2.121094 l 7.9999997,8 c 1.163193,1.163192 3.078995,1.163192 4.242188,0 l 6.171875,-6.171875 c 1.163192,-1.163193 1.163192,-3.078995 0,-4.242188 l -8,-7.9999997 C 12.730623,2.3165904 11.967118,2 11.171875,2 Z m 0,2 h 6.171875 c 0.265556,0 0.519178,0.1051254 0.707031,0.2929687 l 8,8.0000003 c 0.398806,0.398806 0.398806,1.015256 0,1.414062 l -6.171875,6.171875 c -0.398806,0.398806 -1.015256,0.398806 -1.414062,0 l -8.0000003,-8 C 4.1051254,11.691053 4,11.437431 4,11.171875 V 5 C 4,4.4358701 4.4358701,4 5,4 Z"
   id="path2" />
<path
   style="color:#000000;fill:#000000;stroke-linecap:round;stroke-linejoin:round;-inkscape-stroke:none"
   d="M 7,6 A 1,1 0 0 0 6,7 1,1 0 0 0 7,8 h 0.00195 a 1,1 0 0 0 1,-1 1,1 0 0 0 -1,-1 z"
   id="path4" />
<path
   id="_StrokeToPathSelectorObject" />
d=&quot;M0 0 H 0&quot;/&gt;
    </svg>
