<?xml version="1.0" encoding="UTF-8" standalone="no"?>
<svg
   width="24"
   height="24"
   viewBox="0 0 24 24"
   fill="none"
   version="1.1"
   id="svg9"
   sodipodi:docname="tag-off-line.svg"
   inkscape:version="1.1.1 (c3084ef, 2021-09-22)"
   xmlns:inkscape="http://www.inkscape.org/namespaces/inkscape"
   xmlns:sodipodi="http://sodipodi.sourceforge.net/DTD/sodipodi-0.dtd"
   xmlns="http://www.w3.org/2000/svg"
   xmlns:svg="http://www.w3.org/2000/svg"><defs
   id="defs13" />
<sodipodi:namedview
   id="namedview11"
   pagecolor="#ffffff"
   bordercolor="#666666"
   borderopacity="1.0"
   inkscape:pageshadow="2"
   inkscape:pageopacity="0.0"
   inkscape:pagecheckerboard="0"
   showgrid="false"
   inkscape:zoom="32.75"
   inkscape:cx="11.984733"
   inkscape:cy="12"
   inkscape:window-width="1296"
   inkscape:window-height="1067"
   inkscape:window-x="0"
   inkscape:window-y="25"
   inkscape:window-maximized="0"
   inkscape:current-layer="svg9" />
<path
   style="color:#000000;fill:#000000;stroke-linecap:round;stroke-linejoin:round;-inkscape-stroke:none"
   d="M 5,2 C 3.3549921,2 2,3.3549921 2,5 v 6.171875 c 0,0.795243 0.3165904,1.558748 0.8789063,2.121094 l 1.4140624,1.414062 a 1,1 0 0 0 1.4140625,0 1,1 0 0 0 0,-1.414062 L 4.2929687,11.878906 C 4.1051254,11.691053 4,11.437431 4,11.171875 V 5 C 4,4.4358701 4.4358701,4 5,4 h 6.171875 c 0.265556,0 0.519178,0.1051254 0.707031,0.2929687 l 1.414063,1.4140625 a 1,1 0 0 0 1.414062,0 1,1 0 0 0 0,-1.4140625 L 13.292969,2.8789063 C 12.730623,2.3165904 11.967118,2 11.171875,2 Z m 13.292969,7.2929688 a 1,1 0 0 0 0,1.4140622 l 1.585937,1.585938 c 0.398806,0.398806 0.398806,1.015256 0,1.414062 l -6.171875,6.171875 c -0.398806,0.398806 -1.015256,0.398806 -1.414062,0 l -1.585938,-1.585937 a 1,1 0 0 0 -1.4140622,0 1,1 0 0 0 0,1.414062 l 1.5859372,1.585938 c 1.163193,1.163192 3.078995,1.163192 4.242188,0 l 6.171875,-6.171875 c 1.163192,-1.163193 1.163192,-3.078995 0,-4.242188 L 19.707031,9.2929688 a 1,1 0 0 0 -1.414062,0 z"
   id="path2" />
<path
   style="color:#000000;fill:#000000;stroke-linecap:round;stroke-linejoin:round;-inkscape-stroke:none"
   d="M 7,6 A 1,1 0 0 0 6,7 1,1 0 0 0 7,8 h 0.00195 a 1,1 0 0 0 1,-1 1,1 0 0 0 -1,-1 z"
   id="path4" />
<path
   style="color:#000000;fill:#000000;stroke-linecap:round;stroke-linejoin:round;-inkscape-stroke:none"
   d="M 20.292969,2.2929688 2.2929688,20.292969 a 1,1 0 0 0 0,1.414062 1,1 0 0 0 1.4140625,0 L 21.707031,3.7070313 a 1,1 0 0 0 0,-1.4140625 1,1 0 0 0 -1.414062,0 z"
   id="path6" />
<path
   id="_StrokeToPathSelectorObject" />
d=&quot;M0 0 H 0&quot;/&gt;
    </svg>
