<?xml version="1.0" encoding="UTF-8" standalone="no"?>
<svg
   width="24"
   height="24"
   viewBox="0 0 24 24"
   fill="none"
   version="1.1"
   id="svg5"
   sodipodi:docname="text-wrap-line.svg"
   inkscape:version="1.1.1 (c3084ef, 2021-09-22)"
   xmlns:inkscape="http://www.inkscape.org/namespaces/inkscape"
   xmlns:sodipodi="http://sodipodi.sourceforge.net/DTD/sodipodi-0.dtd"
   xmlns="http://www.w3.org/2000/svg"
   xmlns:svg="http://www.w3.org/2000/svg"><defs
   id="defs9" />
<sodipodi:namedview
   id="namedview7"
   pagecolor="#ffffff"
   bordercolor="#666666"
   borderopacity="1.0"
   inkscape:pageshadow="2"
   inkscape:pageopacity="0.0"
   inkscape:pagecheckerboard="0"
   showgrid="false"
   inkscape:zoom="32.75"
   inkscape:cx="11.984733"
   inkscape:cy="12"
   inkscape:window-width="1296"
   inkscape:window-height="1067"
   inkscape:window-x="0"
   inkscape:window-y="25"
   inkscape:window-maximized="0"
   inkscape:current-layer="svg5" />
<path
   style="color:#000000;fill:#000000;stroke-linecap:round;stroke-linejoin:round;-inkscape-stroke:none"
   d="M 5,6 A 1,1 0 0 0 4,7 1,1 0 0 0 5,8 H 19 A 1,1 0 0 0 20,7 1,1 0 0 0 19,6 Z m 0,5 a 1,1 0 0 0 -1,1 1,1 0 0 0 1,1 h 11 c 0.333333,0 0.954905,0.113568 1.361328,0.357422 C 17.767751,13.601276 18,13.833334 18,14.5 18,15.222216 17.777017,15.472581 17.478516,15.6875 17.180014,15.902419 16.716642,16 16.5,16 h -2.085937 l 0.292968,-0.292969 a 1,1 0 0 0 0,-1.414062 1,1 0 0 0 -1.414062,0 l -2,2 A 1,1 0 0 0 11,17 a 1,1 0 0 0 0.292969,0.707031 l 2,2 a 1,1 0 0 0 1.414062,0 1,1 0 0 0 0,-1.414062 L 14.414063,18 H 16.5 c 0.616657,0 1.403312,-0.15242 2.146484,-0.6875 C 19.389657,16.77742 20,15.777782 20,14.5 20,13.166668 19.232248,12.148724 18.388672,11.642578 17.545096,11.136433 16.666666,11 16,11 Z m 0,5 a 1,1 0 0 0 -1,1 1,1 0 0 0 1,1 h 4 a 1,1 0 0 0 1,-1 1,1 0 0 0 -1,-1 z"
   id="path2" />
<path
   id="_StrokeToPathSelectorObject" />
d=&quot;M0 0 H 0&quot;/&gt;
    </svg>
