<?xml version="1.0" encoding="UTF-8" standalone="no"?>
<svg
   width="24"
   height="24"
   viewBox="0 0 24 24"
   fill="none"
   version="1.1"
   id="svg5"
   sodipodi:docname="timer-line.svg"
   inkscape:version="1.1.1 (c3084ef, 2021-09-22)"
   xmlns:inkscape="http://www.inkscape.org/namespaces/inkscape"
   xmlns:sodipodi="http://sodipodi.sourceforge.net/DTD/sodipodi-0.dtd"
   xmlns="http://www.w3.org/2000/svg"
   xmlns:svg="http://www.w3.org/2000/svg"><defs
   id="defs9" />
<sodipodi:namedview
   id="namedview7"
   pagecolor="#ffffff"
   bordercolor="#666666"
   borderopacity="1.0"
   inkscape:pageshadow="2"
   inkscape:pageopacity="0.0"
   inkscape:pagecheckerboard="0"
   showgrid="false"
   inkscape:zoom="32.75"
   inkscape:cx="11.984733"
   inkscape:cy="12"
   inkscape:window-width="1296"
   inkscape:window-height="1067"
   inkscape:window-x="0"
   inkscape:window-y="25"
   inkscape:window-maximized="0"
   inkscape:current-layer="svg5" />
<path
   style="color:#000000;fill:#000000;stroke-linecap:round;stroke-linejoin:round;-inkscape-stroke:none"
   d="M 9,2 A 1,1 0 0 0 8,3 1,1 0 0 0 9,4 h 6 A 1,1 0 0 0 16,3 1,1 0 0 0 15,2 Z m 3,3 c -4.9587146,0 -9,4.0412854 -9,9 0,4.958732 4.0412884,9 9,9 4.958729,0 9,-4.041271 9,-9 0,-2.113504 -0.841957,-3.981314 -2.066406,-5.5195312 l 0.773437,-0.7734376 a 1,1 0 0 0 0,-1.4140625 1,1 0 0 0 -1.414062,0 L 17.519531,7.0664062 C 15.981283,5.8419558 14.113512,5 12,5 Z m 0,2 c 1.938873,0 3.681241,0.7828738 4.949219,2.0507813 C 18.217072,10.318643 19,12.061118 19,14 19,17.877862 15.877862,21 12,21 8.1221604,21 5,17.877859 5,14 5,10.122163 8.1221634,7 12,7 Z m 0,2 a 1,1 0 0 0 -1,1 v 4 a 1,1 0 0 0 1,1 1,1 0 0 0 1,-1 V 10 A 1,1 0 0 0 12,9 Z"
   id="path2" />
<path
   id="_StrokeToPathSelectorObject" />
d=&quot;M0 0 H 0&quot;/&gt;
    </svg>
