<?xml version="1.0" encoding="UTF-8" standalone="no"?>
<svg
   width="24"
   height="24"
   viewBox="0 0 24 24"
   fill="none"
   version="1.1"
   id="svg7"
   sodipodi:docname="tooltips-2-line.svg"
   inkscape:version="1.1.1 (c3084ef, 2021-09-22)"
   xmlns:inkscape="http://www.inkscape.org/namespaces/inkscape"
   xmlns:sodipodi="http://sodipodi.sourceforge.net/DTD/sodipodi-0.dtd"
   xmlns="http://www.w3.org/2000/svg"
   xmlns:svg="http://www.w3.org/2000/svg"><defs
   id="defs11" />
<sodipodi:namedview
   id="namedview9"
   pagecolor="#ffffff"
   bordercolor="#666666"
   borderopacity="1.0"
   inkscape:pageshadow="2"
   inkscape:pageopacity="0.0"
   inkscape:pagecheckerboard="0"
   showgrid="false"
   inkscape:zoom="32.75"
   inkscape:cx="11.984733"
   inkscape:cy="12"
   inkscape:window-width="1296"
   inkscape:window-height="1067"
   inkscape:window-x="0"
   inkscape:window-y="25"
   inkscape:window-maximized="0"
   inkscape:current-layer="svg7" />
<path
   style="color:#000000;fill:#000000;stroke-linecap:round;stroke-linejoin:round;-inkscape-stroke:none"
   d="m 12,9 c -1.645005,0 -3,1.354995 -3,3 v 6 c 0,1.645005 1.354995,3 3,3 h 0.929688 c 0.335515,0 0.645972,0.1662 0.832031,0.445312 l 0.574219,0.861329 c 0.772034,1.157954 2.556197,1.158086 3.328124,0 l 0.574219,-0.861329 C 18.42434,21.1662 18.734797,21 19.070312,21 H 20 c 1.645005,0 3,-1.354995 3,-3 V 12 C 23,10.354995 21.645005,9 20,9 Z m 0,2 h 8 c 0.564193,0 1,0.435807 1,1 v 6 c 0,0.564193 -0.435807,1 -1,1 h -0.929688 c -1.001882,0 -1.940352,0.502251 -2.496093,1.335937 L 16,21.197266 15.425781,20.335937 C 14.87004,19.502251 13.93157,19 12.929688,19 H 12 c -0.564193,0 -1,-0.435807 -1,-1 v -6 c 0,-0.564193 0.435807,-1 1,-1 z"
   id="path2" />
<path
   style="color:#000000;fill:#000000;stroke-linecap:round;stroke-linejoin:round;-inkscape-stroke:none"
   d="M 4,1 C 2.3549921,1 1,2.3549921 1,4 v 6 c 0,1.645023 1.3550102,3 3,3 h 0.9296875 c 0.3355309,0 0.6459174,0.166139 0.8320312,0.445313 l 0.40625,0.609375 a 1,1 0 0 0 1.3867188,0.277343 1,1 0 0 0 0.2773437,-1.386718 l -0.40625,-0.609375 C 6.8700358,11.502312 5.9315753,11 4.9296875,11 H 4 C 3.435852,11 3,10.564175 3,10 V 4 C 3,3.4358701 3.4358701,3 4,3 h 8 c 0.564175,0 1,0.435852 1,1 v 3 a 1,1 0 0 0 1,1 1,1 0 0 0 1,-1 V 4 C 15,2.3550102 13.645023,1 12,1 Z"
   id="path4" />
<path
   id="_StrokeToPathSelectorObject" />
d=&quot;M0 0 H 0&quot;/&gt;
    </svg>
