<?xml version="1.0" encoding="UTF-8" standalone="no"?>
<svg
   width="24"
   height="24"
   viewBox="0 0 24 24"
   fill="none"
   version="1.1"
   id="svg5"
   sodipodi:docname="undo-line.svg"
   inkscape:version="1.1.1 (c3084ef, 2021-09-22)"
   xmlns:inkscape="http://www.inkscape.org/namespaces/inkscape"
   xmlns:sodipodi="http://sodipodi.sourceforge.net/DTD/sodipodi-0.dtd"
   xmlns="http://www.w3.org/2000/svg"
   xmlns:svg="http://www.w3.org/2000/svg"><defs
   id="defs9" />
<sodipodi:namedview
   id="namedview7"
   pagecolor="#ffffff"
   bordercolor="#666666"
   borderopacity="1.0"
   inkscape:pageshadow="2"
   inkscape:pageopacity="0.0"
   inkscape:pagecheckerboard="0"
   showgrid="false"
   inkscape:zoom="32.75"
   inkscape:cx="11.984733"
   inkscape:cy="12"
   inkscape:window-width="1296"
   inkscape:window-height="1067"
   inkscape:window-x="0"
   inkscape:window-y="25"
   inkscape:window-maximized="0"
   inkscape:current-layer="svg5" />
<path
   style="color:#000000;fill:#000000;stroke-linecap:round;stroke-linejoin:round;-inkscape-stroke:none"
   d="M 12,7 C 9.3986641,7 6.757501,8.6148899 5,11.058594 V 9 A 1,1 0 0 0 4,8 1,1 0 0 0 3,9 v 5 a 1.0001,1.0001 0 0 0 1,1 H 9 A 1,1 0 0 0 10,14 1,1 0 0 0 9,13 H 6.1679687 C 7.5692731,10.635764 10.069663,9 12,9 c 2.06446,0 3.641895,0.7491515 4.824219,2 1.182324,1.250849 1.952905,3.039993 2.18164,5.109375 a 1,1 0 0 0 1.103516,0.884766 1,1 0 0 0 0.884766,-1.103516 C 20.725477,13.460012 19.812517,11.249149 18.277344,9.625 16.74217,8.0008514 14.568136,7 12,7 Z"
   id="path2" />
<path
   id="_StrokeToPathSelectorObject" />
d=&quot;M0 0 H 0&quot;/&gt;
    </svg>
