<?xml version="1.0" encoding="UTF-8" standalone="no"?>
<svg
   width="24"
   height="24"
   viewBox="0 0 24 24"
   fill="none"
   version="1.1"
   id="svg5"
   sodipodi:docname="unlock-open-line.svg"
   inkscape:version="1.1.1 (c3084ef, 2021-09-22)"
   xmlns:inkscape="http://www.inkscape.org/namespaces/inkscape"
   xmlns:sodipodi="http://sodipodi.sourceforge.net/DTD/sodipodi-0.dtd"
   xmlns="http://www.w3.org/2000/svg"
   xmlns:svg="http://www.w3.org/2000/svg"><defs
   id="defs9" />
<sodipodi:namedview
   id="namedview7"
   pagecolor="#ffffff"
   bordercolor="#666666"
   borderopacity="1.0"
   inkscape:pageshadow="2"
   inkscape:pageopacity="0.0"
   inkscape:pagecheckerboard="0"
   showgrid="false"
   inkscape:zoom="32.75"
   inkscape:cx="11.984733"
   inkscape:cy="12"
   inkscape:window-width="1296"
   inkscape:window-height="1067"
   inkscape:window-x="0"
   inkscape:window-y="25"
   inkscape:window-maximized="0"
   inkscape:current-layer="svg5" />
<path
   style="color:#000000;fill:#000000;stroke-linecap:round;stroke-linejoin:round;-inkscape-stroke:none"
   d="M 12,2 C 10.122224,2 8.7483638,2.8603449 7.9882812,3.9160156 7.2281987,4.9716863 7,6.1333354 7,7 V 9 H 6 C 4.3550102,9 3,10.354977 3,12 v 7 c 0,1.645023 1.3550102,3 3,3 h 12 c 1.645005,0 3,-1.354995 3,-3 V 12 C 21,10.354995 19.645005,9 18,9 H 16 9 V 7 C 9,6.533336 9.1714119,5.6949795 9.6113281,5.0839844 10.051244,4.4729893 10.677779,4 12,4 c 1.573345,0 2.200358,0.6560239 2.611328,1.4492187 a 1,1 0 0 0 1.34961,0.4277344 1,1 0 0 0 0.427734,-1.3476562 C 15.716243,3.2314739 14.234451,2 12,2 Z m -6,9 h 2 8 2 c 0.564193,0 1,0.435807 1,1 v 7 c 0,0.564193 -0.435807,1 -1,1 H 6 C 5.435852,20 5,19.564175 5,19 v -7 c 0,-0.564175 0.435852,-1 1,-1 z m 6,2 a 1,1 0 0 0 -1,1 v 3 a 1,1 0 0 0 1,1 1,1 0 0 0 1,-1 v -3 a 1,1 0 0 0 -1,-1 z"
   id="path2" />
<path
   id="_StrokeToPathSelectorObject" />
d=&quot;M0 0 H 0&quot;/&gt;
    </svg>
