<?xml version="1.0" encoding="UTF-8" standalone="no"?>
<svg
   width="24"
   height="24"
   viewBox="0 0 24 24"
   fill="none"
   version="1.1"
   id="svg7"
   sodipodi:docname="usb-line.svg"
   inkscape:version="1.1.1 (c3084ef, 2021-09-22)"
   xmlns:inkscape="http://www.inkscape.org/namespaces/inkscape"
   xmlns:sodipodi="http://sodipodi.sourceforge.net/DTD/sodipodi-0.dtd"
   xmlns="http://www.w3.org/2000/svg"
   xmlns:svg="http://www.w3.org/2000/svg"><defs
   id="defs11" />
<sodipodi:namedview
   id="namedview9"
   pagecolor="#ffffff"
   bordercolor="#666666"
   borderopacity="1.0"
   inkscape:pageshadow="2"
   inkscape:pageopacity="0.0"
   inkscape:pagecheckerboard="0"
   showgrid="false"
   inkscape:zoom="32.75"
   inkscape:cx="11.984733"
   inkscape:cy="12"
   inkscape:window-width="1296"
   inkscape:window-height="1067"
   inkscape:window-x="0"
   inkscape:window-y="25"
   inkscape:window-maximized="0"
   inkscape:current-layer="svg7" />
<path
   style="color:#000000;fill:#000000;stroke-linecap:round;stroke-linejoin:round;-inkscape-stroke:none"
   d="M 8,2 C 6.9072706,2 6,2.9072706 6,4 v 6 c 0,1.09273 0.9072947,2 2,2 h 8 c 1.092706,0 2,-0.907294 2,-2 V 4 C 18,2.9072947 17.09273,2 16,2 Z m 0,2 h 8 v 6 H 8 Z m 2,1 A 1,1 0 0 0 9,6 v 1 a 1,1 0 0 0 1,1 1,1 0 0 0 1,-1 V 6 A 1,1 0 0 0 10,5 Z m 4,0 a 1,1 0 0 0 -1,1 v 1 a 1,1 0 0 0 1,1 1,1 0 0 0 1,-1 V 6 A 1,1 0 0 0 14,5 Z"
   id="path2" />
<path
   style="color:#000000;fill:#000000;stroke-linecap:round;stroke-linejoin:round;-inkscape-stroke:none"
   d="m 6,10 c -1.0927053,0 -2,0.90727 -2,2 v 3 c 0,2.749547 2.2504111,5 5,5 v 1 a 1,1 0 0 0 1,1 1,1 0 0 0 1,-1 v -1 h 2 v 1 a 1,1 0 0 0 1,1 1,1 0 0 0 1,-1 v -1 c 2.749559,0 5,-2.250441 5,-5 v -3 c 0,-1.092706 -0.907294,-2 -2,-2 z m 0,2 h 12 v 3 c 0,1.668637 -1.331363,3 -3,3 H 14 10 9 C 7.3313133,18 6,16.668649 6,15 Z"
   id="path4" />
<path
   id="_StrokeToPathSelectorObject" />
d=&quot;M0 0 H 0&quot;/&gt;
    </svg>
