<?xml version="1.0" encoding="UTF-8" standalone="no"?>
<svg
   width="24"
   height="24"
   viewBox="0 0 24 24"
   fill="none"
   version="1.1"
   id="svg9"
   sodipodi:docname="user-line.svg"
   inkscape:version="1.1.1 (c3084ef, 2021-09-22)"
   xmlns:inkscape="http://www.inkscape.org/namespaces/inkscape"
   xmlns:sodipodi="http://sodipodi.sourceforge.net/DTD/sodipodi-0.dtd"
   xmlns="http://www.w3.org/2000/svg"
   xmlns:svg="http://www.w3.org/2000/svg"><defs
   id="defs13" />
<sodipodi:namedview
   id="namedview11"
   pagecolor="#ffffff"
   bordercolor="#666666"
   borderopacity="1.0"
   inkscape:pageshadow="2"
   inkscape:pageopacity="0.0"
   inkscape:pagecheckerboard="0"
   showgrid="false"
   inkscape:zoom="32.75"
   inkscape:cx="11.984733"
   inkscape:cy="12"
   inkscape:window-width="1296"
   inkscape:window-height="1067"
   inkscape:window-x="0"
   inkscape:window-y="25"
   inkscape:window-maximized="0"
   inkscape:current-layer="svg9" />
<path
   style="color:#000000;fill:#000000;stroke-linecap:round;stroke-linejoin:round;-inkscape-stroke:none"
   d="M 12,2 C 8.6981394,2 6,4.6981394 6,8 c 0,3.301861 2.6981394,6 6,6 3.301861,0 6,-2.698139 6,-6 0,-3.3018606 -2.698139,-6 -6,-6 z m 0,2 c 2.220981,0 4,1.7790186 4,4 0,2.220981 -1.779019,4 -4,4 C 9.7790186,12 8,10.220981 8,8 8,5.7790186 9.7790186,4 12,4 Z"
   id="circle2" />
<path
   style="color:#000000;fill:#000000;stroke-linecap:round;stroke-linejoin:round;-inkscape-stroke:none"
   d="m 12,12 c -4.9587116,0 -9,4.041268 -9,9 a 1,1 0 0 0 1,1 1,1 0 0 0 1,-1 c 0,-3.877859 3.1221604,-7 7,-7 3.877862,0 7,3.122138 7,7 a 1,1 0 0 0 1,1 1,1 0 0 0 1,-1 c 0,-4.958729 -4.041271,-9 -9,-9 z"
   id="path4" />
<path
   style="color:#000000;fill:#000000;stroke-linecap:round;stroke-linejoin:round;-inkscape-stroke:none"
   d="m 12,12 c -4.9587116,0 -9,4.041268 -9,9 a 1,1 0 0 0 1,1 1,1 0 0 0 1,-1 c 0,-3.877859 3.1221604,-7 7,-7 3.877862,0 7,3.122138 7,7 a 1,1 0 0 0 1,1 1,1 0 0 0 1,-1 c 0,-4.958729 -4.041271,-9 -9,-9 z"
   id="path6" />
<path
   id="_StrokeToPathSelectorObject" />
d=&quot;M0 0 H 0&quot;/&gt;
    </svg>
