<?xml version="1.0" encoding="UTF-8" standalone="no"?>
<svg
   width="24"
   height="24"
   viewBox="0 0 24 24"
   fill="none"
   version="1.1"
   id="svg9"
   sodipodi:docname="user-box-line.svg"
   inkscape:version="1.1.1 (c3084ef, 2021-09-22)"
   xmlns:inkscape="http://www.inkscape.org/namespaces/inkscape"
   xmlns:sodipodi="http://sodipodi.sourceforge.net/DTD/sodipodi-0.dtd"
   xmlns="http://www.w3.org/2000/svg"
   xmlns:svg="http://www.w3.org/2000/svg"><defs
   id="defs13" />
<sodipodi:namedview
   id="namedview11"
   pagecolor="#ffffff"
   bordercolor="#666666"
   borderopacity="1.0"
   inkscape:pageshadow="2"
   inkscape:pageopacity="0.0"
   inkscape:pagecheckerboard="0"
   showgrid="false"
   inkscape:zoom="32.75"
   inkscape:cx="11.984733"
   inkscape:cy="12"
   inkscape:window-width="1296"
   inkscape:window-height="1067"
   inkscape:window-x="0"
   inkscape:window-y="25"
   inkscape:window-maximized="0"
   inkscape:current-layer="svg9" />
<path
   style="color:#000000;fill:#000000;stroke-linecap:round;stroke-linejoin:round;-inkscape-stroke:none"
   d="m 12,6 c -2.1972922,0 -4,1.8027078 -4,4 0,2.197292 1.8027078,4 4,4 2.197292,0 4,-1.802708 4,-4 0,-2.1972922 -1.802708,-4 -4,-4 z m 0,2 c 1.116413,0 2,0.883587 2,2 0,1.116413 -0.883587,2 -2,2 -1.116413,0 -2,-0.883587 -2,-2 0,-1.116413 0.883587,-2 2,-2 z"
   id="circle2" />
<path
   style="color:#000000;fill:#000000;stroke-linecap:round;stroke-linejoin:round;-inkscape-stroke:none"
   d="m 12,12 c -3.1937789,0 -6,2.11534 -6,5 a 1,1 0 0 0 1,1 1,1 0 0 0 1,-1 c 0,-1.533535 1.6709444,-3 4,-3 2.329032,0 4,1.466471 4,3 a 1,1 0 0 0 1,1 1,1 0 0 0 1,-1 c 0,-2.884666 -2.806238,-5 -6,-5 z"
   id="path4" />
<path
   style="color:#000000;fill:#000000;stroke-linecap:round;stroke-linejoin:round;-inkscape-stroke:none"
   d="M 6,2 C 3.8012994,2 2,3.8012994 2,6 v 12 c 0,2.198701 1.8012994,4 4,4 h 12 c 2.198701,0 4,-1.801299 4,-4 V 6 C 22,3.8012994 20.198701,2 18,2 Z m 0,2 h 12 c 1.125296,0 2,0.8747039 2,2 v 12 c 0,1.125296 -0.874704,2 -2,2 H 6 C 4.8747039,20 4,19.125296 4,18 V 6 C 4,4.8747039 4.8747039,4 6,4 Z"
   id="rect6" />
<path
   id="_StrokeToPathSelectorObject" />
d=&quot;M0 0 H 0&quot;/&gt;
    </svg>
