<?xml version="1.0" encoding="UTF-8" standalone="no"?>
<svg
   width="24"
   height="24"
   viewBox="0 0 24 24"
   fill="none"
   version="1.1"
   id="svg7"
   sodipodi:docname="ux-circle-line.svg"
   inkscape:version="1.1.1 (c3084ef, 2021-09-22)"
   xmlns:inkscape="http://www.inkscape.org/namespaces/inkscape"
   xmlns:sodipodi="http://sodipodi.sourceforge.net/DTD/sodipodi-0.dtd"
   xmlns="http://www.w3.org/2000/svg"
   xmlns:svg="http://www.w3.org/2000/svg"><defs
   id="defs11" />
<sodipodi:namedview
   id="namedview9"
   pagecolor="#ffffff"
   bordercolor="#666666"
   borderopacity="1.0"
   inkscape:pageshadow="2"
   inkscape:pageopacity="0.0"
   inkscape:pagecheckerboard="0"
   showgrid="false"
   inkscape:zoom="32.75"
   inkscape:cx="11.984733"
   inkscape:cy="12"
   inkscape:window-width="1296"
   inkscape:window-height="1067"
   inkscape:window-x="0"
   inkscape:window-y="25"
   inkscape:window-maximized="0"
   inkscape:current-layer="svg7" />
<path
   style="color:#000000;fill:#000000;stroke-linecap:round;stroke-linejoin:round;-inkscape-stroke:none"
   d="m 7,9 a 1,1 0 0 0 -1,1 v 2 c 0,0.533339 0.1278038,1.194981 0.5878906,1.833984 C 7.0479774,14.472987 7.9222302,15 9,15 10.07777,15 10.952023,14.472987 11.412109,13.833984 11.872196,13.194981 12,12.533339 12,12 v -2 a 1,1 0 0 0 -1,-1 1,1 0 0 0 -1,1 v 2 c 0,0.13336 -0.071025,0.471695 -0.2109375,0.666016 C 9.6491499,12.860337 9.5222286,13 9,13 8.4777714,13 8.3508501,12.860337 8.2109375,12.666016 8.0710249,12.471695 8,12.13336 8,12 V 10 A 1,1 0 0 0 7,9 Z m 7.140625,0.00977 A 1,1 0 0 0 13.400391,9.1992188 1,1 0 0 0 13.199219,10.599609 L 14.25,12 13.199219,13.400391 a 1,1 0 0 0 0.201172,1.40039 1,1 0 0 0 1.40039,-0.201172 L 15.5,13.667969 l 0.699219,0.93164 a 1,1 0 0 0 1.40039,0.201172 1,1 0 0 0 0.201172,-1.40039 L 16.75,12 17.800781,10.599609 A 1,1 0 0 0 17.599609,9.1992188 1,1 0 0 0 16.199219,9.4003906 L 15.5,10.332031 14.800781,9.4003906 a 1,1 0 0 0 -0.660156,-0.390625 z"
   id="path2" />
<path
   style="color:#000000;fill:#000000;stroke-linecap:round;stroke-linejoin:round;-inkscape-stroke:none"
   d="M 12,1 C 5.9367185,1 1,5.9367185 1,12 1,18.063282 5.9367185,23 12,23 18.063282,23 23,18.063282 23,12 23,5.9367185 18.063282,1 12,1 Z m 0,2 c 4.982402,0 9,4.0175976 9,9 0,4.982402 -4.017598,9 -9,9 C 7.0175976,21 3,16.982402 3,12 3,7.0175976 7.0175976,3 12,3 Z"
   id="circle4" />
<path
   id="_StrokeToPathSelectorObject" />
d=&quot;M0 0 H 0&quot;/&gt;
    </svg>
