<?xml version="1.0" encoding="UTF-8" standalone="no"?>
<svg
   width="24"
   height="24"
   viewBox="0 0 24 24"
   fill="none"
   version="1.1"
   id="svg5"
   sodipodi:docname="video-line.svg"
   inkscape:version="1.1.1 (c3084ef, 2021-09-22)"
   xmlns:inkscape="http://www.inkscape.org/namespaces/inkscape"
   xmlns:sodipodi="http://sodipodi.sourceforge.net/DTD/sodipodi-0.dtd"
   xmlns="http://www.w3.org/2000/svg"
   xmlns:svg="http://www.w3.org/2000/svg"><defs
   id="defs9" />
<sodipodi:namedview
   id="namedview7"
   pagecolor="#ffffff"
   bordercolor="#666666"
   borderopacity="1.0"
   inkscape:pageshadow="2"
   inkscape:pageopacity="0.0"
   inkscape:pagecheckerboard="0"
   showgrid="false"
   inkscape:zoom="32.75"
   inkscape:cx="11.984733"
   inkscape:cy="12"
   inkscape:window-width="1296"
   inkscape:window-height="1067"
   inkscape:window-x="0"
   inkscape:window-y="25"
   inkscape:window-maximized="0"
   inkscape:current-layer="svg5" />
<path
   style="color:#000000;fill:#000000;stroke-linecap:round;stroke-linejoin:round;-inkscape-stroke:none"
   d="M 5,5 C 3.3549921,5 2,6.3549921 2,8 v 8 c 0,1.645023 1.3550102,3 3,3 h 10 c 1.645005,0 3,-1.354995 3,-3 v -1.585937 l 2.292969,2.292968 A 1.0001,1.0001 0 0 0 22,16 V 8 A 1.0001,1.0001 0 0 0 20.292969,7.2929687 L 18,9.5859375 V 8 C 18,6.3550102 16.645023,5 15,5 Z m 0,2 h 10 c 0.564175,0 1,0.435852 1,1 v 4 4 c 0,0.564193 -0.435807,1 -1,1 H 5 C 4.435852,17 4,16.564175 4,16 V 8 C 4,7.4358701 4.4358701,7 5,7 Z m 15,3.414063 v 3.171875 L 18.414062,12 Z"
   id="path2" />
<path
   id="_StrokeToPathSelectorObject" />
d=&quot;M0 0 H 0&quot;/&gt;
    </svg>
