<?xml version="1.0" encoding="UTF-8" standalone="no"?>
<svg
   width="24"
   height="24"
   viewBox="0 0 24 24"
   fill="none"
   version="1.1"
   id="svg9"
   sodipodi:docname="watch-line.svg"
   inkscape:version="1.1.1 (c3084ef, 2021-09-22)"
   xmlns:inkscape="http://www.inkscape.org/namespaces/inkscape"
   xmlns:sodipodi="http://sodipodi.sourceforge.net/DTD/sodipodi-0.dtd"
   xmlns="http://www.w3.org/2000/svg"
   xmlns:svg="http://www.w3.org/2000/svg"><defs
   id="defs13" />
<sodipodi:namedview
   id="namedview11"
   pagecolor="#ffffff"
   bordercolor="#666666"
   borderopacity="1.0"
   inkscape:pageshadow="2"
   inkscape:pageopacity="0.0"
   inkscape:pagecheckerboard="0"
   showgrid="false"
   inkscape:zoom="32.75"
   inkscape:cx="11.984733"
   inkscape:cy="12"
   inkscape:window-width="1296"
   inkscape:window-height="1067"
   inkscape:window-x="0"
   inkscape:window-y="25"
   inkscape:window-maximized="0"
   inkscape:current-layer="svg9" />
<path
   style="color:#000000;fill:#000000;stroke-linecap:round;stroke-linejoin:round;-inkscape-stroke:none"
   d="m 12,5 c -3.8541457,0 -7,3.1458543 -7,7 0,3.854137 3.1458523,7 7,7 3.854139,0 7,-3.145861 7,-7 0,-3.8541477 -3.145863,-7 -7,-7 z m 0,2 c 2.773256,0 5,2.2267344 5,5 0,2.773254 -2.226746,5 -5,5 C 9.2267344,17 7,14.773256 7,12 7,9.2267323 9.2267323,7 12,7 Z m 0,1 a 1,1 0 0 0 -1,1 v 3 a 1.0001,1.0001 0 0 0 0.552734,0.894531 l 2,1 a 1,1 0 0 0 1.341797,-0.447265 1,1 0 0 0 -0.447265,-1.341797 L 13,11.382813 V 9 A 1,1 0 0 0 12,8 Z"
   id="path2" />
<path
   style="color:#000000;fill:#000000;stroke-linecap:round;stroke-linejoin:round;-inkscape-stroke:none"
   d="M 10,1 C 8.9072706,1 8,1.9072706 8,3 v 3.5 a 1,1 0 0 0 1,1 1,1 0 0 0 1,-1 V 3 h 4 v 3.5 a 1,1 0 0 0 1,1 1,1 0 0 0 1,-1 V 3 C 16,1.9072947 15.09273,1 14,1 Z"
   id="path4" />
<path
   style="color:#000000;fill:#000000;stroke-linecap:round;stroke-linejoin:round;-inkscape-stroke:none"
   d="m 9,16.5 a 1,1 0 0 0 -1,1 V 21 c 0,1.09273 0.9072947,2 2,2 h 4 c 1.092706,0 2,-0.907294 2,-2 v -3.5 a 1,1 0 0 0 -1,-1 1,1 0 0 0 -1,1 V 21 h -4 v -3.5 a 1,1 0 0 0 -1,-1 z"
   id="path6" />
<path
   id="_StrokeToPathSelectorObject" />
d=&quot;M0 0 H 0&quot;/&gt;
    </svg>
